<?xml version="1.0" encoding="UTF-8"?>
<svg width="539px" height="571px" viewBox="0 0 539 571" version="1.1" xmlns="http://www.w3.org/2000/svg" xmlns:xlink="http://www.w3.org/1999/xlink">
    <!-- Generator: Sketch 48.2 (47327) - http://www.bohemiancoding.com/sketch -->
    <title>arch-graph</title>
    <desc>Created with Sketch.</desc>
    <defs>
        <linearGradient x1="50%" y1="0%" x2="50%" y2="98.2621173%" id="linearGradient-1">
            <stop stop-color="#168FFA" offset="0%"></stop>
            <stop stop-color="#036DD5" offset="100%"></stop>
        </linearGradient>
        <polygon id="path-2" points="0 123.823932 124.321354 123.823932 124.321354 0 0 0"></polygon>
        <polygon id="path-4" points="7.82603366e-05 0.246847584 26.4738261 0.246847584 26.4738261 22.4913771 7.82603366e-05 22.4913771"></polygon>
        <polygon id="path-6" points="0.0759782609 17.6319703 18.0743478 17.6319703 18.0743478 0.140043556 0.0759782609 0.140043556 0.0759782609 17.6319703"></polygon>
        <polygon id="path-8" points="7.82603366e-05 0.246847584 26.4738261 0.246847584 26.4738261 22.4913771 7.82603366e-05 22.4913771"></polygon>
        <polygon id="path-10" points="0.0759782609 17.6319703 18.0743478 17.6319703 18.0743478 0.140043556 0.0759782609 0.140043556 0.0759782609 17.6319703"></polygon>
        <ellipse id="path-12" cx="385.108696" cy="110.036555" rx="109.891304" ry="110.036555"></ellipse>
        <filter x="-30.7%" y="-30.7%" width="161.4%" height="161.3%" filterUnits="objectBoundingBox" id="filter-13">
            <feOffset dx="0" dy="0" in="SourceAlpha" result="shadowOffsetOuter1"></feOffset>
            <feGaussianBlur stdDeviation="22.5" in="shadowOffsetOuter1" result="shadowBlurOuter1"></feGaussianBlur>
            <feColorMatrix values="0 0 0 0 0   0 0 0 0 0   0 0 0 0 0  0 0 0 0.5 0" type="matrix" in="shadowBlurOuter1"></feColorMatrix>
        </filter>
        <polygon id="path-14" points="142.049859 0.115938572 142.049859 142.307272 0 142.307272 0 0.115938572"></polygon>
    </defs>
    <g id="White-Landing--Copy-7" stroke="none" stroke-width="1" fill="none" fill-rule="evenodd" transform="translate(-593.000000, -2523.000000)">
        <g id="Group-16" transform="translate(-264.000000, 2290.000000)">
            <g id="Group-12">
                <g id="Group-13">
                    <g id="arch-graph" transform="translate(857.000000, 277.000000)">
                        <g id="Group">
                            <path d="M267.28176,301.974881 L255.507077,301.974881 C255.507077,301.974881 207.730129,298.241557 207.730129,337.273367 C207.730129,376.305178 207.730129,603.810801 207.730129,603.810801" id="Path-17-Copy-2" stroke="#A8D1F8" stroke-width="48" transform="translate(237.505944, 452.844708) rotate(-90.000000) translate(-237.505944, -452.844708) "></path>
                            <ellipse id="Oval" fill="url(#linearGradient-1)" cx="403.043478" cy="434.921933" rx="91.9565217" ry="92.0780669"></ellipse>
                            <g id="Page-1" transform="translate(341.086957, 372.883519)">
                                <path d="M44.8241219,86.7476687 C44.8633613,86.8672672 44.8778456,86.9536731 44.917875,87.0261171 C45.4527418,87.9966034 46.2809819,88.4439122 47.384161,88.4428585 C54.3358482,88.4378533 61.2875354,88.4404876 68.2394859,88.4402242 C71.5361189,88.4402242 74.8327519,88.4217839 78.1291215,88.4491809 C79.1198495,88.4576107 80.4155384,87.6657319 80.5237759,86.7476687 L44.8241219,86.7476687 Z M70.8245434,84.9747663 C69.920458,82.9392214 69.0445512,80.9669003 68.1775984,79.0143368 C68.1072835,78.9977405 68.0725211,78.982198 68.0380221,78.982198 C64.5441389,78.9793002 61.0505191,78.9735047 57.5566359,78.9898375 C57.4017853,78.9906278 57.1726696,79.1594882 57.1049883,79.3078008 C56.2949193,81.081757 55.5082887,82.8665139 54.7179711,84.6496903 C54.6768883,84.7421551 54.6571369,84.8443671 54.6173709,84.9747663 L70.8245434,84.9747663 Z M86.7791619,72.9817267 L38.6250931,72.9817267 C38.6250931,73.6727108 38.5653123,74.3386688 38.6390507,74.9896111 C38.7478148,75.9461354 39.2745176,76.6718927 40.1820266,77.0227851 C40.6020721,77.1853231 41.0863754,77.2438052 41.5417099,77.2443321 C51.376305,77.2561865 61.2106368,77.2532888 71.0452319,77.2530253 C75.3981673,77.2530253 79.7511028,77.2561865 84.1040383,77.2514448 C85.5332464,77.2498642 86.6769816,76.2509271 86.7717881,74.9005708 C86.8152411,74.2783427 86.7791619,73.6508459 86.7791619,72.9817267 Z M86.7870625,71.2156735 L86.7870625,70.5296946 C86.7865358,61.3864705 86.785219,52.2432464 86.7865358,43.0997589 C86.7867991,41.3152654 85.7376071,40.2496799 83.9586683,40.2494165 C69.7819352,40.2486262 55.6054653,40.2486262 41.4287322,40.2496799 C39.6774453,40.2499434 38.6113988,41.3123677 38.6111354,43.0586634 C38.6098187,52.2556278 38.6103454,61.4525921 38.6103454,70.6495565 L38.6103454,71.2156735 L86.7870625,71.2156735 Z M70.0460766,78.9740315 C70.5962177,80.2119021 71.1039592,81.352039 71.6098573,82.4932297 C71.907181,83.1639295 72.2210959,83.8283069 72.4899777,84.5103343 C72.6337676,84.8751887 72.8223272,85.0113834 73.2344721,85.0079588 C75.9401445,84.9860939 78.6460803,84.9976849 81.352016,84.9982118 C82.2384569,84.9984752 82.5644859,85.3720229 82.4717862,86.280339 C82.2455674,88.4968622 80.3928902,90.1593863 78.1243811,90.1601766 C68.429889,90.1633378 58.7353969,90.1638647 49.0409047,90.1572789 C48.1473534,90.156752 47.2382643,90.1949498 46.3634109,90.0511155 C44.5088903,89.7463238 43.1107577,88.149131 42.9261483,86.2758607 C42.8342387,85.344099 43.1513138,84.9987387 44.1025391,84.9984752 C46.8084748,84.9976849 49.5141472,84.9976849 52.220083,84.9987387 C52.4697401,84.9987387 52.6809479,85.0192864 52.8178907,84.7018499 C53.6116318,82.8615087 54.434605,81.0338123 55.2457273,79.2008471 C55.265742,79.1555367 55.2620551,79.0994255 55.279963,78.974295 L54.6460762,78.974295 C50.2378369,78.974295 45.8295976,78.9756121 41.4213584,78.9737681 C38.72622,78.9727144 36.8911874,77.1465985 36.8906607,74.4590575 C36.8888172,63.9907667 36.8890806,53.5224759 36.8906607,43.0541851 C36.8911874,40.3658538 38.72622,38.5292006 41.4129311,38.5289372 C55.6233732,38.5273566 69.8338154,38.5270932 84.0442575,38.5289372 C86.6543333,38.5292006 88.5056938,40.3837672 88.5062205,43.0041328 C88.5091173,53.5082505 88.508854,64.0123682 88.5064838,74.5164859 C88.5059571,77.1210455 86.6416925,78.9721875 84.0242428,78.9735047 C79.6876351,78.9758756 75.3510274,78.9740315 71.0146831,78.9740315 L70.0460766,78.9740315 Z" id="Fill-1" fill="#FFFFFF"></path>
                                <path d="M68.7948414,56.2523768 C68.571256,56.0511142 68.3600482,55.8614426 68.1493671,55.6712442 C67.7345886,55.2963794 67.6571633,54.8888489 67.9363158,54.3764722 C68.1656949,53.9555066 68.3434571,53.4992411 68.4869836,53.0408681 C68.6515782,52.5155832 68.9715502,52.2740154 69.5140541,52.2942997 C69.8113778,52.3053639 70.109755,52.2964072 70.4007583,52.2964072 L70.4007583,50.5756644 C70.0926371,50.5756644 69.8248088,50.5777719 69.5569804,50.575401 C68.8925448,50.5690786 68.7026684,50.4062771 68.4753961,49.7650818 C68.3144884,49.311714 68.1214518,48.8662492 67.9047136,48.4365904 C67.6790215,47.9892816 67.7179975,47.601772 68.0866894,47.2722176 C68.3255492,47.0588371 68.5975912,46.8826006 68.7666628,46.755626 C68.2586579,46.2374538 67.8773251,45.8481002 67.429101,45.3905175 C67.2868912,45.5601682 67.1283537,45.7793442 66.9400574,45.9690158 C66.4610212,46.4516246 66.2174211,46.4671671 65.6053925,46.1739665 C65.1716527,45.966118 64.7215851,45.7867203 64.2659872,45.631295 C63.7993285,45.4719182 63.5499347,45.1845131 63.5586253,44.683464 C63.5638923,44.3665544 63.5594153,44.0496447 63.5594153,43.7279934 L61.839994,43.7279934 C61.839994,44.0317313 61.8423641,44.2985887 61.8394673,44.5654461 C61.8323568,45.231931 61.6682889,45.4268712 61.034402,45.6534234 C60.5811742,45.8151711 60.1345302,46.0051061 59.7055308,46.2232284 C59.2588868,46.4505709 58.8722869,46.4131634 58.5394107,46.0485725 C58.3234626,45.8122733 58.1433302,45.5433085 57.9984869,45.3554809 C57.489692,45.8541591 57.0999319,46.2358732 56.6332732,46.6931924 C56.8128789,46.8409782 57.0348841,46.9958767 57.2239704,47.1839677 C57.7114339,47.6681571 57.7314486,47.9147301 57.4414987,48.516674 C57.2402982,48.9347418 57.0441014,49.3617663 56.9129524,49.8048602 C56.7486212,50.3588592 56.4110046,50.5996368 55.8500661,50.579089 C55.5690702,50.5688151 55.2870208,50.577245 54.9894337,50.577245 L54.9894337,52.2971975 C55.2880742,52.2971975 55.5540592,52.2958803 55.8203074,52.2974609 C56.5037043,52.3016758 56.6906838,52.4542034 56.9137425,53.0896032 C57.0672764,53.527165 57.232661,53.967888 57.455983,54.3722573 C57.7372423,54.8812093 57.6716678,55.2966428 57.2481988,55.6651852 C57.0330407,55.8524859 56.7970778,56.0155508 56.6132585,56.1570142 C57.0978251,56.6596439 57.4759977,57.0518953 57.9466067,57.5400361 C58.1093579,57.3337683 58.2581514,57.1064258 58.4448676,56.9162274 C58.9378614,56.4141246 59.1785646,56.400426 59.8232489,56.7123304 C60.2401342,56.9141199 60.6725572,57.0924639 61.1131441,57.2347176 C61.6106149,57.3954116 61.8515814,57.7038913 61.8394673,58.2233807 C61.8323568,58.5368657 61.8381505,58.8503507 61.8381505,59.1511909 L63.5588886,59.1511909 C63.5588886,58.8574634 63.5580986,58.5921866 63.5588886,58.3269098 C63.5612588,57.622754 63.7137393,57.4433563 64.3879189,57.2054765 C64.84141,57.0453094 65.282787,56.845364 65.7149466,56.6333006 C66.1410492,56.424135 66.5200119,56.4557469 66.8373504,56.8037416 C67.0625158,57.0508415 67.2460717,57.3358758 67.4196203,57.5658526 C67.9558038,57.0537393 68.3413503,56.6854603 68.7948414,56.2523768 M53.2355133,51.4484171 C53.2355133,50.9642277 53.2341966,50.4803017 53.2357767,49.9961123 C53.2384102,49.1254671 53.5133491,48.8570291 54.4024234,48.8546582 C54.5638578,48.8543948 54.726609,48.8409597 54.8862,48.8578194 C55.2230264,48.8936463 55.4215934,48.7993373 55.5825011,48.4534501 C55.7560497,48.0799025 55.5461586,47.9336973 55.3481183,47.7348056 C54.2346686,46.6162701 54.235722,46.5140582 55.3678697,45.3807705 C55.9380255,44.8101751 56.5052844,44.236682 57.0791272,43.6700381 C57.6313751,43.1244689 58.032986,43.1302644 58.5962947,43.6818926 C58.7371877,43.819668 58.8841377,43.9529649 59.0121265,44.1020679 C59.2117469,44.3344156 59.3889824,44.4605998 59.7363429,44.3062283 C60.0655322,44.1602865 60.1255763,43.9732492 60.1247862,43.6523882 C60.1210993,42.0285886 60.1861471,41.9719506 61.8197159,41.9706334 C62.6260979,41.9698431 63.43248,41.9669454 64.2391253,41.97037 C64.9659752,41.9735312 65.2704095,42.2835916 65.2809435,43.0233107 C65.283577,43.2206219 65.2920043,43.4187233 65.2764665,43.6147173 C65.2506581,43.9421642 65.3099122,44.158179 65.6707036,44.3165021 C66.0383422,44.4774595 66.1892425,44.291476 66.3922865,44.0888962 C67.5204839,42.9658824 67.618714,42.9669361 68.745858,44.0944283 C69.3286547,44.6776684 69.9151383,45.2574839 70.4924046,45.8459927 C70.994089,46.3573157 70.9901388,46.765373 70.4931946,47.2851258 C70.3446644,47.4405512 70.1942908,47.5949228 70.03707,47.7413914 C69.8232287,47.9410734 69.6610042,48.1020308 69.8158548,48.4645143 C69.9717588,48.8304224 70.192184,48.8594 70.517423,48.8578194 C72.0711963,48.8504433 72.1617892,48.9465962 72.1617892,50.4866241 C72.1620525,51.3114321 72.1652127,52.1359766 72.1609991,52.9607846 C72.1570489,53.7052455 71.8573549,54.0081932 71.1262914,54.0176768 C70.9111333,54.0203111 70.6946585,54.0334827 70.4813438,54.0145156 C70.1658488,53.9863283 69.9683353,54.0521865 69.8240187,54.3925416 C69.6775953,54.7379019 69.8045307,54.9028108 70.0233757,55.1201429 C71.1718512,56.2608067 71.1671109,56.3524813 70.0104715,57.5094779 C69.4526932,58.0671651 68.8972851,58.6269597 68.3366099,59.1817491 C67.760397,59.752081 67.3716904,59.7473392 66.7812565,59.1714752 C66.6530044,59.0463446 66.5289659,58.9169992 66.4009771,58.7913417 C66.2029368,58.5969284 66.0604637,58.373274 65.6833445,58.549247 C65.3404609,58.7088873 65.2704095,58.9011932 65.2725163,59.2412849 C65.2825236,60.8297844 65.2000946,60.9027553 63.6110322,60.9024918 C62.786479,60.9022284 61.962189,60.9072336 61.1376358,60.9006478 C60.4336974,60.8951157 60.1295266,60.5861091 60.1179391,59.8830071 C60.1145155,59.6680459 60.0955542,59.4504505 60.1203093,59.2381237 C60.1608654,58.8911828 60.0476243,58.708097 59.7092177,58.5489836 C59.3313084,58.3709031 59.1883086,58.598509 58.9921118,58.7931858 C57.8834024,59.8930175 57.7770084,59.8945981 56.6761995,58.7997716 C56.0789185,58.2054673 55.4797941,57.6132705 54.8904136,57.0113266 C54.4087439,56.5187074 54.4092706,56.1053814 54.8754026,55.6106546 C55.0352569,55.441004 55.1943211,55.2687189 55.3705032,55.1175085 C55.6064661,54.9149287 55.7144402,54.7350042 55.5690702,54.3906976 C55.4247536,54.0490253 55.2240798,54.0105641 54.9112184,54.0121447 C53.3163622,54.0192574 53.23604,53.9336417 53.2355133,52.3625288 L53.2355133,51.4484171" id="Fill-3" fill="#FFFFFF"></path>
                                <path d="M40.3560229,55.7392098 L40.3560229,54.016623 L43.698479,54.016623 C44.5045977,54.016623 45.3133498,53.9771081 46.1152549,54.0347999 C46.456295,54.0592992 46.8557991,54.2086655 47.1025593,54.4373252 C48.0216558,55.2890033 48.9009861,56.1854649 49.767939,57.0911467 C50.0420878,57.3774981 50.321767,57.4802369 50.7075768,57.4683824 C51.5276531,57.4430929 52.3490461,57.4607429 53.2025681,57.4607429 L53.2025681,59.1759536 C52.025914,59.1759536 50.8661143,59.1972916 49.7081582,59.1577767 C49.4785158,59.1498737 49.2199047,58.9467671 49.0371388,58.7694768 C48.1111952,57.871698 47.2171172,56.9407266 46.2832731,56.0513776 C46.1023507,55.8790926 45.7963363,55.756333 45.5458891,55.7526449 C43.8298914,55.7270919 42.1131035,55.7392098 40.3560229,55.7392098" id="Fill-5" fill="#FFFFFF"></path>
                                <path d="M72.188098,57.4587408 C73.0471503,57.4587408 73.8685433,57.434505 74.6875662,57.4687512 C75.1036615,57.4864012 75.383604,57.3407229 75.6630199,57.0514738 C76.5091679,56.1752964 77.359793,55.3006997 78.2551878,54.4764186 C78.5159057,54.2361679 78.9298941,54.0467598 79.2785714,54.0380665 C81.0509264,53.9940732 82.8248615,54.0169919 84.5982699,54.016465 L85.0399102,54.016465 L85.0399102,55.7393152 L84.5319053,55.7393152 C82.9912996,55.7393152 81.4506938,55.7516965 79.9103514,55.7303585 C79.5363924,55.7250898 79.2798881,55.8412637 79.0244373,56.1049599 C78.1516907,57.0056365 77.2757839,57.9047325 76.3564241,58.756674 C76.1091371,58.9858605 75.7093697,59.146291 75.3709631,59.1631507 C74.3212444,59.2147835 73.2675754,59.1818545 72.188098,59.1818545 L72.188098,57.4587408 Z" id="Fill-7" fill="#FFFFFF"></path>
                                <path d="M72.1849114,45.4124614 L72.1849114,43.694353 C73.3673593,43.694353 74.5268955,43.6730149 75.684325,43.7122664 C75.9144941,43.7201694 76.1733686,43.9222223 76.3561344,44.0995126 C77.2823413,44.9972914 78.1766827,45.9279993 79.1100001,46.8176117 C79.2911859,46.9901602 79.5956201,47.1160811 79.8455406,47.1200325 C81.5620651,47.145849 83.2793797,47.1334676 85.0311933,47.1334676 L85.0311933,48.8563178 C84.4889527,48.8563178 83.9569829,48.8563178 83.425013,48.8560544 C82.0813941,48.8555275 80.7375119,48.8355066 79.394683,48.8642208 C78.8832546,48.875285 78.5142992,48.7061612 78.1661487,48.3452583 C77.3084131,47.4553824 76.4335597,46.5810491 75.5373749,45.7301613 C75.3559258,45.5576129 75.0543884,45.4374875 74.8023611,45.4266868 C73.9467324,45.3895428 73.0887335,45.4124614 72.1849114,45.4124614" id="Fill-9" fill="#FFFFFF"></path>
                                <path d="M53.2127861,43.6896902 L53.2127861,45.4120136 C52.3342458,45.4120136 51.462816,45.3893584 50.5940197,45.426239 C50.341729,45.4370397 50.0394016,45.5579553 49.8576891,45.7310307 C48.9367492,46.6079983 48.068743,47.5410771 47.1348989,48.4032925 C46.8752344,48.6430163 46.4575591,48.8274193 46.1080917,48.8350588 C44.2109082,48.8764178 42.3126712,48.8548163 40.3728247,48.8548163 L40.3728247,47.1338101 C40.8210488,47.1338101 41.2795436,47.1340735 41.7380384,47.1338101 C43.0097624,47.1338101 44.2820131,47.1498795 45.5532103,47.1198481 C45.8036575,47.1137892 46.107565,46.9897124 46.2887508,46.8169005 C47.2094273,45.9399328 48.0776969,45.0071174 49.010751,44.1443752 C49.2706788,43.9041245 49.6836138,43.7292051 50.0365047,43.7099746 C51.0717391,43.6530731 52.1119772,43.6896902 53.2127861,43.6896902" id="Fill-11" fill="#FFFFFF"></path>
                                <mask id="mask-3" fill="white">
                                    <use xlink:href="#path-2"></use>
                                </mask>
                                <g id="Clip-14"></g>
                                <polygon id="Fill-13" fill="#FFFFFF" mask="url(#mask-3)" points="73.9066766 52.2608437 85.0240564 52.2608437 85.0240564 50.6022711 73.9066766 50.6022711"></polygon>
                                <polygon id="Fill-15" fill="#FFFFFF" mask="url(#mask-3)" points="40.3525466 52.2721713 51.4833574 52.2721713 51.4833574 50.6101741 40.3525466 50.6101741"></polygon>
                                <path d="M70.1874173,64.1891052 C70.6933154,63.6817337 71.0696445,63.3039712 71.4580879,62.9143541 C72.3576963,63.7997516 73.2615183,64.6580155 74.1245209,65.5555309 C74.4321154,65.8756017 74.3997231,66.3084218 74.0889685,66.6284926 C73.2441371,67.4986109 72.373234,68.3434398 71.4910068,69.2198806 C71.1175745,68.7994419 70.7554663,68.391648 70.3643895,67.9514518 C70.9411291,67.410361 71.5900269,66.8013044 72.2391882,66.1919845 C71.5152351,65.4851944 70.8708142,64.856117 70.1874173,64.1891052" id="Fill-16" fill="#FFFFFF" mask="url(#mask-3)"></path>
                                <path d="M55.1370685,64.1853908 C54.4829036,64.7849638 53.8263686,65.3869076 53.1232203,66.0315276 C53.8461199,66.7032811 54.4979147,67.3086496 55.1589267,67.9227113 C54.6567156,68.3718642 54.2503643,68.7354014 53.8337424,69.1081587 C53.0355243,68.323656 52.1293321,67.4627577 51.2623792,66.5639252 C50.9708492,66.2620312 50.9895472,65.8360605 51.2847641,65.5331128 C52.1446064,64.6500862 53.0344709,63.7963007 53.9311824,62.9127472 C54.3059315,63.3084232 54.6725166,63.6951425 55.1370685,64.1853908" id="Fill-17" fill="#FFFFFF" mask="url(#mask-3)"></path>
                                <path d="M59.2398728,69.0131649 C58.7197538,68.7605329 58.2430877,68.5289755 57.6950535,68.2629084 C58.528034,66.5487515 59.3504804,64.856196 60.1979453,63.1125346 C60.7233313,63.3646397 61.2155351,63.6006755 61.7509285,63.8575224 C60.9108375,65.5827435 60.0849675,67.2781968 59.2398728,69.0131649" id="Fill-18" fill="#FFFFFF" mask="url(#mask-3)"></path>
                                <polygon id="Fill-19" fill="#FFFFFF" mask="url(#mask-3)" points="62.7226689 68.6110611 64.3783592 68.6110611 64.3783592 66.9535422 62.7226689 66.9535422"></polygon>
                                <polygon id="Fill-20" fill="#FFFFFF" mask="url(#mask-3)" points="66.1678321 68.6150126 67.8416936 68.6150126 67.8416936 66.9688213 66.1678321 66.9688213"></polygon>
                                <path d="M64.4183096,51.4415152 C64.4212065,50.502114 63.6595942,49.730256 62.7167962,49.7165575 C61.7800552,49.7031224 60.9923711,50.4676043 60.9792036,51.403054 C60.966036,52.368535 61.7463462,53.1606773 62.7062621,53.1564624 C63.6435298,53.1522475 64.4154128,52.3790724 64.4183096,51.4415152 M62.6730798,54.8774686 C60.8017047,54.8708828 59.2603089,53.3253228 59.2563586,51.4512622 C59.2526717,49.5458531 60.7932775,47.9968685 62.6959914,47.9931804 C64.593175,47.9892289 66.1458949,49.5466434 66.1387844,51.4467838 C66.1319373,53.3474512 64.5792173,54.8843179 62.6730798,54.8774686" id="Fill-21" fill="#FFFFFF" mask="url(#mask-3)"></path>
                                <path d="M11.5548328,2.12366316 C6.36733675,2.12366316 2.13501622,6.34174844 2.12079525,11.5261051 C2.11342141,14.0853543 3.1015159,16.4904953 4.9025762,18.2989612 C6.68335844,20.0868793 9.04641065,21.0731715 11.5561496,21.075279 C16.7921024,21.075279 21.0541816,16.8276893 21.0668225,11.6067155 C21.0731429,9.08882521 20.094529,6.71661325 18.3113766,4.92658767 C16.5134766,3.12180987 14.1177688,2.12656092 11.5656303,2.12366316 L11.5548328,2.12366316 Z M62.1996793,2.11971167 C56.9574061,2.11971167 52.6879531,6.36598425 52.682686,11.5856409 C52.6771557,16.8126736 56.9368647,21.0731715 62.1786112,21.0826551 C67.3668974,21.0826551 71.6026415,16.8672042 71.6384573,11.6857453 C71.6563652,9.138614 70.6732743,6.73479011 68.8708973,4.91710409 C67.0835313,3.11575091 64.7175822,2.12208256 62.2083699,2.11971167 L62.1996793,2.11971167 Z M112.749456,2.12366316 C107.52193,2.12550719 103.259851,6.37678499 103.248,11.6006565 C103.242207,14.1188102 104.221874,16.4915491 106.00608,18.2815746 C107.805823,20.0866159 110.203638,21.0816014 112.75762,21.0829186 C117.869271,21.0829186 122.191657,16.7697341 122.201401,11.6644073 C122.206405,9.1064752 121.21594,6.70291474 119.413037,4.89576604 C117.629094,3.10811136 115.263935,2.12366316 112.752616,2.12366316 L112.749456,2.12366316 Z M11.5906486,52.7009081 C6.36681005,52.7016984 2.11684498,56.9714165 2.11710833,62.2187336 C2.11737168,67.396241 6.33784139,71.6327665 11.5253375,71.6630613 L11.5801146,71.6633247 C14.1109216,71.6633247 16.4984655,70.6678124 18.3032127,68.8609271 C20.0924222,67.0693209 21.0765665,64.7073828 21.0739329,62.2105672 C21.0691926,56.9669382 16.815804,52.7009081 11.5924921,52.7009081 L11.5906486,52.7009081 Z M112.7592,52.6980104 C107.564067,52.6980104 103.295404,56.893177 103.243523,62.0498732 C103.217715,64.6033269 104.191325,67.014 105.984748,68.8382719 C107.76,70.6435765 110.119102,71.6469919 112.628051,71.6638516 L112.691519,71.664115 C117.899293,71.664115 122.166376,67.4360193 122.202982,62.2390179 C122.239587,57.0470217 118.060727,52.7672932 112.886925,52.6988007 L112.7592,52.6980104 Z M20.9006477,105.221497 L23.5386388,111.641089 L50.5005563,111.641089 L50.691486,110.828399 C51.9142266,105.62007 55.0312539,102.494968 60.2203301,101.273957 L61.0325059,101.082705 L61.0325059,98.714971 C61.4138387,98.7270889 61.7877977,98.7331478 62.1593866,98.7331478 C62.5207047,98.7331478 62.8915035,98.7273523 63.2683594,98.7152344 L63.2683594,101.090081 L64.0807985,101.280806 C69.2780386,102.502344 72.4055999,105.625076 73.6420348,110.827082 L73.8345447,111.637138 L100.761173,111.637138 L103.33833,105.415383 L86.955502,89.0243336 C87.6346853,88.3960465 88.2925371,87.7393086 88.9235271,87.0599156 L105.275016,103.40987 L111.625735,100.793982 L111.625735,73.8456017 L110.81435,73.6538226 C105.582611,72.4188499 102.452416,69.3024404 101.244686,64.1265136 L101.05481,63.312243 L98.6714796,63.312243 C98.6835938,62.9307923 98.6896508,62.556191 98.6896508,62.1916 C98.6896508,61.8249016 98.6835938,61.4487197 98.6712162,61.0662153 L101.053493,61.0662153 L101.245476,60.2553693 C102.481648,55.0375567 105.605522,51.910083 110.796179,50.6946043 L111.609408,50.5041424 L111.609408,23.5647185 L105.296348,20.9472507 L88.9237905,37.3238114 C88.3765462,36.7353026 87.8071805,36.1618095 87.2199068,35.607547 C89.6998871,33.1244298 92.1806574,30.6428932 94.661691,28.1608298 C95.3279701,27.4946084 95.9934591,26.8273332 96.6586848,26.1603215 C98.5635055,24.2509609 100.532584,22.2765324 102.484281,20.3529464 C103.044166,19.8007913 103.599048,18.9991655 102.913281,17.6888509 C102.422657,16.7528744 102.011302,15.7647381 101.575719,14.7191735 C101.39111,14.2755527 101.203867,13.8261364 101.00688,13.3717149 L100.731941,12.7371054 L73.7526424,12.7371054 L73.5798839,13.5793 C73.0721423,16.0589925 72.0100461,18.0850538 70.3330243,19.7733943 C68.6873413,21.4298595 66.6303035,22.5062457 64.0441926,23.0641963 L63.2130556,23.243594 L63.2130556,25.6658582 C62.8546343,25.6550575 62.5027968,25.6497888 62.1593866,25.6497888 C61.7883244,25.6497888 61.4077816,25.6558478 61.0206551,25.6684925 L61.0206551,23.2517604 L60.2113762,23.0591911 C55.0288838,21.8239549 51.9105397,18.7038573 50.6783185,13.5210813 L50.4855452,12.7110256 L23.5523331,12.7110256 L20.894854,19.1332527 L37.2318588,35.4818895 C36.5982353,36.0738229 35.9846265,36.6892018 35.395246,37.3230211 L19.016105,20.9483044 L12.7159492,23.5512835 L12.7159492,50.4720036 L13.4820385,50.6893356 C19.0469171,52.2678247 21.2959382,54.5130621 23.1080592,60.2988357 L23.3395451,61.0375011 L25.648347,61.0375011 C25.6351794,61.4300159 25.6285956,61.8156815 25.6285956,62.1916 C25.6285956,62.5559275 25.6346527,62.9220991 25.6462401,63.2956467 L23.2579062,63.2956467 L23.0551256,64.0880524 C21.681748,69.4528605 19.2547014,71.883818 13.4370054,73.7220517 L12.7012015,73.9546628 L12.7012015,100.789767 L19.0087312,103.397225 L35.3673308,87.0304111 C35.9617149,87.6705527 36.5813808,88.2930443 37.2218514,88.8915635 L20.9006477,105.221497 Z M11.630678,103.281841 C6.40525935,103.281841 2.13922985,107.524953 2.1210586,112.740658 C2.11210465,115.261973 3.08913839,117.638136 4.87176409,119.43185 C6.66729401,121.237945 9.06115833,122.235565 11.6122435,122.241097 C16.820281,122.241097 21.0562884,118.024065 21.0744596,112.841026 C21.0836769,110.279669 20.0958458,107.871894 18.2932054,106.060793 C16.5121598,104.271031 14.1496343,103.284212 11.6404221,103.281841 L11.630678,103.281841 Z M112.746822,103.276573 C107.526671,103.276573 103.262748,107.517313 103.24247,112.729857 C103.232726,115.25565 104.21608,117.639453 106.011347,119.442387 C107.809247,121.247428 110.19284,122.241887 112.723384,122.241887 C115.252348,122.240043 117.630674,121.24453 119.427258,119.439226 C121.227001,117.630233 122.212199,115.240635 122.201928,112.709836 C122.181123,107.526006 117.954333,103.294486 112.780005,103.276573 L112.746822,103.276573 Z M62.1675505,103.277363 C56.9384448,103.277363 52.6824227,107.527587 52.6800525,112.751458 C52.6776824,117.94082 56.8784007,122.198684 62.0435119,122.242677 L62.1256776,122.242941 C67.3250245,122.242941 71.5931608,118.024592 71.6395107,112.839445 C71.6621589,110.309964 70.688022,107.917731 68.8967057,106.103206 C67.1059161,104.289735 64.7281162,103.28632 62.2009961,103.277363 L62.1675505,103.277363 Z M108.985638,123.824064 C105.660826,122.401 103.43735,120.345171 102.192225,117.544091 C101.915442,116.921862 101.702918,116.263807 101.477752,115.567028 C101.371622,115.237737 101.264964,114.908709 101.15225,114.583633 L100.906016,113.876316 L73.7597529,113.876316 L73.5862043,114.716667 C73.0289527,117.413691 72.1035358,119.253242 70.673801,120.506128 C69.6412002,121.41102 68.4579623,122.148368 67.205463,122.929183 C66.7411744,123.218696 66.2631916,123.516375 65.7931093,123.824064 L58.4213766,123.824064 C55.2522058,122.472917 53.0990446,120.559342 51.8433851,117.979545 C51.497078,117.26775 51.2345166,116.504848 50.9564175,115.697427 C50.8252685,115.316767 50.6941195,114.935843 50.5540166,114.559924 L50.2985657,113.873945 L23.2094495,113.873945 L23.0303706,114.70613 C22.637977,116.534089 21.9711712,118.82332 20.2854588,120.317511 C19.2096683,121.271401 17.981924,122.053269 16.6820215,122.880975 C16.2024585,123.186557 15.7097281,123.500305 15.2248981,123.824064 L7.86001255,123.824064 C4.7990791,122.505847 2.67093635,120.658129 1.35786621,118.180808 C-0.283603134,115.084156 -0.435030195,111.455896 0.942297684,108.226737 C2.32067897,104.995735 5.04662942,102.592965 8.42200446,101.634333 C8.70300041,101.554513 8.98373302,101.476537 9.28000336,101.394609 L10.4866795,101.058996 L10.4866795,73.8066136 L9.6521189,73.62906 C6.27147684,72.9112057 3.7551541,71.2618532 1.95909748,68.5872205 C0.545163756,66.4810756 -0.105840932,64.0959554 0.0242546653,61.4987719 C0.288659482,56.2206332 3.89525706,52.1919561 9.67239696,50.7214744 L10.4658748,50.5194215 L10.4658748,23.2728351 L9.65369901,23.0818463 C6.23803121,22.2778495 3.54236616,20.4796575 1.85876059,17.8814203 C0.46010125,15.7231157 -0.198277277,13.0408434 0.0521699149,10.5224263 C0.609684852,4.9147332 4.91811394,0.608661381 10.5290791,0.0509742382 C10.8690658,0.0172548455 11.2206399,-0.000131716378 11.5737941,-0.000131716378 C16.0054717,-0.000131716378 21.3583525,2.54515557 23.0901513,9.68839816 L23.2855581,10.4937121 L50.5382155,10.4937121 L50.7138709,9.6565228 C51.410172,6.33832381 53.0239895,3.84545965 55.6477596,2.03514975 C57.5955066,0.691379266 59.7955443,0.00987872832 62.1857217,0.00987872832 C62.3600603,0.00987872832 62.5357157,0.0133033541 62.7118978,0.0206794713 C67.119347,0.197706283 72.1975523,3.24035461 73.6080625,9.6380825 L73.7903016,10.4649979 L101.077458,10.4649979 L101.259171,9.63702877 C102.086094,5.8702038 104.11311,3.09388599 107.284124,1.38552458 C108.989325,0.467197992 110.777744,0.0011854474 112.600136,0.0011854474 C113.261411,0.0011854474 113.940594,0.0625652794 114.618988,0.183217481 C120.015058,1.14263958 123.994561,5.5372248 124.296625,10.8693672 C124.630028,16.7607773 121.094009,21.2185864 114.596076,23.0994963 L113.835517,23.3197261 L113.835517,50.5547215 L114.674291,50.729114 C117.930895,51.4061362 120.488301,53.0615476 122.276193,55.6497744 C123.648781,57.6365843 124.332441,59.889988 124.308739,62.3472888 C124.256333,67.8061423 121.06267,71.5342427 114.546039,73.7449704 L113.830777,73.9875919 L113.830777,101.119849 L114.658754,101.30109 C118.827607,102.214939 121.655474,104.426983 123.304317,108.063936 C124.564717,110.844732 124.65689,113.964303 123.563455,116.847574 C122.453165,119.775893 120.270509,122.09015 117.41815,123.364374 C117.142158,123.487924 116.869062,123.617796 116.596493,123.747669 L116.436112,123.824064 L108.985638,123.824064 Z" id="Fill-22" fill="#FFFFFF" mask="url(#mask-3)"></path>
                            </g>
                            <path d="M243.327106,163.355249 L195.168253,163.355249 C195.168253,163.355249 147.391304,159.621925 147.391304,198.653735 L147.391304,248.882609" id="Path-17-Copy" stroke="#4DA5E4" stroke-width="48"></path>
                            <ellipse id="Oval-Copy" fill="url(#linearGradient-1)" cx="90.326087" cy="284.39715" rx="90.326087" ry="90.4454771"></ellipse>
                            <path d="M331.602412,59.5225355 L137.776948,59.5225355 C137.776948,59.5225355 90,55.7892109 90,94.8210217 L90,145.049895" id="Path-17" stroke="#4DA5E4" stroke-width="48"></path>
                            <path d="M403.695652,193.951673 L403.695652,310.413389" id="Path-17-Copy-3" stroke="#A8D1F8" stroke-width="48"></path>
                            <polygon id="Star-Copy" fill="#4DA5E4" transform="translate(89.753334, 162.605948) rotate(-180.000000) translate(-89.753334, -162.605948) " points="89.7533337 180.34303 50.2173913 180.890954 70.8739057 162.87991 89.7533337 144.320942 108.632762 162.87991 129.289276 180.890954"></polygon>
                            <polygon id="Star-Copy-4" fill="#A8D1F8" transform="translate(404.101160, 318.028501) rotate(-180.000000) translate(-404.101160, -318.028501) " points="404.10116 335.765583 364.565217 336.313507 385.221732 318.302463 404.10116 299.743494 422.980588 318.302463 443.637102 336.313507"></polygon>
                            <polygon id="Star-Copy-3" fill="#A8D1F8" transform="translate(86.144638, 415.902107) scale(1, -1) rotate(-180.000000) translate(-86.144638, -415.902107) " points="86.144638 433.639189 46.6086957 434.187113 67.2652101 416.176069 86.144638 397.6171 105.024066 416.176069 125.68058 434.187113"></polygon>
                            <polygon id="Star-Copy-2" fill="#4DA5E4" transform="translate(260.869565, 162.358956) rotate(90.000000) translate(-260.869565, -162.358956) " points="260.869565 180.096038 221.333623 180.643962 241.990137 162.632918 260.869565 144.073949 279.748993 162.632918 300.405508 180.643962"></polygon>
                            <g id="Group-7" transform="translate(18.913043, 212.889715)">
                                <g id="Page-1" transform="translate(8.478261, 31.345725)" fill="#FFFFFF">
                                    <g id="Group-3" transform="translate(0.000000, 0.334289)">
                                        <path d="M30.7065652,1.39116245 L1.07243478,1.39116245 L1.07243478,20.4715664 L1.51982609,20.4715664 L8.83330435,20.4715664 C9.34721739,20.4715664 9.5246087,20.6491922 9.5246087,21.1696618 C9.52591304,22.3627585 9.5246087,23.5558551 9.52395652,24.7489518 L9.52395652,25.1453446 C9.66547826,25.0330224 9.74373913,24.9735962 9.81808696,24.9102517 C11.4478696,23.5218973 13.0802609,22.135502 14.7028696,20.7399642 C14.9278696,20.5466656 15.1561304,20.4669952 15.450913,20.4669952 C20.4146087,20.4735255 25.3789565,20.4709134 30.3426522,20.4709134 L30.7065652,20.4709134 L30.7065652,1.39116245 Z M8.4746087,21.5229543 L7.54656522,21.5229543 L0.729391304,21.5229543 C0.163304348,21.5229543 0.000260869565,21.3603483 0.000260869565,20.7967783 L0.000260869565,1.04766555 C0.000260869565,0.481483395 0.162652174,0.318877447 0.726130435,0.318877447 L31.0391739,0.318877447 C31.6046087,0.318877447 31.7689565,0.481483395 31.7689565,1.04374734 L31.7689565,20.7935131 C31.7689565,21.3577362 31.6046087,21.5229543 31.0424348,21.5229543 C25.9346087,21.5236073 20.8274348,21.5216482 15.7202609,21.5327498 C15.5343913,21.5334029 15.3113478,21.6189506 15.1678696,21.7391092 C13.2706957,23.3403533 11.3800435,24.9500869 9.49982609,26.5722281 C9.2546087,26.7831587 8.99308696,26.8164636 8.73743478,26.7302628 C8.4693913,26.6407969 8.472,26.3612975 8.47265217,26.1092257 C8.47656522,24.5967944 8.4746087,23.0850162 8.4746087,21.5229543 L8.4746087,21.5229543 Z" id="Fill-1"></path>
                                    </g>
                                    <path d="M15.8846739,15.4943877 L7.58184783,15.4943877 C7.48271739,15.4943877 7.38358696,15.4950408 7.28445652,15.4924286 C6.91141304,15.4832861 6.68771739,15.2906405 6.68380435,14.9765302 C6.6798913,14.6467471 6.9048913,14.4443059 7.29880435,14.4429999 C8.23597826,14.4384286 9.17315217,14.4410408 10.1109783,14.4410408 C14.8516304,14.4410408 19.5929348,14.4416938 24.3342391,14.4423468 C24.378587,14.4423468 24.4229348,14.4410408 24.4666304,14.4416938 C24.8553261,14.4475711 25.0881522,14.6487062 25.0842391,14.9752242 C25.0809783,15.2899875 24.8572826,15.4865513 24.4848913,15.4917756 C24.1431522,15.4969999 23.801413,15.4943877 23.4596739,15.4943877 L15.8846739,15.4943877" id="Fill-4"></path>
                                    <path d="M15.8829783,11.3348753 C13.058413,11.3348753 10.2338478,11.3348753 7.40993478,11.3342223 C7.31080435,11.3342223 7.20906522,11.3400996 7.11254348,11.3224677 C6.85232609,11.2761021 6.70297826,11.1121901 6.68732609,10.8483636 C6.67102174,10.5851901 6.79884783,10.4003809 7.0518913,10.3259348 C7.16602174,10.29263 7.29123913,10.2900178 7.4118913,10.2900178 C13.0714565,10.2887118 18.7316739,10.2893648 24.3912391,10.2900178 C24.4577609,10.2900178 24.5242826,10.2867527 24.5895,10.2945891 C24.8881957,10.3305061 25.0851522,10.5394776 25.0845,10.8170178 C25.0845,11.110231 24.8771087,11.3263859 24.5549348,11.3303041 C23.7938478,11.3400996 23.0321087,11.3361814 22.2710217,11.3361814 C20.1416739,11.3368344 18.0123261,11.3361814 15.8829783,11.3361814 L15.8829783,11.3348753 Z" id="Fill-6"></path>
                                    <path d="M13.1990217,5.95653668 C15.161413,5.95653668 17.1238043,5.95849579 19.0861957,5.95457757 C19.3751087,5.95392454 19.6190217,6.01922813 19.7155435,6.32158377 C19.8342391,6.69316121 19.5766304,7.00335328 19.1448913,7.00596543 C18.1861957,7.01118971 17.2268478,7.00857757 16.2675,7.00857757 C13.3020652,7.00792454 10.3366304,7.00792454 7.37119565,7.0072715 C7.29423913,7.0072715 7.21467391,7.01510793 7.14032609,7.00074114 C6.85532609,6.94588612 6.68576087,6.77544374 6.68706522,6.47831239 C6.68836957,6.180528 6.86315217,6.01400384 7.1475,5.96306704 C7.24336957,5.9460881 7.3451087,5.95653668 7.44423913,5.95653668 L13.1990217,5.95653668" id="Fill-8"></path>
                                </g>
                                <g id="Page-1-Copy" transform="translate(84.130435, 3.918216)" fill="#FFFFFF">
                                    <g id="Group-3" transform="translate(0.000000, 0.334289)">
                                        <path d="M30.7065652,1.39116245 L1.07243478,1.39116245 L1.07243478,20.4715664 L1.51982609,20.4715664 L8.83330435,20.4715664 C9.34721739,20.4715664 9.5246087,20.6491922 9.5246087,21.1696618 C9.52591304,22.3627585 9.5246087,23.5558551 9.52395652,24.7489518 L9.52395652,25.1453446 C9.66547826,25.0330224 9.74373913,24.9735962 9.81808696,24.9102517 C11.4478696,23.5218973 13.0802609,22.135502 14.7028696,20.7399642 C14.9278696,20.5466656 15.1561304,20.4669952 15.450913,20.4669952 C20.4146087,20.4735255 25.3789565,20.4709134 30.3426522,20.4709134 L30.7065652,20.4709134 L30.7065652,1.39116245 Z M8.4746087,21.5229543 L7.54656522,21.5229543 L0.729391304,21.5229543 C0.163304348,21.5229543 0.000260869565,21.3603483 0.000260869565,20.7967783 L0.000260869565,1.04766555 C0.000260869565,0.481483395 0.162652174,0.318877447 0.726130435,0.318877447 L31.0391739,0.318877447 C31.6046087,0.318877447 31.7689565,0.481483395 31.7689565,1.04374734 L31.7689565,20.7935131 C31.7689565,21.3577362 31.6046087,21.5229543 31.0424348,21.5229543 C25.9346087,21.5236073 20.8274348,21.5216482 15.7202609,21.5327498 C15.5343913,21.5334029 15.3113478,21.6189506 15.1678696,21.7391092 C13.2706957,23.3403533 11.3800435,24.9500869 9.49982609,26.5722281 C9.2546087,26.7831587 8.99308696,26.8164636 8.73743478,26.7302628 C8.4693913,26.6407969 8.472,26.3612975 8.47265217,26.1092257 C8.47656522,24.5967944 8.4746087,23.0850162 8.4746087,21.5229543 L8.4746087,21.5229543 Z" id="Fill-1"></path>
                                    </g>
                                    <path d="M15.8846739,15.4943877 L7.58184783,15.4943877 C7.48271739,15.4943877 7.38358696,15.4950408 7.28445652,15.4924286 C6.91141304,15.4832861 6.68771739,15.2906405 6.68380435,14.9765302 C6.6798913,14.6467471 6.9048913,14.4443059 7.29880435,14.4429999 C8.23597826,14.4384286 9.17315217,14.4410408 10.1109783,14.4410408 C14.8516304,14.4410408 19.5929348,14.4416938 24.3342391,14.4423468 C24.378587,14.4423468 24.4229348,14.4410408 24.4666304,14.4416938 C24.8553261,14.4475711 25.0881522,14.6487062 25.0842391,14.9752242 C25.0809783,15.2899875 24.8572826,15.4865513 24.4848913,15.4917756 C24.1431522,15.4969999 23.801413,15.4943877 23.4596739,15.4943877 L15.8846739,15.4943877" id="Fill-4"></path>
                                    <path d="M15.8829783,11.3348753 C13.058413,11.3348753 10.2338478,11.3348753 7.40993478,11.3342223 C7.31080435,11.3342223 7.20906522,11.3400996 7.11254348,11.3224677 C6.85232609,11.2761021 6.70297826,11.1121901 6.68732609,10.8483636 C6.67102174,10.5851901 6.79884783,10.4003809 7.0518913,10.3259348 C7.16602174,10.29263 7.29123913,10.2900178 7.4118913,10.2900178 C13.0714565,10.2887118 18.7316739,10.2893648 24.3912391,10.2900178 C24.4577609,10.2900178 24.5242826,10.2867527 24.5895,10.2945891 C24.8881957,10.3305061 25.0851522,10.5394776 25.0845,10.8170178 C25.0845,11.110231 24.8771087,11.3263859 24.5549348,11.3303041 C23.7938478,11.3400996 23.0321087,11.3361814 22.2710217,11.3361814 C20.1416739,11.3368344 18.0123261,11.3361814 15.8829783,11.3361814 L15.8829783,11.3348753 Z" id="Fill-6"></path>
                                    <path d="M13.1990217,5.95653668 C15.161413,5.95653668 17.1238043,5.95849579 19.0861957,5.95457757 C19.3751087,5.95392454 19.6190217,6.01922813 19.7155435,6.32158377 C19.8342391,6.69316121 19.5766304,7.00335328 19.1448913,7.00596543 C18.1861957,7.01118971 17.2268478,7.00857757 16.2675,7.00857757 C13.3020652,7.00792454 10.3366304,7.00792454 7.37119565,7.0072715 C7.29423913,7.0072715 7.21467391,7.01510793 7.14032609,7.00074114 C6.85532609,6.94588612 6.68576087,6.77544374 6.68706522,6.47831239 C6.68836957,6.180528 6.86315217,6.01400384 7.1475,5.96306704 C7.24336957,5.9460881 7.3451087,5.95653668 7.44423913,5.95653668 L13.1990217,5.95653668" id="Fill-8"></path>
                                </g>
                                <g id="Page-1-Copy-2" transform="translate(52.173913, 78.364312)" fill="#FFFFFF">
                                    <g id="Group-3" transform="translate(0.000000, 0.334289)">
                                        <path d="M30.7065652,1.39116245 L1.07243478,1.39116245 L1.07243478,20.4715664 L1.51982609,20.4715664 L8.83330435,20.4715664 C9.34721739,20.4715664 9.5246087,20.6491922 9.5246087,21.1696618 C9.52591304,22.3627585 9.5246087,23.5558551 9.52395652,24.7489518 L9.52395652,25.1453446 C9.66547826,25.0330224 9.74373913,24.9735962 9.81808696,24.9102517 C11.4478696,23.5218973 13.0802609,22.135502 14.7028696,20.7399642 C14.9278696,20.5466656 15.1561304,20.4669952 15.450913,20.4669952 C20.4146087,20.4735255 25.3789565,20.4709134 30.3426522,20.4709134 L30.7065652,20.4709134 L30.7065652,1.39116245 Z M8.4746087,21.5229543 L7.54656522,21.5229543 L0.729391304,21.5229543 C0.163304348,21.5229543 0.000260869565,21.3603483 0.000260869565,20.7967783 L0.000260869565,1.04766555 C0.000260869565,0.481483395 0.162652174,0.318877447 0.726130435,0.318877447 L31.0391739,0.318877447 C31.6046087,0.318877447 31.7689565,0.481483395 31.7689565,1.04374734 L31.7689565,20.7935131 C31.7689565,21.3577362 31.6046087,21.5229543 31.0424348,21.5229543 C25.9346087,21.5236073 20.8274348,21.5216482 15.7202609,21.5327498 C15.5343913,21.5334029 15.3113478,21.6189506 15.1678696,21.7391092 C13.2706957,23.3403533 11.3800435,24.9500869 9.49982609,26.5722281 C9.2546087,26.7831587 8.99308696,26.8164636 8.73743478,26.7302628 C8.4693913,26.6407969 8.472,26.3612975 8.47265217,26.1092257 C8.47656522,24.5967944 8.4746087,23.0850162 8.4746087,21.5229543 L8.4746087,21.5229543 Z" id="Fill-1"></path>
                                    </g>
                                    <path d="M15.8846739,15.4943877 L7.58184783,15.4943877 C7.48271739,15.4943877 7.38358696,15.4950408 7.28445652,15.4924286 C6.91141304,15.4832861 6.68771739,15.2906405 6.68380435,14.9765302 C6.6798913,14.6467471 6.9048913,14.4443059 7.29880435,14.4429999 C8.23597826,14.4384286 9.17315217,14.4410408 10.1109783,14.4410408 C14.8516304,14.4410408 19.5929348,14.4416938 24.3342391,14.4423468 C24.378587,14.4423468 24.4229348,14.4410408 24.4666304,14.4416938 C24.8553261,14.4475711 25.0881522,14.6487062 25.0842391,14.9752242 C25.0809783,15.2899875 24.8572826,15.4865513 24.4848913,15.4917756 C24.1431522,15.4969999 23.801413,15.4943877 23.4596739,15.4943877 L15.8846739,15.4943877" id="Fill-4"></path>
                                    <path d="M15.8829783,11.3348753 C13.058413,11.3348753 10.2338478,11.3348753 7.40993478,11.3342223 C7.31080435,11.3342223 7.20906522,11.3400996 7.11254348,11.3224677 C6.85232609,11.2761021 6.70297826,11.1121901 6.68732609,10.8483636 C6.67102174,10.5851901 6.79884783,10.4003809 7.0518913,10.3259348 C7.16602174,10.29263 7.29123913,10.2900178 7.4118913,10.2900178 C13.0714565,10.2887118 18.7316739,10.2893648 24.3912391,10.2900178 C24.4577609,10.2900178 24.5242826,10.2867527 24.5895,10.2945891 C24.8881957,10.3305061 25.0851522,10.5394776 25.0845,10.8170178 C25.0845,11.110231 24.8771087,11.3263859 24.5549348,11.3303041 C23.7938478,11.3400996 23.0321087,11.3361814 22.2710217,11.3361814 C20.1416739,11.3368344 18.0123261,11.3361814 15.8829783,11.3361814 L15.8829783,11.3348753 Z" id="Fill-6"></path>
                                    <path d="M13.1990217,5.95653668 C15.161413,5.95653668 17.1238043,5.95849579 19.0861957,5.95457757 C19.3751087,5.95392454 19.6190217,6.01922813 19.7155435,6.32158377 C19.8342391,6.69316121 19.5766304,7.00335328 19.1448913,7.00596543 C18.1861957,7.01118971 17.2268478,7.00857757 16.2675,7.00857757 C13.3020652,7.00792454 10.3366304,7.00792454 7.37119565,7.0072715 C7.29423913,7.0072715 7.21467391,7.01510793 7.14032609,7.00074114 C6.85532609,6.94588612 6.68576087,6.77544374 6.68706522,6.47831239 C6.68836957,6.180528 6.86315217,6.01400384 7.1475,5.96306704 C7.24336957,5.9460881 7.3451087,5.95653668 7.44423913,5.95653668 L13.1990217,5.95653668" id="Fill-8"></path>
                                </g>
                                <g id="Page-1" transform="translate(56.739130, 39.835192)">
                                    <g id="Group-3" transform="translate(0.000000, 0.406384)">
                                        <mask id="mask-5" fill="white">
                                            <use xlink:href="#path-4"></use>
                                        </mask>
                                        <g id="Clip-2"></g>
                                        <path d="M4.23795652,17.1888201 L1.12186956,17.1888201 C0.934043478,17.1888201 0.746217391,17.1946974 0.559043478,17.186861 C0.208826086,17.1724942 0.0177391299,16.9759304 0.00143478208,16.6219849 C-0.00117391358,16.5560283 0.000782608163,16.4894186 0.000782608163,16.423462 L0.000782608163,1.04446568 C0.000782608163,0.386858488 0.140347826,0.247108798 0.79773913,0.247108798 C9.09534783,0.246455762 17.3923043,0.246455762 25.689913,0.247108798 C26.3257826,0.247108798 26.4731739,0.393388848 26.4731739,1.02226245 C26.4738261,3.78395143 26.4738261,6.54629343 26.4738261,9.3079824 C26.4738261,9.71743594 26.3296957,9.9348969 26.0329565,9.97799727 C25.6664348,10.0315462 25.4238261,9.78535167 25.4231739,9.34455242 C25.4218696,7.4997259 25.4231739,5.65489938 25.4231739,3.80941983 C25.4231739,3.09173333 25.4244783,2.3733938 25.4231739,1.65505428 C25.4225217,1.54795638 25.4133913,1.44020545 25.4068696,1.31351648 L1.07752174,1.31351648 L1.07752174,16.1361261 L1.37426087,16.1361261 C2.42230435,16.1367792 3.471,16.1374322 4.51904348,16.1374322 C5.14447826,16.1380853 5.28730435,16.2843653 5.28795652,16.9236875 L5.28795652,20.6695016 C5.41773913,20.5506491 5.50513043,20.477509 5.58469565,20.3971856 C6.90404348,19.0774 8.22534783,17.7602265 9.53752174,16.4339105 C9.74752174,16.2210208 9.96926087,16.1204533 10.2692609,16.132861 C10.7094783,16.151146 11.1516522,16.132861 11.5931739,16.1393913 C11.934913,16.1446156 12.1631739,16.352281 12.1716522,16.6487594 C12.1807826,16.9556862 11.9433913,17.1751063 11.5879565,17.188167 C11.5546957,17.1894731 11.5207826,17.1940444 11.4888261,17.188167 C10.5986087,17.0255611 9.9836087,17.4075871 9.37969565,18.0567048 C8.05708696,19.4783641 6.6483913,20.8203529 5.27686956,22.1969527 C5.07404348,22.4000468 4.86991304,22.5828969 4.55426087,22.4411881 C4.25947826,22.3099279 4.23534783,22.0545908 4.236,21.7757445 C4.24056522,20.3945735 4.23795652,19.0134025 4.23795652,17.6328845 L4.23795652,17.1888201" id="Fill-1" fill="#FFFFFF" mask="url(#mask-5)"></path>
                                    </g>
                                    <g id="Group-6" transform="translate(13.695652, 12.161031)">
                                        <mask id="mask-7" fill="white">
                                            <use xlink:href="#path-6"></use>
                                        </mask>
                                        <g id="Clip-5"></g>
                                        <path d="M1.13902174,10.747143 L1.59619565,10.747143 C4.03336957,10.747143 6.47119565,10.7412657 8.90836957,10.7569385 C9.11771739,10.7582446 9.38967391,10.8411802 9.52402174,10.9868072 C10.8942391,12.4698518 12.2429348,13.9731405 13.5948913,15.4738171 C13.6581522,15.5436919 13.698587,15.6338109 13.7494565,15.7147874 C13.781413,15.6932372 13.8133696,15.671687 13.8453261,15.6494838 L13.8453261,15.3647601 C13.8459783,14.1827651 13.8466304,13.00077 13.8466304,11.819428 C13.8466304,10.7758766 13.8753261,10.747143 14.9233696,10.747143 L17.0038043,10.747143 L17.0038043,1.2121653 L1.13902174,1.2121653 L1.13902174,10.747143 Z M14.8966304,11.7991839 L14.8966304,12.1883933 C14.8966304,13.7680872 14.8946739,15.3471281 14.8998913,16.9268221 C14.9005435,17.2246064 14.8516304,17.4832087 14.5379348,17.598143 C14.2327174,17.7098121 14.0422826,17.5269621 13.856413,17.3219088 C12.2559783,15.5547936 10.6503261,13.7915965 9.05315217,12.0212161 C8.90771739,11.8599162 8.76293478,11.7933066 8.5451087,11.7939596 C5.96380435,11.801143 3.3825,11.7985309 0.801195652,11.7978778 C0.238369565,11.7978778 0.0759782609,11.6352719 0.0759782609,11.0690897 L0.0759782609,0.862791078 C0.0766304348,0.312281784 0.242282609,0.140533333 0.775108696,0.140533333 C6.29054348,0.139880297 11.8059783,0.139880297 17.321413,0.140533333 C17.9266304,0.140533333 18.0740217,0.292690706 18.0740217,0.909156629 C18.0746739,4.28927063 18.0746739,7.6687316 18.0740217,11.0488456 C18.0740217,11.6385371 17.9175,11.7978778 17.3344565,11.7991839 C16.5401087,11.80049 15.746413,11.7991839 14.8966304,11.7991839 L14.8966304,11.7991839 Z" id="Fill-4" fill="#FFFFFF" mask="url(#mask-7)"></path>
                                    </g>
                                </g>
                                <g id="Page-1-Copy-3" transform="translate(104.347826, 81.629492)">
                                    <g id="Group-3" transform="translate(0.000000, 0.406384)">
                                        <mask id="mask-9" fill="white">
                                            <use xlink:href="#path-8"></use>
                                        </mask>
                                        <g id="Clip-2"></g>
                                        <path d="M4.23795652,17.1888201 L1.12186956,17.1888201 C0.934043478,17.1888201 0.746217391,17.1946974 0.559043478,17.186861 C0.208826086,17.1724942 0.0177391299,16.9759304 0.00143478208,16.6219849 C-0.00117391358,16.5560283 0.000782608163,16.4894186 0.000782608163,16.423462 L0.000782608163,1.04446568 C0.000782608163,0.386858488 0.140347826,0.247108798 0.79773913,0.247108798 C9.09534783,0.246455762 17.3923043,0.246455762 25.689913,0.247108798 C26.3257826,0.247108798 26.4731739,0.393388848 26.4731739,1.02226245 C26.4738261,3.78395143 26.4738261,6.54629343 26.4738261,9.3079824 C26.4738261,9.71743594 26.3296957,9.9348969 26.0329565,9.97799727 C25.6664348,10.0315462 25.4238261,9.78535167 25.4231739,9.34455242 C25.4218696,7.4997259 25.4231739,5.65489938 25.4231739,3.80941983 C25.4231739,3.09173333 25.4244783,2.3733938 25.4231739,1.65505428 C25.4225217,1.54795638 25.4133913,1.44020545 25.4068696,1.31351648 L1.07752174,1.31351648 L1.07752174,16.1361261 L1.37426087,16.1361261 C2.42230435,16.1367792 3.471,16.1374322 4.51904348,16.1374322 C5.14447826,16.1380853 5.28730435,16.2843653 5.28795652,16.9236875 L5.28795652,20.6695016 C5.41773913,20.5506491 5.50513043,20.477509 5.58469565,20.3971856 C6.90404348,19.0774 8.22534783,17.7602265 9.53752174,16.4339105 C9.74752174,16.2210208 9.96926087,16.1204533 10.2692609,16.132861 C10.7094783,16.151146 11.1516522,16.132861 11.5931739,16.1393913 C11.934913,16.1446156 12.1631739,16.352281 12.1716522,16.6487594 C12.1807826,16.9556862 11.9433913,17.1751063 11.5879565,17.188167 C11.5546957,17.1894731 11.5207826,17.1940444 11.4888261,17.188167 C10.5986087,17.0255611 9.9836087,17.4075871 9.37969565,18.0567048 C8.05708696,19.4783641 6.6483913,20.8203529 5.27686956,22.1969527 C5.07404348,22.4000468 4.86991304,22.5828969 4.55426087,22.4411881 C4.25947826,22.3099279 4.23534783,22.0545908 4.236,21.7757445 C4.24056522,20.3945735 4.23795652,19.0134025 4.23795652,17.6328845 L4.23795652,17.1888201" id="Fill-1" fill="#FFFFFF" mask="url(#mask-9)"></path>
                                    </g>
                                    <g id="Group-6" transform="translate(13.695652, 12.161031)">
                                        <mask id="mask-11" fill="white">
                                            <use xlink:href="#path-10"></use>
                                        </mask>
                                        <g id="Clip-5"></g>
                                        <path d="M1.13902174,10.747143 L1.59619565,10.747143 C4.03336957,10.747143 6.47119565,10.7412657 8.90836957,10.7569385 C9.11771739,10.7582446 9.38967391,10.8411802 9.52402174,10.9868072 C10.8942391,12.4698518 12.2429348,13.9731405 13.5948913,15.4738171 C13.6581522,15.5436919 13.698587,15.6338109 13.7494565,15.7147874 C13.781413,15.6932372 13.8133696,15.671687 13.8453261,15.6494838 L13.8453261,15.3647601 C13.8459783,14.1827651 13.8466304,13.00077 13.8466304,11.819428 C13.8466304,10.7758766 13.8753261,10.747143 14.9233696,10.747143 L17.0038043,10.747143 L17.0038043,1.2121653 L1.13902174,1.2121653 L1.13902174,10.747143 Z M14.8966304,11.7991839 L14.8966304,12.1883933 C14.8966304,13.7680872 14.8946739,15.3471281 14.8998913,16.9268221 C14.9005435,17.2246064 14.8516304,17.4832087 14.5379348,17.598143 C14.2327174,17.7098121 14.0422826,17.5269621 13.856413,17.3219088 C12.2559783,15.5547936 10.6503261,13.7915965 9.05315217,12.0212161 C8.90771739,11.8599162 8.76293478,11.7933066 8.5451087,11.7939596 C5.96380435,11.801143 3.3825,11.7985309 0.801195652,11.7978778 C0.238369565,11.7978778 0.0759782609,11.6352719 0.0759782609,11.0690897 L0.0759782609,0.862791078 C0.0766304348,0.312281784 0.242282609,0.140533333 0.775108696,0.140533333 C6.29054348,0.139880297 11.8059783,0.139880297 17.321413,0.140533333 C17.9266304,0.140533333 18.0740217,0.292690706 18.0740217,0.909156629 C18.0746739,4.28927063 18.0746739,7.6687316 18.0740217,11.0488456 C18.0740217,11.6385371 17.9175,11.7978778 17.3344565,11.7991839 C16.5401087,11.80049 15.746413,11.7991839 14.8966304,11.7991839 L14.8966304,11.7991839 Z" id="Fill-4" fill="#FFFFFF" mask="url(#mask-11)"></path>
                                    </g>
                                </g>
                                <g id="Page-1" transform="translate(104.347826, 39.835192)" fill="#FFFFFF">
                                    <g id="Group-3" transform="translate(0.000000, 0.507409)">
                                        <path d="M4.2296087,24.5107243 C4.36982609,24.4095037 4.45004348,24.3546487 4.527,24.2952224 C6.14178261,23.0472708 7.752,21.7914827 9.37786957,20.5578978 C9.57156522,20.4116177 9.85330435,20.3097441 10.0939565,20.3090911 C16.658087,20.2960304 23.2222174,20.2986425 29.7863478,20.2986425 C30.4502609,20.2979895 30.7183043,20.0504888 30.7189565,19.4229213 C30.7202609,13.6781642 30.720913,7.9340601 30.7176522,2.18995601 C30.7176522,1.38737485 30.5154783,1.19668835 29.7165652,1.19668835 C25.568087,1.19668835 21.4202609,1.19734139 17.2724348,1.19734139 C12.1646087,1.19734139 7.05678261,1.19668835 1.94895652,1.19734139 C1.29417391,1.19734139 1.0796087,1.40631289 1.05352174,2.06457311 C1.04895652,2.18538476 1.05091304,2.30750248 1.05091304,2.42896716 L1.05091304,7.16804895 C1.05091304,11.2442993 1.05026087,15.3205496 1.05091304,19.3967999 C1.05156522,20.0478767 1.302,20.2953773 1.95417391,20.2979895 C2.45113043,20.3006016 2.94743478,20.2992955 3.44373913,20.2986425 C4.08873913,20.2979895 4.23026087,20.4429634 4.2296087,21.1018767 C4.22895652,22.2146499 4.2296087,23.3280762 4.2296087,24.5107243 M3.17895652,21.3500304 C2.71786957,21.3500304 2.31026087,21.3532955 1.90265217,21.3487243 C0.876130435,21.3376227 0.00286956522,20.4697379 0.0022173913,19.4412063 C-0.00104347826,13.7179994 -0.00104347826,7.99479244 0.00286956522,2.2715855 C0.00352173913,1.15685316 0.608086957,0.351006815 1.55504348,0.177299257 C1.71613043,0.147912639 1.8843913,0.146606568 2.04873913,0.146606568 C11.273087,0.145300496 20.4974348,0.145300496 29.7217826,0.145953532 C30.9087391,0.145953532 31.6815652,0.875394672 31.763087,2.07371561 C31.7722174,2.20562887 31.7696087,2.3388482 31.7696087,2.4714145 L31.7696087,19.2433364 C31.7696087,20.5422249 30.9628696,21.3500304 29.667,21.3500304 C23.2228696,21.3500304 16.7793913,21.3487243 10.3352609,21.3572138 C10.1663478,21.3578668 9.96678261,21.4270886 9.83178261,21.5302683 C7.93917391,22.979355 6.05504348,24.4401964 4.17026087,25.8990787 C3.96286957,26.0597255 3.75873913,26.2040465 3.4796087,26.0662559 C3.207,25.9310774 3.17569565,25.6914133 3.177,25.4230155 C3.18091304,24.196614 3.17895652,22.9708656 3.17895652,21.7444641 L3.17895652,21.3500304" id="Fill-1"></path>
                                    </g>
                                    <path d="M20.7117391,10.7272907 C20.7084783,10.1297628 21.3052174,9.53092887 21.8993478,9.53419405 C22.4745652,9.53811227 23.0752174,10.1278037 23.0902174,10.7031284 C23.1045652,11.2810652 22.4947826,11.9060206 21.9071739,11.9151631 C21.318913,11.9249586 20.715,11.3248186 20.7117391,10.7272907" id="Fill-4"></path>
                                    <path d="M12.3948261,10.7244173 C12.3948261,11.317374 11.7889565,11.9214322 11.2000435,11.9155549 C10.6143913,11.9096776 10.0046087,11.2873343 10.0156957,10.7067854 C10.0267826,10.1327668 10.6300435,9.53589195 11.2013478,9.53393284 C11.7961304,9.53132069 12.3948261,10.1281955 12.3948261,10.7244173" id="Fill-6"></path>
                                    <path d="M17.7402391,10.737674 C17.7317609,11.3299776 17.1167609,11.9288115 16.5298043,11.9157508 C15.9402391,11.9026901 15.3441522,11.2783877 15.3611087,10.6932675 C15.377413,10.1166368 15.9839348,9.52890446 16.5571957,9.53412875 C17.1526304,9.54000607 17.7487174,10.1460234 17.7402391,10.737674" id="Fill-8"></path>
                                </g>
                                <g id="Page-1-Copy-5" transform="translate(0.000000, 81.629492)" fill="#FFFFFF">
                                    <g id="Group-3" transform="translate(0.000000, 0.507409)">
                                        <path d="M4.2296087,24.5107243 C4.36982609,24.4095037 4.45004348,24.3546487 4.527,24.2952224 C6.14178261,23.0472708 7.752,21.7914827 9.37786957,20.5578978 C9.57156522,20.4116177 9.85330435,20.3097441 10.0939565,20.3090911 C16.658087,20.2960304 23.2222174,20.2986425 29.7863478,20.2986425 C30.4502609,20.2979895 30.7183043,20.0504888 30.7189565,19.4229213 C30.7202609,13.6781642 30.720913,7.9340601 30.7176522,2.18995601 C30.7176522,1.38737485 30.5154783,1.19668835 29.7165652,1.19668835 C25.568087,1.19668835 21.4202609,1.19734139 17.2724348,1.19734139 C12.1646087,1.19734139 7.05678261,1.19668835 1.94895652,1.19734139 C1.29417391,1.19734139 1.0796087,1.40631289 1.05352174,2.06457311 C1.04895652,2.18538476 1.05091304,2.30750248 1.05091304,2.42896716 L1.05091304,7.16804895 C1.05091304,11.2442993 1.05026087,15.3205496 1.05091304,19.3967999 C1.05156522,20.0478767 1.302,20.2953773 1.95417391,20.2979895 C2.45113043,20.3006016 2.94743478,20.2992955 3.44373913,20.2986425 C4.08873913,20.2979895 4.23026087,20.4429634 4.2296087,21.1018767 C4.22895652,22.2146499 4.2296087,23.3280762 4.2296087,24.5107243 M3.17895652,21.3500304 C2.71786957,21.3500304 2.31026087,21.3532955 1.90265217,21.3487243 C0.876130435,21.3376227 0.00286956522,20.4697379 0.0022173913,19.4412063 C-0.00104347826,13.7179994 -0.00104347826,7.99479244 0.00286956522,2.2715855 C0.00352173913,1.15685316 0.608086957,0.351006815 1.55504348,0.177299257 C1.71613043,0.147912639 1.8843913,0.146606568 2.04873913,0.146606568 C11.273087,0.145300496 20.4974348,0.145300496 29.7217826,0.145953532 C30.9087391,0.145953532 31.6815652,0.875394672 31.763087,2.07371561 C31.7722174,2.20562887 31.7696087,2.3388482 31.7696087,2.4714145 L31.7696087,19.2433364 C31.7696087,20.5422249 30.9628696,21.3500304 29.667,21.3500304 C23.2228696,21.3500304 16.7793913,21.3487243 10.3352609,21.3572138 C10.1663478,21.3578668 9.96678261,21.4270886 9.83178261,21.5302683 C7.93917391,22.979355 6.05504348,24.4401964 4.17026087,25.8990787 C3.96286957,26.0597255 3.75873913,26.2040465 3.4796087,26.0662559 C3.207,25.9310774 3.17569565,25.6914133 3.177,25.4230155 C3.18091304,24.196614 3.17895652,22.9708656 3.17895652,21.7444641 L3.17895652,21.3500304" id="Fill-1"></path>
                                    </g>
                                    <path d="M20.7117391,10.7272907 C20.7084783,10.1297628 21.3052174,9.53092887 21.8993478,9.53419405 C22.4745652,9.53811227 23.0752174,10.1278037 23.0902174,10.7031284 C23.1045652,11.2810652 22.4947826,11.9060206 21.9071739,11.9151631 C21.318913,11.9249586 20.715,11.3248186 20.7117391,10.7272907" id="Fill-4"></path>
                                    <path d="M12.3948261,10.7244173 C12.3948261,11.317374 11.7889565,11.9214322 11.2000435,11.9155549 C10.6143913,11.9096776 10.0046087,11.2873343 10.0156957,10.7067854 C10.0267826,10.1327668 10.6300435,9.53589195 11.2013478,9.53393284 C11.7961304,9.53132069 12.3948261,10.1281955 12.3948261,10.7244173" id="Fill-6"></path>
                                    <path d="M17.7402391,10.737674 C17.7317609,11.3299776 17.1167609,11.9288115 16.5298043,11.9157508 C15.9402391,11.9026901 15.3441522,11.2783877 15.3611087,10.6932675 C15.377413,10.1166368 15.9839348,9.52890446 16.5571957,9.53412875 C17.1526304,9.54000607 17.7487174,10.1460234 17.7402391,10.737674" id="Fill-8"></path>
                                </g>
                                <g id="Page-1-Copy-4" transform="translate(72.391304, 114.934325)" fill="#FFFFFF">
                                    <g id="Group-3" transform="translate(0.000000, 0.507409)">
                                        <path d="M4.2296087,24.5107243 C4.36982609,24.4095037 4.45004348,24.3546487 4.527,24.2952224 C6.14178261,23.0472708 7.752,21.7914827 9.37786957,20.5578978 C9.57156522,20.4116177 9.85330435,20.3097441 10.0939565,20.3090911 C16.658087,20.2960304 23.2222174,20.2986425 29.7863478,20.2986425 C30.4502609,20.2979895 30.7183043,20.0504888 30.7189565,19.4229213 C30.7202609,13.6781642 30.720913,7.9340601 30.7176522,2.18995601 C30.7176522,1.38737485 30.5154783,1.19668835 29.7165652,1.19668835 C25.568087,1.19668835 21.4202609,1.19734139 17.2724348,1.19734139 C12.1646087,1.19734139 7.05678261,1.19668835 1.94895652,1.19734139 C1.29417391,1.19734139 1.0796087,1.40631289 1.05352174,2.06457311 C1.04895652,2.18538476 1.05091304,2.30750248 1.05091304,2.42896716 L1.05091304,7.16804895 C1.05091304,11.2442993 1.05026087,15.3205496 1.05091304,19.3967999 C1.05156522,20.0478767 1.302,20.2953773 1.95417391,20.2979895 C2.45113043,20.3006016 2.94743478,20.2992955 3.44373913,20.2986425 C4.08873913,20.2979895 4.23026087,20.4429634 4.2296087,21.1018767 C4.22895652,22.2146499 4.2296087,23.3280762 4.2296087,24.5107243 M3.17895652,21.3500304 C2.71786957,21.3500304 2.31026087,21.3532955 1.90265217,21.3487243 C0.876130435,21.3376227 0.00286956522,20.4697379 0.0022173913,19.4412063 C-0.00104347826,13.7179994 -0.00104347826,7.99479244 0.00286956522,2.2715855 C0.00352173913,1.15685316 0.608086957,0.351006815 1.55504348,0.177299257 C1.71613043,0.147912639 1.8843913,0.146606568 2.04873913,0.146606568 C11.273087,0.145300496 20.4974348,0.145300496 29.7217826,0.145953532 C30.9087391,0.145953532 31.6815652,0.875394672 31.763087,2.07371561 C31.7722174,2.20562887 31.7696087,2.3388482 31.7696087,2.4714145 L31.7696087,19.2433364 C31.7696087,20.5422249 30.9628696,21.3500304 29.667,21.3500304 C23.2228696,21.3500304 16.7793913,21.3487243 10.3352609,21.3572138 C10.1663478,21.3578668 9.96678261,21.4270886 9.83178261,21.5302683 C7.93917391,22.979355 6.05504348,24.4401964 4.17026087,25.8990787 C3.96286957,26.0597255 3.75873913,26.2040465 3.4796087,26.0662559 C3.207,25.9310774 3.17569565,25.6914133 3.177,25.4230155 C3.18091304,24.196614 3.17895652,22.9708656 3.17895652,21.7444641 L3.17895652,21.3500304" id="Fill-1"></path>
                                    </g>
                                    <path d="M20.7117391,10.7272907 C20.7084783,10.1297628 21.3052174,9.53092887 21.8993478,9.53419405 C22.4745652,9.53811227 23.0752174,10.1278037 23.0902174,10.7031284 C23.1045652,11.2810652 22.4947826,11.9060206 21.9071739,11.9151631 C21.318913,11.9249586 20.715,11.3248186 20.7117391,10.7272907" id="Fill-4"></path>
                                    <path d="M12.3948261,10.7244173 C12.3948261,11.317374 11.7889565,11.9214322 11.2000435,11.9155549 C10.6143913,11.9096776 10.0046087,11.2873343 10.0156957,10.7067854 C10.0267826,10.1327668 10.6300435,9.53589195 11.2013478,9.53393284 C11.7961304,9.53132069 12.3948261,10.1281955 12.3948261,10.7244173" id="Fill-6"></path>
                                    <path d="M17.7402391,10.737674 C17.7317609,11.3299776 17.1167609,11.9288115 16.5298043,11.9157508 C15.9402391,11.9026901 15.3441522,11.2783877 15.3611087,10.6932675 C15.377413,10.1166368 15.9839348,9.52890446 16.5571957,9.53412875 C17.1526304,9.54000607 17.7487174,10.1460234 17.7402391,10.737674" id="Fill-8"></path>
                                </g>
                                <g id="Page-1" transform="translate(40.434783, 0.000000)" fill="#FFFFFF">
                                    <g id="Group-3" transform="translate(11.739130, 12.331604)">
                                        <path d="M17.7522391,17.3650092 C17.7678913,17.3447651 17.7835435,17.3245209 17.7985435,17.3049299 C17.3439783,16.4233314 16.889413,15.5417328 16.4355,14.6601343 C16.2209348,14.2434974 16.2555,14.0665247 16.6076739,13.7693933 C17.3759348,13.1222347 18.0463696,12.3882223 18.4370217,11.4511157 C19.4635435,8.9898233 19.0239783,6.72248253 17.3876739,4.69088773 C15.8107174,2.733086 13.6820217,1.72806369 11.2135435,1.48448129 C8.35832609,1.20236976 5.78028261,1.92201537 3.63658696,3.89679603 C1.4655,5.89769814 0.763108696,8.66918265 1.75767391,11.3198555 C2.57941304,13.510138 4.16158696,14.9938357 6.28506522,15.8924131 C8.57680435,16.8621715 10.8920217,16.8451926 13.2072391,15.9283301 C13.4348478,15.8382112 13.7335435,15.7859683 13.956587,15.8551901 C14.5018043,16.0230203 15.0202826,16.2750922 15.5518043,16.4886349 C16.2841957,16.7831542 17.0185435,17.0731021 17.7522391,17.3650092 M10.8202826,0.377585378 C13.8450652,0.514722924 16.8802826,1.93572912 18.8987609,5.13952342 C20.7731087,8.11410211 20.2807174,11.691433 17.7398478,14.1494602 C17.5370217,14.346024 17.5096304,14.4805494 17.6420217,14.7287031 C18.2231087,15.8186201 18.7787609,16.9215978 19.3507174,18.016086 C19.4876739,18.2786064 19.5737609,18.5313314 19.341587,18.7768729 C19.1231087,19.0080476 18.8759348,18.9525395 18.6111522,18.8454416 C17.069413,18.2224454 15.5270217,17.6001021 13.9768043,16.999309 C13.7955,16.9294342 13.5405,16.9307403 13.3585435,16.9999621 C8.78223913,18.7383437 3.25115217,16.6225073 1.0781087,12.2896139 C-0.337108696,9.46849864 0.142891304,6.28298934 2.35441304,3.81320743 C4.30245652,1.63859777 7.14984783,0.382156629 10.8202826,0.377585378" id="Fill-1"></path>
                                    </g>
                                    <path d="M23.8150435,9.78247831 L22.7396087,9.78247831 C22.6711304,9.27245725 22.6391739,8.76504833 22.5315652,8.27527137 C22.0196087,5.94262701 20.6383043,4.22383643 18.6700435,2.95629368 C16.313087,1.43733209 13.6991739,0.90445477 10.9313478,1.08142751 C8.64091304,1.22770756 6.51352174,1.89249814 4.63591304,3.2455886 C2.84308696,4.53794672 1.56091304,6.20971871 1.182,8.42677571 C0.679826087,11.3615192 1.542,13.8567695 3.79917391,15.8354684 C4.30982609,16.2834511 4.32873913,16.3670397 4.00526087,16.9502007 C3.42221739,18.0009356 2.83917391,19.0523234 2.21569565,20.1755452 C2.38982609,20.116119 2.49808696,20.0828141 2.60308696,20.0423259 C4.24852174,19.4101871 5.89526087,18.7819665 7.53678261,18.1400322 C7.80873913,18.0342404 8.04743478,18.0237918 8.33047826,18.1152169 C8.9043913,18.3013321 9.4946087,18.4378166 10.107,18.6023817 C10.0613478,18.9230223 10.0137391,19.2560706 9.96091304,19.6309133 C9.38569565,19.4859393 8.84569565,19.3298637 8.29656522,19.2201537 C8.07352174,19.1757472 7.80808696,19.171829 7.60004348,19.2508463 C5.55873913,20.0201227 3.52591304,20.8102962 1.49178261,21.5965514 C1.197,21.7108327 0.902869565,21.842746 0.645913043,21.5377782 C0.388304348,21.2315043 0.579391304,20.9611475 0.730043478,20.6888315 C1.43765217,19.4160644 2.13678261,18.1387261 2.85613043,16.8724895 C2.98721739,16.6406617 2.98395652,16.5133197 2.78243478,16.319368 C0.875478261,14.4817249 -0.0584347829,12.2209145 0.00286956491,9.58003717 C0.0589565214,7.15400867 1.11091304,5.15114746 2.83134783,3.49766047 C5.01743478,1.39684387 7.67373913,0.319987608 10.6691739,0.0574671617 C13.5413478,-0.193951674 16.2478696,0.373536555 18.7346087,1.84743866 C21.0146087,3.19987608 22.7083043,5.06168154 23.4413478,7.66990706 C23.6304783,8.34057497 23.6891739,9.04781289 23.8150435,9.78247831" id="Fill-4"></path>
                                </g>
                                <g id="Page-1-Copy-6" transform="translate(24.782609, 114.934325)" fill="#FFFFFF">
                                    <g id="Group-3" transform="translate(11.739130, 12.331604)">
                                        <path d="M17.7522391,17.3650092 C17.7678913,17.3447651 17.7835435,17.3245209 17.7985435,17.3049299 C17.3439783,16.4233314 16.889413,15.5417328 16.4355,14.6601343 C16.2209348,14.2434974 16.2555,14.0665247 16.6076739,13.7693933 C17.3759348,13.1222347 18.0463696,12.3882223 18.4370217,11.4511157 C19.4635435,8.9898233 19.0239783,6.72248253 17.3876739,4.69088773 C15.8107174,2.733086 13.6820217,1.72806369 11.2135435,1.48448129 C8.35832609,1.20236976 5.78028261,1.92201537 3.63658696,3.89679603 C1.4655,5.89769814 0.763108696,8.66918265 1.75767391,11.3198555 C2.57941304,13.510138 4.16158696,14.9938357 6.28506522,15.8924131 C8.57680435,16.8621715 10.8920217,16.8451926 13.2072391,15.9283301 C13.4348478,15.8382112 13.7335435,15.7859683 13.956587,15.8551901 C14.5018043,16.0230203 15.0202826,16.2750922 15.5518043,16.4886349 C16.2841957,16.7831542 17.0185435,17.0731021 17.7522391,17.3650092 M10.8202826,0.377585378 C13.8450652,0.514722924 16.8802826,1.93572912 18.8987609,5.13952342 C20.7731087,8.11410211 20.2807174,11.691433 17.7398478,14.1494602 C17.5370217,14.346024 17.5096304,14.4805494 17.6420217,14.7287031 C18.2231087,15.8186201 18.7787609,16.9215978 19.3507174,18.016086 C19.4876739,18.2786064 19.5737609,18.5313314 19.341587,18.7768729 C19.1231087,19.0080476 18.8759348,18.9525395 18.6111522,18.8454416 C17.069413,18.2224454 15.5270217,17.6001021 13.9768043,16.999309 C13.7955,16.9294342 13.5405,16.9307403 13.3585435,16.9999621 C8.78223913,18.7383437 3.25115217,16.6225073 1.0781087,12.2896139 C-0.337108696,9.46849864 0.142891304,6.28298934 2.35441304,3.81320743 C4.30245652,1.63859777 7.14984783,0.382156629 10.8202826,0.377585378" id="Fill-1"></path>
                                    </g>
                                    <path d="M23.8150435,9.78247831 L22.7396087,9.78247831 C22.6711304,9.27245725 22.6391739,8.76504833 22.5315652,8.27527137 C22.0196087,5.94262701 20.6383043,4.22383643 18.6700435,2.95629368 C16.313087,1.43733209 13.6991739,0.90445477 10.9313478,1.08142751 C8.64091304,1.22770756 6.51352174,1.89249814 4.63591304,3.2455886 C2.84308696,4.53794672 1.56091304,6.20971871 1.182,8.42677571 C0.679826087,11.3615192 1.542,13.8567695 3.79917391,15.8354684 C4.30982609,16.2834511 4.32873913,16.3670397 4.00526087,16.9502007 C3.42221739,18.0009356 2.83917391,19.0523234 2.21569565,20.1755452 C2.38982609,20.116119 2.49808696,20.0828141 2.60308696,20.0423259 C4.24852174,19.4101871 5.89526087,18.7819665 7.53678261,18.1400322 C7.80873913,18.0342404 8.04743478,18.0237918 8.33047826,18.1152169 C8.9043913,18.3013321 9.4946087,18.4378166 10.107,18.6023817 C10.0613478,18.9230223 10.0137391,19.2560706 9.96091304,19.6309133 C9.38569565,19.4859393 8.84569565,19.3298637 8.29656522,19.2201537 C8.07352174,19.1757472 7.80808696,19.171829 7.60004348,19.2508463 C5.55873913,20.0201227 3.52591304,20.8102962 1.49178261,21.5965514 C1.197,21.7108327 0.902869565,21.842746 0.645913043,21.5377782 C0.388304348,21.2315043 0.579391304,20.9611475 0.730043478,20.6888315 C1.43765217,19.4160644 2.13678261,18.1387261 2.85613043,16.8724895 C2.98721739,16.6406617 2.98395652,16.5133197 2.78243478,16.319368 C0.875478261,14.4817249 -0.0584347829,12.2209145 0.00286956491,9.58003717 C0.0589565214,7.15400867 1.11091304,5.15114746 2.83134783,3.49766047 C5.01743478,1.39684387 7.67373913,0.319987608 10.6691739,0.0574671617 C13.5413478,-0.193951674 16.2478696,0.373536555 18.7346087,1.84743866 C21.0146087,3.19987608 22.7083043,5.06168154 23.4413478,7.66990706 C23.6304783,8.34057497 23.6891739,9.04781289 23.8150435,9.78247831" id="Fill-4"></path>
                                </g>
                            </g>
                            <g id="Oval-Copy-2">
                                <use fill="black" fill-opacity="1" filter="url(#filter-13)" xlink:href="#path-12"></use>
                                <use fill="url(#linearGradient-1)" fill-rule="evenodd" xlink:href="#path-12"></use>
                            </g>
                            <g id="Page-1" transform="translate(317.608696, 38.529120)">
                                <g id="Group-3" transform="translate(0.000000, 0.591799)">
                                    <mask id="mask-15" fill="white">
                                        <use xlink:href="#path-14"></use>
                                    </mask>
                                    <g id="Clip-2"></g>
                                    <path d="M70.8787136,116.547005 C82.3529847,116.547005 93.8286496,116.556771 105.302921,116.521892 C105.930159,116.520497 106.728841,116.33773 107.152575,115.93034 C110.019749,113.170695 112.818624,110.338501 115.606348,107.496542 C115.883726,107.214717 116.073292,106.711061 116.074685,106.310648 C116.096987,83.0615458 116.101169,59.812444 116.067716,36.5633422 C116.066322,36.001089 115.745734,35.3104802 115.34709,34.8989052 C112.740568,32.2048332 110.096412,29.5442453 107.397895,26.9436497 C106.92677,26.4888245 106.139238,26.1232901 105.498061,26.121895 C82.500734,26.0800399 59.5048005,26.081435 36.508867,26.1191046 C35.9039309,26.1204998 35.156821,26.4441791 34.7177545,26.8683105 C32.0220256,29.4730917 29.3681125,32.1239134 26.7713478,34.8291468 C26.3211304,35.2979237 25.9754527,36.0931702 25.9740588,36.7377384 C25.9336368,59.7092015 25.9336368,82.6806646 25.9768465,105.652128 C25.9782404,106.335761 26.3629463,107.167282 26.8396471,107.676518 C29.3709003,110.377566 32.0122685,112.975371 34.5602481,115.662468 C35.1930614,116.329359 35.8342379,116.569328 36.7332788,116.567933 C48.1141611,116.541424 59.4964373,116.55119 70.8787136,116.547005 L70.8787136,116.547005 Z M93.2571662,142.301831 L89.9160793,142.301831 L89.9160793,119.974936 L79.735312,119.974936 L79.735312,142.266952 L76.364954,142.266952 L76.364954,119.986097 L66.1744297,119.986097 L66.1744297,142.271137 L62.7831637,142.271137 L62.7831637,119.974936 L52.6400307,119.974936 L52.6400307,142.307412 L49.2877928,142.307412 L49.2877928,119.959589 C48.6535857,119.930291 48.165734,119.889831 47.6764885,119.889831 C43.5116292,119.88704 39.3467698,119.920524 35.1819105,119.859137 C34.5741867,119.849371 33.8284706,119.538248 33.3921918,119.112721 C30.0455294,115.84942 26.7337136,112.545659 23.4804399,109.187487 C23.0009514,108.692202 22.6580614,107.845334 22.6441228,107.15333 C22.5660665,103.07804 22.6037008,99.0013554 22.6037008,94.9246706 L22.6037008,93.2532578 L0.0105933504,93.2532578 L0.0105933504,89.9257789 L22.6050946,89.9257789 C22.6050946,87.2386828 22.600913,84.7064504 22.6064885,82.1756133 C22.6106701,79.6475664 22.6162455,79.6461713 20.1560793,79.6461713 C13.9547877,79.6433809 7.75349616,79.6419858 1.5522046,79.6391954 L-0.000557544757,79.6391954 L-0.000557544757,76.3131117 L22.5228568,76.3131117 L22.5228568,66.1506983 L0.00362404092,66.1506983 L0.00362404092,62.7897354 L22.5130997,62.7897354 L22.5130997,52.5757007 L0.0342890026,52.5757007 L0.0342890026,49.232875 L22.389046,49.232875 L22.389046,47.6242447 C22.389046,43.4554788 22.3583811,39.2853176 22.4224987,35.1179468 C22.4308619,34.5110482 22.7402992,33.7660277 23.1640332,33.3307349 C26.4256701,29.9809333 29.726335,26.666011 33.0813606,23.4096858 C33.5747877,22.9311427 34.4152864,22.5809552 35.1010665,22.5697938 C39.6757212,22.497245 44.2517698,22.5321243 48.9644169,22.5321243 L48.9644169,0.163374329 L52.3333811,0.163374329 L52.3333811,22.4288817 L62.5294808,22.4288817 L62.5294808,0.152212974 L65.92911,0.152212974 L65.92911,22.4428334 L76.0764246,22.4428334 L76.0764246,0.115938572 L79.4272685,0.115938572 L79.4272685,22.4316721 L89.6219744,22.4316721 L89.6219744,0.146632297 L92.9435473,0.146632297 L92.9435473,22.4372527 C93.5261816,22.4749223 93.9276138,22.5223581 94.3304399,22.5223581 C98.5412967,22.5307291 102.753547,22.497245 106.96301,22.5670035 C107.613944,22.5767697 108.416808,22.8823118 108.876783,23.3301611 C112.262473,26.6213656 115.597985,29.9655865 118.89168,33.3488721 C119.31402,33.7827698 119.613701,34.5333709 119.623458,35.1416647 C119.686182,39.2643901 119.655517,43.3871155 119.655517,47.5098408 L119.655517,49.1491648 L142.010274,49.1491648 L142.010274,52.5226843 L119.751693,52.5226843 L119.751693,62.7283479 L142.021425,62.7283479 L142.021425,66.073964 L119.732179,66.073964 L119.732179,76.274047 L142.050696,76.274047 L142.050696,79.6308244 L119.753087,79.6308244 L119.753087,89.8336977 L142.020031,89.8336977 L142.020031,93.180709 L119.898049,93.180709 L119.898049,94.7600407 C119.899442,98.9288066 119.930107,103.098968 119.868777,107.266339 C119.860414,107.874632 119.560734,108.622443 119.139788,109.054946 C115.844698,112.436836 112.507793,115.781057 109.123496,119.073657 C108.660734,119.522901 107.866233,119.845185 107.219481,119.856347 C103.102013,119.923315 98.9831509,119.888436 94.864289,119.88704 L93.2571662,119.88704 L93.2571662,142.301831 Z" id="Fill-1" fill="#FFFFFF" mask="url(#mask-15)"></path>
                                </g>
                                <path d="M66.2513708,51.9496562 C65.7105524,52.1491654 65.2547596,52.2384562 64.8923555,52.4714495 C64.483954,52.7337413 64.1591841,53.1271791 63.7661151,53.4913183 C62.8336215,52.895581 61.9513069,52.3305374 61.0648107,51.7640986 C62.2314731,49.6113524 64.0420997,48.6584517 66.3127008,48.3682565 C66.3127008,46.1694696 66.3823939,44.0404412 66.2917928,41.9197838 C66.2179182,40.2316289 64.5620102,38.946678 62.9270102,39.1378162 C61.1972276,39.3401157 59.9092992,40.9752542 60.204798,42.6885221 C60.3009744,43.2451947 60.6048363,43.766988 60.8167033,44.3124992 C60.0180205,44.9096317 59.2444271,45.488627 58.4220486,46.1038967 C57.1578159,44.3934191 55.4433657,44.1841437 53.5895294,44.7157032 C51.9628926,45.1816897 51.2896573,46.4861731 51.070821,48.051553 C50.7418696,50.4107844 49.6016905,51.4780889 47.2600026,51.5464522 C42.8163708,51.6775981 39.7178159,55.1641263 40.2126368,59.544958 C40.4969847,62.0646338 41.8922404,63.8909105 44.1112685,65.1939987 C43.6512941,66.2403757 43.2191969,67.22397 42.7397084,68.3135973 C42.1459233,67.9703856 41.6232251,67.8029653 41.2970614,67.4527778 C40.4203223,66.5096433 39.7331483,66.9002907 38.9609488,67.5867141 C35.9279054,70.2849716 36.6373811,75.3006053 40.2948747,77.0068974 C40.9165371,77.2970926 41.3026368,77.2189631 41.8546061,76.7473959 C43.1299898,75.6577687 44.5280332,74.7118438 46.0334041,73.5901277 C46.5979182,74.902982 47.0105013,75.8600682 47.437023,76.8492433 C43.4896061,78.7383025 41.3765115,81.7672152 41.7695806,86.0754981 C42.2574322,91.3980691 45.6319719,93.9861082 50.7822916,94.6097489 L50.7822916,96.2114033 L50.7822916,97.7223717 L49.4107315,97.7223717 C49.8456164,99.8332629 51.1795422,101.121004 53.391601,101.374925 C56.4971253,101.729298 57.9801944,99.7732706 58.9210512,97.1866266 C59.4897468,97.2549899 59.9929309,97.3038209 60.4905396,97.37916 C61.0229949,97.4586847 61.5512685,97.5647175 62.3011662,97.6972586 C61.8244655,98.8399023 61.5289668,99.8723276 60.9867545,100.754075 C60.4807826,101.57862 60.6229565,102.235744 61.0689923,102.933329 C61.7659233,104.024352 63.0859105,104.494524 64.3403862,104.130384 C65.7328542,103.72718 66.3294271,102.906821 66.330821,101.362368 C66.3350026,98.4450694 66.3475473,95.5263751 66.3196701,92.6090761 C66.3140946,92.0203146 66.2220997,91.4064401 66.0353223,90.8483724 C65.0568312,87.9380491 63.2169335,85.9931831 60.0110512,85.7448429 L60.0110512,82.5220018 C62.4391586,82.4187592 64.3696573,83.413515 66.2527647,84.930064 L66.2527647,67.6536822 C63.4566777,67.4262696 61.8760384,68.8591085 60.9435448,71.3215824 C59.9134808,71.0230161 58.9600793,70.7467726 57.8923811,70.4356498 C59.3949642,66.4915061 61.8955524,64.1476217 66.2513708,64.2145898 L66.2513708,51.9496562 Z M57.5857315,103.961569 C52.0479182,105.977589 47.0007442,103.651841 45.9567417,98.4952955 C45.6737877,97.1015213 45.0646701,96.4290497 43.945399,95.7272795 C39.352624,92.8518355 37.314798,87.0256084 38.9233146,81.7504731 C39.0571253,81.3095996 39.2132379,80.8770971 39.4000153,80.3190294 C36.1523171,78.7634156 34.0461918,76.3107079 33.7576624,72.5981623 C33.4733146,68.945609 34.9870486,66.1427138 38.0465754,64.0234516 C36.3823043,60.4504229 36.2610384,56.8690232 38.3671637,53.4438825 C40.4495934,50.0550162 43.6248107,48.5105638 47.6349514,48.4087164 C48.0851688,46.2001633 48.8406419,44.1353127 50.7335064,42.7303772 C52.6403095,41.3156755 54.8203095,41.1594165 57.156422,41.467749 C57.3125345,41.031061 57.4561023,40.6069295 57.6163964,40.1897739 C58.7119719,37.3282816 61.5861151,35.5843199 64.4058977,36.0642581 C67.6633529,36.6181404 69.9046829,39.1601389 69.9060767,42.3997221 C69.9172276,61.8888425 69.9144399,81.3779629 69.9074706,100.867083 C69.9060767,104.015981 68.0494527,106.573326 65.2519719,107.357411 C62.3388005,108.17498 59.7225217,107.088143 57.913289,104.314547 C57.8408082,104.202933 57.7306931,104.116433 57.5857315,103.961569 L57.5857315,103.961569 Z" id="Fill-4" fill="#FFFFFF"></path>
                                <path d="M97.9643772,65.2524562 C98.1441854,65.3947635 98.3253875,65.538466 98.5051957,65.6807732 C99.2397609,64.6720658 100.039838,63.7024231 100.696347,62.6448848 C102.175234,60.2619355 102.35783,57.7590018 101.023904,55.2588583 C99.6467685,52.6791902 97.3650166,51.5797968 94.5117813,51.5435224 C92.6133414,51.5198045 91.1916023,50.2111357 90.9867046,48.3332377 C90.7971394,46.5990423 90.0820882,45.1606227 88.2895818,44.6737086 C86.4928939,44.1867945 84.8049271,44.3988602 83.6438402,46.1428219 C82.7963721,45.4982537 81.9935077,44.8857743 81.1167685,44.2202785 C81.253367,43.9984466 81.374633,43.8184698 81.4805665,43.6301219 C82.1440448,42.4386473 82.0116279,41.2946084 81.1599783,40.2761348 C80.3194795,39.2702177 79.2155409,38.8642235 77.9276125,39.2730081 C76.6689552,39.6720265 75.8228811,40.5607494 75.7615512,41.8777892 C75.6611931,44.0403017 75.7350678,46.2111852 75.7350678,48.3541653 C78.5130345,48.9010717 79.8385972,49.8065366 80.8825997,51.8741775 C79.9933159,52.414108 79.0970627,52.9596192 78.3708606,53.4018879 C77.4662442,52.8535864 76.7149527,52.3959708 75.8103363,51.8462741 L75.8103363,64.1586435 C80.991321,64.5576619 83.6285077,67.1680237 83.9254003,70.5206157 C82.9218197,70.778722 81.9084821,71.0410138 80.8435716,71.3158622 C79.9278043,68.7878153 78.2969859,67.4400818 75.5775614,67.6423813 L75.5775614,85.0066588 C77.4397609,83.335246 79.3939552,82.4395473 81.798367,82.5330236 L81.798367,85.7516793 C78.0753619,86.1004716 76.0445051,88.4610981 75.5942877,91.7509074 C75.1482519,95.0239747 75.4312059,98.4058651 75.5120499,101.737529 C75.5468964,103.146651 76.8473696,104.308827 78.2495946,104.451134 C79.4120754,104.568328 80.3180857,104.084204 80.9745946,103.132699 C81.5377148,102.31513 81.4345691,101.577085 80.9146586,100.710685 C80.415656,99.8805591 80.1912442,98.8844082 79.7967813,97.8268699 C81.1097992,97.6622399 82.1454386,97.5338843 83.1518069,97.4083191 C84.2334437,100.236327 85.6147609,101.486399 87.7139169,101.609174 C89.7670754,101.729158 91.6362442,100.685572 92.4906816,98.9164971 C92.6593389,98.5690999 92.7555153,98.1868235 92.9185972,97.7236273 L91.5484309,97.7236273 L91.5484309,94.581706 C96.1635077,94.0947919 99.4362954,91.8471741 100.339518,87.2193974 C101.266436,82.4674507 99.2104898,78.9669708 94.8254003,76.81841 C95.2881624,75.772033 95.7077148,74.8219227 96.2847737,73.5188346 C97.7706304,74.6545024 99.1505537,75.5641528 100.340912,76.6774979 C101.002996,77.2969531 101.439275,77.2676546 102.118086,76.8728216 C105.413175,74.9586493 105.977689,70.3071547 103.215055,67.713535 C102.417766,66.964329 101.648354,66.4104468 100.63641,67.4540335 C100.306065,67.7958499 99.77361,67.9395524 99.2341854,68.2255621 C98.783968,67.1708141 98.3741726,66.2123328 97.9643772,65.2524562 M84.8411675,41.4090123 C90.8765895,41.1648577 93.243367,42.8864967 94.4100294,48.319286 C102.038636,48.3346329 107.784134,55.9550478 103.991436,63.9884328 C106.988239,66.0309607 108.449006,68.8882675 108.099147,72.5896518 C107.749288,76.2896408 105.771398,78.8316394 102.792715,80.3133092 C102.987855,82.6809116 103.467344,84.9271342 103.293111,87.1203404 C102.959978,91.3379373 100.639198,94.4128905 96.9928555,96.5251769 C96.5886355,96.7595653 96.1607199,97.284149 96.09939,97.7236273 C95.3202212,103.287563 90.3998887,106.294153 85.0850934,104.400908 C84.8746202,104.326964 84.6655409,104.247439 84.382587,104.144197 C83.0932647,106.609461 81.0707711,107.905573 78.3234693,107.806516 C74.7259118,107.678161 72.1375102,104.848757 72.1319348,101.115284 C72.1179962,91.9448359 72.1263593,82.7743879 72.1277532,73.6039399 C72.1291471,63.2280655 72.1179962,52.8535864 72.140298,42.4791072 C72.1472673,39.1446525 74.4164744,36.5747506 77.7115639,36.0459814 C80.6094028,35.5799949 83.5309373,37.4885865 84.5610013,40.5202895 C84.6627532,40.8202509 84.7519604,41.1230026 84.8411675,41.4090123" id="Fill-6" fill="#FFFFFF"></path>
                                <path d="M51.8909693,63.556907 C50.794,63.0853397 49.865688,62.6863213 48.9443453,62.2914884 C50.1974271,58.3292075 55.0271586,56.010436 59.6492046,57.2102817 C59.4470946,58.1631823 59.2421969,59.1230588 59.019179,60.1666455 C55.9749847,59.8959826 53.3949463,60.5265992 51.8909693,63.556907" id="Fill-8" fill="#FFFFFF"></path>
                                <path d="M49.8058913,79.8781559 C50.1515691,79.9646564 50.5000345,80.0804554 50.8554693,80.1376574 C52.0946125,80.3343763 52.8500857,80.7166527 52.7803926,82.3043554 C52.7023363,84.0734301 53.9317225,85.333268 55.4496381,86.2833783 C54.834945,87.2725534 54.2829757,88.1598811 53.7337941,89.0416281 C50.374587,87.278134 48.5946253,83.1009971 49.8058913,79.8781559" id="Fill-10" fill="#FFFFFF"></path>
                                <path d="M90.4265115,63.7558581 C88.5322532,60.8901803 87.595578,60.4493068 83.2467289,60.3474594 C82.9651688,59.3457278 82.6724578,58.2993508 82.3797468,57.2529738 C86.7592609,55.870361 91.7464987,58.2337779 93.3299258,62.5057864 C92.3890691,62.9117807 91.4356675,63.3205653 90.4265115,63.7558581" id="Fill-12" fill="#FFFFFF"></path>
                                <path d="M92.4471931,79.8435557 C93.598523,83.1682442 91.9969757,86.9993792 88.5708632,89.0795767 C88.0119246,88.1992248 87.4488043,87.3146875 86.8090217,86.3073752 C88.7325512,85.0042871 89.6636509,83.207309 89.2608248,80.7225124 C90.3647634,80.4183655 91.4073721,80.1295654 92.4471931,79.8435557" id="Fill-14" fill="#FFFFFF"></path>
                            </g>
                        </g>
                    </g>
                </g>
            </g>
        </g>
    </g>
</svg>