<?xml version="1.0" encoding="UTF-8"?>
<svg width="143px" height="143px" version="1.1" viewBox="0 0 143 143" xmlns="http://www.w3.org/2000/svg"
     xmlns:xlink="http://www.w3.org/1999/xlink">
    <defs>
        <polygon id="c" points="142.05 0.11594 142.05 142.31 0 142.31 0 0.11594"/>
        <polygon id="b" points="0 143 142.05 143 142.05 0.809 0 0.809"/>
    </defs>
    <g fill="none" fill-rule="evenodd">
        <g transform="translate(-939 -2606)">
            <g transform="translate(-235 2290)">
                <g transform="translate(857 277)">
                    <g transform="translate(317 38)">
                        <g transform="translate(.6087 .52912)">
                            <g transform="translate(0 .5918)">
                                <mask fill="white">
                                    <use xlink:href="#c"/>
                                </mask>
                            </g>
                            <path d="m66.251 51.95c-0.54082 0.19951-0.99661 0.2888-1.359 0.52179-0.4084 0.26229-0.73317 0.65573-1.1262 1.0199-0.93249-0.59574-1.8148-1.1608-2.7013-1.7272 1.1667-2.1527 2.9773-3.1056 5.2479-3.3958 0-2.1988 0.069693-4.3278-0.020908-6.4485-0.073875-1.6882-1.7298-2.9731-3.3648-2.782-1.7298 0.2023-3.0177 1.8374-2.7222 3.5507 0.096176 0.55667 0.40004 1.0785 0.61191 1.624-0.79868 0.59713-1.5723 1.1761-2.3947 1.7914-1.2642-1.7105-2.9787-1.9198-4.8325-1.3882-1.6266 0.46599-2.2999 1.7705-2.5187 3.3358-0.32895 2.3592-1.4691 3.4265-3.8108 3.4949-4.4436 0.13115-7.5422 3.6177-7.0474 7.9985 0.28435 2.5197 1.6796 4.346 3.8986 5.649-0.45997 1.0464-0.89207 2.03-1.3716 3.1196-0.59379-0.34321-1.1165-0.51063-1.4426-0.86082-0.87674-0.94313-1.5639-0.55249-2.3361 0.13394-3.033 2.6983-2.3236 7.7139 1.3339 9.4202 0.62166 0.2902 1.0078 0.21207 1.5597-0.2595 1.2754-1.0896 2.6734-2.0356 4.1788-3.1573 0.56451 1.3129 0.9771 2.2699 1.4036 3.2591-3.9474 1.8891-6.0605 4.918-5.6674 9.2263 0.48785 5.3226 3.8624 7.9106 9.0127 8.5343v1.6017 1.511h-1.3716c0.43488 2.1109 1.7688 3.3986 3.9809 3.6526 3.1055 0.35437 4.5886-1.6017 5.5295-4.1883 0.5687 0.068363 1.0719 0.11719 1.5695 0.19253 0.53246 0.079525 1.0607 0.18556 1.8106 0.3181-0.4767 1.1426-0.7722 2.1751-1.3144 3.0568-0.50597 0.82454-0.3638 1.4817 0.082238 2.1793 0.69693 1.091 2.0169 1.5612 3.2714 1.1971 1.3925-0.4032 1.989-1.2236 1.9904-2.768 0.0041816-2.9173 0.016726-5.836-0.011151-8.7533-0.0055755-0.58876-0.09757-1.2026-0.28435-1.7607-0.97849-2.9103-2.8184-4.8552-6.0243-5.1035v-3.2228c2.4281-0.10324 4.3586 0.89151 6.2417 2.4081v-17.276c-2.7961-0.22741-4.3767 1.2054-5.3092 3.6679-1.0301-0.29857-1.9835-0.57481-3.0512-0.88593 1.5026-3.9441 4.0032-6.288 8.359-6.2211v-12.265zm-8.6656 52.012c-5.5378 2.016-10.585-0.30973-11.629-5.4663-0.28295-1.3938-0.89207-2.0662-2.0113-2.768-4.5928-2.8754-6.6306-8.7017-5.0221-13.977 0.13381-0.44087 0.28992-0.87338 0.4767-1.4314-3.2477-1.5556-5.3538-4.0083-5.6424-7.7209-0.28435-3.6526 1.2294-6.4554 4.2889-8.5747-1.6643-3.573-1.7855-7.1544 0.32059-10.58 2.0824-3.3889 5.2576-4.9333 9.2678-5.0352 0.45022-2.2086 1.2057-4.2734 3.0986-5.6783 1.9068-1.4147 4.0868-1.571 6.4229-1.2626 0.15611-0.43669 0.29968-0.86082 0.45997-1.278 1.0956-2.8615 3.9697-4.6055 6.7895-4.1255 3.2575 0.55388 5.4988 3.0959 5.5002 6.3355 0.011151 19.489 0.0083632 38.978 0.0013939 58.467-0.0013939 3.1489-1.858 5.7062-4.6555 6.4903-2.9132 0.81757-5.5295-0.26927-7.3387-3.0429-0.072481-0.11161-0.1826-0.19811-0.32756-0.35298z"
                                  fill="#fff"/>
                            <path d="m97.964 65.252c0.17981 0.14231 0.36101 0.28601 0.54082 0.42832 0.73457-1.0087 1.5346-1.9784 2.1912-3.0359 1.4789-2.3829 1.6615-4.8859 0.32756-7.386-1.3771-2.5797-3.6589-3.6791-6.5121-3.7153-1.8984-0.023718-3.3202-1.3324-3.5251-3.2103-0.18957-1.7342-0.90462-3.1726-2.6971-3.6595-1.7967-0.48691-3.4847-0.27485-4.6457 1.4691-0.84747-0.64457-1.6503-1.257-2.5271-1.9225 0.1366-0.22183 0.25786-0.40181 0.3638-0.59016 0.66348-1.1915 0.53106-2.3355-0.32059-3.354-0.8405-1.0059-1.9444-1.4119-3.2324-1.0031-1.2587 0.39902-2.1047 1.2877-2.1661 2.6048-0.10036 2.1625-0.026483 4.3334-0.026483 6.4764 2.778 0.54691 4.1035 1.4524 5.1475 3.52-0.88928 0.53993-1.7855 1.0854-2.5117 1.5277-0.90462-0.5483-1.6559-1.0059-2.5605-1.5556v12.312c5.181 0.39902 7.8182 3.0094 8.1151 6.362-1.0036 0.25811-2.0169 0.5204-3.0818 0.79525-0.91577-2.528-2.5466-3.8758-5.266-3.6735v17.364c1.8622-1.6714 3.8164-2.5671 6.2208-2.4736v3.2187c-3.723 0.34879-5.7539 2.7094-6.2041 5.9992-0.44604 3.2731-0.16308 6.655-0.082238 9.9866 0.034846 1.4091 1.3353 2.5713 2.7375 2.7136 1.1625 0.11719 2.0685-0.36693 2.725-1.3184 0.56312-0.81757 0.45997-1.5556-0.059936-2.422-0.499-0.83013-0.72341-1.8263-1.1179-2.8838 1.313-0.16463 2.3487-0.29299 3.355-0.41855 1.0816 2.828 2.463 4.0781 4.5621 4.2009 2.0532 0.11998 3.9223-0.9236 4.7768-2.6927 0.16866-0.3474 0.26483-0.72967 0.42792-1.1929h-1.3702v-3.1419c4.6151-0.48691 7.8879-2.7345 8.7911-7.3623 0.92692-4.7519-1.129-8.2524-5.5141-10.401 0.46276-1.0464 0.88231-1.9965 1.4594-3.2996 1.4859 1.1357 2.8658 2.0453 4.0561 3.1587 0.66208 0.61946 1.0984 0.59016 1.7772 0.19532 3.2951-1.9142 3.8596-6.5657 1.097-9.1593-0.79729-0.74921-1.5667-1.3031-2.5786-0.2595-0.33034 0.34182-0.8628 0.48552-1.4022 0.77153-0.45022-1.0547-0.86001-2.0132-1.2698-2.9731m-13.123-23.843c6.0354-0.24415 8.4022 1.4775 9.5689 6.9103 7.6286 0.015347 13.374 7.6358 9.5814 15.669 2.9968 2.0425 4.4576 4.8998 4.1077 8.6012-0.34986 3.7-2.3277 6.242-5.3064 7.7237 0.19514 2.3676 0.67463 4.6138 0.5004 6.807-0.33313 4.2176-2.6539 7.2926-6.3003 9.4048-0.40422 0.23439-0.83214 0.75897-0.89347 1.1985-0.77917 5.5639-5.6995 8.5705-11.014 6.6773-0.21047-0.073944-0.41955-0.15347-0.70251-0.25671-1.2893 2.4653-3.3118 3.7614-6.0591 3.6623-3.5976-0.12836-6.186-2.9578-6.1915-6.6912-0.013939-9.1704-0.0055755-18.341-0.0041816-27.511 0.0013939-10.376-0.009757-20.75 0.012545-31.125 0.0069693-3.3345 2.2762-5.9044 5.5713-6.4331 2.8978-0.46599 5.8194 1.4426 6.8494 4.4743 0.10175 0.29996 0.19096 0.60271 0.28017 0.88872"
                                  fill="#fff"/>
                            <path d="m51.891 63.557c-1.097-0.47157-2.0253-0.87059-2.9466-1.2654 1.2531-3.9623 6.0828-6.2811 10.705-5.0812-0.20211 0.9529-0.40701 1.9128-0.63003 2.9564-3.0442-0.27066-5.6242 0.35995-7.1282 3.3903"
                                  fill="#fff"/>
                            <path d="m49.806 79.878c0.34568 0.0865 0.69414 0.2023 1.0496 0.2595 1.2391 0.19672 1.9946 0.579 1.9249 2.1667-0.078056 1.7691 1.1513 3.0289 2.6692 3.979-0.61469 0.98918-1.1667 1.8765-1.7158 2.7582-3.3592-1.7635-5.1392-5.9406-3.9279-9.1635"
                                  fill="#fff"/>
                            <path d="m90.427 63.756c-1.8943-2.8657-2.8309-3.3066-7.1798-3.4084-0.28156-1.0017-0.57427-2.0481-0.86698-3.0945 4.3795-1.3826 9.3668 0.9808 10.95 5.2528-0.94086 0.40599-1.8943 0.81478-2.9034 1.2501"
                                  fill="#fff"/>
                            <path d="m92.447 79.844c1.1513 3.3247-0.45022 7.1558-3.8763 9.236-0.55894-0.88035-1.1221-1.7649-1.7618-2.7722 1.9235-1.3031 2.8546-3.1001 2.4518-5.5849 1.1039-0.30415 2.1465-0.59295 3.1864-0.87896"
                                  fill="#fff"/>
                        </g>
                        <g fill="#FEFEFE">
                            <polygon points="0.011 94.136 22.287 94.136 22.287 90.809 0.011 90.809"/>
                            <g transform="translate(0 .191)">
                                <path d="m0 77.006v3.326h1.553c6.201 3e-3 12.402 4e-3 18.604 7e-3 1.207 0 1.819 2e-3 2.13 0.302v-3.635h-22.287z"/>
                                <mask id="a" fill="white">
                                    <use xlink:href="#b"/>
                                </mask>
                                <polygon points="0.035 53.268 22.287 53.268 22.287 49.925 0.035 49.925" mask="url(#a)"/>
                                <polygon points="4e-3 66.843 22.287 66.843 22.287 63.482 4e-3 63.482" mask="url(#a)"/>
                                <path d="m92.944 0.8392h-3.322v22.237c1.106 1e-3 2.214 1e-3 3.322 2e-3v-22.239z"
                                      mask="url(#a)"/>
                                <path d="m52.334 0.856h-3.369v22.231c1.123-2e-3 2.245-4e-3 3.369-6e-3v-22.225z"
                                      mask="url(#a)"/>
                                <path d="m79.428 0.8085h-3.351v22.264c1.116 0 2.233 1e-3 3.351 1e-3v-22.265z"
                                      mask="url(#a)"/>
                                <path d="m65.93 0.8448h-3.4v22.229c1.132-1e-3 2.266-1e-3 3.4-1e-3v-22.228z"
                                      mask="url(#a)"/>
                                <path d="m104.43 23.08c-3.849 0-7.675-1e-3 -11.491-2e-3v8e-3l11.491-6e-3z"
                                      mask="url(#a)"/>
                                <path d="m62.53 23.103v-0.029c-3.403 1e-3 -6.803 3e-3 -10.196 7e-3v0.027l10.196-5e-3z"
                                      mask="url(#a)"/>
                                <path d="m89.622 23.088v-0.011c-3.408-2e-3 -6.808-3e-3 -10.195-4e-3v0.021l10.195-6e-3z"
                                      mask="url(#a)"/>
                                <path d="m35.102 23.118l13.863-8e-3v-0.023c-4.624 7e-3 -9.245 0.016-13.863 0.031"
                                      mask="url(#a)"/>
                                <path d="m76.077 23.096v-0.023c-3.391-1e-3 -6.772-1e-3 -10.147 0v0.028l10.147-5e-3z"
                                      mask="url(#a)"/>
                                <path d="m79.428 23.094v-0.02c-1.118-1e-3 -2.235-1e-3 -3.351-1e-3v0.023l3.351-2e-3z"
                                      mask="url(#a)"/>
                                <path d="m65.93 23.101v-0.028c-1.134 0-2.268 0-3.4 1e-3v0.029l3.4-2e-3z"
                                      mask="url(#a)"/>
                                <path d="m92.944 23.086v-8e-3c-1.108-1e-3 -2.216-1e-3 -3.322-2e-3v0.012l3.322-2e-3z"
                                      mask="url(#a)"/>
                                <path d="m52.334 23.081c-1.124 1e-3 -2.246 4e-3 -3.369 5e-3v0.024l3.369-2e-3v-0.027z"
                                      mask="url(#a)"/>
                                <polygon points="119.95 53.216 142.01 53.216 142.01 49.842 119.95 49.842"
                                         mask="url(#a)"/>
                                <polygon points="119.95 93.873 142.02 93.873 142.02 90.526 119.95 90.526"
                                         mask="url(#a)"/>
                                <polygon points="119.95 66.767 142.02 66.767 142.02 63.421 119.95 63.421"
                                         mask="url(#a)"/>
                                <polygon points="119.95 80.324 142.05 80.324 142.05 76.967 119.95 76.967"
                                         mask="url(#a)"/>
                                <path d="m49.288 120.65v22.348h3.352v-22.333h10.143v22.297h3.392v-22.286h10.19v22.281h3.371v-22.292h10.18v22.327h3.341v-22.41h-45.536c0.475 2e-3 0.951 0.04 1.567 0.068"
                                      mask="url(#a)"/>
                                <path d="m46.347 120.58h-5.786c1.929 2e-3 3.857 2e-3 5.786 0" mask="url(#a)"/>
                                <path d="m115.61 108.19c-2.788 2.842-5.587 5.674-8.454 8.434-0.424 0.407-1.222 0.59-1.849 0.591-11.475 0.035-22.95 0.025-34.425 0.025-11.382 5e-3 -22.764-5e-3 -34.145 0.021-0.899 2e-3 -1.54-0.238-2.173-0.905-2.548-2.687-5.189-5.285-7.721-7.986-0.476-0.509-0.861-1.341-0.862-2.024-0.044-22.972-0.044-45.943-3e-3 -68.915 1e-3 -0.644 0.347-1.44 0.797-1.908 2.597-2.706 5.251-5.356 7.946-7.961 0.439-0.424 1.187-0.748 1.792-0.749 22.995-0.038 45.991-0.04 68.989 2e-3 0.641 2e-3 1.428 0.367 1.9 0.822 2.698 2.601 5.342 5.261 7.949 7.955 0.398 0.412 0.719 1.103 0.72 1.665 0.034 23.249 0.03 46.498 7e-3 69.747-1e-3 0.401-0.191 0.904-0.468 1.186zm4.344-54.974v-3.373h-0.295v-1.64c0-4.122 0.031-8.245-0.032-12.368-0.01-0.608-0.309-1.359-0.732-1.793-3.293-3.383-6.629-6.727-10.015-10.018-0.46-0.448-1.262-0.754-1.913-0.764-4.21-0.069-8.422-0.036-12.633-0.044-0.403 0-0.804-0.048-1.387-0.085v-0.044l-3.321 2e-3v0.036h-10.195v-0.03l-3.351 1e-3v0.04h-10.147v-0.034l-3.4 2e-3v0.018h-10.196v-0.013l-3.369 2e-3v0.115c-4.713 0-9.289-0.035-13.863 0.037-0.686 0.011-1.527 0.362-2.02 0.84-3.355 3.256-6.656 6.571-9.917 9.921-0.424 0.436-0.733 1.181-0.742 1.787-0.064 4.168-0.033 8.338-0.033 12.507v1.608h-0.103v3.343h0.227v10.214h-0.227v3.361h0.237v10.163h-0.237v3.634c0.323 0.311 0.322 0.941 0.32 2.228-5e-3 2.531-1e-3 5.063-1e-3 7.75h-0.319v3.328h0.317v1.671c0 4.077-0.037 8.153 0.041 12.229 0.014 0.692 0.357 1.539 0.836 2.034 3.253 3.358 6.565 6.662 9.912 9.925 0.436 0.426 1.182 0.737 1.79 0.747 1.792 0.026 3.585 0.03 5.378 0.032h5.786c0.443-1e-3 0.887-2e-3 1.33-2e-3 0.015 0 0.03 2e-3 0.044 2e-3h45.537v-4e-3h1.607c0.841 0 1.682 2e-3 2.522 4e-3h4.154-4.154c3.278 7e-3 6.556 0.018 9.833-0.035 0.647-0.011 1.441-0.334 1.904-0.783 3.384-3.292 6.721-6.637 10.016-10.019 0.421-0.432 0.721-1.18 0.729-1.788 0.062-4.168 0.031-8.338 0.03-12.507v-1.579h0.052v-3.347h-0.197v-10.203h0.197v-3.356h-0.218v-10.201h0.218v-3.345h-0.199v-10.206h0.199z"
                                      mask="url(#a)"/>
                            </g>
                        </g>
                    </g>
                </g>
            </g>
        </g>
    </g>
</svg>
