<?xml version="1.0" encoding="UTF-8"?>
<svg width="143px" height="143px" viewBox="0 0 143 143" version="1.1" xmlns="http://www.w3.org/2000/svg" xmlns:xlink="http://www.w3.org/1999/xlink">
    <!-- Generator: Sketch 48.2 (47327) - http://www.bohemiancoding.com/sketch -->
    <title>brain</title>
    <desc>Created with Sketch.</desc>
    <defs>
        <polygon id="path-1" points="142.049859 0.115938572 142.049859 142.307272 0 142.307272 0 0.115938572"></polygon>
    </defs>
    <g id="arch-graph" stroke="none" stroke-width="1" fill="none" fill-rule="evenodd" transform="translate(-317.000000, -39.000000)">
        <g id="Group">
            <g id="brain" transform="translate(317.000000, 38.000000)">
                <g id="Page-1" transform="translate(0.608696, 0.529120)">
                    <g id="Group-3" transform="translate(0.000000, 0.591799)">
                        <mask id="mask-2" fill="white">
                            <use xlink:href="#path-1"></use>
                        </mask>
                        <g id="Clip-2"></g>
                        <path d="M70.8787136,116.547005 C82.3529847,116.547005 93.8286496,116.556771 105.302921,116.521892 C105.930159,116.520497 106.728841,116.33773 107.152575,115.93034 C110.019749,113.170695 112.818624,110.338501 115.606348,107.496542 C115.883726,107.214717 116.073292,106.711061 116.074685,106.310648 C116.096987,83.0615458 116.101169,59.812444 116.067716,36.5633422 C116.066322,36.001089 115.745734,35.3104802 115.34709,34.8989052 C112.740568,32.2048332 110.096412,29.5442453 107.397895,26.9436497 C106.92677,26.4888245 106.139238,26.1232901 105.498061,26.121895 C82.500734,26.0800399 59.5048005,26.081435 36.508867,26.1191046 C35.9039309,26.1204998 35.156821,26.4441791 34.7177545,26.8683105 C32.0220256,29.4730917 29.3681125,32.1239134 26.7713478,34.8291468 C26.3211304,35.2979237 25.9754527,36.0931702 25.9740588,36.7377384 C25.9336368,59.7092015 25.9336368,82.6806646 25.9768465,105.652128 C25.9782404,106.335761 26.3629463,107.167282 26.8396471,107.676518 C29.3709003,110.377566 32.0122685,112.975371 34.5602481,115.662468 C35.1930614,116.329359 35.8342379,116.569328 36.7332788,116.567933 C48.1141611,116.541424 59.4964373,116.55119 70.8787136,116.547005 L70.8787136,116.547005 Z M93.2571662,142.301831 L89.9160793,142.301831 L89.9160793,119.974936 L79.735312,119.974936 L79.735312,142.266952 L76.364954,142.266952 L76.364954,119.986097 L66.1744297,119.986097 L66.1744297,142.271137 L62.7831637,142.271137 L62.7831637,119.974936 L52.6400307,119.974936 L52.6400307,142.307412 L49.2877928,142.307412 L49.2877928,119.959589 C48.6535857,119.930291 48.165734,119.889831 47.6764885,119.889831 C43.5116292,119.88704 39.3467698,119.920524 35.1819105,119.859137 C34.5741867,119.849371 33.8284706,119.538248 33.3921918,119.112721 C30.0455294,115.84942 26.7337136,112.545659 23.4804399,109.187487 C23.0009514,108.692202 22.6580614,107.845334 22.6441228,107.15333 C22.5660665,103.07804 22.6037008,99.0013554 22.6037008,94.9246706 L22.6037008,93.2532578 L0.0105933504,93.2532578 L0.0105933504,89.9257789 L22.6050946,89.9257789 C22.6050946,87.2386828 22.600913,84.7064504 22.6064885,82.1756133 C22.6106701,79.6475664 22.6162455,79.6461713 20.1560793,79.6461713 C13.9547877,79.6433809 7.75349616,79.6419858 1.5522046,79.6391954 L-0.000557544757,79.6391954 L-0.000557544757,76.3131117 L22.5228568,76.3131117 L22.5228568,66.1506983 L0.00362404092,66.1506983 L0.00362404092,62.7897354 L22.5130997,62.7897354 L22.5130997,52.5757007 L0.0342890026,52.5757007 L0.0342890026,49.232875 L22.389046,49.232875 L22.389046,47.6242447 C22.389046,43.4554788 22.3583811,39.2853176 22.4224987,35.1179468 C22.4308619,34.5110482 22.7402992,33.7660277 23.1640332,33.3307349 C26.4256701,29.9809333 29.726335,26.666011 33.0813606,23.4096858 C33.5747877,22.9311427 34.4152864,22.5809552 35.1010665,22.5697938 C39.6757212,22.497245 44.2517698,22.5321243 48.9644169,22.5321243 L48.9644169,0.163374329 L52.3333811,0.163374329 L52.3333811,22.4288817 L62.5294808,22.4288817 L62.5294808,0.152212974 L65.92911,0.152212974 L65.92911,22.4428334 L76.0764246,22.4428334 L76.0764246,0.115938572 L79.4272685,0.115938572 L79.4272685,22.4316721 L89.6219744,22.4316721 L89.6219744,0.146632297 L92.9435473,0.146632297 L92.9435473,22.4372527 C93.5261816,22.4749223 93.9276138,22.5223581 94.3304399,22.5223581 C98.5412967,22.5307291 102.753547,22.497245 106.96301,22.5670035 C107.613944,22.5767697 108.416808,22.8823118 108.876783,23.3301611 C112.262473,26.6213656 115.597985,29.9655865 118.89168,33.3488721 C119.31402,33.7827698 119.613701,34.5333709 119.623458,35.1416647 C119.686182,39.2643901 119.655517,43.3871155 119.655517,47.5098408 L119.655517,49.1491648 L142.010274,49.1491648 L142.010274,52.5226843 L119.751693,52.5226843 L119.751693,62.7283479 L142.021425,62.7283479 L142.021425,66.073964 L119.732179,66.073964 L119.732179,76.274047 L142.050696,76.274047 L142.050696,79.6308244 L119.753087,79.6308244 L119.753087,89.8336977 L142.020031,89.8336977 L142.020031,93.180709 L119.898049,93.180709 L119.898049,94.7600407 C119.899442,98.9288066 119.930107,103.098968 119.868777,107.266339 C119.860414,107.874632 119.560734,108.622443 119.139788,109.054946 C115.844698,112.436836 112.507793,115.781057 109.123496,119.073657 C108.660734,119.522901 107.866233,119.845185 107.219481,119.856347 C103.102013,119.923315 98.9831509,119.888436 94.864289,119.88704 L93.2571662,119.88704 L93.2571662,142.301831 Z" id="Fill-1" fill="#FFFFFF" mask="url(#mask-2)"></path>
                    </g>
                    <path d="M66.2513708,51.9496562 C65.7105524,52.1491654 65.2547596,52.2384562 64.8923555,52.4714495 C64.483954,52.7337413 64.1591841,53.1271791 63.7661151,53.4913183 C62.8336215,52.895581 61.9513069,52.3305374 61.0648107,51.7640986 C62.2314731,49.6113524 64.0420997,48.6584517 66.3127008,48.3682565 C66.3127008,46.1694696 66.3823939,44.0404412 66.2917928,41.9197838 C66.2179182,40.2316289 64.5620102,38.946678 62.9270102,39.1378162 C61.1972276,39.3401157 59.9092992,40.9752542 60.204798,42.6885221 C60.3009744,43.2451947 60.6048363,43.766988 60.8167033,44.3124992 C60.0180205,44.9096317 59.2444271,45.488627 58.4220486,46.1038967 C57.1578159,44.3934191 55.4433657,44.1841437 53.5895294,44.7157032 C51.9628926,45.1816897 51.2896573,46.4861731 51.070821,48.051553 C50.7418696,50.4107844 49.6016905,51.4780889 47.2600026,51.5464522 C42.8163708,51.6775981 39.7178159,55.1641263 40.2126368,59.544958 C40.4969847,62.0646338 41.8922404,63.8909105 44.1112685,65.1939987 C43.6512941,66.2403757 43.2191969,67.22397 42.7397084,68.3135973 C42.1459233,67.9703856 41.6232251,67.8029653 41.2970614,67.4527778 C40.4203223,66.5096433 39.7331483,66.9002907 38.9609488,67.5867141 C35.9279054,70.2849716 36.6373811,75.3006053 40.2948747,77.0068974 C40.9165371,77.2970926 41.3026368,77.2189631 41.8546061,76.7473959 C43.1299898,75.6577687 44.5280332,74.7118438 46.0334041,73.5901277 C46.5979182,74.902982 47.0105013,75.8600682 47.437023,76.8492433 C43.4896061,78.7383025 41.3765115,81.7672152 41.7695806,86.0754981 C42.2574322,91.3980691 45.6319719,93.9861082 50.7822916,94.6097489 L50.7822916,96.2114033 L50.7822916,97.7223717 L49.4107315,97.7223717 C49.8456164,99.8332629 51.1795422,101.121004 53.391601,101.374925 C56.4971253,101.729298 57.9801944,99.7732706 58.9210512,97.1866266 C59.4897468,97.2549899 59.9929309,97.3038209 60.4905396,97.37916 C61.0229949,97.4586847 61.5512685,97.5647175 62.3011662,97.6972586 C61.8244655,98.8399023 61.5289668,99.8723276 60.9867545,100.754075 C60.4807826,101.57862 60.6229565,102.235744 61.0689923,102.933329 C61.7659233,104.024352 63.0859105,104.494524 64.3403862,104.130384 C65.7328542,103.72718 66.3294271,102.906821 66.330821,101.362368 C66.3350026,98.4450694 66.3475473,95.5263751 66.3196701,92.6090761 C66.3140946,92.0203146 66.2220997,91.4064401 66.0353223,90.8483724 C65.0568312,87.9380491 63.2169335,85.9931831 60.0110512,85.7448429 L60.0110512,82.5220018 C62.4391586,82.4187592 64.3696573,83.413515 66.2527647,84.930064 L66.2527647,67.6536822 C63.4566777,67.4262696 61.8760384,68.8591085 60.9435448,71.3215824 C59.9134808,71.0230161 58.9600793,70.7467726 57.8923811,70.4356498 C59.3949642,66.4915061 61.8955524,64.1476217 66.2513708,64.2145898 L66.2513708,51.9496562 Z M57.5857315,103.961569 C52.0479182,105.977589 47.0007442,103.651841 45.9567417,98.4952955 C45.6737877,97.1015213 45.0646701,96.4290497 43.945399,95.7272795 C39.352624,92.8518355 37.314798,87.0256084 38.9233146,81.7504731 C39.0571253,81.3095996 39.2132379,80.8770971 39.4000153,80.3190294 C36.1523171,78.7634156 34.0461918,76.3107079 33.7576624,72.5981623 C33.4733146,68.945609 34.9870486,66.1427138 38.0465754,64.0234516 C36.3823043,60.4504229 36.2610384,56.8690232 38.3671637,53.4438825 C40.4495934,50.0550162 43.6248107,48.5105638 47.6349514,48.4087164 C48.0851688,46.2001633 48.8406419,44.1353127 50.7335064,42.7303772 C52.6403095,41.3156755 54.8203095,41.1594165 57.156422,41.467749 C57.3125345,41.031061 57.4561023,40.6069295 57.6163964,40.1897739 C58.7119719,37.3282816 61.5861151,35.5843199 64.4058977,36.0642581 C67.6633529,36.6181404 69.9046829,39.1601389 69.9060767,42.3997221 C69.9172276,61.8888425 69.9144399,81.3779629 69.9074706,100.867083 C69.9060767,104.015981 68.0494527,106.573326 65.2519719,107.357411 C62.3388005,108.17498 59.7225217,107.088143 57.913289,104.314547 C57.8408082,104.202933 57.7306931,104.116433 57.5857315,103.961569 L57.5857315,103.961569 Z" id="Fill-4" fill="#FFFFFF"></path>
                    <path d="M97.9643772,65.2524562 C98.1441854,65.3947635 98.3253875,65.538466 98.5051957,65.6807732 C99.2397609,64.6720658 100.039838,63.7024231 100.696347,62.6448848 C102.175234,60.2619355 102.35783,57.7590018 101.023904,55.2588583 C99.6467685,52.6791902 97.3650166,51.5797968 94.5117813,51.5435224 C92.6133414,51.5198045 91.1916023,50.2111357 90.9867046,48.3332377 C90.7971394,46.5990423 90.0820882,45.1606227 88.2895818,44.6737086 C86.4928939,44.1867945 84.8049271,44.3988602 83.6438402,46.1428219 C82.7963721,45.4982537 81.9935077,44.8857743 81.1167685,44.2202785 C81.253367,43.9984466 81.374633,43.8184698 81.4805665,43.6301219 C82.1440448,42.4386473 82.0116279,41.2946084 81.1599783,40.2761348 C80.3194795,39.2702177 79.2155409,38.8642235 77.9276125,39.2730081 C76.6689552,39.6720265 75.8228811,40.5607494 75.7615512,41.8777892 C75.6611931,44.0403017 75.7350678,46.2111852 75.7350678,48.3541653 C78.5130345,48.9010717 79.8385972,49.8065366 80.8825997,51.8741775 C79.9933159,52.414108 79.0970627,52.9596192 78.3708606,53.4018879 C77.4662442,52.8535864 76.7149527,52.3959708 75.8103363,51.8462741 L75.8103363,64.1586435 C80.991321,64.5576619 83.6285077,67.1680237 83.9254003,70.5206157 C82.9218197,70.778722 81.9084821,71.0410138 80.8435716,71.3158622 C79.9278043,68.7878153 78.2969859,67.4400818 75.5775614,67.6423813 L75.5775614,85.0066588 C77.4397609,83.335246 79.3939552,82.4395473 81.798367,82.5330236 L81.798367,85.7516793 C78.0753619,86.1004716 76.0445051,88.4610981 75.5942877,91.7509074 C75.1482519,95.0239747 75.4312059,98.4058651 75.5120499,101.737529 C75.5468964,103.146651 76.8473696,104.308827 78.2495946,104.451134 C79.4120754,104.568328 80.3180857,104.084204 80.9745946,103.132699 C81.5377148,102.31513 81.4345691,101.577085 80.9146586,100.710685 C80.415656,99.8805591 80.1912442,98.8844082 79.7967813,97.8268699 C81.1097992,97.6622399 82.1454386,97.5338843 83.1518069,97.4083191 C84.2334437,100.236327 85.6147609,101.486399 87.7139169,101.609174 C89.7670754,101.729158 91.6362442,100.685572 92.4906816,98.9164971 C92.6593389,98.5690999 92.7555153,98.1868235 92.9185972,97.7236273 L91.5484309,97.7236273 L91.5484309,94.581706 C96.1635077,94.0947919 99.4362954,91.8471741 100.339518,87.2193974 C101.266436,82.4674507 99.2104898,78.9669708 94.8254003,76.81841 C95.2881624,75.772033 95.7077148,74.8219227 96.2847737,73.5188346 C97.7706304,74.6545024 99.1505537,75.5641528 100.340912,76.6774979 C101.002996,77.2969531 101.439275,77.2676546 102.118086,76.8728216 C105.413175,74.9586493 105.977689,70.3071547 103.215055,67.713535 C102.417766,66.964329 101.648354,66.4104468 100.63641,67.4540335 C100.306065,67.7958499 99.77361,67.9395524 99.2341854,68.2255621 C98.783968,67.1708141 98.3741726,66.2123328 97.9643772,65.2524562 M84.8411675,41.4090123 C90.8765895,41.1648577 93.243367,42.8864967 94.4100294,48.319286 C102.038636,48.3346329 107.784134,55.9550478 103.991436,63.9884328 C106.988239,66.0309607 108.449006,68.8882675 108.099147,72.5896518 C107.749288,76.2896408 105.771398,78.8316394 102.792715,80.3133092 C102.987855,82.6809116 103.467344,84.9271342 103.293111,87.1203404 C102.959978,91.3379373 100.639198,94.4128905 96.9928555,96.5251769 C96.5886355,96.7595653 96.1607199,97.284149 96.09939,97.7236273 C95.3202212,103.287563 90.3998887,106.294153 85.0850934,104.400908 C84.8746202,104.326964 84.6655409,104.247439 84.382587,104.144197 C83.0932647,106.609461 81.0707711,107.905573 78.3234693,107.806516 C74.7259118,107.678161 72.1375102,104.848757 72.1319348,101.115284 C72.1179962,91.9448359 72.1263593,82.7743879 72.1277532,73.6039399 C72.1291471,63.2280655 72.1179962,52.8535864 72.140298,42.4791072 C72.1472673,39.1446525 74.4164744,36.5747506 77.7115639,36.0459814 C80.6094028,35.5799949 83.5309373,37.4885865 84.5610013,40.5202895 C84.6627532,40.8202509 84.7519604,41.1230026 84.8411675,41.4090123" id="Fill-6" fill="#FFFFFF"></path>
                    <path d="M51.8909693,63.556907 C50.794,63.0853397 49.865688,62.6863213 48.9443453,62.2914884 C50.1974271,58.3292075 55.0271586,56.010436 59.6492046,57.2102817 C59.4470946,58.1631823 59.2421969,59.1230588 59.019179,60.1666455 C55.9749847,59.8959826 53.3949463,60.5265992 51.8909693,63.556907" id="Fill-8" fill="#FFFFFF"></path>
                    <path d="M49.8058913,79.8781559 C50.1515691,79.9646564 50.5000345,80.0804554 50.8554693,80.1376574 C52.0946125,80.3343763 52.8500857,80.7166527 52.7803926,82.3043554 C52.7023363,84.0734301 53.9317225,85.333268 55.4496381,86.2833783 C54.834945,87.2725534 54.2829757,88.1598811 53.7337941,89.0416281 C50.374587,87.278134 48.5946253,83.1009971 49.8058913,79.8781559" id="Fill-10" fill="#FFFFFF"></path>
                    <path d="M90.4265115,63.7558581 C88.5322532,60.8901803 87.595578,60.4493068 83.2467289,60.3474594 C82.9651688,59.3457278 82.6724578,58.2993508 82.3797468,57.2529738 C86.7592609,55.870361 91.7464987,58.2337779 93.3299258,62.5057864 C92.3890691,62.9117807 91.4356675,63.3205653 90.4265115,63.7558581" id="Fill-12" fill="#FFFFFF"></path>
                    <path d="M92.4471931,79.8435557 C93.598523,83.1682442 91.9969757,86.9993792 88.5708632,89.0795767 C88.0119246,88.1992248 87.4488043,87.3146875 86.8090217,86.3073752 C88.7325512,85.0042871 89.6636509,83.207309 89.2608248,80.7225124 C90.3647634,80.4183655 91.4073721,80.1295654 92.4471931,79.8435557" id="Fill-14" fill="#FFFFFF"></path>
                </g>
            </g>
        </g>
    </g>
</svg>