<?xml version="1.0" encoding="UTF-8"?>
<svg width="125px" height="125px" viewBox="0 0 125 125" version="1.1" xmlns="http://www.w3.org/2000/svg" xmlns:xlink="http://www.w3.org/1999/xlink">
    <!-- Generator: Sketch 48.2 (47327) - http://www.bohemiancoding.com/sketch -->
    <title>Page 1</title>
    <desc>Created with Sketch.</desc>
    <defs>
        <polygon id="path-1" points="0 123.823932 124.321354 123.823932 124.321354 0 0 0"></polygon>
    </defs>
    <g id="arch-graph" stroke="none" stroke-width="1" fill="none" fill-rule="evenodd" transform="translate(-341.000000, -372.000000)">
        <g id="Group">
            <g id="Page-1" transform="translate(341.000000, 372.000000)">
                <g transform="translate(0.086957, 0.883519)">
                    <path d="M44.8241219,86.7476687 C44.8633613,86.8672672 44.8778456,86.9536731 44.917875,87.0261171 C45.4527418,87.9966034 46.2809819,88.4439122 47.384161,88.4428585 C54.3358482,88.4378533 61.2875354,88.4404876 68.2394859,88.4402242 C71.5361189,88.4402242 74.8327519,88.4217839 78.1291215,88.4491809 C79.1198495,88.4576107 80.4155384,87.6657319 80.5237759,86.7476687 L44.8241219,86.7476687 Z M70.8245434,84.9747663 C69.920458,82.9392214 69.0445512,80.9669003 68.1775984,79.0143368 C68.1072835,78.9977405 68.0725211,78.982198 68.0380221,78.982198 C64.5441389,78.9793002 61.0505191,78.9735047 57.5566359,78.9898375 C57.4017853,78.9906278 57.1726696,79.1594882 57.1049883,79.3078008 C56.2949193,81.081757 55.5082887,82.8665139 54.7179711,84.6496903 C54.6768883,84.7421551 54.6571369,84.8443671 54.6173709,84.9747663 L70.8245434,84.9747663 Z M86.7791619,72.9817267 L38.6250931,72.9817267 C38.6250931,73.6727108 38.5653123,74.3386688 38.6390507,74.9896111 C38.7478148,75.9461354 39.2745176,76.6718927 40.1820266,77.0227851 C40.6020721,77.1853231 41.0863754,77.2438052 41.5417099,77.2443321 C51.376305,77.2561865 61.2106368,77.2532888 71.0452319,77.2530253 C75.3981673,77.2530253 79.7511028,77.2561865 84.1040383,77.2514448 C85.5332464,77.2498642 86.6769816,76.2509271 86.7717881,74.9005708 C86.8152411,74.2783427 86.7791619,73.6508459 86.7791619,72.9817267 Z M86.7870625,71.2156735 L86.7870625,70.5296946 C86.7865358,61.3864705 86.785219,52.2432464 86.7865358,43.0997589 C86.7867991,41.3152654 85.7376071,40.2496799 83.9586683,40.2494165 C69.7819352,40.2486262 55.6054653,40.2486262 41.4287322,40.2496799 C39.6774453,40.2499434 38.6113988,41.3123677 38.6111354,43.0586634 C38.6098187,52.2556278 38.6103454,61.4525921 38.6103454,70.6495565 L38.6103454,71.2156735 L86.7870625,71.2156735 Z M70.0460766,78.9740315 C70.5962177,80.2119021 71.1039592,81.352039 71.6098573,82.4932297 C71.907181,83.1639295 72.2210959,83.8283069 72.4899777,84.5103343 C72.6337676,84.8751887 72.8223272,85.0113834 73.2344721,85.0079588 C75.9401445,84.9860939 78.6460803,84.9976849 81.352016,84.9982118 C82.2384569,84.9984752 82.5644859,85.3720229 82.4717862,86.280339 C82.2455674,88.4968622 80.3928902,90.1593863 78.1243811,90.1601766 C68.429889,90.1633378 58.7353969,90.1638647 49.0409047,90.1572789 C48.1473534,90.156752 47.2382643,90.1949498 46.3634109,90.0511155 C44.5088903,89.7463238 43.1107577,88.149131 42.9261483,86.2758607 C42.8342387,85.344099 43.1513138,84.9987387 44.1025391,84.9984752 C46.8084748,84.9976849 49.5141472,84.9976849 52.220083,84.9987387 C52.4697401,84.9987387 52.6809479,85.0192864 52.8178907,84.7018499 C53.6116318,82.8615087 54.434605,81.0338123 55.2457273,79.2008471 C55.265742,79.1555367 55.2620551,79.0994255 55.279963,78.974295 L54.6460762,78.974295 C50.2378369,78.974295 45.8295976,78.9756121 41.4213584,78.9737681 C38.72622,78.9727144 36.8911874,77.1465985 36.8906607,74.4590575 C36.8888172,63.9907667 36.8890806,53.5224759 36.8906607,43.0541851 C36.8911874,40.3658538 38.72622,38.5292006 41.4129311,38.5289372 C55.6233732,38.5273566 69.8338154,38.5270932 84.0442575,38.5289372 C86.6543333,38.5292006 88.5056938,40.3837672 88.5062205,43.0041328 C88.5091173,53.5082505 88.508854,64.0123682 88.5064838,74.5164859 C88.5059571,77.1210455 86.6416925,78.9721875 84.0242428,78.9735047 C79.6876351,78.9758756 75.3510274,78.9740315 71.0146831,78.9740315 L70.0460766,78.9740315 Z" id="Fill-1" fill="#FFFFFF"></path>
                    <path d="M68.7948414,56.2523768 C68.571256,56.0511142 68.3600482,55.8614426 68.1493671,55.6712442 C67.7345886,55.2963794 67.6571633,54.8888489 67.9363158,54.3764722 C68.1656949,53.9555066 68.3434571,53.4992411 68.4869836,53.0408681 C68.6515782,52.5155832 68.9715502,52.2740154 69.5140541,52.2942997 C69.8113778,52.3053639 70.109755,52.2964072 70.4007583,52.2964072 L70.4007583,50.5756644 C70.0926371,50.5756644 69.8248088,50.5777719 69.5569804,50.575401 C68.8925448,50.5690786 68.7026684,50.4062771 68.4753961,49.7650818 C68.3144884,49.311714 68.1214518,48.8662492 67.9047136,48.4365904 C67.6790215,47.9892816 67.7179975,47.601772 68.0866894,47.2722176 C68.3255492,47.0588371 68.5975912,46.8826006 68.7666628,46.755626 C68.2586579,46.2374538 67.8773251,45.8481002 67.429101,45.3905175 C67.2868912,45.5601682 67.1283537,45.7793442 66.9400574,45.9690158 C66.4610212,46.4516246 66.2174211,46.4671671 65.6053925,46.1739665 C65.1716527,45.966118 64.7215851,45.7867203 64.2659872,45.631295 C63.7993285,45.4719182 63.5499347,45.1845131 63.5586253,44.683464 C63.5638923,44.3665544 63.5594153,44.0496447 63.5594153,43.7279934 L61.839994,43.7279934 C61.839994,44.0317313 61.8423641,44.2985887 61.8394673,44.5654461 C61.8323568,45.231931 61.6682889,45.4268712 61.034402,45.6534234 C60.5811742,45.8151711 60.1345302,46.0051061 59.7055308,46.2232284 C59.2588868,46.4505709 58.8722869,46.4131634 58.5394107,46.0485725 C58.3234626,45.8122733 58.1433302,45.5433085 57.9984869,45.3554809 C57.489692,45.8541591 57.0999319,46.2358732 56.6332732,46.6931924 C56.8128789,46.8409782 57.0348841,46.9958767 57.2239704,47.1839677 C57.7114339,47.6681571 57.7314486,47.9147301 57.4414987,48.516674 C57.2402982,48.9347418 57.0441014,49.3617663 56.9129524,49.8048602 C56.7486212,50.3588592 56.4110046,50.5996368 55.8500661,50.579089 C55.5690702,50.5688151 55.2870208,50.577245 54.9894337,50.577245 L54.9894337,52.2971975 C55.2880742,52.2971975 55.5540592,52.2958803 55.8203074,52.2974609 C56.5037043,52.3016758 56.6906838,52.4542034 56.9137425,53.0896032 C57.0672764,53.527165 57.232661,53.967888 57.455983,54.3722573 C57.7372423,54.8812093 57.6716678,55.2966428 57.2481988,55.6651852 C57.0330407,55.8524859 56.7970778,56.0155508 56.6132585,56.1570142 C57.0978251,56.6596439 57.4759977,57.0518953 57.9466067,57.5400361 C58.1093579,57.3337683 58.2581514,57.1064258 58.4448676,56.9162274 C58.9378614,56.4141246 59.1785646,56.400426 59.8232489,56.7123304 C60.2401342,56.9141199 60.6725572,57.0924639 61.1131441,57.2347176 C61.6106149,57.3954116 61.8515814,57.7038913 61.8394673,58.2233807 C61.8323568,58.5368657 61.8381505,58.8503507 61.8381505,59.1511909 L63.5588886,59.1511909 C63.5588886,58.8574634 63.5580986,58.5921866 63.5588886,58.3269098 C63.5612588,57.622754 63.7137393,57.4433563 64.3879189,57.2054765 C64.84141,57.0453094 65.282787,56.845364 65.7149466,56.6333006 C66.1410492,56.424135 66.5200119,56.4557469 66.8373504,56.8037416 C67.0625158,57.0508415 67.2460717,57.3358758 67.4196203,57.5658526 C67.9558038,57.0537393 68.3413503,56.6854603 68.7948414,56.2523768 M53.2355133,51.4484171 C53.2355133,50.9642277 53.2341966,50.4803017 53.2357767,49.9961123 C53.2384102,49.1254671 53.5133491,48.8570291 54.4024234,48.8546582 C54.5638578,48.8543948 54.726609,48.8409597 54.8862,48.8578194 C55.2230264,48.8936463 55.4215934,48.7993373 55.5825011,48.4534501 C55.7560497,48.0799025 55.5461586,47.9336973 55.3481183,47.7348056 C54.2346686,46.6162701 54.235722,46.5140582 55.3678697,45.3807705 C55.9380255,44.8101751 56.5052844,44.236682 57.0791272,43.6700381 C57.6313751,43.1244689 58.032986,43.1302644 58.5962947,43.6818926 C58.7371877,43.819668 58.8841377,43.9529649 59.0121265,44.1020679 C59.2117469,44.3344156 59.3889824,44.4605998 59.7363429,44.3062283 C60.0655322,44.1602865 60.1255763,43.9732492 60.1247862,43.6523882 C60.1210993,42.0285886 60.1861471,41.9719506 61.8197159,41.9706334 C62.6260979,41.9698431 63.43248,41.9669454 64.2391253,41.97037 C64.9659752,41.9735312 65.2704095,42.2835916 65.2809435,43.0233107 C65.283577,43.2206219 65.2920043,43.4187233 65.2764665,43.6147173 C65.2506581,43.9421642 65.3099122,44.158179 65.6707036,44.3165021 C66.0383422,44.4774595 66.1892425,44.291476 66.3922865,44.0888962 C67.5204839,42.9658824 67.618714,42.9669361 68.745858,44.0944283 C69.3286547,44.6776684 69.9151383,45.2574839 70.4924046,45.8459927 C70.994089,46.3573157 70.9901388,46.765373 70.4931946,47.2851258 C70.3446644,47.4405512 70.1942908,47.5949228 70.03707,47.7413914 C69.8232287,47.9410734 69.6610042,48.1020308 69.8158548,48.4645143 C69.9717588,48.8304224 70.192184,48.8594 70.517423,48.8578194 C72.0711963,48.8504433 72.1617892,48.9465962 72.1617892,50.4866241 C72.1620525,51.3114321 72.1652127,52.1359766 72.1609991,52.9607846 C72.1570489,53.7052455 71.8573549,54.0081932 71.1262914,54.0176768 C70.9111333,54.0203111 70.6946585,54.0334827 70.4813438,54.0145156 C70.1658488,53.9863283 69.9683353,54.0521865 69.8240187,54.3925416 C69.6775953,54.7379019 69.8045307,54.9028108 70.0233757,55.1201429 C71.1718512,56.2608067 71.1671109,56.3524813 70.0104715,57.5094779 C69.4526932,58.0671651 68.8972851,58.6269597 68.3366099,59.1817491 C67.760397,59.752081 67.3716904,59.7473392 66.7812565,59.1714752 C66.6530044,59.0463446 66.5289659,58.9169992 66.4009771,58.7913417 C66.2029368,58.5969284 66.0604637,58.373274 65.6833445,58.549247 C65.3404609,58.7088873 65.2704095,58.9011932 65.2725163,59.2412849 C65.2825236,60.8297844 65.2000946,60.9027553 63.6110322,60.9024918 C62.786479,60.9022284 61.962189,60.9072336 61.1376358,60.9006478 C60.4336974,60.8951157 60.1295266,60.5861091 60.1179391,59.8830071 C60.1145155,59.6680459 60.0955542,59.4504505 60.1203093,59.2381237 C60.1608654,58.8911828 60.0476243,58.708097 59.7092177,58.5489836 C59.3313084,58.3709031 59.1883086,58.598509 58.9921118,58.7931858 C57.8834024,59.8930175 57.7770084,59.8945981 56.6761995,58.7997716 C56.0789185,58.2054673 55.4797941,57.6132705 54.8904136,57.0113266 C54.4087439,56.5187074 54.4092706,56.1053814 54.8754026,55.6106546 C55.0352569,55.441004 55.1943211,55.2687189 55.3705032,55.1175085 C55.6064661,54.9149287 55.7144402,54.7350042 55.5690702,54.3906976 C55.4247536,54.0490253 55.2240798,54.0105641 54.9112184,54.0121447 C53.3163622,54.0192574 53.23604,53.9336417 53.2355133,52.3625288 L53.2355133,51.4484171" id="Fill-3" fill="#FFFFFF"></path>
                    <path d="M40.3560229,55.7392098 L40.3560229,54.016623 L43.698479,54.016623 C44.5045977,54.016623 45.3133498,53.9771081 46.1152549,54.0347999 C46.456295,54.0592992 46.8557991,54.2086655 47.1025593,54.4373252 C48.0216558,55.2890033 48.9009861,56.1854649 49.767939,57.0911467 C50.0420878,57.3774981 50.321767,57.4802369 50.7075768,57.4683824 C51.5276531,57.4430929 52.3490461,57.4607429 53.2025681,57.4607429 L53.2025681,59.1759536 C52.025914,59.1759536 50.8661143,59.1972916 49.7081582,59.1577767 C49.4785158,59.1498737 49.2199047,58.9467671 49.0371388,58.7694768 C48.1111952,57.871698 47.2171172,56.9407266 46.2832731,56.0513776 C46.1023507,55.8790926 45.7963363,55.756333 45.5458891,55.7526449 C43.8298914,55.7270919 42.1131035,55.7392098 40.3560229,55.7392098" id="Fill-5" fill="#FFFFFF"></path>
                    <path d="M72.188098,57.4587408 C73.0471503,57.4587408 73.8685433,57.434505 74.6875662,57.4687512 C75.1036615,57.4864012 75.383604,57.3407229 75.6630199,57.0514738 C76.5091679,56.1752964 77.359793,55.3006997 78.2551878,54.4764186 C78.5159057,54.2361679 78.9298941,54.0467598 79.2785714,54.0380665 C81.0509264,53.9940732 82.8248615,54.0169919 84.5982699,54.016465 L85.0399102,54.016465 L85.0399102,55.7393152 L84.5319053,55.7393152 C82.9912996,55.7393152 81.4506938,55.7516965 79.9103514,55.7303585 C79.5363924,55.7250898 79.2798881,55.8412637 79.0244373,56.1049599 C78.1516907,57.0056365 77.2757839,57.9047325 76.3564241,58.756674 C76.1091371,58.9858605 75.7093697,59.146291 75.3709631,59.1631507 C74.3212444,59.2147835 73.2675754,59.1818545 72.188098,59.1818545 L72.188098,57.4587408 Z" id="Fill-7" fill="#FFFFFF"></path>
                    <path d="M72.1849114,45.4124614 L72.1849114,43.694353 C73.3673593,43.694353 74.5268955,43.6730149 75.684325,43.7122664 C75.9144941,43.7201694 76.1733686,43.9222223 76.3561344,44.0995126 C77.2823413,44.9972914 78.1766827,45.9279993 79.1100001,46.8176117 C79.2911859,46.9901602 79.5956201,47.1160811 79.8455406,47.1200325 C81.5620651,47.145849 83.2793797,47.1334676 85.0311933,47.1334676 L85.0311933,48.8563178 C84.4889527,48.8563178 83.9569829,48.8563178 83.425013,48.8560544 C82.0813941,48.8555275 80.7375119,48.8355066 79.394683,48.8642208 C78.8832546,48.875285 78.5142992,48.7061612 78.1661487,48.3452583 C77.3084131,47.4553824 76.4335597,46.5810491 75.5373749,45.7301613 C75.3559258,45.5576129 75.0543884,45.4374875 74.8023611,45.4266868 C73.9467324,45.3895428 73.0887335,45.4124614 72.1849114,45.4124614" id="Fill-9" fill="#FFFFFF"></path>
                    <path d="M53.2127861,43.6896902 L53.2127861,45.4120136 C52.3342458,45.4120136 51.462816,45.3893584 50.5940197,45.426239 C50.341729,45.4370397 50.0394016,45.5579553 49.8576891,45.7310307 C48.9367492,46.6079983 48.068743,47.5410771 47.1348989,48.4032925 C46.8752344,48.6430163 46.4575591,48.8274193 46.1080917,48.8350588 C44.2109082,48.8764178 42.3126712,48.8548163 40.3728247,48.8548163 L40.3728247,47.1338101 C40.8210488,47.1338101 41.2795436,47.1340735 41.7380384,47.1338101 C43.0097624,47.1338101 44.2820131,47.1498795 45.5532103,47.1198481 C45.8036575,47.1137892 46.107565,46.9897124 46.2887508,46.8169005 C47.2094273,45.9399328 48.0776969,45.0071174 49.010751,44.1443752 C49.2706788,43.9041245 49.6836138,43.7292051 50.0365047,43.7099746 C51.0717391,43.6530731 52.1119772,43.6896902 53.2127861,43.6896902" id="Fill-11" fill="#FFFFFF"></path>
                    <mask id="mask-2" fill="white">
                        <use xlink:href="#path-1"></use>
                    </mask>
                    <g id="Clip-14"></g>
                    <polygon id="Fill-13" fill="#FFFFFF" mask="url(#mask-2)" points="73.9066766 52.2608437 85.0240564 52.2608437 85.0240564 50.6022711 73.9066766 50.6022711"></polygon>
                    <polygon id="Fill-15" fill="#FFFFFF" mask="url(#mask-2)" points="40.3525466 52.2721713 51.4833574 52.2721713 51.4833574 50.6101741 40.3525466 50.6101741"></polygon>
                    <path d="M70.1874173,64.1891052 C70.6933154,63.6817337 71.0696445,63.3039712 71.4580879,62.9143541 C72.3576963,63.7997516 73.2615183,64.6580155 74.1245209,65.5555309 C74.4321154,65.8756017 74.3997231,66.3084218 74.0889685,66.6284926 C73.2441371,67.4986109 72.373234,68.3434398 71.4910068,69.2198806 C71.1175745,68.7994419 70.7554663,68.391648 70.3643895,67.9514518 C70.9411291,67.410361 71.5900269,66.8013044 72.2391882,66.1919845 C71.5152351,65.4851944 70.8708142,64.856117 70.1874173,64.1891052" id="Fill-16" fill="#FFFFFF" mask="url(#mask-2)"></path>
                    <path d="M55.1370685,64.1853908 C54.4829036,64.7849638 53.8263686,65.3869076 53.1232203,66.0315276 C53.8461199,66.7032811 54.4979147,67.3086496 55.1589267,67.9227113 C54.6567156,68.3718642 54.2503643,68.7354014 53.8337424,69.1081587 C53.0355243,68.323656 52.1293321,67.4627577 51.2623792,66.5639252 C50.9708492,66.2620312 50.9895472,65.8360605 51.2847641,65.5331128 C52.1446064,64.6500862 53.0344709,63.7963007 53.9311824,62.9127472 C54.3059315,63.3084232 54.6725166,63.6951425 55.1370685,64.1853908" id="Fill-17" fill="#FFFFFF" mask="url(#mask-2)"></path>
                    <path d="M59.2398728,69.0131649 C58.7197538,68.7605329 58.2430877,68.5289755 57.6950535,68.2629084 C58.528034,66.5487515 59.3504804,64.856196 60.1979453,63.1125346 C60.7233313,63.3646397 61.2155351,63.6006755 61.7509285,63.8575224 C60.9108375,65.5827435 60.0849675,67.2781968 59.2398728,69.0131649" id="Fill-18" fill="#FFFFFF" mask="url(#mask-2)"></path>
                    <polygon id="Fill-19" fill="#FFFFFF" mask="url(#mask-2)" points="62.7226689 68.6110611 64.3783592 68.6110611 64.3783592 66.9535422 62.7226689 66.9535422"></polygon>
                    <polygon id="Fill-20" fill="#FFFFFF" mask="url(#mask-2)" points="66.1678321 68.6150126 67.8416936 68.6150126 67.8416936 66.9688213 66.1678321 66.9688213"></polygon>
                    <path d="M64.4183096,51.4415152 C64.4212065,50.502114 63.6595942,49.730256 62.7167962,49.7165575 C61.7800552,49.7031224 60.9923711,50.4676043 60.9792036,51.403054 C60.966036,52.368535 61.7463462,53.1606773 62.7062621,53.1564624 C63.6435298,53.1522475 64.4154128,52.3790724 64.4183096,51.4415152 M62.6730798,54.8774686 C60.8017047,54.8708828 59.2603089,53.3253228 59.2563586,51.4512622 C59.2526717,49.5458531 60.7932775,47.9968685 62.6959914,47.9931804 C64.593175,47.9892289 66.1458949,49.5466434 66.1387844,51.4467838 C66.1319373,53.3474512 64.5792173,54.8843179 62.6730798,54.8774686" id="Fill-21" fill="#FFFFFF" mask="url(#mask-2)"></path>
                    <path d="M11.5548328,2.12366316 C6.36733675,2.12366316 2.13501622,6.34174844 2.12079525,11.5261051 C2.11342141,14.0853543 3.1015159,16.4904953 4.9025762,18.2989612 C6.68335844,20.0868793 9.04641065,21.0731715 11.5561496,21.075279 C16.7921024,21.075279 21.0541816,16.8276893 21.0668225,11.6067155 C21.0731429,9.08882521 20.094529,6.71661325 18.3113766,4.92658767 C16.5134766,3.12180987 14.1177688,2.12656092 11.5656303,2.12366316 L11.5548328,2.12366316 Z M62.1996793,2.11971167 C56.9574061,2.11971167 52.6879531,6.36598425 52.682686,11.5856409 C52.6771557,16.8126736 56.9368647,21.0731715 62.1786112,21.0826551 C67.3668974,21.0826551 71.6026415,16.8672042 71.6384573,11.6857453 C71.6563652,9.138614 70.6732743,6.73479011 68.8708973,4.91710409 C67.0835313,3.11575091 64.7175822,2.12208256 62.2083699,2.11971167 L62.1996793,2.11971167 Z M112.749456,2.12366316 C107.52193,2.12550719 103.259851,6.37678499 103.248,11.6006565 C103.242207,14.1188102 104.221874,16.4915491 106.00608,18.2815746 C107.805823,20.0866159 110.203638,21.0816014 112.75762,21.0829186 C117.869271,21.0829186 122.191657,16.7697341 122.201401,11.6644073 C122.206405,9.1064752 121.21594,6.70291474 119.413037,4.89576604 C117.629094,3.10811136 115.263935,2.12366316 112.752616,2.12366316 L112.749456,2.12366316 Z M11.5906486,52.7009081 C6.36681005,52.7016984 2.11684498,56.9714165 2.11710833,62.2187336 C2.11737168,67.396241 6.33784139,71.6327665 11.5253375,71.6630613 L11.5801146,71.6633247 C14.1109216,71.6633247 16.4984655,70.6678124 18.3032127,68.8609271 C20.0924222,67.0693209 21.0765665,64.7073828 21.0739329,62.2105672 C21.0691926,56.9669382 16.815804,52.7009081 11.5924921,52.7009081 L11.5906486,52.7009081 Z M112.7592,52.6980104 C107.564067,52.6980104 103.295404,56.893177 103.243523,62.0498732 C103.217715,64.6033269 104.191325,67.014 105.984748,68.8382719 C107.76,70.6435765 110.119102,71.6469919 112.628051,71.6638516 L112.691519,71.664115 C117.899293,71.664115 122.166376,67.4360193 122.202982,62.2390179 C122.239587,57.0470217 118.060727,52.7672932 112.886925,52.6988007 L112.7592,52.6980104 Z M20.9006477,105.221497 L23.5386388,111.641089 L50.5005563,111.641089 L50.691486,110.828399 C51.9142266,105.62007 55.0312539,102.494968 60.2203301,101.273957 L61.0325059,101.082705 L61.0325059,98.714971 C61.4138387,98.7270889 61.7877977,98.7331478 62.1593866,98.7331478 C62.5207047,98.7331478 62.8915035,98.7273523 63.2683594,98.7152344 L63.2683594,101.090081 L64.0807985,101.280806 C69.2780386,102.502344 72.4055999,105.625076 73.6420348,110.827082 L73.8345447,111.637138 L100.761173,111.637138 L103.33833,105.415383 L86.955502,89.0243336 C87.6346853,88.3960465 88.2925371,87.7393086 88.9235271,87.0599156 L105.275016,103.40987 L111.625735,100.793982 L111.625735,73.8456017 L110.81435,73.6538226 C105.582611,72.4188499 102.452416,69.3024404 101.244686,64.1265136 L101.05481,63.312243 L98.6714796,63.312243 C98.6835938,62.9307923 98.6896508,62.556191 98.6896508,62.1916 C98.6896508,61.8249016 98.6835938,61.4487197 98.6712162,61.0662153 L101.053493,61.0662153 L101.245476,60.2553693 C102.481648,55.0375567 105.605522,51.910083 110.796179,50.6946043 L111.609408,50.5041424 L111.609408,23.5647185 L105.296348,20.9472507 L88.9237905,37.3238114 C88.3765462,36.7353026 87.8071805,36.1618095 87.2199068,35.607547 C89.6998871,33.1244298 92.1806574,30.6428932 94.661691,28.1608298 C95.3279701,27.4946084 95.9934591,26.8273332 96.6586848,26.1603215 C98.5635055,24.2509609 100.532584,22.2765324 102.484281,20.3529464 C103.044166,19.8007913 103.599048,18.9991655 102.913281,17.6888509 C102.422657,16.7528744 102.011302,15.7647381 101.575719,14.7191735 C101.39111,14.2755527 101.203867,13.8261364 101.00688,13.3717149 L100.731941,12.7371054 L73.7526424,12.7371054 L73.5798839,13.5793 C73.0721423,16.0589925 72.0100461,18.0850538 70.3330243,19.7733943 C68.6873413,21.4298595 66.6303035,22.5062457 64.0441926,23.0641963 L63.2130556,23.243594 L63.2130556,25.6658582 C62.8546343,25.6550575 62.5027968,25.6497888 62.1593866,25.6497888 C61.7883244,25.6497888 61.4077816,25.6558478 61.0206551,25.6684925 L61.0206551,23.2517604 L60.2113762,23.0591911 C55.0288838,21.8239549 51.9105397,18.7038573 50.6783185,13.5210813 L50.4855452,12.7110256 L23.5523331,12.7110256 L20.894854,19.1332527 L37.2318588,35.4818895 C36.5982353,36.0738229 35.9846265,36.6892018 35.395246,37.3230211 L19.016105,20.9483044 L12.7159492,23.5512835 L12.7159492,50.4720036 L13.4820385,50.6893356 C19.0469171,52.2678247 21.2959382,54.5130621 23.1080592,60.2988357 L23.3395451,61.0375011 L25.648347,61.0375011 C25.6351794,61.4300159 25.6285956,61.8156815 25.6285956,62.1916 C25.6285956,62.5559275 25.6346527,62.9220991 25.6462401,63.2956467 L23.2579062,63.2956467 L23.0551256,64.0880524 C21.681748,69.4528605 19.2547014,71.883818 13.4370054,73.7220517 L12.7012015,73.9546628 L12.7012015,100.789767 L19.0087312,103.397225 L35.3673308,87.0304111 C35.9617149,87.6705527 36.5813808,88.2930443 37.2218514,88.8915635 L20.9006477,105.221497 Z M11.630678,103.281841 C6.40525935,103.281841 2.13922985,107.524953 2.1210586,112.740658 C2.11210465,115.261973 3.08913839,117.638136 4.87176409,119.43185 C6.66729401,121.237945 9.06115833,122.235565 11.6122435,122.241097 C16.820281,122.241097 21.0562884,118.024065 21.0744596,112.841026 C21.0836769,110.279669 20.0958458,107.871894 18.2932054,106.060793 C16.5121598,104.271031 14.1496343,103.284212 11.6404221,103.281841 L11.630678,103.281841 Z M112.746822,103.276573 C107.526671,103.276573 103.262748,107.517313 103.24247,112.729857 C103.232726,115.25565 104.21608,117.639453 106.011347,119.442387 C107.809247,121.247428 110.19284,122.241887 112.723384,122.241887 C115.252348,122.240043 117.630674,121.24453 119.427258,119.439226 C121.227001,117.630233 122.212199,115.240635 122.201928,112.709836 C122.181123,107.526006 117.954333,103.294486 112.780005,103.276573 L112.746822,103.276573 Z M62.1675505,103.277363 C56.9384448,103.277363 52.6824227,107.527587 52.6800525,112.751458 C52.6776824,117.94082 56.8784007,122.198684 62.0435119,122.242677 L62.1256776,122.242941 C67.3250245,122.242941 71.5931608,118.024592 71.6395107,112.839445 C71.6621589,110.309964 70.688022,107.917731 68.8967057,106.103206 C67.1059161,104.289735 64.7281162,103.28632 62.2009961,103.277363 L62.1675505,103.277363 Z M108.985638,123.824064 C105.660826,122.401 103.43735,120.345171 102.192225,117.544091 C101.915442,116.921862 101.702918,116.263807 101.477752,115.567028 C101.371622,115.237737 101.264964,114.908709 101.15225,114.583633 L100.906016,113.876316 L73.7597529,113.876316 L73.5862043,114.716667 C73.0289527,117.413691 72.1035358,119.253242 70.673801,120.506128 C69.6412002,121.41102 68.4579623,122.148368 67.205463,122.929183 C66.7411744,123.218696 66.2631916,123.516375 65.7931093,123.824064 L58.4213766,123.824064 C55.2522058,122.472917 53.0990446,120.559342 51.8433851,117.979545 C51.497078,117.26775 51.2345166,116.504848 50.9564175,115.697427 C50.8252685,115.316767 50.6941195,114.935843 50.5540166,114.559924 L50.2985657,113.873945 L23.2094495,113.873945 L23.0303706,114.70613 C22.637977,116.534089 21.9711712,118.82332 20.2854588,120.317511 C19.2096683,121.271401 17.981924,122.053269 16.6820215,122.880975 C16.2024585,123.186557 15.7097281,123.500305 15.2248981,123.824064 L7.86001255,123.824064 C4.7990791,122.505847 2.67093635,120.658129 1.35786621,118.180808 C-0.283603134,115.084156 -0.435030195,111.455896 0.942297684,108.226737 C2.32067897,104.995735 5.04662942,102.592965 8.42200446,101.634333 C8.70300041,101.554513 8.98373302,101.476537 9.28000336,101.394609 L10.4866795,101.058996 L10.4866795,73.8066136 L9.6521189,73.62906 C6.27147684,72.9112057 3.7551541,71.2618532 1.95909748,68.5872205 C0.545163756,66.4810756 -0.105840932,64.0959554 0.0242546653,61.4987719 C0.288659482,56.2206332 3.89525706,52.1919561 9.67239696,50.7214744 L10.4658748,50.5194215 L10.4658748,23.2728351 L9.65369901,23.0818463 C6.23803121,22.2778495 3.54236616,20.4796575 1.85876059,17.8814203 C0.46010125,15.7231157 -0.198277277,13.0408434 0.0521699149,10.5224263 C0.609684852,4.9147332 4.91811394,0.608661381 10.5290791,0.0509742382 C10.8690658,0.0172548455 11.2206399,-0.000131716378 11.5737941,-0.000131716378 C16.0054717,-0.000131716378 21.3583525,2.54515557 23.0901513,9.68839816 L23.2855581,10.4937121 L50.5382155,10.4937121 L50.7138709,9.6565228 C51.410172,6.33832381 53.0239895,3.84545965 55.6477596,2.03514975 C57.5955066,0.691379266 59.7955443,0.00987872832 62.1857217,0.00987872832 C62.3600603,0.00987872832 62.5357157,0.0133033541 62.7118978,0.0206794713 C67.119347,0.197706283 72.1975523,3.24035461 73.6080625,9.6380825 L73.7903016,10.4649979 L101.077458,10.4649979 L101.259171,9.63702877 C102.086094,5.8702038 104.11311,3.09388599 107.284124,1.38552458 C108.989325,0.467197992 110.777744,0.0011854474 112.600136,0.0011854474 C113.261411,0.0011854474 113.940594,0.0625652794 114.618988,0.183217481 C120.015058,1.14263958 123.994561,5.5372248 124.296625,10.8693672 C124.630028,16.7607773 121.094009,21.2185864 114.596076,23.0994963 L113.835517,23.3197261 L113.835517,50.5547215 L114.674291,50.729114 C117.930895,51.4061362 120.488301,53.0615476 122.276193,55.6497744 C123.648781,57.6365843 124.332441,59.889988 124.308739,62.3472888 C124.256333,67.8061423 121.06267,71.5342427 114.546039,73.7449704 L113.830777,73.9875919 L113.830777,101.119849 L114.658754,101.30109 C118.827607,102.214939 121.655474,104.426983 123.304317,108.063936 C124.564717,110.844732 124.65689,113.964303 123.563455,116.847574 C122.453165,119.775893 120.270509,122.09015 117.41815,123.364374 C117.142158,123.487924 116.869062,123.617796 116.596493,123.747669 L116.436112,123.824064 L108.985638,123.824064 Z" id="Fill-22" fill="#FFFFFF" mask="url(#mask-2)"></path>
                </g>
            </g>
        </g>
    </g>
</svg>