<?xml version="1.0" encoding="UTF-8"?>
<svg width="273px" height="95px" viewBox="0 0 273 95" version="1.1" xmlns="http://www.w3.org/2000/svg" xmlns:xlink="http://www.w3.org/1999/xlink">
    <!-- Generator: Sketch 48.2 (47327) - http://www.bohemiancoding.com/sketch -->
    <title>logo</title>
    <desc>Created with Sketch.</desc>
    <defs>
        <polygon id="path-1" points="5.73964497e-05 94.7425474 96.8401126 94.7425474 96.8401126 0.0385361552 5.73964497e-05 0.0385361552"></polygon>
    </defs>
    <g id="White-Landing--Copy-7" stroke="none" stroke-width="1" fill="none" fill-rule="evenodd" transform="translate(-584.000000, -112.000000)">
        <g id="Group-31" transform="translate(-88.000000, -410.000000)">
            <g id="logo" transform="translate(672.000000, 522.000000)">
                <g id="Page-1">
                    <path d="M147.760047,32.8286341 C144.804135,32.8286341 140.972689,35.5218344 140.972689,39.0438551 L140.972689,58 C140.972689,65.4582653 135.389583,71.4661881 127.945181,71.4661881 C121.595786,71.4661881 115.027311,65.4582653 115.027311,58 L115.027311,38.2150348 C115.027311,34.7967564 111.633632,32 108.130708,32 C104.737029,32 102,34.7967564 102,38.2150348 L102,58 C102,72.2950085 113.713616,84 127.945181,84 C142.286384,84 154,72.2950085 154,58 L154,39.0438551 C154,35.5218344 151.15353,32.8286341 147.760047,32.8286341" id="Fill-1" fill="#FFFFFF"></path>
                    <path d="M185.980442,70.5653004 C178.184307,70.5653004 171.883456,64.5021486 171.883456,57.0001232 C171.883456,49.4980977 178.184307,43.4347612 185.980442,43.4347612 C193.669811,43.4347612 200.077619,49.4980977 200.077619,57.0001232 C200.077619,64.5021486 193.669811,70.5653004 185.980442,70.5653004 M185.980442,31.0000616 C180.426944,31.0000616 175.30089,32.6442247 170.922381,35.3163131 L170.922381,11.2688107 C170.922381,7.87737784 168.038771,5 164.514573,5 C160.883418,5 158,7.87737784 158,11.2688107 L158,76.6284522 C158,80.0198851 160.883418,82.7945258 164.514573,82.7945258 C167.39799,82.7945258 169.854541,80.9448885 170.708659,78.4782743 C174.980595,81.3558369 180.320371,83 185.980442,83 C200.825165,83 213,71.387382 213,57.0001232 C213,42.6126796 200.825165,31.0000616 185.980442,31.0000616" id="Fill-3" fill="#FFFFFF"></path>
                    <path d="M245.445442,71.2589356 C237.681911,71.2589356 231.449342,65.3545898 231.449342,57.9999069 C231.449342,50.6454102 237.681911,44.7410644 245.445442,44.7410644 C253.208776,44.7410644 259.441346,50.6454102 259.441346,57.9999069 C259.441346,65.3545898 253.208776,71.2589356 245.445442,71.2589356 M245.445442,32 C230.355826,32 218,43.7051359 218,57.9999069 C218,72.3984197 230.355826,84 245.445442,84 C260.534862,84 272.890688,72.3984197 273,58.1036487 C272.890688,43.7051359 260.534862,32 245.445442,32" id="Fill-5" fill="#FFFFFF"></path>
                    <g id="Group-9">
                        <mask id="mask-2" fill="white">
                            <use xlink:href="#path-1"></use>
                        </mask>
                        <g id="Clip-8"></g>
                        <path d="M77.2273631,80.2033636 L63.1652329,72.8982245 C62.5782586,73.233771 61.9794223,73.5508953 61.3681501,73.8467778 C57.4473986,75.7453884 53.0471955,76.811994 48.420085,76.811994 C32.1443651,76.811994 19.0353986,63.9905452 19.0353986,48.0749251 C19.0353986,32.1579892 32.1443651,19.3365404 48.420085,19.3365404 C64.4687063,19.3365404 77.8061107,32.1579892 77.8061107,48.0749251 C77.8061107,53.8455734 76.0293079,59.1947677 73.0270909,63.6880834 C72.8116629,64.0106592 72.5899213,64.3287234 72.3647359,64.644156 L77.2273631,80.2033636 Z M96.8401126,47.3897335 C96.8401126,21.2379707 75.1612822,0.0383857702 48.420085,0.0383857702 C21.6786964,0.0383857702 5.73964497e-05,21.2379707 5.73964497e-05,47.3897335 C5.73964497e-05,73.5416843 21.6786964,94.742585 48.420085,94.742585 C58.2287556,94.742585 67.3544085,91.8873379 74.9808661,86.9844111 L86.5896807,92.90864 L83.7588878,79.7563442 C91.870728,71.289293 96.8401126,59.9077805 96.8401126,47.3897335 Z" id="Fill-7" fill="#FFFFFF" mask="url(#mask-2)"></path>
                    </g>
                    <path d="M37,33 C28.7156275,33 22,38.5963601 22,45.5 C22,52.4034532 28.7156275,58 37,58 C45.2843725,58 52,52.4034532 52,45.5 C52,38.5963601 45.2843725,33 37,33" id="Fill-10" fill="#FFFFFF"></path>
                    <path d="M70.4172987,33.6176446 C66.2525087,31.8115956 61.1214614,34.1009535 58.9583199,38.7296729 C56.7949984,43.3596118 58.4178496,48.5756543 62.5826396,50.3817033 C66.7476097,52.1889719 71.878477,49.899614 74.0417985,45.2696751 C76.20494,40.6409557 74.5820888,35.4236937 70.4172987,33.6176446" id="Fill-12" fill="#FFFFFF"></path>
                </g>
            </g>
        </g>
    </g>
</svg>