<?xml version="1.0" encoding="UTF-8"?>
<svg width="54px" height="54px" viewBox="0 0 54 54" version="1.1" xmlns="http://www.w3.org/2000/svg" xmlns:xlink="http://www.w3.org/1999/xlink">
    <!-- Generator: Sketch 48.2 (47327) - http://www.bohemiancoding.com/sketch -->
    <title>logo_small</title>
    <desc>Created with Sketch.</desc>
    <defs></defs>
    <g id="White-Landing--Copy-7" stroke="none" stroke-width="1" fill="none" fill-rule="evenodd" transform="translate(-424.000000, -486.000000)">
        <g id="Group-31" transform="translate(-88.000000, -410.000000)" fill="#FFFFFF">
            <g id="Group-11" transform="translate(347.000000, 896.000000)">
                <g id="Group-29">
                    <g id="Group-26">
                        <g id="Salesforce-Ipad" transform="translate(165.000000, 0.000000)">
                            <g id="logo_small">
                                <g id="Group-8">
                                    <path d="M42.378794,44.9829754 L34.6621436,40.8838426 C34.3400391,41.0721278 34.0114253,41.2500758 33.6759872,41.4161043 C31.5244591,42.4814717 29.1098299,43.0799761 26.5706845,43.0799761 C17.6393179,43.0799761 10.4457199,35.8854763 10.4457199,26.9547442 C10.4457199,18.0232736 17.6393179,10.8287738 26.5706845,10.8287738 C35.3774299,10.8287738 42.696384,18.0232736 42.696384,26.9547442 C42.696384,30.1928281 41.7213564,33.1944216 40.0738778,35.7157559 C39.9556608,35.8967629 39.8339792,36.0752383 39.7104078,36.252237 L42.378794,44.9829754 Z M53.141369,26.5702626 C53.141369,11.8957234 41.2450238,0 26.5706845,0 C11.8962402,0 0,11.8957234 0,26.5702626 C0,41.2449072 11.8962402,53.141369 26.5706845,53.141369 C31.9532319,53.141369 36.9609705,51.5392041 41.1460197,48.7880247 L47.5164033,52.1122874 L45.9629944,44.7321394 C50.4143992,39.9810228 53.141369,33.5945145 53.141369,26.5702626 Z" id="Fill-7"></path>
                                    <path d="M20.1740382,18.6978891 C15.5542054,18.6978891 11.8091931,21.7820189 11.8091931,25.5865851 C11.8091931,29.3910483 15.5542054,32.4752811 20.1740382,32.4752811 C24.7938711,32.4752811 28.5388833,29.3910483 28.5388833,25.5865851 C28.5388833,21.7820189 24.7938711,18.6978891 20.1740382,18.6978891" id="Fill-10"></path>
                                    <path d="M38.6793325,19.0693369 C36.2684105,17.9831897 33.2981395,19.359996 32.0459358,22.1436805 C30.7936278,24.9280984 31.7330672,28.0649956 34.1439893,29.1511428 C36.5550156,30.2380235 39.5251823,28.8612171 40.7774903,26.0767992 C42.029694,23.2931147 41.0902546,20.1554841 38.6793325,19.0693369" id="Fill-12"></path>
                                </g>
                            </g>
                        </g>
                    </g>
                </g>
            </g>
        </g>
    </g>
</svg>