<?xml version="1.0" encoding="UTF-8"?>
<svg width="144px" height="50px" viewBox="0 0 144 50" version="1.1" xmlns="http://www.w3.org/2000/svg" xmlns:xlink="http://www.w3.org/1999/xlink">
    <!-- Generator: Sketch 48.2 (47327) - http://www.bohemiancoding.com/sketch -->
    <title>Page 1</title>
    <desc>Created with Sketch.</desc>
    <defs>
        <polygon id="path-1" points="3.01775148e-05 49.8644986 50.9159355 49.8644986 50.9159355 0.0202821869 3.01775148e-05 0.0202821869"></polygon>
    </defs>
    <g id="footer" stroke="none" stroke-width="1" fill="none" fill-rule="evenodd" transform="translate(-151.000000, -166.000000)">
        <g id="Group-18">
            <g id="Group-11" transform="translate(151.000000, 43.000000)">
                <g id="Page-1" transform="translate(0.000000, 123.000000)">
                    <g>
                        <path d="M77.7600245,17.4461876 C76.225224,17.4461876 74.2358192,18.8963724 74.2358192,20.7928451 L74.2358192,31 C74.2358192,35.015989 71.3368991,38.2510244 67.4715361,38.2510244 C64.1747351,38.2510244 60.7641808,35.015989 60.7641808,31 L60.7641808,20.3465572 C60.7641808,18.5059457 59.0020782,17 57.1832521,17 C55.4211495,17 54,18.5059457 54,20.3465572 L54,31 C54,38.6973122 60.08207,45 67.4715361,45 C74.91793,45 81,38.6973122 81,31 L81,20.7928451 C81,18.8963724 79.522025,17.4461876 77.7600245,17.4461876" id="Fill-1" fill="#046FD7"></path>
                        <path d="M98.7533237,38.3043925 C94.6426347,38.3043925 91.3203677,35.0396185 91.3203677,31.0000663 C91.3203677,26.9605142 94.6426347,23.6956406 98.7533237,23.6956406 C102.807719,23.6956406 106.186381,26.9605142 106.186381,31.0000663 C106.186381,35.0396185 102.807719,38.3043925 98.7533237,38.3043925 M98.7533237,17.0000332 C95.8251159,17.0000332 93.1222872,17.8853518 90.813619,19.3241686 L90.813619,6.37551347 C90.813619,4.5493573 89.2931703,3 87.4349566,3 C85.5203475,3 84,4.5493573 84,6.37551347 L84,41.5691666 C84,43.3953227 85.5203475,44.88936 87.4349566,44.88936 C88.955304,44.88936 90.2505761,43.8934015 90.7009294,42.5652246 C92.9534047,44.1146814 95.768923,45 98.7533237,45 C106.580541,45 113,38.7470518 113,31.0000663 C113,23.2529813 106.580541,17.0000332 98.7533237,17.0000332" id="Fill-3" fill="#046FD7"></path>
                        <path d="M129.471233,38.1394268 C125.377735,38.1394268 122.091471,34.9601638 122.091471,30.9999499 C122.091471,27.0398362 125.377735,23.8605732 129.471233,23.8605732 C133.564628,23.8605732 136.850891,27.0398362 136.850891,30.9999499 C136.850891,34.9601638 133.564628,38.1394268 129.471233,38.1394268 M129.471233,17 C121.51489,17 115,23.3027655 115,30.9999499 C115,38.7529952 121.51489,45 129.471233,45 C137.427472,45 143.942363,38.7529952 144,31.0558109 C143.942363,23.3027655 137.427472,17 129.471233,17" id="Fill-5" fill="#046FD7"></path>
                        <g id="Group-9">
                            <mask id="mask-2" fill="white">
                                <use xlink:href="#path-1"></use>
                            </mask>
                            <g id="Clip-8"></g>
                            <path d="M40.6040775,42.2122966 L33.2105864,38.3674866 C32.901971,38.54409 32.5871189,38.7109975 32.2657284,38.8667252 C30.2043024,39.8659939 27.8907935,40.4273653 25.4579828,40.4273653 C16.9006456,40.4273653 10.0083024,33.6792343 10.0083024,25.3025922 C10.0083024,16.9252575 16.9006456,10.1771265 25.4579828,10.1771265 C33.8959178,10.1771265 40.9083675,16.9252575 40.9083675,25.3025922 C40.9083675,28.3397755 39.9741722,31.1551409 38.395687,33.5200439 C38.2824207,33.6898206 38.1658349,33.8572229 38.0474385,34.02324 L40.6040775,42.2122966 Z M50.9159355,24.941965 C50.9159355,11.1778793 39.5177876,0.020203037 25.4579828,0.020203037 C11.3980775,0.020203037 3.01775148e-05,11.1778793 3.01775148e-05,24.941965 C3.01775148e-05,38.7061496 11.3980775,49.8645184 25.4579828,49.8645184 C30.6151189,49.8645184 35.4131426,48.3617568 39.4229296,45.781269 L45.5265331,48.8992842 L44.0381781,41.9770233 C48.3031663,37.5206805 50.9159355,31.5304108 50.9159355,24.941965 Z" id="Fill-7" fill="#046FD7" mask="url(#mask-2)"></path>
                        </g>
                        <path d="M19,17 C14.581668,17 11,19.9101072 11,23.5 C11,27.0897957 14.581668,30 19,30 C23.418332,30 27,27.0897957 27,23.5 C27,19.9101072 23.418332,17 19,17" id="Fill-10" fill="#046FD7"></path>
                        <path d="M36.573864,17.3431359 C34.3689752,16.3397753 31.6525384,17.6116408 30.5073458,20.1831516 C29.362058,22.7553399 30.2212145,25.6531413 32.4261033,26.6565018 C34.6310875,27.66054 37.347429,26.3886744 38.4927169,23.8164861 C39.6379094,21.2449754 38.7787529,18.3464965 36.573864,17.3431359" id="Fill-12" fill="#046FD7"></path>
                    </g>
                </g>
            </g>
        </g>
    </g>
</svg>