<?xml version="1.0" encoding="UTF-8"?>
<svg width="320px" height="355px" viewBox="0 0 320 355" version="1.1" xmlns="http://www.w3.org/2000/svg" xmlns:xlink="http://www.w3.org/1999/xlink">
    <!-- Generator: Sketch 48.2 (47327) - http://www.bohemiancoding.com/sketch -->
    <title>man</title>
    <desc>Created with Sketch.</desc>
    <defs></defs>
    <g id="White-Landing--Copy-7" stroke="none" stroke-width="1" fill="none" fill-rule="evenodd" transform="translate(-170.000000, -937.000000)">
        <g id="Group-31" transform="translate(-88.000000, -410.000000)">
            <g id="man" transform="translate(259.000000, 1349.000000)">
                <g id="Page-1">
                    <g>
                        <path d="M123.6613,314.4879 L110.9473,315.1869 C110.9473,315.1869 63.1623,315.8409 53.6703,325.0059 C44.1793,334.1699 45.2003,344.6109 46.7973,346.6069 C50.7253,351.5169 166.9153,349.5529 166.9153,349.5529 L163.7823,314.2069 L123.6613,314.4879 Z" id="Fill-1" fill="#FFFFFF"></path>
                        <path d="M123.6613,314.4879 L110.9473,315.1869 C110.9473,315.1869 63.1623,315.8409 53.6703,325.0059 C44.1793,334.1699 45.2003,344.6109 46.7973,346.6069 C50.7253,351.5169 166.9153,349.5529 166.9153,349.5529 L163.7823,314.2069 L123.6613,314.4879 Z" id="Stroke-3" stroke="#0064C5" stroke-width="3"></path>
                        <path d="M200.2566,314.4879 L211.4796,314.2069 C211.4796,314.2069 259.2846,315.8409 268.7766,325.0059 C278.2686,334.1699 277.2466,344.6109 275.6496,346.6069 C271.7226,351.5169 155.5316,349.5529 155.5316,349.5529 L160.1356,314.2069 L200.2566,314.4879 Z" id="Fill-5" fill="#FFFFFF"></path>
                        <path d="M200.2566,314.4879 L211.4796,314.2069 C211.4796,314.2069 259.2846,315.8409 268.7766,325.0059 C278.2686,334.1699 277.2466,344.6109 275.6496,346.6069 C271.7226,351.5169 155.5316,349.5529 155.5316,349.5529 L160.1356,314.2069 L200.2566,314.4879 Z" id="Stroke-7" stroke="#0064C5" stroke-width="3"></path>
                        <path d="M57.5678,324.4926 L44.1998,328.5026 C44.1998,328.5026 36.1798,332.5136 35.1098,337.3256 C34.0408,342.1376 35.1178,346.4056 36.4468,347.4856 C41.0588,351.2336 122.8028,351.4956 122.8028,351.4956 L123.8718,336.2566 C123.8718,336.2566 66.9248,324.4926 65.8558,324.2256 C64.7868,323.9576 57.5678,324.4926 57.5678,324.4926" id="Fill-9" fill="#FFFFFF"></path>
                        <path d="M57.5678,324.4926 L44.1998,328.5026 C44.1998,328.5026 36.1798,332.5136 35.1098,337.3256 C34.0408,342.1376 35.1178,346.4056 36.4468,347.4856 C41.0588,351.2336 122.8028,351.4956 122.8028,351.4956 L123.8718,336.2566 C123.8718,336.2566 66.9248,324.4926 65.8558,324.2256 C64.7868,323.9576 57.5678,324.4926 57.5678,324.4926 Z" id="Stroke-11" stroke="#0064C5" stroke-width="3"></path>
                        <path d="M205.8979,324.2364 L219.2659,328.2464 C219.2659,328.2464 227.2859,332.2574 228.3559,337.0694 C229.4249,341.8814 228.3479,346.1494 227.0189,347.2294 C222.4069,350.9774 140.6629,351.2394 140.6629,351.2394 L139.5939,336.0004 C139.5939,336.0004 196.5409,324.2364 197.6099,323.9694 C198.6789,323.7014 205.8979,324.2364 205.8979,324.2364" id="Fill-13" fill="#FFFFFF"></path>
                        <path d="M205.8979,324.2364 L219.2659,328.2464 C219.2659,328.2464 227.2859,332.2574 228.3559,337.0694 C229.4249,341.8814 228.3479,346.1494 227.0189,347.2294 C222.4069,350.9774 140.6629,351.2394 140.6629,351.2394 L139.5939,336.0004 C139.5939,336.0004 196.5409,324.2364 197.6099,323.9694 C198.6789,323.7014 205.8979,324.2364 205.8979,324.2364 Z" id="Stroke-15" stroke="#0064C5" stroke-width="3"></path>
                        <polygon id="Fill-17" fill="#FFFFFF" points="204.0564 315.9381 221.4294 311.7121 201.2394 303.2601"></polygon>
                        <polygon id="Stroke-19" stroke="#0064C5" stroke-width="3" points="204.0564 315.9381 221.4294 311.7121 201.2394 303.2601"></polygon>
                        <path d="M109.4051,315.9338 L98.5171,313.7888 C98.5171,313.7888 127.5191,301.5348 127.6601,302.7198 C127.8001,303.9058 109.4051,315.9338 109.4051,315.9338" id="Fill-21" fill="#FFFFFF"></path>
                        <path d="M109.4051,315.9338 L98.5171,313.7888 C98.5171,313.7888 127.5191,301.5348 127.6601,302.7198 C127.8001,303.9058 109.4051,315.9338 109.4051,315.9338 Z" id="Stroke-23" stroke="#0064C5" stroke-width="3"></path>
                        <path d="M163.6292,157.7459 C129.2082,155.4239 116.7702,162.1519 104.2322,168.3619 C89.7692,175.5249 86.0342,189.0869 86.0342,189.0869 L113.9652,211.1919 L109.2332,309.7829 L111.2142,315.0479 L208.1292,314.1069 L213.3232,199.2739 C213.3232,199.2739 235.7272,184.8159 227.5342,177.5729 C210.5422,162.5509 204.6202,160.5139 163.6292,157.7459" id="Fill-25" fill="#FFFFFF"></path>
                        <path d="M163.6292,157.7459 C129.2082,155.4239 116.7702,162.1519 104.2322,168.3619 C89.7692,175.5249 86.0342,189.0869 86.0342,189.0869 L113.9652,211.1919 L109.2332,309.7829 L111.2142,315.0479 L208.1292,314.1069 L213.3232,199.2739 C213.3232,199.2739 235.7272,184.8159 227.5342,177.5729 C210.5422,162.5509 204.6202,160.5139 163.6292,157.7459 Z" id="Stroke-27" stroke="#0064C5" stroke-width="3"></path>
                        <polygon id="Fill-29" fill="#FFFFFF" points="155.7938 311.6723 164.3878 311.4193 168.4648 175.0133 165.2428 174.8563"></polygon>
                        <polygon id="Stroke-31" stroke="#0064C5" stroke-width="3" points="155.7938 311.6723 164.3878 311.4193 168.4648 175.0133 165.2428 174.8563"></polygon>
                        <polygon id="Fill-33" fill="#FFFFFF" points="148.5868 190.9535 165.8168 175.6025 180.8008 189.4795 213.1438 162.3135 121.6678 156.9615"></polygon>
                        <polygon id="Stroke-35" stroke="#0064C5" stroke-width="3" points="148.5868 190.9535 165.8168 175.6025 180.8008 189.4795 213.1438 162.3135 121.6678 156.9615"></polygon>
                        <path d="M119.6501,253.8744 C118.1701,254.8584 116.8221,256.0174 115.6331,257.3354 C115.1871,257.8414 115.9091,258.6314 116.4371,258.2094 C117.7821,257.1424 118.9771,255.9084 120.3561,254.8824 C120.9931,254.4104 120.3121,253.4394 119.6501,253.8744" id="Fill-37" fill="#FFFFFF"></path>
                        <path d="M119.6501,253.8744 C118.1701,254.8584 116.8221,256.0174 115.6331,257.3354 C115.1871,257.8414 115.9091,258.6314 116.4371,258.2094 C117.7821,257.1424 118.9771,255.9084 120.3561,254.8824 C120.9931,254.4104 120.3121,253.4394 119.6501,253.8744 Z" id="Stroke-39" stroke="#0064C5" stroke-width="3"></path>
                        <path d="M117.5216,244.6389 C116.3846,244.8629 115.2076,244.7689 114.1776,245.3559 C113.5686,245.7029 114.1226,246.5119 114.7006,246.3659 C115.7146,246.1089 116.7636,246.0299 117.7786,245.7769 C118.4236,245.6149 118.1716,244.5119 117.5216,244.6389" id="Fill-41" fill="#FFFFFF"></path>
                        <path d="M117.5216,244.6389 C116.3846,244.8629 115.2076,244.7689 114.1776,245.3559 C113.5686,245.7029 114.1226,246.5119 114.7006,246.3659 C115.7146,246.1089 116.7636,246.0299 117.7786,245.7769 C118.4236,245.6149 118.1716,244.5119 117.5216,244.6389 Z" id="Stroke-43" stroke="#0064C5" stroke-width="3"></path>
                        <path d="M115.9409,234.5012 C115.2869,234.1122 114.7989,235.1052 115.2759,235.5702 C115.7649,236.0452 116.3869,236.2752 116.9419,236.6692 C117.6079,237.1402 118.3989,236.2132 117.7569,235.6832 C117.1969,235.2202 116.5609,234.8722 115.9409,234.5012" id="Fill-45" fill="#FFFFFF"></path>
                        <path d="M115.9409,234.5012 C115.2869,234.1122 114.7989,235.1052 115.2759,235.5702 C115.7649,236.0452 116.3869,236.2752 116.9419,236.6692 C117.6079,237.1402 118.3989,236.2132 117.7569,235.6832 C117.1969,235.2202 116.5609,234.8722 115.9409,234.5012 Z" id="Stroke-47" stroke="#0064C5" stroke-width="3"></path>
                        <path d="M171.9622,192.2947 C170.9692,192.1007 169.9582,192.4267 169.6162,193.4777 C169.3372,194.3227 169.7522,195.3937 170.5982,195.7457 C170.6512,195.7927 170.6992,195.8507 170.7602,195.8907 C171.0772,196.0987 171.4232,196.1867 171.7952,196.1987 C173.1972,196.2437 174.0792,194.7957 173.4912,193.5557 C173.2142,192.9777 172.5962,192.4197 171.9622,192.2947" id="Fill-49" fill="#FFFFFF"></path>
                        <path d="M171.9622,192.2947 C170.9692,192.1007 169.9582,192.4267 169.6162,193.4777 C169.3372,194.3227 169.7522,195.3937 170.5982,195.7457 C170.6512,195.7927 170.6992,195.8507 170.7602,195.8907 C171.0772,196.0987 171.4232,196.1867 171.7952,196.1987 C173.1972,196.2437 174.0792,194.7957 173.4912,193.5557 C173.2142,192.9777 172.5962,192.4197 171.9622,192.2947 Z" id="Stroke-51" stroke="#0064C5" stroke-width="3"></path>
                        <path d="M171.3857,207.3395 C169.0927,207.2265 168.9177,210.7835 171.2107,210.8965 C173.5057,211.0095 173.6807,207.4515 171.3857,207.3395" id="Fill-53" fill="#FFFFFF"></path>
                        <path d="M171.3857,207.3395 C169.0927,207.2265 168.9177,210.7835 171.2107,210.8965 C173.5057,211.0095 173.6807,207.4515 171.3857,207.3395 Z" id="Stroke-55" stroke="#0064C5" stroke-width="3"></path>
                        <path d="M171.3501,221.4293 C170.0171,221.3643 168.8771,222.6483 169.2051,223.9723 C169.3231,224.4423 169.5211,224.8903 169.8781,225.2273 C170.3771,225.6923 171.1321,226.0973 171.8421,225.8513 C171.8811,225.8393 171.8941,225.8313 171.9071,225.8253 C171.9141,225.8243 171.9171,225.8243 171.9221,225.8233 C172.3881,225.7273 172.8681,225.3893 173.1081,224.9743 C173.4401,224.3953 173.5941,223.5873 173.2321,222.9713 C172.9911,222.1263 172.2991,221.4763 171.3501,221.4293" id="Fill-57" fill="#FFFFFF"></path>
                        <path d="M171.3501,221.4293 C170.0171,221.3643 168.8771,222.6483 169.2051,223.9723 C169.3231,224.4423 169.5211,224.8903 169.8781,225.2273 C170.3771,225.6923 171.1321,226.0973 171.8421,225.8513 C171.8811,225.8393 171.8941,225.8313 171.9071,225.8253 C171.9141,225.8243 171.9171,225.8243 171.9221,225.8233 C172.3881,225.7273 172.8681,225.3893 173.1081,224.9743 C173.4401,224.3953 173.5941,223.5873 173.2321,222.9713 C172.9911,222.1263 172.2991,221.4763 171.3501,221.4293 Z" id="Stroke-59" stroke="#0064C5" stroke-width="3"></path>
                        <path d="M171.0869,234.5061 C168.0939,234.3591 167.8659,238.9981 170.8579,239.1451 C173.8489,239.2931 174.0769,234.6531 171.0869,234.5061" id="Fill-61" fill="#FFFFFF"></path>
                        <path d="M171.0869,234.5061 C168.0939,234.3591 167.8659,238.9981 170.8579,239.1451 C173.8489,239.2931 174.0769,234.6531 171.0869,234.5061 Z" id="Stroke-63" stroke="#0064C5" stroke-width="3"></path>
                        <path d="M168.8684,249.3754 C167.6934,250.4374 168.0424,252.0314 169.1494,252.9434 C168.8584,252.7284 168.9504,252.8114 169.4264,253.1994 C169.6284,253.3044 169.8324,253.4024 170.0434,253.4914 C171.3734,254.0744 172.6014,252.8394 172.7634,251.6214 C172.8414,251.0484 172.6294,250.5174 172.3914,250.0064 C171.7654,248.6804 169.9144,248.4274 168.8684,249.3754" id="Fill-65" fill="#FFFFFF"></path>
                        <path d="M168.8684,249.3754 C167.6934,250.4374 168.0424,252.0314 169.1494,252.9434 C168.8584,252.7284 168.9504,252.8114 169.4264,253.1994 C169.6284,253.3044 169.8324,253.4024 170.0434,253.4914 C171.3734,254.0744 172.6014,252.8394 172.7634,251.6214 C172.8414,251.0484 172.6294,250.5174 172.3914,250.0064 C171.7654,248.6804 169.9144,248.4274 168.8684,249.3754 Z" id="Stroke-67" stroke="#0064C5" stroke-width="3"></path>
                        <path d="M169.1237,266.7957 C167.1937,266.6997 166.4917,269.1957 167.9967,270.2637 C168.0447,270.2967 168.0877,270.3277 168.1357,270.3587 C168.5867,270.6797 169.2767,270.7127 169.7567,270.4397 C169.8037,270.4117 169.8537,270.3867 169.9037,270.3577 C171.5067,269.4417 171.0497,266.8907 169.1237,266.7957" id="Fill-69" fill="#FFFFFF"></path>
                        <path d="M169.1237,266.7957 C167.1937,266.6997 166.4917,269.1957 167.9967,270.2637 C168.0447,270.2967 168.0877,270.3277 168.1357,270.3587 C168.5867,270.6797 169.2767,270.7127 169.7567,270.4397 C169.8037,270.4117 169.8537,270.3867 169.9037,270.3577 C171.5067,269.4417 171.0497,266.8907 169.1237,266.7957 Z" id="Stroke-71" stroke="#0064C5" stroke-width="3"></path>
                        <path d="M169.3412,283.1201 C166.7262,282.9911 166.5262,287.0411 169.1432,287.1721 C171.7542,287.3001 171.9542,283.2481 169.3412,283.1201" id="Fill-73" fill="#FFFFFF"></path>
                        <path d="M169.3412,283.1201 C166.7262,282.9911 166.5262,287.0411 169.1432,287.1721 C171.7542,287.3001 171.9542,283.2481 169.3412,283.1201 Z" id="Stroke-75" stroke="#0064C5" stroke-width="3"></path>
                        <polygon id="Fill-77" fill="#FFFFFF" points="153.5158 172.0527 160.0298 182.4867 164.4258 182.3827 170.7678 172.1157 162.2828 166.6817"></polygon>
                        <polygon id="Stroke-79" stroke="#0064C5" stroke-width="3" points="153.5158 172.0527 160.0298 182.4867 164.4258 182.3827 170.7678 172.1157 162.2828 166.6817"></polygon>
                        <path d="M136.3309,152.8985 C133.9919,152.5745 122.6309,156.9335 122.6309,156.9335 L147.4859,181.3265 L162.6289,166.8265 L178.1709,180.9375 L204.5369,160.9665 L189.1959,152.0885 L136.3309,152.8985 Z" id="Fill-81" fill="#FFFFFF"></path>
                        <path d="M136.3309,152.8985 C133.9919,152.5745 122.6309,156.9335 122.6309,156.9335 L147.4859,181.3265 L162.6289,166.8265 L178.1709,180.9375 L204.5369,160.9665 L189.1959,152.0885 L136.3309,152.8985 Z" id="Stroke-83" stroke="#0064C5" stroke-width="3"></path>
                        <path d="M121.6682,156.962 C121.6682,156.962 140.7992,190.489 139.9872,231.979 C139.1742,273.469 136.4062,308.895 136.4062,308.895 L98.5172,313.789 L107.0412,213.088 C107.0412,213.088 79.7982,204.454 80.7262,195.912 C81.9902,184.285 101.8902,166.844 101.8902,166.844 L121.6682,156.962 Z" id="Fill-85" fill="#FFFFFF"></path>
                        <path d="M121.6682,156.962 C121.6682,156.962 140.7992,190.489 139.9872,231.979 C139.1742,273.469 136.4062,308.895 136.4062,308.895 L98.5172,313.789 L107.0412,213.088 C107.0412,213.088 79.7982,204.454 80.7262,195.912 C81.9902,184.285 101.8902,166.844 101.8902,166.844 L121.6682,156.962 Z" id="Stroke-87" stroke="#0064C5" stroke-width="3"></path>
                        <path d="M120.633,154.5858 L109.208,158.1708 L110.147,179.7698 L120.008,183.5258 L114.843,191.5088 L139.005,264.0238 L140.243,250.8968 C140.243,250.8968 143.359,212.2848 137.114,192.9648 C130.869,173.6438 128.929,153.4748 128.929,153.4748 L120.633,154.5858 Z" id="Fill-89" fill="#FFFFFF"></path>
                        <path d="M120.633,154.5858 L109.208,158.1708 L110.147,179.7698 L120.008,183.5258 L114.843,191.5088 L139.005,264.0238 L140.243,250.8968 C140.243,250.8968 143.359,212.2848 137.114,192.9648 C130.869,173.6438 128.929,153.4748 128.929,153.4748 L120.633,154.5858 Z" id="Stroke-91" stroke="#0064C5" stroke-width="3"></path>
                        <path d="M215.4237,217.429 C215.4237,217.429 238.2197,199.065 236.6617,194.57 C225.2987,161.79 197.5547,154.306 197.5547,154.306 L189.9217,175.756 C189.9217,175.756 179.8397,207.426 183.3197,231.555 C186.7997,255.683 189.0307,307.956 189.0307,307.956 L221.4277,311.712 L215.4237,246.126 L215.4237,217.429 Z" id="Fill-93" fill="#FFFFFF"></path>
                        <path d="M215.4237,217.429 C215.4237,217.429 238.2197,199.065 236.6617,194.57 C225.2987,161.79 197.5547,154.306 197.5547,154.306 L189.9217,175.756 C189.9217,175.756 179.8397,207.426 183.3197,231.555 C186.7997,255.683 189.0307,307.956 189.0307,307.956 L221.4277,311.712 L215.4237,246.126 L215.4237,217.429 Z" id="Stroke-95" stroke="#0064C5" stroke-width="3"></path>
                        <path d="M197.1378,152.257 C197.1378,152.257 179.6808,193.773 180.5068,209.776 C182.1138,240.907 186.1238,260.111 186.1238,260.111 L205.6348,190.626 L195.2518,184.137 L207.8238,181.163 L214.4798,159.077 L197.1378,152.257 Z" id="Fill-97" fill="#FFFFFF"></path>
                        <path d="M197.1378,152.257 C197.1378,152.257 179.6808,193.773 180.5068,209.776 C182.1138,240.907 186.1238,260.111 186.1238,260.111 L205.6348,190.626 L195.2518,184.137 L207.8238,181.163 L214.4798,159.077 L197.1378,152.257 Z" id="Stroke-99" stroke="#0064C5" stroke-width="3"></path>
                        <polygon id="Fill-101" fill="#FFFFFF" points="108.3917 315.6755 160.9257 318.6275 209.3837 314.4205 208.1287 311.5985 109.9597 311.9115"></polygon>
                        <polygon id="Stroke-103" stroke="#0064C5" stroke-width="3" points="108.3917 315.6755 160.9257 318.6275 209.3837 314.4205 208.1287 311.5985 109.9597 311.9115"></polygon>
                        <path d="M160.1189,310.1278 C156.5139,310.1758 153.6319,312.9638 153.6759,316.3568 C153.7219,319.7488 156.6759,322.4588 160.2819,322.4098 C163.8819,322.3628 166.7679,319.5758 166.7229,316.1848 C166.6779,312.7908 163.7189,310.0808 160.1189,310.1278" id="Fill-105" fill="#FFFFFF"></path>
                        <path d="M160.1189,310.1278 C156.5139,310.1758 153.6319,312.9638 153.6759,316.3568 C153.7219,319.7488 156.6759,322.4588 160.2819,322.4098 C163.8819,322.3628 166.7679,319.5758 166.7229,316.1848 C166.6779,312.7908 163.7189,310.0808 160.1189,310.1278 Z" id="Stroke-107" stroke="#0064C5" stroke-width="3"></path>
                        <path d="M160.1562,312.8731 C158.3182,312.8971 156.8472,314.4381 156.8722,316.3151 C156.8972,318.1891 158.4082,319.6921 160.2462,319.6671 C162.0812,319.6431 163.5542,318.1011 163.5302,316.2271 C163.5052,314.3511 161.9912,312.8491 160.1562,312.8731" id="Fill-109" fill="#FFFFFF"></path>
                        <path d="M160.1562,312.8731 C158.3182,312.8971 156.8472,314.4381 156.8722,316.3151 C156.8972,318.1891 158.4082,319.6921 160.2462,319.6671 C162.0812,319.6431 163.5542,318.1011 163.5302,316.2271 C163.5052,314.3511 161.9912,312.8491 160.1562,312.8731 Z" id="Stroke-111" stroke="#0064C5" stroke-width="3"></path>
                        <path d="M167.607,315.2153 C165.381,315.2533 163.163,315.8923 160.963,315.2813 C160.135,315.0493 159.562,316.3603 160.387,316.6983 C162.718,317.6623 165.199,317.0083 167.63,316.8933 C168.706,316.8423 168.693,315.1943 167.607,315.2153" id="Fill-113" fill="#FFFFFF"></path>
                        <path d="M167.607,315.2153 C165.381,315.2533 163.163,315.8923 160.963,315.2813 C160.135,315.0493 159.562,316.3603 160.387,316.6983 C162.718,317.6623 165.199,317.0083 167.63,316.8933 C168.706,316.8423 168.693,315.1943 167.607,315.2153 Z" id="Stroke-115" stroke="#0064C5" stroke-width="3"></path>
                        <path d="M215.5895,114.7146 C219.9945,122.9676 208.1035,122.5646 204.1305,122.5886 L204.4045,113.3726 C206.8275,112.9366 214.3525,112.4046 215.5895,114.7146" id="Fill-117" fill="#FFFFFF"></path>
                        <path d="M215.5895,114.7146 C219.9945,122.9676 208.1035,122.5646 204.1305,122.5886 L204.4045,113.3726 C206.8275,112.9366 214.3525,112.4046 215.5895,114.7146 Z" id="Stroke-119" stroke="#0064C5" stroke-width="3"></path>
                        <path d="M210.55,116.3555 C211.283,116.4445 212.152,116.9445 211.834,117.8095 C211.316,119.2295 208.837,118.1515 207.81,118.3845 L207.761,118.1495 C208.571,117.3145 209.3,116.2035 210.55,116.3555" id="Fill-121" fill="#FFFFFF"></path>
                        <path d="M210.55,116.3555 C211.283,116.4445 212.152,116.9445 211.834,117.8095 C211.316,119.2295 208.837,118.1515 207.81,118.3845 L207.761,118.1495 C208.571,117.3145 209.3,116.2035 210.55,116.3555 Z" id="Stroke-123" stroke="#0064C5" stroke-width="3"></path>
                        <path d="M207.3676,79.9774 C207.3826,64.0554 194.4876,51.1374 178.5626,51.1234 L145.8996,51.0934 C129.9766,51.0794 117.0586,63.9734 117.0436,79.8944 L117.0046,123.5554 C116.9896,139.4794 129.8846,152.3984 145.8066,152.4124 L178.4716,152.4414 C194.3956,152.4574 207.3136,139.5614 207.3276,123.6364 L207.3676,79.9774 Z" id="Fill-125" fill="#FFFFFF"></path>
                        <path d="M207.3676,79.9774 C207.3826,64.0554 194.4876,51.1374 178.5626,51.1234 L145.8996,51.0934 C129.9766,51.0794 117.0586,63.9734 117.0436,79.8944 L117.0046,123.5554 C116.9896,139.4794 129.8846,152.3984 145.8066,152.4124 L178.4716,152.4414 C194.3956,152.4574 207.3136,139.5614 207.3276,123.6364 L207.3676,79.9774 Z" id="Stroke-127" stroke="#0064C5" stroke-width="3"></path>
                        <path d="M109.7528,117.305 C104.6658,125.156 116.5478,125.76 120.5048,126.12 L121.0118,116.914 C118.6338,116.274 111.1808,115.108 109.7528,117.305" id="Fill-129" fill="#FFFFFF"></path>
                        <path d="M109.7528,117.305 C104.6658,125.156 116.5478,125.76 120.5048,126.12 L121.0118,116.914 C118.6338,116.274 111.1808,115.108 109.7528,117.305 Z" id="Stroke-131" stroke="#0064C5" stroke-width="3"></path>
                        <path d="M130.9986,77.7087 C128.9996,79.8677 127.2326,83.4867 127.0496,86.4717 L127.0786,86.9527 C128.5636,83.2957 132.2946,82.5647 135.6776,81.2597 C137.3026,80.6337 142.7316,79.4517 140.9546,77.1367 C138.6136,74.0837 133.1746,75.3617 130.9986,77.7087" id="Fill-133" fill="#0064C5"></path>
                        <path d="M130.9986,77.7087 C128.9996,79.8677 127.2326,83.4867 127.0496,86.4717 L127.0786,86.9527 C128.5636,83.2957 132.2946,82.5647 135.6776,81.2597 C137.3026,80.6337 142.7316,79.4517 140.9546,77.1367 C138.6136,74.0837 133.1746,75.3617 130.9986,77.7087 Z" id="Stroke-135" stroke="#FFFFFF" stroke-width="3"></path>
                        <path d="M157.2494,41.9873 C96.6014,42.3633 114.4894,99.0013 117.0174,109.2543 C119.5454,119.5093 116.6264,96.1913 120.0524,88.5093 C123.4734,80.8243 135.4464,67.1683 135.4464,67.1683 C135.4464,67.1683 149.0994,85.5453 173.8664,89.8383 C198.6324,94.1323 215.2914,94.4283 215.2914,94.4283 L207.3664,81.7933 C207.3664,81.7933 217.9044,41.6163 157.2494,41.9873" id="Fill-137" fill="#FFFFFF"></path>
                        <path d="M157.2494,41.9873 C96.6014,42.3633 114.4894,99.0013 117.0174,109.2543 C119.5454,119.5093 116.6264,96.1913 120.0524,88.5093 C123.4734,80.8243 135.4464,67.1683 135.4464,67.1683 C135.4464,67.1683 149.0994,85.5453 173.8664,89.8383 C198.6324,94.1323 215.2914,94.4283 215.2914,94.4283 L207.3664,81.7933 C207.3664,81.7933 217.9044,41.6163 157.2494,41.9873 Z" id="Stroke-139" stroke="#0064C5" stroke-width="3"></path>
                        <path d="M114.6356,119.3664 C113.8976,119.3934 112.9896,119.8184 113.2336,120.7064 C113.6296,122.1654 116.1906,121.3004 117.1946,121.6194 L117.2636,121.3894 C116.5256,120.4894 115.8936,119.3204 114.6356,119.3664" id="Fill-141" fill="#FFFFFF"></path>
                        <path d="M114.6356,119.3664 C113.8976,119.3934 112.9896,119.8184 113.2336,120.7064 C113.6296,122.1654 116.1906,121.3004 117.1946,121.6194 L117.2636,121.3894 C116.5256,120.4894 115.8936,119.3204 114.6356,119.3664 Z" id="Stroke-143" stroke="#0064C5" stroke-width="3"></path>
                        <path d="M129.8918,110.5633 C129.9538,110.5893 130.0228,110.6153 130.1058,110.6373 L129.8918,110.5633 Z" id="Fill-145" fill="#FFFFFF"></path>
                        <path d="M129.8918,110.5633 C129.9538,110.5893 130.0228,110.6153 130.1058,110.6373 L129.8918,110.5633 Z" id="Stroke-147" stroke="#0064C5" stroke-width="3"></path>
                        <path d="M140.5034,189.0679 C130.7024,190.4409 119.7024,184.5429 119.7024,184.5429 L104.7424,194.2559 L118.3164,207.7109 C118.3164,207.7109 137.9784,208.4289 150.1174,199.3129 C156.3204,194.6539 166.8494,178.5139 166.8494,178.5139 L160.7774,178.3859 C160.7774,178.3859 153.7684,187.2089 140.5034,189.0679" id="Fill-149" fill="#0064C5"></path>
                        <path d="M140.5034,189.0679 C130.7024,190.4409 119.7024,184.5429 119.7024,184.5429 L104.7424,194.2559 L118.3164,207.7109 C118.3164,207.7109 137.9784,208.4289 150.1174,199.3129 C156.3204,194.6539 166.8494,178.5139 166.8494,178.5139 L160.7774,178.3859 C160.7774,178.3859 153.7684,187.2089 140.5034,189.0679 Z" id="Stroke-151" stroke="#FFFFFF" stroke-width="3"></path>
                        <polygon id="Fill-153" fill="#FFFFFF" points="128.0656 30.2615 118.7686 12.6025 122.8946 11.5215"></polygon>
                        <polygon id="Stroke-155" stroke="#0064C5" stroke-width="3" points="128.0656 30.2615 118.7686 12.6025 122.8946 11.5215"></polygon>
                        <polygon id="Fill-157" fill="#FFFFFF" points="158.6715 27.8983 154.1255 1.8043 158.9055 0.1233"></polygon>
                        <polygon id="Stroke-159" stroke="#0064C5" stroke-width="3" points="158.6715 27.8983 154.1255 1.8043 158.9055 0.1233"></polygon>
                        <polygon id="Fill-161" fill="#FFFFFF" points="185.4862 28.563 192.3932 10.018 197.0142 12.098"></polygon>
                        <polygon id="Stroke-163" stroke="#0064C5" stroke-width="3" points="185.4862 28.563 192.3932 10.018 197.0142 12.098"></polygon>
                        <polygon id="Fill-165" fill="#FFFFFF" points="109.9466 44.201 98.0156 35.69 96.4536 40.333"></polygon>
                        <polygon id="Stroke-167" stroke="#0064C5" stroke-width="3" points="109.9466 44.201 98.0156 35.69 96.4536 40.333"></polygon>
                        <polygon id="Fill-169" fill="#FFFFFF" points="213.4827 32.2718 206.8437 41.0608 216.3897 35.6258"></polygon>
                        <polygon id="Stroke-171" stroke="#0064C5" stroke-width="3" points="213.4827 32.2718 206.8437 41.0608 216.3897 35.6258"></polygon>
                        <polygon id="Fill-173" fill="#FFFFFF" points="89.7375 65.4788 99.4895 68.7178 89.6185 68.2988"></polygon>
                        <polygon id="Stroke-175" stroke="#0064C5" stroke-width="3" points="89.7375 65.4788 99.4895 68.7178 89.6185 68.2988"></polygon>
                        <polygon id="Fill-177" fill="#FFFFFF" points="216.4089 65.663 228.7459 58.651 229.7309 62.46"></polygon>
                        <polygon id="Stroke-179" stroke="#0064C5" stroke-width="3" points="216.4089 65.663 228.7459 58.651 229.7309 62.46"></polygon>
                        <path d="M143.2298,97.9867 C143.0988,96.5827 141.1478,96.5667 141.0348,97.9867 C140.9198,99.4177 140.7998,100.8517 140.4318,102.2447 C140.0998,103.5017 139.5378,105.0117 138.3898,105.7517 C135.7948,107.4247 134.4588,100.9817 134.4178,99.5027 C134.4138,99.3817 134.3938,99.2717 134.3618,99.1717 C134.3638,99.1407 134.3658,99.1097 134.3678,99.0797 C134.4598,97.8627 132.3788,97.5567 132.2118,98.7877 C132.1928,98.9297 132.1738,99.0717 132.1548,99.2137 C132.1388,99.3297 132.1348,99.4447 132.1428,99.5567 C132.0728,100.6957 132.0538,101.8357 132.1048,102.9767 C132.1498,103.9837 132.1888,105.0497 132.5528,106.0027 C133.3228,108.0167 135.6718,108.8557 137.6998,108.8107 C140.1548,108.7557 141.3738,106.8307 142.2198,104.7737 C143.1018,102.6317 143.4448,100.2917 143.2298,97.9867" id="Fill-181" fill="#0064C5"></path>
                        <path d="M143.2298,97.9867 C143.0988,96.5827 141.1478,96.5667 141.0348,97.9867 C140.9198,99.4177 140.7998,100.8517 140.4318,102.2447 C140.0998,103.5017 139.5378,105.0117 138.3898,105.7517 C135.7948,107.4247 134.4588,100.9817 134.4178,99.5027 C134.4138,99.3817 134.3938,99.2717 134.3618,99.1717 C134.3638,99.1407 134.3658,99.1097 134.3678,99.0797 C134.4598,97.8627 132.3788,97.5567 132.2118,98.7877 C132.1928,98.9297 132.1738,99.0717 132.1548,99.2137 C132.1388,99.3297 132.1348,99.4447 132.1428,99.5567 C132.0728,100.6957 132.0538,101.8357 132.1048,102.9767 C132.1498,103.9837 132.1888,105.0497 132.5528,106.0027 C133.3228,108.0167 135.6718,108.8557 137.6998,108.8107 C140.1548,108.7557 141.3738,106.8307 142.2198,104.7737 C143.1018,102.6317 143.4448,100.2917 143.2298,97.9867 Z" id="Stroke-183" stroke="#FFFFFF" stroke-width="3"></path>
                        <path d="M190.7054,98.7684 C190.6794,99.0184 190.6534,99.2704 190.6254,99.5224 C190.4404,100.9434 190.0474,102.3454 189.4304,103.6374 C189.1194,104.2864 188.8494,104.8654 188.1634,105.1704 C187.3954,105.5124 186.5174,105.7234 185.6864,105.8304 C185.3174,105.8784 184.9854,106.0414 184.7854,106.3134 C184.4994,106.2714 184.2264,106.2084 183.9904,106.1074 C183.2984,105.8114 183.1034,104.8844 182.9164,104.2324 C182.3704,102.3294 182.2414,100.3664 182.4454,98.4014 C182.5904,96.9974 180.3944,97.0074 180.2494,98.4014 C179.9954,100.8584 180.2234,103.5044 181.1294,105.8204 C181.5274,106.8384 182.1334,107.7344 183.1884,108.1424 C184.1054,108.4964 185.2394,108.5684 186.2154,108.5974 C188.5994,108.6674 190.3404,107.4964 191.3864,105.3754 C192.2334,103.6584 192.5564,101.7874 192.7764,99.9054 C192.8294,99.5284 192.8714,99.1494 192.9004,98.7684 C193.0104,97.3484 190.8494,97.3844 190.7054,98.7684" id="Fill-185" fill="#0064C5"></path>
                        <path d="M190.7054,98.7684 C190.6794,99.0184 190.6534,99.2704 190.6254,99.5224 C190.4404,100.9434 190.0474,102.3454 189.4304,103.6374 C189.1194,104.2864 188.8494,104.8654 188.1634,105.1704 C187.3954,105.5124 186.5174,105.7234 185.6864,105.8304 C185.3174,105.8784 184.9854,106.0414 184.7854,106.3134 C184.4994,106.2714 184.2264,106.2084 183.9904,106.1074 C183.2984,105.8114 183.1034,104.8844 182.9164,104.2324 C182.3704,102.3294 182.2414,100.3664 182.4454,98.4014 C182.5904,96.9974 180.3944,97.0074 180.2494,98.4014 C179.9954,100.8584 180.2234,103.5044 181.1294,105.8204 C181.5274,106.8384 182.1334,107.7344 183.1884,108.1424 C184.1054,108.4964 185.2394,108.5684 186.2154,108.5974 C188.5994,108.6674 190.3404,107.4964 191.3864,105.3754 C192.2334,103.6584 192.5564,101.7874 192.7764,99.9054 C192.8294,99.5284 192.8714,99.1494 192.9004,98.7684 C193.0104,97.3484 190.8494,97.3844 190.7054,98.7684 Z" id="Stroke-187" stroke="#FFFFFF" stroke-width="3"></path>
                        <path d="M142.2793,94.6326 C142.1953,93.2286 139.9993,93.2186 140.0843,94.6326 C140.1823,96.2756 140.0543,97.9016 139.6443,99.4976 C139.2703,100.9566 138.7163,102.6986 137.7243,103.8656 C136.7243,105.0426 135.7103,102.5476 135.4203,101.8196 C134.8103,100.2826 134.5103,98.6376 134.2083,97.0186 C133.9503,95.6316 131.8333,96.2196 132.0913,97.6026 C132.4853,99.7106 132.9123,101.8336 133.9033,103.7566 C134.7373,105.3756 136.4263,107.1746 138.4013,106.1156 C140.0663,105.2236 140.9023,102.8106 141.4543,101.1326 C142.1403,99.0476 142.4103,96.8216 142.2793,94.6326" id="Fill-189" fill="#0064C5"></path>
                        <path d="M189.9351,96.6728 C189.7871,98.1398 189.3771,99.6018 188.7291,100.9268 C188.0921,102.2278 187.2061,103.7398 186.0111,104.6058 C185.3481,105.0858 185.1311,104.6458 184.8121,104.0378 C184.4131,103.2768 184.0701,102.4828 183.7721,101.6768 C183.1761,100.0608 182.7621,98.3888 182.5091,96.6848 C182.4211,96.0938 181.6811,95.7808 181.1591,95.9188 C180.5281,96.0848 180.3051,96.6848 180.3921,97.2688 C180.7151,99.4508 181.3191,101.5618 182.1891,103.5888 C182.9431,105.3458 184.0821,107.7748 186.4411,106.8558 C188.2031,106.1688 189.5341,104.0908 190.3901,102.4928 C191.3631,100.6768 191.9241,98.7178 192.1301,96.6728 C192.2731,95.2688 190.0761,95.2778 189.9351,96.6728" id="Fill-191" fill="#0064C5"></path>
                        <path d="M302.1364,285.6701 C304.8324,284.4041 317.4664,281.6651 316.8114,279.0571 C315.9444,275.6131 302.2934,281.4691 300.4604,282.4671 C301.4554,281.2071 315.3394,275.3321 313.6704,272.6141 C311.6154,269.2691 298.8684,278.1461 297.1564,279.0901 C299.3264,277.8461 304.4444,273.4291 303.4244,270.7971 C303.0304,269.7801 299.7264,264.9481 297.1034,266.3881 C295.5484,267.4811 300.7854,270.3401 297.7394,273.4781 C296.4354,274.8231 294.7214,276.5131 292.2494,275.6631 C285.5714,271.7481 300.2434,269.3661 296.2914,265.8471 C293.7764,263.6071 283.2434,269.4741 285.7334,276.3501 C287.4254,281.0211 283.1304,281.4011 279.2524,283.6541 C280.3484,285.2061 281.4934,286.7231 282.6274,288.2391 C284.6914,290.9971 286.6574,293.8101 288.6414,296.6261 C289.8534,298.3461 291.1994,299.9671 292.5534,301.5761 C294.4044,299.2411 296.1954,296.7191 298.0554,293.7901 C299.7914,291.0661 300.5894,289.6881 303.5214,289.7671 C306.1854,289.8391 314.4284,290.8061 314.4284,287.3411 C314.4284,284.8831 304.8004,285.6191 302.1364,285.6701" id="Fill-193" fill="#FFFFFF"></path>
                        <path d="M302.1364,285.6701 C304.8324,284.4041 317.4664,281.6651 316.8114,279.0571 C315.9444,275.6131 302.2934,281.4691 300.4604,282.4671 C301.4554,281.2071 315.3394,275.3321 313.6704,272.6141 C311.6154,269.2691 298.8684,278.1461 297.1564,279.0901 C299.3264,277.8461 304.4444,273.4291 303.4244,270.7971 C303.0304,269.7801 299.7264,264.9481 297.1034,266.3881 C295.5484,267.4811 300.7854,270.3401 297.7394,273.4781 C296.4354,274.8231 294.7214,276.5131 292.2494,275.6631 C285.5714,271.7481 300.2434,269.3661 296.2914,265.8471 C293.7764,263.6071 283.2434,269.4741 285.7334,276.3501 C287.4254,281.0211 283.1304,281.4011 279.2524,283.6541 C280.3484,285.2061 281.4934,286.7231 282.6274,288.2391 C284.6914,290.9971 286.6574,293.8101 288.6414,296.6261 C289.8534,298.3461 291.1994,299.9671 292.5534,301.5761 C294.4044,299.2411 296.1954,296.7191 298.0554,293.7901 C299.7914,291.0661 300.5894,289.6881 303.5214,289.7671 C306.1854,289.8391 314.4284,290.8061 314.4284,287.3411 C314.4284,284.8831 304.8004,285.6191 302.1364,285.6701 Z" id="Stroke-195" stroke="#0064C5" stroke-width="3"></path>
                        <path d="M236.663,195.1974 C236.663,195.1974 245.546,254.2104 245.765,255.6134 C247.334,265.6504 248.588,287.9184 254.861,291.3684 C261.376,294.9514 280.893,282.5864 280.893,282.5864 L287.793,304.5414 C287.793,304.5414 264.749,323.8574 247.02,318.3414 C229.291,312.8254 219.42,269.7274 219.42,269.7274 L205.933,217.6634 L236.663,195.1974 Z" id="Fill-197" fill="#FFFFFF"></path>
                        <path d="M236.663,195.1974 C236.663,195.1974 245.546,254.2104 245.765,255.6134 C247.334,265.6504 248.588,287.9184 254.861,291.3684 C261.376,294.9514 280.893,282.5864 280.893,282.5864 L287.793,304.5414 C287.793,304.5414 264.749,323.8574 247.02,318.3414 C229.291,312.8254 219.42,269.7274 219.42,269.7274 L205.933,217.6634 L236.663,195.1974 Z" id="Stroke-199" stroke="#0064C5" stroke-width="3"></path>
                        <polygon id="Fill-201" fill="#FFFFFF" points="273.4451 281.9475 288.6841 307.2485 296.4341 301.1705 279.9551 280.1865"></polygon>
                        <polygon id="Stroke-203" stroke="#0064C5" stroke-width="3" points="273.4451 281.9475 288.6841 307.2485 296.4341 301.1705 279.9551 280.1865"></polygon>
                        <path d="M15.1992,285.6701 C12.5032,284.4041 -0.1308,281.6651 0.5242,279.0571 C1.3912,275.6131 15.0422,281.4691 16.8752,282.4671 C15.8802,281.2071 1.9962,275.3321 3.6652,272.6141 C5.7202,269.2691 18.4672,278.1461 20.1792,279.0901 C18.0092,277.8461 12.8912,273.4291 13.9112,270.7971 C14.3052,269.7801 17.6082,264.9481 20.2322,266.3881 C21.7872,267.4811 16.5502,270.3401 19.5962,273.4781 C20.9002,274.8231 22.6142,276.5131 25.0862,275.6631 C31.7642,271.7481 17.0922,269.3661 21.0442,265.8471 C23.5592,263.6071 34.0922,269.4741 31.6022,276.3501 C29.9102,281.0211 34.2052,281.4011 38.0832,283.6541 C36.9872,285.2061 35.8412,286.7231 34.7082,288.2391 C32.6442,290.9971 30.6782,293.8101 28.6942,296.6261 C27.4822,298.3461 26.1362,299.9671 24.7822,301.5761 C22.9312,299.2411 21.1402,296.7191 19.2802,293.7901 C17.5442,291.0661 16.7452,289.6881 13.8142,289.7671 C11.1492,289.8391 2.9072,290.8061 2.9072,287.3411 C2.9072,284.8831 12.5352,285.6191 15.1992,285.6701" id="Fill-205" fill="#FFFFFF"></path>
                        <path d="M15.1992,285.6701 C12.5032,284.4041 -0.1308,281.6651 0.5242,279.0571 C1.3912,275.6131 15.0422,281.4691 16.8752,282.4671 C15.8802,281.2071 1.9962,275.3321 3.6652,272.6141 C5.7202,269.2691 18.4672,278.1461 20.1792,279.0901 C18.0092,277.8461 12.8912,273.4291 13.9112,270.7971 C14.3052,269.7801 17.6082,264.9481 20.2322,266.3881 C21.7872,267.4811 16.5502,270.3401 19.5962,273.4781 C20.9002,274.8231 22.6142,276.5131 25.0862,275.6631 C31.7642,271.7481 17.0922,269.3661 21.0442,265.8471 C23.5592,263.6071 34.0922,269.4741 31.6022,276.3501 C29.9102,281.0211 34.2052,281.4011 38.0832,283.6541 C36.9872,285.2061 35.8412,286.7231 34.7082,288.2391 C32.6442,290.9971 30.6782,293.8101 28.6942,296.6261 C27.4822,298.3461 26.1362,299.9671 24.7822,301.5761 C22.9312,299.2411 21.1402,296.7191 19.2802,293.7901 C17.5442,291.0661 16.7452,289.6881 13.8142,289.7671 C11.1492,289.8391 2.9072,290.8061 2.9072,287.3411 C2.9072,284.8831 12.5352,285.6191 15.1992,285.6701 Z" id="Stroke-207" stroke="#0064C5" stroke-width="3"></path>
                        <path d="M80.6726,195.1974 C80.6726,195.1974 71.7896,254.2104 71.5706,255.6134 C70.0016,265.6504 68.7476,287.9184 62.4746,291.3684 C55.9596,294.9514 36.4426,282.5864 36.4426,282.5864 L29.5426,304.5414 C29.5426,304.5414 52.5866,323.8574 70.3156,318.3414 C88.0446,312.8254 97.9156,269.7274 97.9156,269.7274 L113.1456,210.8384 L80.6726,195.1974 Z" id="Fill-209" fill="#FFFFFF"></path>
                        <path d="M80.6726,195.1974 C80.6726,195.1974 71.7896,254.2104 71.5706,255.6134 C70.0016,265.6504 68.7476,287.9184 62.4746,291.3684 C55.9596,294.9514 36.4426,282.5864 36.4426,282.5864 L29.5426,304.5414 C29.5426,304.5414 52.5866,323.8574 70.3156,318.3414 C88.0446,312.8254 97.9156,269.7274 97.9156,269.7274 L113.1456,210.8384 L80.6726,195.1974 Z" id="Stroke-211" stroke="#0064C5" stroke-width="3"></path>
                        <polygon id="Fill-213" fill="#FFFFFF" points="43.8905 281.9475 28.6515 307.2485 20.9015 301.1705 37.3805 280.1865"></polygon>
                        <polygon id="Stroke-215" stroke="#0064C5" stroke-width="3" points="43.8905 281.9475 28.6515 307.2485 20.9015 301.1705 37.3805 280.1865"></polygon>
                        <path d="M143.0988,124.9213 C149.8688,130.9973 159.2528,136.0743 168.6488,134.7203 C176.0408,133.6563 182.1798,127.6643 181.7128,119.9523 C181.6168,118.3533 179.1158,118.3423 179.2128,119.9523 C179.7338,128.5613 171.3898,133.0553 163.7178,132.3373 C156.6398,131.6753 150.0568,127.8113 144.8668,123.1533 C143.6718,122.0813 141.8988,123.8443 143.0988,124.9213" id="Fill-217" fill="#0064C5"></path>
                        <path d="M164.902,98.6177 C164.715,101.8517 164.65,105.0847 164.788,108.3227 C164.852,109.8307 166.632,120.5827 163.036,119.9957 C161.462,119.7387 160.785,122.1467 162.371,122.4057 C165.479,122.9137 167.617,121.0237 167.962,117.8497 C168.293,114.7967 167.421,111.3987 167.288,108.3227 C167.147,105.0847 167.215,101.8527 167.402,98.6177 C167.495,97.0107 164.995,97.0157 164.902,98.6177" id="Fill-219" fill="#0064C5"></path>
                    </g>
                </g>
            </g>
        </g>
    </g>
</svg>