<?xml version="1.0" encoding="UTF-8"?>
<svg width="203px" height="151px" version="1.1" viewBox="0 0 203 151" xmlns="http://www.w3.org/2000/svg" xmlns:xlink="http://www.w3.org/1999/xlink">
    <title>men</title>
    <desc>Created with Sketch.</desc>
    <defs>
        <polygon id="t" points="0 47.942 40.711 47.942 40.711 -2.09e-4 0 -2.09e-4"/>
        <polygon id="k" points="43.726 48.065 43.726 0.037209 1.3235e-4 0.037209 1.3235e-4 48.065"/>
        <polygon id="j" points="0 48.554 43.726 48.554 43.726 0.52233 0 0.52233"/>
        <polygon id="i" points="2.8436e-20 0.23611 2.8436e-20 33.962 43.739 33.962 43.739 0.23611 0 0.23611"/>
        <polygon id="h" points="0 48.044 43.739 48.044 43.739 -2.09e-4 0 -2.09e-4"/>
        <polygon id="s" points="0.28411 0.041277 19.903 0.041277 19.903 9.7668 0.28411 9.7668"/>
        <polygon id="r" points="0 48.551 43.742 48.551 43.742 0.52265 0 0.52265"/>
        <polygon id="q" points="19.552 0.028737 0.074857 0.028737 0.074857 10.546 19.552 10.546"/>
        <polygon id="p" points="0 48.563 43.748 48.563 43.748 0.5226 0 0.5226"/>
        <polygon id="o" points="0.22575 0.511 16.802 0.511 16.802 8.7688 0.22575 8.7688"/>
        <polygon id="n" points="0 48.603 42.209 48.603 42.209 0.52239 0 0.52239"/>
        <polygon id="m" points="1.0827e-4 48.069 42.22 48.069 42.22 0.037313 1.0827e-4 0.037313"/>
        <polygon id="l" points="0 48.554 42.22 48.554 42.22 0.52228 0 0.52228"/>
    </defs>
    <g transform="translate(-232 -2713)" fill="none" fill-rule="evenodd">
        <g transform="translate(-264 2290)">
            <g transform="translate(496 423)">
                <g transform="translate(130.09 53.817)" fill="#fff">
                    <path d="m24.118 25.2c-2.5152 1.3005-5.0079 1.2895-7.5257 0.0073149v2.2864c0.87704 0.22206 1.7625 0.41434 2.6269 0.67558 0.76059 0.2299 1.486 0.23982 2.2498 0.0057474 0.87547-0.26856 1.7745-0.46031 2.649-0.68185v-2.2932zm4.7215 5.3838c-0.83665-0.66983-1.5752-1.2498-2.2996-1.846-0.22818-0.1881-0.43695-0.22676-0.72965-0.15152-1.7001 0.43733-3.4054 0.85584-5.1128 1.2634-0.21664 0.051727-0.4679 0.048592-0.68506-0.0031349-1.3727-0.32603-2.7617-0.60609-4.102-1.0356-1.0003-0.32029-1.785-0.2508-2.5226 0.54078-0.41702 0.44725-0.95258 0.78478-1.5123 1.2341 1.8359 1.0173 3.5816 1.9844 5.3357 2.9563 0.83718-0.83599 1.634-1.6344 2.4339-2.4301 0.55182-0.54809 0.91796-0.52615 1.4698 0.030827 0.79207 0.79993 1.6035 1.5805 2.4197 2.3826 1.742-0.96609 3.4783-1.929 5.3048-2.9416zm-16.041-18.751c0 0.95825 0.023605 1.94-0.010491 2.9197-0.015212 0.44673 0.09232 0.79262 0.45216 1.0528 0.26909 0.19437 0.3205 0.45352 0.32207 0.77381 0.0089173 1.6364 0.38187 3.194 1.1697 4.6319 1.2059 2.1997 3.0193 3.4761 5.6001 3.4829 2.5991 0.0067924 4.4309-1.2629 5.6462-3.4834 0.77948-1.4243 1.1556-2.9657 1.1697-4.5849 0.0036718-0.37567 0.095468-0.65102 0.3824-0.89451 0.15736-0.13376 0.35774-0.33387 0.36299-0.50943 0.032522-1.1359 0.016786-2.2728 0.016786-3.3831-5.0519 2.1083-10.06 2.1051-15.112-0.0057474zm2.2907 15.301c0-1.0481 0.0041964-2.0011-0.0062945-2.9536-0.0015737-0.11077-0.062946-0.24348-0.13953-0.32708-1.7221-1.8731-2.5803-4.1136-2.8189-6.6095-0.036718-0.3856-0.1453-0.69387-0.45636-0.92063-0.29532-0.21579-0.35827-0.50159-0.35512-0.85584 0.015212-1.9076 0.0073437-3.8152 0.0073437-5.7584h1.4462c0.18412 0.64005 0.73542 0.93735 1.3108 1.1986 1.1713 0.5319 2.4239 0.75866 3.6897 0.88876 2.4192 0.24871 4.8332 0.209 7.211-0.35268 0.65149-0.15361 1.2867-0.40075 1.9031-0.66461 0.49203-0.21004 0.93212-0.52354 1.0559-1.0883h1.4336c0.0078682 0.16511 0.022031 0.31611 0.022556 0.46658 0.0015736 1.7843-0.0062946 3.5681 0.0078682 5.3524 0.0026227 0.32133-0.05193 0.58206-0.3226 0.77381-0.36246 0.25654-0.46265 0.62072-0.50409 1.0476-0.24234 2.4651-1.1089 4.669-2.8032 6.5186-0.076584 0.084121-0.1411 0.21579-0.14268 0.32603-0.011016 0.9525-0.0062946 1.9055-0.0062946 2.8397 0.056127 0.032917 0.087075 0.065311 0.10386 0.059042 0.65883-0.24662 1.1456 0.01254 1.6497 0.44464 1.0113 0.86734 2.0867 1.66 3.1074 2.5168 0.20195 0.16981 0.26909 0.49323 0.41806 0.7341 0.088649 0.14264 0.18989 0.32342 0.32942 0.3809 0.89645 0.36992 1.8039 0.71425 2.7103 1.0591 1.4698 0.55854 2.907 1.1767 4.167 2.1422 1.6025 1.2279 2.522 2.8486 2.5682 4.8524 0.066093 2.893 0.016786 5.7882 0.016786 8.7193h-1.4661v-0.52824c0-2.5513-0.014687-5.1021 0.0036718-7.6529 0.014163-2.0424-0.83193-3.6318-2.5902-4.635-1.1766-0.67088-2.4617-1.1552-3.708-1.7018-1.0024-0.43994-2.0269-0.83076-3.0245-1.2806-0.31735-0.14264-0.54815-0.16354-0.86288 0.01463-1.6775 0.95093-3.3702 1.8747-5.0587 2.8068-0.65201 0.36-0.82354 0.33753-1.3544-0.19593-0.73909-0.74246-1.4735-1.4901-2.2377-2.2645-0.15946 0.14264-0.27696 0.23878-0.38397 0.34537-0.66827 0.662-1.3324 1.3287-2.0022 1.9896-0.44744 0.44203-0.65621 0.47338-1.2065 0.16981-1.7163-0.94623-3.4337-1.8899-5.1411-2.8528-0.29165-0.16458-0.51406-0.16093-0.82197-0.029782-1.4262 0.60504-2.8871 1.1307-4.2966 1.7707-1.0643 0.4833-2.1312 1.0079-3.087 1.672-1.3465 0.93578-1.955 2.3329-1.9634 3.9657-0.013114 2.5043-0.0047209 5.0081-0.0052455 7.5119v0.906h-1.4797v-0.52406c0-2.5038 0.020457-5.0081-0.00577-7.5113-0.027801-2.6375 1.0779-4.6345 3.3015-6.0421 1.4965-0.94728 3.1457-1.545 4.8064-2.1218 0.38397-0.13324 0.75745-0.29573 1.1304-0.45666 0.32784-0.14055 0.66041-0.25863 0.61372-0.74769-0.014163-0.14839 0.18726-0.35425 0.33781-0.47599 1.1813-0.95825 2.383-1.8919 3.5591-2.8565 0.42016-0.34484 0.8398-0.24871 1.3397-0.064789z"/>
                    <path d="m9.2899 5.0926c0.0015736 0.036052 0.0031473 0.072104 0.0052455 0.10763 0.14425 0.051727 0.28745 0.10554 0.43275 0.15413 3.3293 1.1056 6.6607 2.2044 9.9853 3.3241 0.4401 0.14787 0.82931 0.1557 1.272 0.0067924 3.2506-1.0941 6.5081-2.1662 9.7634-3.2473 0.22818-0.075761 0.45268-0.16197 0.77895-0.27953-0.22923-0.095093-0.34987-0.15413-0.47629-0.19646-3.3734-1.1207-6.7441-2.2498-10.126-3.345-0.34358-0.11129-0.78525-0.11652-1.1273-0.0062699-2.9647 0.95825-5.9174 1.9536-8.8733 2.938-0.54501 0.1813-1.09 0.36261-1.635 0.54391zm25.382 8.2898h-1.4677v-7.202c-0.21979 0.066879-0.3782 0.11181-0.53451 0.16354-3.9257 1.3005-7.853 2.5973-11.775 3.9103-0.3803 0.12749-0.71129 0.12435-1.089-0.0015675-4.2798-1.4311-8.5638-2.8491-12.847-4.2688-0.438-0.14473-0.91953-0.26438-0.91061-0.85009 0.0089173-0.55541 0.47104-0.67349 0.8954-0.81404 4.1649-1.3789 8.333-2.7488 12.489-4.1528 0.64152-0.21683 1.1933-0.22728 1.8464-0.0047024 4.1528 1.4139 8.3225 2.7786 12.486 4.1606 0.8356 0.27692 0.90642 0.37463 0.90642 1.2336v7.2757 0.55018z"/>
                    <mask id="b" fill="white">
                        <use xlink:href="#t"/>
                    </mask>
                    <polygon points="19.656 47.937 21.057 47.937 21.057 37.495 19.656 37.495" mask="url(#b)"/>
                    <polygon points="7.5713 47.936 9.0044 47.936 9.0044 42.003 7.5713 42.003" mask="url(#b)"/>
                    <polygon points="31.713 47.942 33.136 47.942 33.136 42.01 31.713 42.01" mask="url(#b)"/>
                    <polygon points="33.222 16.378 34.644 16.378 34.644 14.951 33.222 14.951" mask="url(#b)"/>
                    <polygon points="19.635 35.911 21.067 35.911 21.067 34.495 19.635 34.495" mask="url(#b)"/>
                </g>
                <g transform="translate(62.421 53.817)" fill="#fff">
                    <g transform="translate(0 .48503)">
                        <path d="m24.144 23.068c-2.5498 1.3-5.033 1.302-7.5446 0.013062v1.6317c0.23814 0.18548 0.50619 0.31611 0.66198 0.52876 0.90852 1.2362 1.7903 2.4923 2.6815 3.7416 0.12432 0.17347 0.25021 0.34589 0.40652 0.56168 0.14005-0.18235 0.24601-0.31245 0.34358-0.44882 0.89488-1.2467 1.7877-2.4949 2.6836-3.741 0.090747-0.12644 0.18044-0.31663 0.30266-0.34641 0.56546-0.13898 0.46318-0.56586 0.46475-0.95616 0.0010491-0.29625 0-0.59251 0-0.98437m-12.256 4.2515c0.016261 0.024557 0.036194 0.068446 0.068191 0.10032 2.0861 2.0806 4.1696 4.1632 6.2673 6.2323 0.12274 0.12122 0.35669 0.18026 0.54028 0.18339 1.0202 0.018287 2.0415-0.0026124 3.0618 0.017242 0.33833 0.0067924 0.58225-0.085166 0.82511-0.32969 1.9665-1.9782 3.9472-3.9422 5.9227-5.912 0.097566-0.097183 0.18569-0.20325 0.32522-0.35686-0.93789-0.38194-1.6906-1.0972-2.7754-0.95825-0.38607 0.049114-0.78472 0.024557-1.176 0.001045-0.31473-0.018287-0.51353 0.085689-0.6987 0.34955-1.036 1.4719-2.0914 2.9307-3.1426 4.3921-0.50986 0.70798-0.99769 0.70118-1.5102-0.013062-1.0491-1.463-2.0945-2.928-3.1515-4.3853-0.10071-0.13846-0.2649-0.31193-0.41072-0.3229-1.4719-0.10868-2.9202-0.076284-4.1455 1.0021m16.744-17.697c0-1.4677 0.10963-2.8188-0.02885-4.1444-0.15946-1.5236-1.3659-2.4494-2.9013-2.4646-0.59694-0.0057474-1.1986-0.051204-1.7892 0.0078374-1.9849 0.1975-3.8245-0.15884-5.5088-1.2608-0.1495-0.097706-0.45321-0.075761-0.63313 0.0057474-0.74276 0.33439-1.4745 0.69648-2.1916 1.0821-0.4658 0.2508-0.84085 0.1813-1.1718-0.20273-0.20457-0.23617-0.39236-0.48644-0.6326-0.78687-0.57228 0.94884-1.0675 1.7446-1.5317 2.5576-0.11645 0.20482-0.18464 0.46502-0.18779 0.70118-0.017835 1.3292-0.0099664 2.659-0.0073437 3.9887 5.245e-4 0.14212 0.024654 0.28424 0.046685 0.52563 0.57281-0.37881 1.0355-0.72888 1.5401-1.0021 0.3142-0.16981 0.6903-0.30566 1.0423-0.31402 1.4121-0.035007 2.8263-0.0026124 4.2394-0.026647 0.21926-0.0036574 0.48258-0.11913 0.64572-0.26908 0.58802-0.54026 1.1451-1.115 1.7074-1.6824 0.2885-0.29103 0.62369-0.38403 0.98353-0.1928 1.9209 1.0204 3.8355 2.0529 5.7506 3.0843 0.18726 0.10084 0.36089 0.22519 0.62841 0.39344m-11.478 0.15257c-0.7543 0-1.5086-0.0026125-2.2629 0.00209-0.13848 0.001045-0.30057-0.0088824-0.41125 0.055907-0.96045 0.56116-2.0531 1.0413-1.6843 2.4991 0.037243 0.14734 0.018884 0.31349 0.0020982 0.46815-0.033046 0.30357 0.050357 0.54809 0.29899 0.73828 0.36666 0.2811 0.45845 0.65938 0.47262 1.114 0.058749 1.8831 0.55445 3.6454 1.6387 5.2061 2.5572 3.681 7.7869 3.6621 10.321-0.033962 1.0842-1.5821 1.5542-3.3607 1.6382-5.2589 0.01154-0.26543 0.056651-0.63012 0.23028-0.76858 0.50252-0.39918 0.56284-0.89137 0.52297-1.4578-0.02308-0.32708-0.022031-0.65834 5.245e-4 -0.98542 0.020982-0.29625-0.081305-0.47233-0.33099-0.65259-1.6518-1.1923-3.5218-1.9813-5.3278-2.8868-0.11488-0.057474-0.36509 0.0015675-0.4679 0.096661-0.52927 0.48957-1.0098 1.033-1.5521 1.5063-0.21506 0.18705-0.54186 0.3229-0.82616 0.34066-0.75168 0.046502-1.5076 0.015675-2.2619 0.01672m-7.2781 17.74c-0.11435-0.77381-0.040915-0.90757 0.66985-1.2623 0.30896-0.15414 0.61582-0.31193 0.92635-0.46136 1.1225-0.53921 2.1769-1.3229 3.6157-0.86002 0-1.0732 0.0031473-2.0205-0.0062946-2.9672-5.245e-4 -0.079419-0.072912-0.16981-0.13324-0.23512-1.7515-1.8961-2.5829-4.1752-2.8567-6.6994-0.02885-0.2649-0.17992-0.55959-0.36456-0.75552-0.29217-0.30879-0.4338-0.62699-0.41229-1.0492 0.024129-0.46815-0.012065-0.93944 0.012065-1.4081 0.030948-0.59303 5.245e-4 -1.1322-0.54133-1.5424-0.14845-0.11286-0.20615-0.41852-0.20825-0.63692-0.01731-1.6589-0.016786-3.3178-0.0031472-4.9767 0.0015736-0.20691 0.070289-0.43628 0.17572-0.61602 0.68926-1.174 1.3937-2.3397 2.1008-3.5033 0.37295-0.6134 0.87967-0.66409 1.3885-0.16458 0.33256 0.32656 0.641 0.83285 1.0271 0.90496 0.36036 0.067924 0.81095-0.3276 1.219-0.52458 0.38135-0.18444 0.76689-0.36156 1.1356-0.56847 0.35512-0.20011 0.68401-0.17921 1.0176 0.030304 0.066093 0.041799 0.14215 0.067924 0.20825 0.10972 1.5264 0.97131 3.1677 1.4149 4.9958 1.2284 0.80466-0.082031 1.6413-0.054339 2.4423 0.063744 2.2036 0.32447 3.8523 2.2765 3.8628 4.4819 0.00577 1.127-0.011016 2.254 0.0094418 3.3805 0.0078682 0.42479-0.10334 0.76963-0.43852 1.0319-0.25441 0.19959-0.34358 0.44621-0.33151 0.77381 0.024654 0.67192 0.045636 1.3486-0.0094418 2.0173-0.025703 0.31297-0.17048 0.66304-0.37295 0.90234-0.23447 0.27744-0.37715 0.53712-0.41229 0.90078-0.24287 2.4954-1.0947 4.7385-2.8163 6.6132-0.077109 0.084121-0.14373 0.21474-0.1453 0.32447-0.01154 0.90548-0.0062946 1.811-0.0062946 2.73 0.085501 0.0209 0.1453 0.053817 0.19985 0.046502 1.0942-0.14369 2.0615 0.18705 2.9847 0.74455 0.45426 0.27483 0.95153 0.47965 1.4278 0.71895 0.63942 0.32081 0.72597 0.49375 0.59379 1.2232 0.5833 0.20011 1.176 0.39553 1.7625 0.60609 1.9896 0.71529 3.8953 1.5858 5.4983 3.0028 1.7022 1.5043 2.6028 3.3868 2.6122 5.6591 0.015212 3.6465 0.0047209 7.2935 0.0041963 10.94 0 0.10607-0.0099664 0.21265-0.016786 0.34484h-1.4624v-0.70693c5.246e-4 -3.4432-0.02308-6.8864 0.0099664-10.33 0.022031-2.3429-0.96517-4.123-2.8504-5.4559-1.7137-1.2117-3.6902-1.8366-5.631-2.5602-0.85291-0.31872-1.3701-0.20847-2.0059 0.46711-1.7404 1.8486-3.5842 3.6-5.3745 5.4026-0.31053 0.31245-0.63785 0.453-1.0827 0.44569-1.2878-0.021945-2.5771-0.0209-3.8649-5.225e-4 -0.44219 0.0067924-0.77161-0.12697-1.0842-0.44151-1.9671-1.9802-3.954-3.9412-5.9221-5.9209-0.2308-0.23199-0.42488-0.2926-0.73384-0.17242-1.5894 0.6202-3.2249 1.1411-4.7666 1.8616-0.94891 0.4436-1.8265 1.1061-2.6149 1.8057-1.2579 1.1171-1.816 2.5994-1.8186 4.2766-0.0052455 3.4589-0.0010491 6.9178-0.0010491 10.377v0.95302h-1.4797v-0.57004c0-3.4589 0.02308-6.9178-0.0073437-10.377-0.024129-2.7253 1.0717-4.8686 3.2286-6.5019 1.8008-1.3642 3.867-2.1824 5.993-2.8763 0.22083-0.072104 0.43957-0.151 0.65359-0.22467"/>
                    </g>
                    <polygon points="7.5724 48.535 9.0054 48.535 9.0054 42.619 7.5724 42.619"/>
                    <polygon points="31.713 48.554 33.14 48.554 33.14 42.622 31.713 42.622"/>
                </g>
                <g transform="translate(94.943 102.41)">
                    <g transform="translate(0 .48524)">
                        <mask id="v" fill="white">
                            <use xlink:href="#k"/>
                        </mask>
                        <path d="m18.113 22.769c-0.15999 1.2242 0.3205 2.5006-0.67142 3.484 0.21821 0.16354 0.42226 0.28424 0.58644 0.44516 0.57071 0.55854 1.1739 1.0936 1.6786 1.708 0.60743 0.73985 1.3082 1.0016 2.2734 0.96243 0.77581-0.03135 1.347-0.20325 1.8726-0.78896 0.73856-0.82345 1.5668-1.5664 2.3877-2.3742-0.94996-0.93944-0.45111-2.2347-0.62736-3.4343-2.5058 1.7059-4.9869 1.7065-7.5-0.00209zm3.6944-3.9354c0.17677 0.63639 0.30109 0.73253 0.95992 0.73358 1.1152 0.00209 2.2304-0.0067923 3.3456 0.0062699 0.25598 0.003135 0.41387-0.066356 0.50094-0.31245 0.27067-0.7644 0.59903-1.5121 0.81515-2.2911 0.58067-2.0926 0.49465-4.2442 0.48416-6.3859-0.004721-1.023-0.54186-1.5555-1.5757-1.5628-0.95782-0.0067924-1.9198-0.055384-2.8735 0.012017-1.2007 0.085166-2.2865-0.14943-3.3178-0.77276-0.63628-0.38455-1.3297-0.67558-2.0662-1.0434 0 0.31611-5.245e-4 0.54653 0 0.77642 0.0010491 0.75343-0.19146 0.96347-0.94891 1.0335-0.76322 0.070536-1.3124 0.58467-1.2988 1.348 0.030424 1.7331 0.035145 3.4735 0.20195 5.1962 0.16209 1.6756 0.7008 3.2661 1.6649 4.682 1.2458 1.8292 3.1158 2.6323 5.204 2.2117 0.93684-0.18914 1.7326-0.64266 2.4643-1.4248-0.97671 0-1.8375 0.01045-2.6977-0.00209-1.1981-0.017242-2.2587-1.0518-2.2608-2.2044h1.3984zm21.908 29.231h-1.4693v-0.43994c-5.246e-4 -3.0054-0.037243-6.0107 0.0094418-9.0151 0.037243-2.4217-0.95153-4.286-2.9485-5.5828-1.0045-0.65259-2.1186-1.1458-3.2081-1.6589-1.7279-0.81404-3.4799-1.5769-5.2145-2.3763-0.69765-0.32133-1.3717-0.69282-2.0688-1.0157-0.21821-0.10136-0.47419-0.12801-0.71601-0.17138-1.004-0.1813-1.762 0.17451-2.4009 0.96922-0.48835 0.60714-1.0764 1.1416-1.6644 1.6584-0.22451 0.19698-0.56756 0.34275-0.86498 0.35895-0.86131 0.047024-1.7294 0.050159-2.5907-0.001045-0.31053-0.018287-0.67247-0.17033-0.90065-0.3809-0.81934-0.75291-1.581-1.568-2.3893-2.3329-0.15946-0.151-0.42331-0.2346-0.64991-0.2649-0.95048-0.12801-1.8071 0.12592-2.6448 0.5946-1.0664 0.59616-2.1685 1.1343-3.281 1.6401-1.2537 0.57004-2.5608 1.0262-3.7993 1.626-1.0386 0.50316-2.0751 1.0554-2.9994 1.7389-1.6366 1.2096-2.4386 2.8909-2.4313 4.9438 0.010491 2.9113 0.0031473 5.8226 0.0036718 8.734v0.96609h-1.4797v-0.49532c0-2.9897 0.022031-5.9794-0.0062946-8.9686-0.025703-2.6887 1.0633-4.8048 3.1756-6.4345 1.4446-1.1145 3.0954-1.8256 4.7771-2.4954 1.1042-0.43942 2.1727-0.96922 3.2443-1.486 1.229-0.59198 2.4439-1.2132 3.664-1.8235 0.19618-0.098228 0.38659-0.20743 0.58172-0.30827 0.82406-0.42479 1.3376-1.0236 1.1603-2.021-0.021506-0.12122-0.0099664-0.25027-0.0015737-0.37515 0.097566-1.4807-0.10911-2.8377-0.87075-4.2029-1.0654-1.9092-1.3255-4.0874-1.3864-6.2636-0.023605-0.82867-0.012065-1.6589-0.0052454-2.4881 0.010491-1.3423 0.66985-2.2896 1.8564-2.8612 0.32732-0.15779 0.44272-0.32394 0.41072-0.6667-0.02885-0.31036-0.0089173-0.62542-0.0073437-0.93839 0.0047209-0.81718 0.52245-1.1354 1.2442-0.77276 1.2747 0.64057 2.5477 1.2848 3.8318 1.9076 0.2287 0.11077 0.50409 0.17399 0.75902 0.17712 1.2726 0.017765 2.5451 0.0073149 3.8182 0.0078374 1.7431 0.001045 3.1268 1.3888 3.142 3.1334 0.019933 2.1924 0.038816 4.3853-0.56546 6.5207-0.21979 0.77799-0.49622 1.5393-0.76059 2.3496 1.0334 0 2.063 0.025602 3.0891-0.024557 0.17992-0.0088823 0.46003-0.31872 0.49203-0.52145 0.073437-0.46867 0.023605-0.95668 0.023605-1.4191-0.73856 0.1766-1.4483 0.34641-2.2146 0.52981v-1.5236c1.219-0.082031 2.3033-0.4948 3.0471-1.544 0.55759-0.78687 0.74958-1.6751 0.67981-2.626-0.14163-1.9337-1.4719-3.1653-3.7327-3.4328v-1.4593c0.47839 0.065834 0.94524 0.12958 1.4142 0.19384-0.082879-3.3988-3.0901-6.0468-6.0003-6.1226 0 0.21579 0.011016 0.43158-0.0026227 0.6458-0.035669 0.56429-0.46842 0.87204-1.0113 0.69753-1.1488-0.3694-2.3054-0.72156-3.4332-1.1484-0.81829-0.31036-1.6077-0.30357-2.4402-0.11234-2.809 0.64684-4.8872 2.9881-5.1484 5.8368-0.0052455 0.057997 0.01154 0.11808 0.021506 0.20586 0.47891-0.067401 0.93632-0.13219 1.4283-0.20168v1.4734c-1.1776 0.066879-2.2104 0.45091-2.9569 1.4018-0.59589 0.7597-0.81462 1.6375-0.78735 2.5931 0.056651 1.9943 1.3287 3.2342 3.7474 3.6151v1.3794c-1.7504 0.21161-3.9997-1.3224-4.8201-3.2515-0.92635-2.1788-0.24287-4.7479 2.0032-6.3133-0.05193-0.23408-0.13901-0.4227-0.12799-0.60557 0.20195-3.4756 2.7979-6.6163 6.208-7.4967 0.52874-0.13637 1.0774-0.22258 1.6224-0.26281 0.32994-0.024035 0.68244 0.042844 1.0024 0.14107 1.0575 0.32708 2.105 0.68655 3.1872 1.0439 0.013114-0.14682 0.024129-0.23826 0.029375-0.32969 0.034096-0.63848 0.30476-0.90025 0.95625-0.87256 2.1124 0.089346 3.9378 0.87204 5.46 2.3251 1.5348 1.4651 2.4024 3.2624 2.5808 5.3775 0.016786 0.20011-0.047209 0.40702-0.083928 0.68812 0.28588 0.26856 0.71811 0.61079 1.0732 1.0189 1.7043 1.9562 1.7247 4.622 0.066618 6.6106-0.2009 0.24087-0.32994 0.45196-0.29427 0.80673 0.061897 0.61967 0.025178 1.2503 0.015212 1.8763-0.019933 1.2477-1.0727 2.2859-2.3337 2.2963-1.2086 0.0094048-2.4166 0.0020899-3.6655 0.0020899-0.012065 0.15936-0.030424 0.29364-0.030948 0.42792-0.0026227 1.0173 0.01731 2.0351-0.010491 3.0519-0.012589 0.45561 0.15422 0.78948 0.49412 1.0539 0.23447 0.18183 0.47314 0.3694 0.73699 0.50159 2.2419 1.1239 4.4791 2.2582 6.741 3.3413 1.1147 0.53399 2.3012 0.91854 3.4132 1.4562 1.3371 0.64684 2.5273 1.5163 3.4945 2.6616 1.069 1.2665 1.677 2.7363 1.6995 4.3785 0.046685 3.3638 0.014163 6.7292 0.014163 10.151z" fill="#fff" mask="url(#v)"/>
                    </g>
                    <mask id="a" fill="white">
                        <use xlink:href="#j"/>
                    </mask>
                    <polygon points="25.676 40.286 31.632 40.286 31.632 38.859 25.676 38.859" fill="#fff" mask="url(#a)"/>
                    <polygon points="7.5724 48.549 9.0049 48.549 9.0049 42.616 7.5724 42.616" fill="#fff" mask="url(#a)"/>
                    <polygon points="34.737 48.554 36.148 48.554 36.148 42.627 34.737 42.627" fill="#fff" mask="url(#a)"/>
                    <polygon points="21.165 34.276 22.566 34.276 22.566 32.864 21.165 32.864" fill="#fff" mask="url(#a)"/>
                    <polygon points="21.149 37.264 22.581 37.264 22.581 35.855 21.149 35.855" fill="#fff" mask="url(#a)"/>
                    <polygon points="21.151 40.285 22.583 40.285 22.583 38.86 21.151 38.86" fill="#fff" mask="url(#a)"/>
                    <polygon points="21.148 43.287 22.579 43.287 22.579 41.868 21.148 41.868" fill="#fff" mask="url(#a)"/>
                    <polygon points="21.153 46.293 22.579 46.293 22.579 44.867 21.153 44.867" fill="#fff" mask="url(#a)"/>
                </g>
                <g transform="translate(31.997 102.93)">
                    <g transform="translate(0 14.082)">
                        <mask id="u" fill="white">
                            <use xlink:href="#i"/>
                        </mask>
                        <path d="m25.658 11.197c-1.24 0.67767-2.4711 0.99587-3.7778 0.99848-1.3198 0.0026125-2.5614-0.32812-3.7914-0.99273 0 0.69282-0.020457 1.2979 0.011016 1.9003 0.011016 0.21161 0.10019 0.4577 0.23605 0.61915 1.058 1.2571 2.1365 2.497 3.206 3.7447 0.09914 0.11599 0.17677 0.25027 0.24182 0.34328 0.13166-0.061654 0.16786-0.067401 0.18569-0.088301 1.1881-1.3726 2.3757-2.7457 3.558-4.1235 0.066093-0.076806 0.12327-0.19123 0.12484-0.28894 0.011016-0.66983 0.0057701-1.3391 0.0057701-2.1124zm5.2518 22.765h-1.4787v-0.53399c0-5.3838-0.0036718-10.768 0.0089173-16.152 5.246e-4 -0.37672-0.11488-0.57056-0.45321-0.74925-0.89855-0.4739-1.7677-1.0021-2.7082-1.5429-0.24444 0.28267-0.54973 0.63221-0.85239 0.98385-0.95153 1.1045-1.9004 2.2117-2.8535 3.3147-0.49517 0.57317-0.90694 0.57474-1.3974 0.0057474-1.2484-1.4473-2.4937-2.8977-3.7012-4.3011-1.0187 0.5784-2.0143 1.1281-2.9868 1.7153-0.1196 0.072104-0.16366 0.3438-0.16418 0.52301-0.0094419 3.2713-0.0073437 6.5421-0.0068191 9.8134 0 2.1281 5.245e-4 4.2567 0.0010491 6.3854v0.53346h-1.4761v-16.526c-1.0019 0.3532-1.9471 0.67297-2.8771 1.033-0.10334 0.039709-0.16576 0.30618-0.16628 0.46763-0.0089173 3.1929-0.0062946 6.3859-0.00577 9.5783v5.4365h-1.4577v-14.823c-0.10911 0.0062699-0.16995-0.0041799-0.21926 0.01463-1.5437 0.59355-3.0277 1.301-4.3275 2.3392-1.1467 0.9154-2.0095 2.0215-2.2398 3.5185-0.037767 0.24609-0.049307 0.49793-0.049832 0.74716-0.0041964 2.4103-0.0031473 4.8205-0.0031473 7.2308v0.97392h-1.4797v-0.48017c0-2.4103 0.044587-4.8216-0.012589-7.2302-0.056127-2.3977 0.91953-4.2609 2.7355-5.7511 1.6088-1.3198 3.4657-2.1892 5.3924-2.9249 2.1522-0.82136 4.3176-1.6082 6.4624-2.4473 0.56389-0.22049 1.0785-0.56952 1.6056-0.87674 0.30843-0.17921 0.42646-0.45509 0.41859-0.8271-0.022556-1.0168-0.0020982-2.0341-0.014163-3.0513-0.0015736-0.15884-0.036194-0.36-0.13586-0.46867-1.7824-1.9395-2.6196-4.2646-2.8672-6.841-0.01731-0.18235-0.11173-0.40441-0.24654-0.51883-0.42331-0.36052-0.57333-0.79366-0.52245-1.3329 0.029375-0.30775 0.0052455-0.6202 0.0052455-0.96138h1.4535c0.0089173 0.10868 0.035669 0.21527 0.023605 0.31715-0.064519 0.54339 0.065044 0.98176 0.50094 1.371 0.18307 0.16302 0.2371 0.53137 0.25073 0.81091 0.10334 2.1156 0.66513 4.0692 2.0164 5.7422 2.4407 3.0226 7.1412 3.0231 9.5851 0 1.3297-1.6453 1.9125-3.5686 1.9949-5.6502 0.018884-0.47181 0.13324-0.83233 0.47419-1.1672 0.16418-0.16093 0.23552-0.4436 0.2864-0.68446 0.046685-0.22363 0.0099664-0.46502 0.0099664-0.73358h1.4777c-0.065568 0.82919 0.28535 1.7409-0.61267 2.3888-0.10911 0.078374-0.14163 0.302-0.15684 0.46345-0.22083 2.3084-0.90642 4.4511-2.4192 6.2443-0.45426 0.53869-0.62946 1.0533-0.59117 1.7242 0.041964 0.74873 0.043537 1.5037-5.246e-4 2.2525-0.029899 0.49689 0.16628 0.82345 0.57176 1.0309 0.84977 0.43524 1.6901 0.90234 2.5761 1.2508 2.2891 0.90078 4.6165 1.7049 6.8978 2.6229 1.6376 0.65886 3.1457 1.5643 4.4282 2.8006 1.4257 1.3747 2.1601 3.0299 2.1365 5.0285-0.028326 2.4573-0.0068192 4.9146-0.0068192 7.3718v0.53555h-1.4556c-0.0078682-0.16197-0.021506-0.31349-0.021506-0.46554-0.0015736-2.4416-0.043013-4.8837 0.012589-7.3243 0.041439-1.8324-0.65936-3.2786-2.0179-4.449-1.3958-1.2028-3.0377-1.9661-4.8017-2.6558v14.894h-1.4913v-0.50995c0-4.7892-0.0073437-9.5783 0.012589-14.367 0.0015737-0.46031-0.14425-0.64789-0.57176-0.77747-0.81934-0.24818-1.6188-0.56168-2.4879-0.86995v16.531z" fill="#fff" mask="url(#u)"/>
                    </g>
                    <path d="m12.079 9.7729c0.13848-4.8681 3.4945-8.7684 8.2936-9.6379 3.7259-0.67558 7.7707 1.2331 9.8641 4.6544 0.93632 1.5299 1.3995 3.1956 1.432 4.9835l0.017835-0.014107h-1.5091c0-0.20743 0.0078682-0.3323-0.0010491-0.45613-0.22556-3.032-1.6198-5.3388-4.2987-6.8384-0.62474-0.34955-1.2962-0.13219-1.5857 0.52876-0.11435 0.26229-0.15999 0.57265-0.16261 0.86211-0.014687 1.7995-0.0078682 3.5989-0.0078682 5.3984-5.245e-4 0.15152 0 0.30357 0 0.47076h-1.4803v-0.48487c5.246e-4 -1.58 0.033571-3.1616-0.0099664-4.7411-0.028326-1.0257 0.14478-1.9557 0.83141-2.7514 0.012589-0.014107-0.0078682-0.055907-0.018359-0.11808-1.0554-0.19489-2.1134-0.20847-3.1971 0.019855 0.79417 1.3595 0.85501 1.5058 0.85606 2.1861 0.0026227 1.8151 0.0010491 3.6303 0.0010491 5.4454v0.43471h-1.4493c-0.013638-0.068446-0.024654-0.098751-0.025178-0.12906-0.0020982-1.0016-0.0041964-2.0032-0.0052455-3.0043-5.245e-4 -0.95459 0.012065-1.9092-0.0026227-2.8638-0.017835-1.2002-0.93474-1.7305-1.9602-1.1422-1.517 0.87047-2.6348 2.1004-3.3603 3.6898-0.49989 1.0957-0.71811 2.2514-0.75902 3.4934h-1.4818l0.018359 0.014107z" fill="#fff"/>
                    <path d="m31.669 9.7728h1.4887c-0.0062945 0.67401-0.27381 1.22-0.74171 1.5842-0.67247 0.52406-1.3869 1.0262-2.1533 1.3919-1.5826 0.755-3.2984 1.0857-5.0294 1.301-2.9333 0.36418-5.8561 0.27274-8.7484-0.35216-1.7384-0.37567-3.4332-0.88458-4.8458-2.0388-0.5749-0.46972-0.99035-1.0387-1.0533-1.8862h1.4934l-0.018359-0.014107c0.013114 0.58989 0.39446 0.96818 0.84767 1.2106 0.69922 0.3741 1.422 0.74978 2.1811 0.95825 4.0652 1.1155 8.1746 1.1134 12.295 0.3323 1.2044-0.22885 2.3778-0.57526 3.4169-1.2555 0.45006-0.29521 0.86393-0.63744 0.88491-1.2456l-0.017835 0.014107z" fill="#fff"/>
                    <mask id="g" fill="white">
                        <use xlink:href="#h"/>
                    </mask>
                    <polygon points="15.879 37.526 27.868 37.526 27.868 36.099 15.879 36.099" fill="#fff" mask="url(#g)"/>
                    <polygon points="15.878 42.034 27.868 42.034 27.868 40.607 15.878 40.607" fill="#fff" mask="url(#g)"/>
                    <polygon points="15.878 46.542 27.869 46.542 27.869 45.115 15.878 45.115" fill="#fff" mask="url(#g)"/>
                </g>
                <g transform="translate(93.894)">
                    <g transform="translate(0 9.3637)" fill="#fff">
                        <path d="m25.653 2.404c-0.9531-0.0026125-1.5285 0.56377-1.5317 1.5063-0.0026227 0.94937 0.56179 1.5194 1.5133 1.5272 0.94576 0.0078374 1.5343-0.57108 1.5327-1.5074-0.0015736-0.95302-0.56756-1.5236-1.5144-1.5262m-7.5262 3.0336c0.91796-0.0031349 1.4955-0.57944 1.4976-1.4954 0.0026227-0.9734-0.57386-1.5461-1.549-1.5382-0.94104 0.0073149-1.5039 0.58728-1.4965 1.5413 0.0073436 0.93735 0.58644 1.4959 1.5479 1.4922m6.9455 12.996c-2.169 0.65155-4.2237 0.64528-6.2453 0.050682 1.0318 1.0335 2.0547 2.0576 3.1121 3.1172 0.90642-0.90391 1.8354-1.8292 2.7628-2.7561 0.097041-0.097183 0.18412-0.20429 0.37033-0.41172m-10.706-13.732c-0.27172 2.1542 1.645 5.6863 3.472 6.3603 0.33624-0.66356 0.6903-1.3235 1.0061-2.0011 0.20405-0.43785 0.50252-0.6296 0.99192-0.62281 1.3659 0.018287 2.7318 0.01463 4.0978 5.2249e-4 0.48678-0.0047024 0.77843 0.19646 0.97933 0.63796 0.31316 0.6876 0.67614 1.3522 1.0192 2.0299 2.1008-1.2441 3.7537-4.356 3.4458-6.4021-0.74696-0.11234-0.74696-0.11234-1.0732 0.50211-1.122 2.114-3.9163 2.3021-5.1238 0.26125-0.43537-0.73567-0.89488-0.90182-1.6172-0.81038-0.015736 0.00209-0.031997 0.0026124-0.047209 0-0.35197-0.053817-0.53976 0.071059-0.70499 0.41904-0.52192 1.0978-1.4084 1.7843-2.6437 1.8193-1.2211 0.034484-2.1512-0.59407-2.6873-1.662-0.26332-0.5251-0.56022-0.68081-1.1147-0.5319m15.035 4.9945c-0.92688 1.2979-1.9644 2.2854-3.226 3.0278-0.59379 0.34955-0.95363 0.24244-1.2621-0.36209-0.36194-0.71059-0.69975-1.4337-1.0848-2.1312-0.082354-0.14891-0.31997-0.29469-0.49045-0.29991-0.95678-0.028215-1.9151 0.00209-2.8724-0.021422-0.32102-0.0078374-0.47209 0.1092-0.60271 0.38664-0.33833 0.72104-0.70184 1.4311-1.0711 2.1375-0.26385 0.50473-0.64939 0.63326-1.1278 0.33701-0.51773-0.32133-1.0397-0.65573-1.4876-1.0627-0.64152-0.58258-1.2175-1.2367-1.8076-1.8454-0.4039 1.9687 0.58382 4.5075 2.3264 5.9251 2.7628 2.2478 7.5934 2.264 10.347 0.001045 1.8795-1.544 2.5399-3.5916 2.3589-6.0922m-12.919 7.6754c-0.34568-0.28633-0.65936-0.51936-0.94261-0.7853-1.7693-1.66-2.7051-3.6883-2.704-6.1262 0.0010491-3.2081 0-6.4167 0-9.6253v-0.62803h1.4708v2.8946c0.73594 0.18653 0.79731 0.14734 1.122-0.44046 0.58854-1.0638 1.475-1.7373 2.7193-1.7132 1.26 0.024557 2.1475 0.72574 2.6778 1.8423 0.14478 0.30513 0.29742 0.44882 0.62579 0.39553 0.030424-0.0047024 0.062946-0.0036574 0.093894 0 0.73594 0.083076 1.2033-0.076284 1.6581-0.83181 1.2196-2.0247 4.0228-1.8413 5.0771 0.27901 0.27434 0.5528 0.5854 0.63639 1.1304 0.50264v-1.4154h1.4992v0.47808c0 2.7389-0.001049 5.4778 0 8.2167 0.0015737 2.7358-1.1257 4.9219-3.2443 6.6273-0.12012 0.096661-0.24234 0.19071-0.40652 0.31976 0.60375 0.80255 1.1823 1.5952 1.7934 2.3622 0.11225 0.14107 0.34987 0.19384 0.53924 0.2602 2.2639 0.78948 4.5473 1.5278 6.7892 2.3747 1.8863 0.71216 3.653 1.6683 5.1406 3.0655 1.496 1.4055 2.2487 3.1104 2.2199 5.1815-0.037243 2.6757-0.0089173 5.3524-0.0089173 8.0291v0.54757h-1.4787v-0.48748c0-2.6605-0.047209-5.3221 0.015736-7.9816 0.045636-1.9264-0.69975-3.4208-2.148-4.6256-1.1551-0.96086-2.4759-1.6291-3.911-2.2394v15.333h-1.4992v-0.53033c0-4.9616-0.0052455-9.9226 0.0094418-14.884 0.0010491-0.39344-0.10176-0.60296-0.4936-0.69439-0.33151-0.077329-0.65044-0.21109-1.0302-0.33857v16.446h-1.5044v-0.61811c5.245e-4 -5.274-0.0036719-10.549 0.011016-15.823 0.0010491-0.39605-0.11225-0.57317-0.49622-0.68551-0.85711-0.2508-1.7058-0.53503-2.5414-0.84905-0.27486-0.10345-0.54605-0.30304-0.73647-0.52772-0.44482-0.52354-0.83928-1.0889-1.378-1.801-0.11802 0.20273-0.17835 0.37828-0.29584 0.49689-1.2269 1.2346-2.4612 2.462-3.697 3.6883-0.51458 0.511-0.84819 0.51413-1.3607 0.0062699-1.2248-1.2137-2.4475-2.4312-3.664-3.6543-0.13061-0.13167-0.21349-0.31088-0.35197-0.51831-0.5277 0.697-0.93317 1.2733-1.3853 1.811-0.18044 0.21422-0.44219 0.39971-0.70447 0.49846-0.79102 0.29782-1.5899 0.58937-2.4077 0.79993-0.53661 0.13794-0.64624 0.39866-0.64414 0.9154 0.020982 5.227 0.012589 10.455 0.012589 15.682v0.58624h-1.464v-16.469c-0.51616 0.18026-0.97513 0.31193-1.4021 0.51047-0.10386 0.048069-0.14425 0.3182-0.14478 0.48592-0.0068191 4.2102-0.0052455 8.4199-0.0047209 12.63v2.8418h-1.463v-15.246c-0.083403-0.015152-0.13324-0.040754-0.16576-0.02717-1.5715 0.65782-3.0702 1.4363-4.2976 2.6469-1.0905 1.0753-1.6439 2.359-1.6261 3.9103 0.030948 2.6605 0.0094419 5.3216 0.0099664 7.9821v0.73201h-1.4797v-0.4948c0-2.661 0.043013-5.3226-0.013114-7.9821-0.050357-2.3789 0.91166-4.2327 2.7082-5.7166 1.6046-1.325 3.451-2.2248 5.3892-2.9301 2.0027-0.72888 4.0359-1.3736 6.0454-2.0827 0.2885-0.10189 0.57438-0.31558 0.77056-0.5528 0.53819-0.64998 1.0281-1.3402 1.5668-2.0539"/>
                    </g>
                    <g transform="translate(11.016 .48137)">
                        <mask id="z" fill="white">
                            <use xlink:href="#s"/>
                        </mask>
                        <path d="m18.366 7.9421c0.027276-0.10136 0.042488-0.13115 0.042488-0.16093 0.0031473-1.2832 0.0078682-2.566 0.0068191-3.8487-0.0015736-1.5617-0.85711-2.4139-2.4119-2.4134-4.5704 0.001045-9.1408 5.2249e-4 -13.712 5.2249e-4h-0.44114c-0.17467 0.39918 0.047209 0.6249 0.28588 0.79628 0.98825 0.71111 1.3418 1.6526 1.176 2.8471-0.073437 0.53085-0.012065 1.08-0.012065 1.6124 1.0397 0.090391 1.0397 0.090391 1.4577-0.73933 0.041964-0.083599 0.083928-0.16772 0.12956-0.24975 0.28535-0.51256 0.73017-0.6202 1.2164-0.2926 0.54658 0.36731 1.0816 0.75239 1.6424 1.0962 0.19985 0.12226 0.4595 0.20586 0.69293 0.20795 2.2613 0.015152 4.5232 0.0057474 6.785 0.01672 0.22503 0.001045 0.46055 0.063221 0.67299 0.14473 0.8162 0.31297 1.6245 0.64475 2.4685 0.98281m-12.561-0.86211c-0.21139 1.2921-1.1057 1.2629-2.0263 1.2043-0.35984-0.02299-0.7223 0.0015675-1.0837-0.0052249-0.58907-0.01045-0.86708-0.28162-0.87127-0.86368-0.0068191-0.96974 0.015736-1.9405-0.015212-2.9098-0.0078682-0.2346-0.17205-0.46606-0.27329-0.69491-0.023605-0.053294-0.084977-0.090391-0.12904-0.1348-1.1724-1.1725-1.1724-1.1725-1.0926-2.823 0.025178-0.51988 0.30319-0.80359 0.83718-0.80411 5.0262-0.0036574 10.052-0.01881 15.078 0.0073149 1.9156 0.0099273 3.6283 1.7556 3.6582 3.67 0.027276 1.7206 0.012065 3.4417 0.0052455 5.1622-0.0031473 0.74089-0.47052 1.0523-1.1556 0.78269-1.0208-0.40232-2.0342-0.82188-3.0597-1.2117-0.27014-0.10241-0.57281-0.16824-0.86078-0.17033-2.1674-0.014107-4.3349-0.018287-6.5023-5.2249e-4 -0.47839 0.0041799-0.88649-0.093526-1.2689-0.38403-0.35984-0.27379-0.7522-0.50316-1.24-0.82449" fill="#fff" mask="url(#z)"/>
                    </g>
                    <path d="m16.602 36.566c0.47786 0 0.96412 0.13585 1.3093-0.026647 0.85291-0.4018 1.6408-0.94048 2.5257-1.4656-0.74171-0.44621-1.4184-0.80829-2.0452-1.242-0.58067-0.40232-1.1823-0.24609-1.7898-0.26177v2.996zm10.541-2.9552c-0.8398-0.17765-1.5343-0.013062-2.1847 0.45979-0.49727 0.36156-1.0517 0.64528-1.645 1.0021 0.68821 0.41329 1.3208 0.7341 1.8847 1.1474 0.6069 0.44516 1.2531 0.37881 1.945 0.35007v-2.9594zm-12.043 1.4264c0-0.68864-0.0041964-1.3773 0.0010491-2.0654 0.004721-0.61758 0.27172-0.87883 0.89173-0.8898 0.015736 0 0.031473 0.00209 0.047209 0 1.5694-0.21422 2.9611 0.18914 4.2116 1.1552 0.39446 0.30409 0.86341 0.511 1.2825 0.7853 0.24601 0.16093 0.44324 0.14316 0.68768-0.0073149 0.92163-0.56638 1.8448-1.1322 2.7895-1.6579 0.28535-0.15884 0.63995-0.24139 0.96936-0.26334 0.60952-0.041277 1.2248-0.019855 1.837-0.0094049 0.53189 0.0094049 0.82144 0.28737 0.82511 0.813 0.0094419 1.4551 0.0099664 2.9108-5.245e-4 4.3659-0.0031473 0.50159-0.29112 0.78583-0.79364 0.79523-0.70657 0.013062-1.4147 0.0209-2.1202-0.0067924-0.22188-0.0088823-0.45793-0.10554-0.65411-0.21892-0.90904-0.52667-1.8207-1.0513-2.7014-1.6223-0.37715-0.24505-0.65201-0.22101-1.0155 0.01045-0.85868 0.54809-1.7342 1.0722-2.6259 1.5654-0.28588 0.15779-0.63995 0.24139-0.96936 0.26438-0.59379 0.041277-1.1928 0.017242-1.7898 0.0099273-0.58854-0.0073149-0.86445-0.28058-0.87075-0.8642-0.0073437-0.71999-0.0015737-1.4395-0.0015737-2.1595z" fill="#fff"/>
                    <mask id="f" fill="white">
                        <use xlink:href="#r"/>
                    </mask>
                    <polygon points="21.174 39.526 22.573 39.526 22.573 38.116 21.174 38.116" fill="#fff" mask="url(#f)"/>
                    <polygon points="21.171 42.551 22.576 42.551 22.576 41.134 21.171 41.134" fill="#fff" mask="url(#f)"/>
                    <polygon points="21.151 45.546 22.582 45.546 22.582 44.133 21.151 44.133" fill="#fff" mask="url(#f)"/>
                </g>
                <g transform="translate(0 54.339)">
                    <path d="m25.614 25.721c-2.4989 1.4316-4.9869 1.4301-7.4801 0.0026125-0.11593 1.4719-1.3434 2.0811-2.2917 3.0132 0.30004 0.26647 0.54343 0.56325 0.85501 0.74089 0.44429 0.25393 0.92373 0.47233 1.4147 0.61445 1.9592 0.56743 3.9645 0.64684 5.9641 0.32081 0.94576-0.15466 1.8679-0.49428 2.7759-0.81979 0.43013-0.15413 0.80938-0.46345 0.97513-0.93369-0.90589-0.86525-2.1003-1.4766-2.2131-2.9385zm2.6715-6.5003c-0.14058-0.057996-0.25126-0.11077-0.36613-0.14943-1.8868-0.62803-3.771-1.2639-5.6646-1.8695-0.24654-0.078896-0.56389-0.064789-0.81357 0.015152-1.774 0.56795-3.5391 1.1631-5.3069 1.7509-0.21926 0.073149-0.43537 0.15361-0.68034 0.23982 0.46475 1.7211 1.1593 3.2818 2.4575 4.4903 2.1438 1.997 5.1243 2.1908 7.3505 0.4901 1.6408-1.2535 2.4911-3.0012 3.0235-4.9673zm15.446 29.339h-1.4787v-0.49741c0-3.0205-0.014687-6.041 0.00577-9.0616 0.0099665-1.4614-0.51301-2.683-1.517-3.7186-1.2484-1.2874-2.7927-2.1302-4.4371-2.7692-2.3825-0.92533-4.7655-1.8402-7.0127-3.0696-0.052455-0.028737-0.11855-0.03344-0.18044-0.049637-1.1923 1.5069-2.8771 2.0555-4.659 2.4061-2.1984 0.43262-4.3779 0.32029-6.518-0.32708-1.2762-0.3856-2.4638-0.94728-3.2727-2.068-0.065568 0.0078374-0.11855 0-0.15632 0.0209-2.3783 1.3203-4.9381 2.2242-7.4475 3.2473-1.3554 0.55227-2.6222 1.2775-3.7138 2.2723-1.2484 1.1385-1.8894 2.5153-1.8632 4.2343 0.043537 2.8633 0.013114 5.7281 0.013638 8.5918v0.77694h-1.4803v-0.4995c0-2.9108 0.041964-5.8226-0.013114-8.7324-0.045111-2.3977 0.9253-4.262 2.745-5.7464 1.7242-1.4065 3.7091-2.3496 5.7936-3.0608 2.0914-0.71372 4.0044-1.7854 5.9756-2.7436 0.29375-0.14212 0.56651-0.33701 0.82669-0.53555 1.6319-1.2477 1.2044-0.76963 1.2594-2.625 0.0036719-0.12592-0.053504-0.2811-0.13481-0.37881-1.7347-2.0821-2.5797-4.5143-2.8394-7.1722-0.032522-0.33387-0.11278-0.60139-0.38135-0.80882-0.32417-0.25027-0.42593-0.58415-0.41597-0.99169 0.021506-0.8757 0.0068191-1.7519 0.0068191-2.6668h1.4787c0 0.68969 0.019408 1.4029-0.0083928 2.114-0.014163 0.3741 0.11697 0.62751 0.35564 0.9107 0.21139 0.2508 0.3226 0.61288 0.39603 0.94362 0.079731 0.35947 0.064519 0.73985 0.094419 1.1683 0.21402-0.060086 0.37348-0.098228 0.52927-0.14943 1.9036-0.63221 3.8019-1.2817 5.7149-1.8851 0.31158-0.098751 0.71181-0.076806 1.0281 0.024035 2.0295 0.64684 4.0474 1.3313 6.1514 2.0304 0.03462-0.42061 0.097041-0.80046 0.089173-1.1787-0.0083928-0.40807 0.10281-0.74037 0.42541-0.9896 0.27172-0.21004 0.35984-0.47024 0.34673-0.81456-0.026752-0.71634-0.0078682-1.4348-0.0078682-2.1824h1.464c0 1.0309 0.010491 2.0576-0.011016 3.0837-0.0031473 0.14891-0.12484 0.33701-0.24864 0.43471-0.40548 0.31976-0.50619 0.73671-0.55655 1.2247-0.26332 2.5456-1.1267 4.856-2.756 6.865-0.13691 0.16929-0.13533 0.45561-0.18307 0.69021-0.21349 1.0502 0.24444 1.7645 1.1388 2.2692 0.59903 0.33857 1.1776 0.71372 1.7824 1.0418 2.0279 1.1004 4.1581 1.9682 6.3171 2.7802 1.6649 0.62542 3.226 1.4651 4.6123 2.5978 1.8333 1.4985 2.8048 3.3737 2.7554 5.7892-0.058225 2.8784-0.013638 5.7589-0.013638 8.6383v0.5669z" fill="#fff"/>
                    <g transform="translate(12.065 .49386)">
                        <mask id="y" fill="white">
                            <use xlink:href="#q"/>
                        </mask>
                        <path d="m9.79 9.0477c2.5294 0 5.0582 5.225e-4 7.5876-5.2249e-4 0.61529 0 0.7244-0.1092 0.63837-0.72522-0.21297-1.5325-0.41754-3.0665-0.6709-4.5922-0.24024-1.4431-1.0507-2.2216-2.2498-2.2232-3.5192-0.0047024-7.0379 5.2249e-4 -10.557-0.003135-0.79679-0.001045-1.4095 0.33492-1.7772 1.023-0.22503 0.42113-0.41597 0.88667-0.49675 1.3538-0.25441 1.4781-0.45688 2.9651-0.66408 4.4506-0.084452 0.60609 0.030424 0.71634 0.64939 0.71634 2.5131 0.001045 5.0267 5.2249e-4 7.5404 5.2249e-4zm0.020457 1.4745c-2.6537 0-5.3069 5.225e-4 -7.9605 0-1.0459-5.225e-4 -1.9046-0.97079-1.7588-1.9865 0.22451-1.5612 0.44324-3.1235 0.67352-4.6841 0.14478-0.98176 0.54605-1.8559 1.1965-2.6062 0.69398-0.80098 1.5805-1.2122 2.6484-1.2127 3.4856-0.001045 6.9712-0.01045 10.457 0.0041799 1.4624 0.0062699 2.4649 0.78635 3.184 1.9975 0.54501 0.91749 0.62631 1.9531 0.77686 2.9709 0.18517 1.2514 0.37925 2.5022 0.51983 3.7588 0.030424 0.27222-0.084452 0.61288-0.24549 0.8433-0.48783 0.69909-1.1472 0.96295-2.0499 0.93735-2.479-0.070014-4.9606-0.024035-7.4412-0.024035v0.0015675z" fill="#fff" mask="url(#y)"/>
                    </g>
                    <mask id="c" fill="white">
                        <use xlink:href="#p"/>
                    </mask>
                    <polygon points="25.697 41.782 31.642 41.782 31.642 40.382 25.697 40.382" fill="#fff" mask="url(#c)"/>
                    <polygon points="7.5886 48.563 9.0044 48.563 9.0044 44.135 7.5886 44.135" fill="#fff" mask="url(#c)"/>
                    <polygon points="34.734 48.555 36.167 48.555 36.167 44.126 34.734 44.126" fill="#fff" mask="url(#c)"/>
                    <polygon points="21.154 6.5135 19.656 6.5135 19.656 5.0531 21.111 5.0531 21.111 3.5609 22.593 3.5609 22.593 5.0113 24.09 5.0113 24.09 6.4874 22.636 6.4874 22.636 7.9785 21.154 7.9785" fill="#fff" mask="url(#c)"/>
                </g>
                <g transform="translate(34.62)">
                    <g transform="translate(0 7.8488)" fill="#fff">
                        <path d="m24.884 1.7073c-0.95625 5.2249e-4 -1.5222 0.56011-1.5254 1.509-0.0031473 0.9478 0.56756 1.5215 1.5144 1.5231 0.94471 0.00209 1.5285-0.57526 1.5296-1.5131 0.0015737-0.94675-0.57123-1.5194-1.5186-1.5189m-7.5551 3.032c0.94524 0.0026125 1.5296-0.57422 1.5312-1.5116 0.0015737-0.94675-0.57018-1.5204-1.517-1.5204-0.9573 0-1.5238 0.55907-1.527 1.5074-0.0036718 0.94832 0.56599 1.5225 1.5128 1.5246m-0.0068191 10.764c0 0.55593-0.0083928 1.022 0.0026227 1.4881 0.01154 0.50943-0.15055 1.1928 0.11383 1.4818 0.29427 0.32133 0.97828 0.3229 1.5023 0.395 1.8653 0.25654 3.7238 0.2137 5.5597-0.23826 0.14215-0.035529 0.36981-0.16563 0.37243-0.25759 0.027801-0.92899 0.01731-1.859 0.01731-2.8643-2.5341 1.6124-5.011 1.6208-7.5682-0.0047024m10.204 3.3157c-4.3113 2.2472-8.5491 2.2535-12.83-0.0052249-0.032522 0.070014-0.092845 0.19541-0.14897 0.3229-0.3525 0.80098-0.26122 1.1646 0.49675 1.6281 0.39708 0.24296 0.83088 0.44882 1.2741 0.59042 2.3626 0.75239 4.7844 0.79732 7.223 0.51779 1.1734-0.13428 2.339-0.35477 3.3723-0.95302 0.96202-0.55698 1.2678-0.88928 0.69712-1.9369-0.036718-0.067924-0.070814-0.13794-0.083928-0.16406m-13.992-14.958c0.12904 0.53817-0.23552 1.1249 0.27906 1.5628 0.39446 0.33492 0.48888 0.74298 0.51091 1.2441 0.098615 2.2937 0.7884 4.3947 2.2346 6.2056 1.1 1.3778 2.4874 2.2958 4.3107 2.3742 2.0227 0.086734 3.5674-0.84957 4.7828-2.369 1.4897-1.8627 2.1627-4.0274 2.2676-6.3895 0.012065-0.2764 0.077633-0.65886 0.2649-0.80046 0.68296-0.51465 0.438-1.1845 0.47629-1.8125-0.59798-0.02299-0.90799 0.19593-1.1871 0.71372-1.1068 2.0529-3.8334 2.1934-5.0325 0.20116-0.46737-0.77747-0.95678-0.91906-1.7048-0.83128-0.015212 0.00209-0.031473 0.00209-0.046685 0-0.32207-0.047547-0.48206 0.075761-0.62788 0.39082-0.51196 1.1061-1.3937 1.7932-2.629 1.8444-1.2264 0.050682-2.1701-0.5737-2.6993-1.6396-0.26752-0.53817-0.609-0.6714-1.1996-0.69439m-12.05 36.889h-1.4792v-0.49219c0-3.0357 0.012065-6.0719-0.0036718-9.1081-0.016261-3.1036 1.2647-5.5233 3.9042-7.1461 1.1524-0.7085 2.4439-1.1918 3.6692-1.7833 1.5521-0.74821 3.1043-1.4964 4.648-2.2619 0.171-0.084644 0.30686-0.26543 0.42436-0.42635 0.58697-0.80516 0.90484-1.708 0.94681-2.7379h1.3512c0.24759 0.34955 0.4894 0.69073 0.73122 1.0324l0.12694-0.054862c0.013638-0.11338 0.036194-0.22728 0.039341-0.34119 0.00577-0.2346 0.0015736-0.4692 0.0015736-0.7038-5.245e-4 -0.76702 0.15212-1.5758-0.045636-2.2885-0.18884-0.68133-0.75063-1.2576-1.1335-1.8883-1.0501-1.7284-1.6355-3.6052-1.826-5.6152-0.023605-0.25027-0.16681-0.53451-0.34463-0.71477-0.31211-0.31611-0.43852-0.65102-0.43013-1.0894 0.020982-1.1092 0.0068192-2.2185 0.0068192-3.3622h1.4262c0.064519 0.15361 0.10543 0.34275 0.21139 0.48383 0.2607 0.34746 0.67824 0.28371 0.86603-0.10554 0.55392-1.1479 1.4409-1.8899 2.7423-1.8972 1.3224-0.0078374 2.234 0.73253 2.777 1.9071 0.12117 0.26229 0.26175 0.36052 0.52927 0.32865 0.077108-0.0094048 0.15736-0.0073149 0.23552 0.001045 0.68611 0.073671 1.1231-0.063221 1.5427-0.78165 1.2033-2.0618 3.9792-1.9013 5.1332 0.19959 0.12327 0.22467 0.082354 0.64057 0.54553 0.57317 0.42069-0.061654 0.56232-0.34693 0.609-0.71947h1.4519c0 1.2717 0.013114 2.5195-0.013638 3.7666-0.0041964 0.19019-0.15107 0.42113-0.30162 0.55593-0.31263 0.27901-0.45111 0.59512-0.48835 1.011-0.22975 2.578-1.1598 4.8785-2.8058 6.8875-0.066618 0.080986-0.14687 0.18548-0.14792 0.27901-0.0099664 1.1657-0.0062945 2.3314-0.0062945 3.497 0.049832 0.02299 0.099664 0.045979 0.1495 0.069491 0.24601-0.3323 0.4915-0.66461 0.77895-1.0528h1.2453c0.12537 0.52301 0.21087 1.0445 0.37715 1.5398 0.30738 0.91749 0.82406 1.6333 1.7877 2.0393 1.7446 0.73515 3.4447 1.5758 5.1752 2.3465 1.7074 0.76075 3.3094 1.6647 4.5331 3.1161 1.1225 1.3308 1.7284 2.8899 1.7562 4.6058 0.054553 3.4255 0.016261 6.8525 0.016261 10.316h-1.4619v-0.52772c-5.245e-4 -3.067-0.013114-6.1346 0.0015736-9.2016 0.012589-2.6255-1.1031-4.6073-3.3671-5.9345-0.63365-0.37149-1.2857-0.74298-1.9749-0.98333-2.0982-0.73201-4.0217-1.8261-6.0134-2.7797-0.15527-0.074194-0.30843-0.15361-0.438-0.21788-2.6364 2.1866-5.7559 2.4876-8.9745 2.3449-0.91848-0.040232-1.8396-0.21318-2.7402-0.4112-1.4556-0.31976-2.8242-0.85166-3.8953-1.9604-0.65726 0.32447-1.2962 0.65938-1.9508 0.95929-1.4651 0.67245-2.9532 1.2973-4.4036 2.0001-1.0255 0.49637-2.0662 1.0021-2.991 1.6568-1.6712 1.184-2.4628 2.9009-2.489 4.9234-0.039341 3.0508-0.013114 6.1032-0.014687 9.1546v0.99221"/>
                    </g>
                    <g transform="translate(12.589 .01139)">
                        <mask id="x" fill="white">
                            <use xlink:href="#o"/>
                        </mask>
                        <path d="m1.7203 8.7688h-1.4299c-0.33833-3.2818 0.59221-6.1032 4.2027-7.4769 2.9265-1.1134 5.8854-1.056 8.7332 0.29887 2.3762 1.1307 3.5355 3.0931 3.5732 5.7119 0.0062946 0.453-0.0036718 0.90704-0.0083928 1.36-5.245e-4 0.027692-0.02308 0.054339-0.045636 0.10398h-1.4231v-1.1845c-0.0010491-2.9505-1.3287-4.6402-4.2326-5.2824-2.0583-0.45561-4.1214-0.42688-6.1246 0.28998-2.0971 0.7503-3.1908 2.3084-3.2428 4.519-0.013114 0.54339-0.0020982 1.0873-0.0020982 1.66" fill="#fff" mask="url(#x)"/>
                    </g>
                    <mask id="e" fill="white">
                        <use xlink:href="#n"/>
                    </mask>
                    <polygon points="7.5729 48.594 8.9981 48.594 8.9981 42.661 7.5729 42.661" fill="#fff" mask="url(#e)"/>
                    <polygon points="33.225 48.603 34.636 48.603 34.636 42.676 33.225 42.676" fill="#fff" mask="url(#e)"/>
                    <path d="m18.785 18.552h-1.3974c0.0089173-1.1202 1.025-2.1678 2.1648-2.1997 1.036-0.028737 2.0735-0.027692 3.1095 0 1.1377 0.030304 2.1506 1.0732 2.1669 2.1986h-1.3612c-0.31316-0.73201-0.31578-0.73253-1.1813-0.73201-0.84819 5.225e-4 -1.6964-0.0020899-2.5446-0.001045-0.6625 0.0015675-0.7779 0.090391-0.95678 0.7341" fill="#fff" mask="url(#e)"/>
                </g>
                <g transform="translate(160.51 102.41)">
                    <g transform="translate(0 .48518)">
                        <mask id="w" fill="white">
                            <use xlink:href="#m"/>
                        </mask>
                        <path d="m13.582 12.053c-0.13638 0.74403 0.22923 1.2566 0.61215 1.7561 0.27276 0.35529 0.63103 0.53137 1.1 0.51047 0.56336-0.025602 1.1288-0.0057474 1.6932-0.0062699 1.1252-5.225e-4 2.0342-1.1244 1.8123-2.2603h-5.2177zm9.8169-0.02299c-0.085501 0.78896 0.34463 1.7268 0.96517 2.1015 0.17677 0.10659 0.40705 0.16667 0.61529 0.17347 0.64205 0.021945 1.2857 0.011495 1.9282 0.0073148 1.0349-0.0062699 1.9592-1.2461 1.6775-2.2822h-4.5505-0.63575zm-8.2663 3.7562c0.20457 1.8104 0.62946 3.4746 1.7646 4.8722 1.9623 2.4165 5.8104 2.6057 8.0371 0.42165 0.90065-0.88406 1.4184-1.9771 1.7441-3.1658 0.18621-0.67976 0.2948-1.3804 0.44954-2.1276-0.69975 0-1.2799-0.028214-1.8564 0.0057474-1.1152 0.066356-2.0274-0.37306-2.5341-1.3057-0.4679-0.86002-1.0727-1.0351-1.955-0.97758-0.49203 0.031872-0.77056 0.14525-1.0181 0.58833-0.64205 1.151-1.5951 1.8172-2.9957 1.696-0.51196-0.044412-1.0318-0.0073149-1.6361-0.0073149zm6.7006-3.741c0.35984-1.1401 0.8419-1.4896 2.0038-1.4886 1.303 0.0015675 2.6065 0.00418 3.9095-0.0052249 0.14005-0.001045 0.37295-0.047024 0.40338-0.1301 0.19671-0.54026 0.47419-1.0925 0.49412-1.649 0.060848-1.7336 0.044586-3.4714 0.0083927-5.2071-0.024654-1.1516-0.8975-2.0278-2.051-2.0388-2.8892-0.028737-5.7784-0.019855-8.6671-0.0052249-0.72545 0.0036574-1.2458 0.50473-1.3518 1.2038-0.1474 0.97027-0.22451 1.0356-1.2301 1.0403-0.11016 5.2249e-4 -0.22031 0-0.32994 0.003135-0.91219 0.02508-1.4525 0.56168-1.4656 1.4781-0.01154 0.82919 0.027276 1.6594-0.013114 2.4865-0.041439 0.84487 0.11068 1.6396 0.40443 2.4254 0.10858 0.29051 0.235 0.41277 0.56651 0.40754 1.3811-0.021422 2.7633-0.010972 4.145-0.0083599 0.76479 0.0015675 1.3554 0.42061 1.6114 1.1333 0.041439 0.11443 0.077633 0.23042 0.11855 0.35425h1.4436zm-20.348 36.024h-1.4797v-0.48696c0-3.8189-0.018359-7.6378 0.013638-11.456 0.0073437-0.86838 0.1112-1.753 0.30581-2.5989 0.36718-1.5946 1.2857-2.8815 2.6983-3.6945 1.2149-0.69909 2.5288-1.2331 3.8182-1.7948 1.5212-0.66252 3.0639-1.2764 4.6706-1.9416-0.24496-0.25707-0.44482-0.46554-0.64362-0.6761-0.43747-0.46293-0.40915-0.90548 0.10491-1.2592 0.69765-0.47965 1.3712-1.0147 2.1234-1.3888 0.6048-0.30043 1.3077-0.41172 1.9739-0.57892 0.85396-0.21474 1.0297-0.20377 0.41597-1.0826-1.1026-1.5784-1.5999-3.38-1.8055-5.2678-0.038817-0.35791-0.13901-0.62699-0.39236-0.90652-0.68873-0.76022-1.3219-1.5858-1.2012-2.6961 0.041439-0.38246 0.25965-0.74455 0.38187-1.1207 0.05193-0.15936 0.14005-0.36365 0.083928-0.49219-0.79784-1.8188-0.47209-3.7337-0.43957-5.6058 0.024129-1.3731 1.303-2.5388 2.7067-2.7096 0.26175-0.031872 0.40023-0.098228 0.5193-0.35425 0.58225-1.2503 1.5663-1.9181 2.9705-1.9186 2.6395-0.00209 5.2796-0.0031349 7.9191 0 2.1921 0.0026125 3.9194 1.7258 3.9178 3.8999-0.0010491 1.5335 0.043013 3.0691-0.022031 4.6-0.027276 0.65364-0.26647 1.3015-0.4401 1.9437-0.073437 0.2717-0.10386 0.4692 0.11016 0.71686 0.50409 0.58206 0.49307 1.3172 0.23133 1.9515-0.27434 0.66409-0.76741 1.2378-1.1493 1.8606-0.13166 0.21474-0.2864 0.45039-0.31316 0.68969-0.23185 2.0675-0.79049 4.0127-2.0415 5.7181-0.28693 0.39082-0.21716 0.55541 0.25493 0.67454 0.2586 0.064789 0.51353 0.15988 0.77633 0.18966 1.5186 0.1719 2.6054 1.1719 3.7977 1.9614 0.40757 0.26961 0.41544 0.72679 0.06347 1.0993-0.21297 0.22519-0.47786 0.40127-0.812 0.67558 0.33466 0.14996 0.50934 0.23408 0.68873 0.30722 1.8422 0.75082 3.6865 1.4969 5.5272 2.2519 0.42016 0.17242 0.83141 0.36679 1.2416 0.56272 2.6977 1.2911 4.0983 3.4458 4.1329 6.4094 0.048258 4.1151 0.016261 8.2319 0.01731 12.348 0 0.044412-0.016786 0.088824-0.030948 0.16249h-1.421c-0.0078682-0.15675-0.022556-0.30827-0.022556-0.45927-0.0010491-3.8189 0.0068191-7.6378-0.0078682-11.456-0.0020982-0.63796-0.059798-1.2811-0.15999-1.9113-0.23972-1.5006-1.0654-2.6287-2.3757-3.3774-0.67719-0.38664-1.399-0.70432-2.1207-1.0053-2.0101-0.8386-4.0348-1.6417-6.0428-2.4839-0.34882-0.1463-0.55864-0.10607-0.812 0.16354-0.39394 0.41852-0.83351 0.79366-1.2537 1.1871 0.022031 0.042322 0.044062 0.085166 0.066618 0.12749 0.9337 0.15884 1.8674 0.31872 2.8016 0.47599 0.7564 0.12749 0.97986 0.52354 0.67562 1.2326-1.399 3.2614-2.8053 6.5191-4.1959 9.7837-0.11225 0.26334-0.17258 0.56899-0.17467 0.85532-0.014687 2.113-0.0078682 4.2259-0.0078682 6.3383v0.53242h-1.4787v-0.51831c0-2.1757-0.011016-4.3513 0.011016-6.5264 0.0036718-0.37672 0.090222-0.77694 0.23814-1.1249 1.2453-2.9354 2.5147-5.8608 3.7752-8.7904 0.054553-0.12697 0.094943-0.25968 0.16471-0.45352-0.77004-0.13428-1.5044-0.26334-2.2388-0.38926-0.38659-0.066356-0.77266-0.13794-1.1613-0.18653-0.35827-0.044934-0.6966-0.18601-0.72807-0.54653-0.02308-0.26856 0.089698-0.62908 0.27486-0.82188 1.1414-1.1861 2.3211-2.3355 3.4867-3.4986 0.077108-0.076284 0.14582-0.16093 0.2266-0.25132-0.91324-0.90025-2.0589-1.2205-3.3246-1.418 0 0.56899-0.023605 1.1281 0.0073436 1.6845 0.025703 0.46293-0.13428 0.80516-0.47052 1.1155-0.49517 0.45718-0.94838 0.95929-1.4415 1.4186-0.25913 0.24191-0.36509 0.49428-0.36456 0.85532 0.01154 6.1821 0.0078682 12.364 0.0078682 18.546v0.90704h-1.4797v-0.52197c-0.0010491-6.4475 0.0026228-12.896-0.0099664-19.344-0.0010491-0.47494 0.10858-0.85271 0.48153-1.1573 0.19356-0.15779 0.35827-0.35111 0.53556-0.52824 1.4179-1.4118 1.4179-1.4118 1.2211-3.5049-1.1676 0.71216-2.425 1.045-3.7642 1.0387-1.3229-0.0057474-2.5724-0.31297-3.772-1.0711 0 0.77642-0.012589 1.4593 0.010491 2.1412 0.0047209 0.1301 0.12851 0.27535 0.23133 0.38037 0.54815 0.56063 1.1283 1.0915 1.6502 1.6746 0.18989 0.21265 0.3525 0.54078 0.35355 0.81665 0.019408 6.5886 0.015212 13.178 0.014687 19.766 0 0.091958-0.0099664 0.18339-0.016786 0.30461h-1.4383c-0.0083928-0.15466-0.022556-0.30618-0.022556-0.45718-0.0010491-6.3227-0.0031472-12.645 0.0057701-18.969 5.245e-4 -0.35216-0.078682-0.61654-0.34778-0.86211-0.4978-0.45457-0.94681-0.96138-1.443-1.417-0.34987-0.32133-0.51825-0.67349-0.48626-1.1558 0.035145-0.54287 0.0078683-1.0899 0.0078683-1.6641-1.2531 0.20064-2.3993 0.51204-3.3288 1.429 0.12589 0.13167 0.25021 0.26699 0.3803 0.39657 1.0989 1.0962 2.2125 2.1788 3.2868 3.299 0.1988 0.20691 0.34725 0.57108 0.32837 0.85062-0.024654 0.37933-0.38712 0.50838-0.76112 0.5669-1.112 0.17347-2.2199 0.37254-3.3933 0.57265 0.27434 0.64371 0.52245 1.231 0.77476 1.8167 1.0758 2.498 2.1596 4.9934 3.2218 7.4972 0.12956 0.3067 0.20352 0.65991 0.20615 0.99273 0.018359 2.1908 0.0099664 4.3821 0.0099664 6.5729 5.246e-4 0.16876 0 0.33753 0 0.53346h-1.4808v-0.98594c5.245e-4 -1.9876 0.00577-3.9756-0.0052455-5.9632-0.0015736-0.24139-0.051406-0.4995-0.14582-0.72104-1.3769-3.2196-2.7649-6.4345-4.1502-9.6504-0.037243-0.086211-0.075535-0.17242-0.10963-0.25968-0.24916-0.62856-0.018359-1.0387 0.64729-1.1516 0.95258-0.16197 1.9052-0.3229 2.9831-0.50525-0.56546-0.55227-1.0439-1.0413-1.5532-1.4959-0.083928-0.075239-0.32207-0.039709-0.4595 0.016197-0.90012 0.36679-1.7871 0.76493-2.6878 1.1301-1.3937 0.56481-2.7953 1.1108-4.1932 1.6667-0.17467 0.069491-0.3441 0.151-0.51668 0.22676-2.3505 1.033-3.4211 2.8638-3.4148 5.3869 0.0094419 3.7875 0.0020982 7.5751 0.0020982 11.363v0.94832z" fill="#fff" mask="url(#w)"/>
                    </g>
                    <mask id="d" fill="white">
                        <use xlink:href="#l"/>
                    </mask>
                    <polygon points="7.5865 48.554 8.9871 48.554 8.9871 42.62 7.5865 42.62" fill="#fff" mask="url(#d)"/>
                    <polygon points="33.232 48.554 34.648 48.554 34.648 42.622 33.232 42.622" fill="#fff" mask="url(#d)"/>
                    <path d="m15.815 9.4915h-1.5159c0.045636-0.68864 0.0068192-1.383 0.15474-2.0356 0.22346-0.98437 1.2149-1.6678 2.2472-1.6709 1.7898-0.0062699 3.5795 0.0041799 5.3693-0.0094048 0.23972-0.00209 0.49675-0.065834 0.71391-0.16772 0.79417-0.37254 1.5736-0.77642 2.362-1.162 0.71706-0.35007 1.2484-0.048592 1.2164 0.73306-0.020982 0.49793 0.099664 0.80829 0.5492 1.0962 0.66985 0.42844 0.98772 1.1098 0.97409 1.9228-0.0068191 0.41904-0.0010491 0.83808-0.0010491 1.2848h-1.4829c0-0.50943 0-1.0048-5.245e-4 -1.5006 0-0.39709-0.17153-0.65416-0.5854-0.71947-0.75063-0.11861-0.86026-0.23146-0.9573-1.0298-0.54238 0.26543-1.0554 0.546-1.5931 0.76754-0.32312 0.13271-0.68296 0.23982-1.0281 0.244-1.8364 0.024035-3.6734 0.0099273-5.5104 0.012017-0.72755 5.2249e-4 -0.90904 0.18653-0.91166 0.91958-0.0020982 0.42113-5.245e-4 0.84173-5.245e-4 1.3156" fill="#fff" mask="url(#d)"/>
                </g>
            </g>
        </g>
    </g>
</svg>
