<?xml version="1.0" encoding="UTF-8"?>
<svg width="203px" height="151px" viewBox="0 0 203 151" version="1.1" xmlns="http://www.w3.org/2000/svg" xmlns:xlink="http://www.w3.org/1999/xlink">
    <!-- Generator: Sketch 48.2 (47327) - http://www.bohemiancoding.com/sketch -->
    <title>men</title>
    <desc>Created with Sketch.</desc>
    <defs>
        <polygon id="path-1" points="0 47.9415073 40.7106796 47.9415073 40.7106796 -0.00020899654 0 -0.00020899654"></polygon>
        <polygon id="path-3" points="43.7263049 48.0645017 43.7263049 0.0372093704 0.000132354625 0.0372093704 0.000132354625 48.0645017 43.7263049 48.0645017"></polygon>
        <polygon id="path-5" points="0 48.5544419 43.7263049 48.5544419 43.7263049 0.522334602 0 0.522334602"></polygon>
        <polygon id="path-7" points="2.84357934e-20 0.236113841 2.84357934e-20 33.9618855 43.7394456 33.9618855 43.7394456 0.236113841 0 0.236113841"></polygon>
        <polygon id="path-9" points="0 48.0444381 43.7394186 48.0444381 43.7394186 -0.00020899654 0 -0.00020899654"></polygon>
        <polygon id="path-11" points="0.284107037 0.0412768166 19.9028454 0.0412768166 19.9028454 9.76681384 0.284107037 9.76681384 0.284107037 0.0412768166"></polygon>
        <polygon id="path-13" points="0 48.5505754 43.7420413 48.5505754 43.7420413 0.522648097 0 0.522648097"></polygon>
        <polygon id="path-15" points="19.5519622 0.0287370242 0.0748572965 0.0287370242 0.0748572965 10.5462929 19.5519622 10.5462929 19.5519622 0.0287370242"></polygon>
        <polygon id="path-17" points="0 48.563063 43.7478114 48.563063 43.7478114 0.522595848 0 0.522595848"></polygon>
        <polygon id="path-19" points="0.225748939 0.51099654 16.8015071 0.51099654 16.8015071 8.76876332 0.225748939 8.76876332 0.225748939 0.51099654"></polygon>
        <polygon id="path-21" points="0 48.6030858 42.2087881 48.6030858 42.2087881 0.522386851 0 0.522386851"></polygon>
        <polygon id="path-23" points="0.000108271851 48.0692042 42.2198036 48.0692042 42.2198036 0.0373127887 0.000108271851 0.0373127887"></polygon>
        <polygon id="path-25" points="0 48.5543896 42.2198036 48.5543896 42.2198036 0.522282353 0 0.522282353"></polygon>
    </defs>
    <g id="White-Landing--Copy-7" stroke="none" stroke-width="1" fill="none" fill-rule="evenodd" transform="translate(-232.000000, -2713.000000)">
        <g id="Group-16" transform="translate(-264.000000, 2290.000000)">
            <g id="Group-12">
                <g id="Group-13">
                    <g id="men" transform="translate(496.000000, 423.000000)">
                        <g id="Group-2">
                            <g id="Page-1" transform="translate(130.087855, 53.816609)">
                                <path d="M24.1177638,25.200228 C21.6025571,26.500709 19.1099059,26.4897367 16.5920765,25.2075429 L16.5920765,27.4939651 C17.4691204,27.7160239 18.3545571,27.9083007 19.2190119,28.1695464 C19.9796062,28.3994426 20.7050558,28.4093699 21.4687974,28.1752938 C22.3442677,27.9067332 23.2433426,27.7149789 24.1177638,27.4934426 L24.1177638,25.200228 Z M28.8392186,30.5839789 C28.0025649,29.914145 27.2640016,29.3341796 26.539601,28.738017 C26.3114227,28.5499201 26.1026527,28.5112557 25.809955,28.5864945 C24.1098956,29.0238197 22.4045907,29.4423353 20.6971876,29.8498785 C20.4805494,29.9016052 20.229291,29.8984702 20.0121282,29.8467436 C18.6393866,29.520709 17.250384,29.2406536 15.9101643,28.8111657 C14.9098517,28.4908785 14.1251282,28.5603699 13.387614,29.3519443 C12.9705984,29.7991969 12.4350351,30.1367263 11.8753426,30.5860689 C13.7112599,31.6033595 15.456955,32.570491 17.2110429,33.5423249 C18.0482212,32.7063388 18.8450093,31.907972 19.6449447,31.1122176 C20.196769,30.5641242 20.5629034,30.5860689 21.1147276,31.1430446 C21.9067948,31.9429789 22.7182703,32.723581 23.5344667,33.5256052 C25.2764899,32.5595187 27.0127432,31.5965671 28.8392186,30.5839789 Z M12.7985468,11.8328093 C12.7985468,12.7910585 12.8221514,13.7728197 12.7880558,14.752491 C12.7728439,15.1992211 12.8803762,15.5451104 13.240216,15.8053111 C13.509309,15.9996779 13.5607147,16.2588336 13.5622884,16.5791208 C13.5712057,18.2155637 13.9441592,19.7731104 14.73203,21.2110066 C15.9379654,23.4106952 17.7513271,24.6871415 20.3321023,24.6939339 C22.9312367,24.7007263 24.7629576,23.4310723 25.9783349,21.2104841 C26.7578129,19.7861727 27.1339137,18.2448232 27.1480765,16.6256225 C27.1517483,16.2499512 27.2435442,15.9745983 27.5304718,15.7311173 C27.6878362,15.5973595 27.8882134,15.3972453 27.8934589,15.2216882 C27.9259809,14.085792 27.9102444,12.9488509 27.9102444,11.8385567 C22.8583245,13.9468093 17.8504667,13.9436744 12.7985468,11.8328093 Z M15.089247,27.1339685 C15.089247,26.0858509 15.0934434,25.1328266 15.0829525,24.1803249 C15.0813788,24.0695567 15.0200067,23.9368439 14.9434227,23.8532453 C13.2213323,21.9801138 12.3631721,19.7396709 12.1245028,17.2437298 C12.0877845,16.8581311 11.9792031,16.5498612 11.6681463,16.3231 C11.3728258,16.1073111 11.3098801,15.8215083 11.3130274,15.4672592 C11.3282393,13.5596433 11.3203711,11.6520273 11.3203711,9.70888201 L12.7665494,9.70888201 C12.9506656,10.3489339 13.5019654,10.6462315 14.0773943,10.9074772 C15.2487096,11.4393734 16.5013297,11.6661346 17.7670636,11.7962349 C20.186278,12.0449408 22.600247,12.0052315 24.9780222,11.4435533 C25.6295106,11.2899408 26.264738,11.0428024 26.8810817,10.7789443 C27.3731075,10.5689028 27.8132031,10.255408 27.9369964,9.69059481 L29.3705855,9.69059481 C29.3784537,9.85570208 29.3926165,10.0067021 29.3931411,10.1571796 C29.3947147,11.9414875 29.3868465,13.725273 29.4010093,15.509581 C29.403632,15.8309131 29.3490791,16.0916363 29.0784124,16.2833907 C28.7159499,16.5399339 28.6157612,16.9041104 28.574322,17.3309858 C28.3319809,19.7961 27.4654279,21.9999685 25.7711385,23.8495879 C25.6945545,23.933709 25.6300351,24.0653768 25.6284615,24.1756225 C25.617446,25.1281242 25.6221669,26.0811484 25.6221669,27.015363 C25.6782935,27.0482799 25.7092419,27.0806744 25.7260274,27.0744045 C26.3848594,26.8277886 26.8716398,27.0869443 27.3757302,27.5190446 C28.3870584,28.3863803 29.4623814,29.1789997 30.4831514,30.0358855 C30.6851023,30.2056952 30.7522444,30.5291173 30.901216,30.7699858 C30.9898646,30.912626 31.0911023,31.093408 31.230632,31.150882 C32.1270842,31.5208059 33.0345519,31.8651277 33.9409705,32.209972 C35.4107535,32.7685152 36.8480145,33.3866225 38.1079783,34.3521865 C39.7104718,35.5800412 40.6300041,37.2008093 40.6761643,39.2045637 C40.7422574,42.0975983 40.6929499,44.9927228 40.6929499,47.9238993 L39.2268388,47.9238993 L39.2268388,47.3956606 C39.2268388,44.8443353 39.2121514,42.2935325 39.2305106,39.7427298 C39.2446734,37.7003111 38.3985778,36.1108924 36.6402935,35.107709 C35.4637328,34.4368301 34.1785907,33.9524806 32.9322651,33.4059547 C31.9298543,32.966017 30.9054124,32.5751934 29.9077225,32.1253284 C29.5903711,31.9826882 29.35957,31.9617886 29.0448413,32.1399581 C27.3673375,33.0908924 25.6746217,34.0146571 23.9861023,34.9467817 C23.3340894,35.3067782 23.1625623,35.2843111 22.6317199,34.7508474 C21.892632,34.0083872 21.1582651,33.2607021 20.393999,32.4863699 C20.2345364,32.62901 20.1170377,32.7251484 20.01003,32.8317367 C19.3417561,33.4937332 18.6776786,34.1604322 18.007831,34.8213837 C17.5603917,35.2634114 17.3516217,35.2947609 16.8013711,34.9911934 C15.0850506,34.0449616 13.3676811,33.1013422 11.660278,32.1383907 C11.3686295,31.9738059 11.1462212,31.9774633 10.8383116,32.1086087 C9.41206615,32.7136536 7.95120052,33.2392799 6.54174057,33.8793318 C5.47743307,34.3626363 4.41050284,34.8872176 3.45477674,35.5513042 C2.10826253,36.4870862 1.49978708,37.884228 1.49139432,39.5170135 C1.47828062,42.0213145 1.48667339,44.5250931 1.48614884,47.0288716 L1.48614884,47.9348716 L0.0063994832,47.9348716 L0.0063994832,47.4108128 C0.0063994832,44.9070343 0.0268568475,42.4027332 0.000629457364,39.8994772 C-0.0271715762,37.2619408 1.07857519,35.2649789 3.30213333,33.8573872 C4.79866822,32.9101104 6.44784651,32.3123803 8.10856486,31.7355498 C8.49253385,31.6023145 8.86601189,31.4398197 9.23896537,31.2788924 C9.56680775,31.1383422 9.89937106,31.0202592 9.8526863,30.5312073 C9.83852351,30.3828197 10.0399499,30.1769581 10.1904951,30.0552176 C11.3717767,29.0969685 12.5735158,28.1632765 13.7495519,27.1987574 C14.1697147,26.8539131 14.589353,26.9500516 15.089247,27.1339685 Z" id="Fill-1" fill="#FFFFFF"></path>
                                <path d="M9.28989897,5.09256644 C9.29147261,5.12861834 9.29304625,5.16467024 9.29514444,5.20019965 C9.43939509,5.2519263 9.58259664,5.30574291 9.72789638,5.3543346 C13.0572013,6.4599263 16.3886044,7.55872561 19.7131884,8.67842457 C20.153284,8.82628962 20.5424984,8.83412699 20.9852168,8.68521696 C24.2358395,7.59112007 27.4932814,6.51896782 30.7486251,5.43793322 C30.9768034,5.36217197 31.2013098,5.2759609 31.5275786,5.15840035 C31.2983512,5.06330692 31.1777052,5.0042654 31.0512891,4.9619436 C27.6779222,3.84119965 24.307178,2.71209585 20.9254183,1.61695398 C20.5818395,1.50566332 20.1401703,1.50043841 19.7981651,1.61068408 C16.8334209,2.56893322 13.8807413,3.56427924 10.9249145,4.54865294 C10.3799093,4.72995744 9.83490413,4.91126194 9.28989897,5.09256644 L9.28989897,5.09256644 Z M34.6722426,13.3824142 L33.2045579,13.3824142 L33.2045579,6.18039343 C32.9847724,6.24727232 32.8263589,6.29220657 32.6700437,6.34393322 C28.7443279,7.64441419 24.8170385,8.94123772 20.8949946,10.2542585 C20.5146974,10.3817464 20.1837078,10.3786114 19.8060333,10.252691 C15.5262478,8.8215872 11.2422659,7.40354567 6.95880853,5.98393668 C6.52081111,5.83920657 6.03927623,5.71955606 6.04819354,5.13384325 C6.05711085,4.57843495 6.51923747,4.4603519 6.94359664,4.31980173 C11.1085062,2.94094706 15.276563,1.57097474 19.4330798,0.167040484 C20.0746018,-0.0497934256 20.6264261,-0.0602432526 21.2794881,0.162338062 C25.4323331,1.57619965 29.6019636,2.94094706 33.765824,4.32293668 C34.6014287,4.59985709 34.6722426,4.69756298 34.6722426,5.55653875 L34.6722426,12.8322308 L34.6722426,13.3824142 Z" id="Fill-3" fill="#FFFFFF"></path>
                                <mask id="mask-2" fill="white">
                                    <use xlink:href="#path-1"></use>
                                </mask>
                                <g id="Clip-6"></g>
                                <polygon id="Fill-5" fill="#FFFFFF" mask="url(#mask-2)" points="19.6558553 47.9368048 21.0569225 47.9368048 21.0569225 37.4953377 19.6558553 37.4953377"></polygon>
                                <polygon id="Fill-7" fill="#FFFFFF" mask="url(#mask-2)" points="7.571323 47.9357599 9.0043876 47.9357599 9.0043876 42.0033931 7.571323 42.0033931"></polygon>
                                <polygon id="Fill-8" fill="#FFFFFF" mask="url(#mask-2)" points="31.7131111 47.9415073 33.1362093 47.9415073 33.1362093 42.009663 31.7131111 42.009663"></polygon>
                                <polygon id="Fill-9" fill="#FFFFFF" mask="url(#mask-2)" points="33.2217106 16.3778048 34.6442842 16.3778048 34.6442842 14.9514035 33.2217106 14.9514035"></polygon>
                                <polygon id="Fill-10" fill="#FFFFFF" mask="url(#mask-2)" points="19.6348734 35.9111439 21.0668889 35.9111439 21.0668889 34.4951924 19.6348734 34.4951924"></polygon>
                            </g>
                            <g id="Page-1" transform="translate(62.421189, 53.816609)" fill="#FFFFFF">
                                <g id="Group-3" transform="translate(0.000000, 0.485029)">
                                    <path d="M24.1442535,23.0676796 C21.5944266,24.3676381 19.1112173,24.369728 16.5996824,23.0807419 L16.5996824,24.7124824 C16.8378271,24.8979668 17.1058711,25.0285896 17.2616618,25.2412436 C18.1701786,26.4774581 19.0519434,27.7335273 19.9431501,28.9828042 C20.067468,29.1562713 20.1933594,29.3286934 20.3496747,29.5444824 C20.4897289,29.3621329 20.5956876,29.2320325 20.6932535,29.0956623 C21.588132,27.8489979 22.4809124,26.6007661 23.3768401,25.3546242 C23.4675868,25.2281813 23.5572845,25.0379945 23.6795041,25.0082125 C24.2449667,24.8692298 24.1426798,24.4423543 24.1442535,24.0520533 C24.1453026,23.7558007 24.1442535,23.4595481 24.1442535,23.0676796 M11.8881941,27.3191917 C11.904455,27.3437488 11.9243879,27.3876381 11.9563853,27.41951 C14.0425119,29.5000706 16.1260158,31.5827211 18.2236824,33.6517869 C18.3464266,33.7730048 18.5803749,33.8320464 18.7639667,33.8351813 C19.7842121,33.8534685 20.8055067,33.8325689 21.8257522,33.8524235 C22.1640855,33.8592159 22.4080003,33.7672574 22.6508659,33.5227315 C24.6173956,31.5445792 26.5980881,29.5805343 28.5735351,27.6107419 C28.671101,27.5135585 28.7592251,27.4074927 28.8987548,27.2538803 C27.9608633,26.8719391 27.2081372,26.1566484 26.1233724,26.2956311 C25.7373052,26.3447453 25.3386488,26.3201882 24.9473362,26.2966761 C24.6326075,26.2783889 24.4338039,26.3823647 24.2486385,26.6462228 C23.2126566,28.118081 22.1572664,29.5768768 21.1060726,31.0382851 C20.5962121,31.7462609 20.1083827,31.7394685 19.5958995,31.0252228 C18.5468039,29.5622471 17.5013801,28.0971813 16.4444163,26.6399529 C16.3437031,26.5014927 16.1795196,26.3280256 16.0336953,26.3170533 C14.5618142,26.2083751 13.1135377,26.2407696 11.8881941,27.3191917 M28.6317599,9.6218872 C28.6317599,8.154209 28.7413904,6.80304637 28.6029098,5.47748581 C28.4434473,3.95390104 27.2369873,3.02804637 25.7016359,3.01289412 C25.1047005,3.00714671 24.5030442,2.96168997 23.9124034,3.02073149 C21.9275145,3.21823322 20.0879253,2.86189412 18.4036023,1.75995986 C18.2541062,1.66225398 17.950393,1.68419862 17.7704731,1.76570727 C17.0277134,2.10010173 16.2959693,2.46218824 15.5789124,2.84778685 C15.113114,3.0985827 14.7380623,3.02909135 14.4070726,2.64506021 C14.202499,2.40889412 14.0147109,2.15862076 13.774468,1.85818824 C13.2021863,2.80703253 12.7070132,3.60278685 12.2427884,4.41578339 C12.1263388,4.6206 12.0581475,4.88080069 12.0550003,5.11696678 C12.0371656,6.44618478 12.0450339,7.77592526 12.0476566,9.10566574 C12.0481811,9.24778339 12.0723103,9.38990104 12.0943413,9.63129204 C12.6671475,9.25248581 13.1297987,8.90241661 13.6344137,8.62915363 C13.9486178,8.45934394 14.3247186,8.32349619 14.6766902,8.31513633 C16.0887729,8.28012941 17.5029537,8.31252388 18.9160855,8.28848927 C19.1353465,8.28483183 19.3986695,8.16936125 19.5618039,8.01940623 C20.149822,7.47915017 20.7068917,6.90440969 21.269207,6.33698408 C21.5577083,6.0459564 21.8928943,5.95295294 22.2527341,6.14418478 C24.1736282,7.16461038 26.0882276,8.19705329 28.0033517,9.22845121 C28.1906152,9.32929204 28.3642406,9.45364498 28.6317599,9.6218872 M17.1536049,9.77445467 C16.3993052,9.77445467 15.6450054,9.77184221 14.8907057,9.77654464 C14.7522251,9.77758962 14.5901398,9.76766228 14.4794602,9.83245121 C13.5190132,10.3936069 12.4263801,10.8737765 12.7951372,12.3315273 C12.8323801,12.4788699 12.8140209,12.6450221 12.7972354,12.7996796 C12.7641889,13.1032471 12.847592,13.347773 13.0962276,13.5379599 C13.4628866,13.8190602 13.5546824,14.1973439 13.5688452,14.6519114 C13.6275946,16.5349702 14.1232922,18.2973336 15.2075326,19.8580152 C17.7647031,23.5389668 22.9944447,23.5201571 25.5285351,19.8240533 C26.6127755,18.2419495 27.0827703,16.4633889 27.1666979,14.5651779 C27.178238,14.2997522 27.2233491,13.9350533 27.3969744,13.7965931 C27.8994912,13.3974097 27.9598142,12.9052228 27.9199486,12.3388422 C27.8968685,12.0117626 27.8979176,11.6805031 27.9204731,11.3534235 C27.941455,11.0571709 27.8391682,10.8810913 27.5894835,10.7008318 C25.9376824,9.50850657 24.0676695,8.71954464 22.2616514,7.81406713 C22.1467755,7.75659308 21.8965661,7.8156346 21.7937548,7.91072803 C21.264486,8.40030242 20.7840003,8.94369343 20.2416178,9.41707059 C20.0265532,9.60412249 19.6997599,9.73997024 19.415455,9.75773495 C18.663778,9.80423668 17.9079047,9.77340969 17.1536049,9.77445467 M9.87550413,27.5146035 C9.76115271,26.7407938 9.83458941,26.607036 10.5453517,26.2522644 C10.8543103,26.0981294 11.1611708,25.940337 11.4717031,25.7909045 C12.5942354,25.2516934 13.6485765,24.4679564 15.0874111,24.9308837 C15.0874111,23.8576865 15.0905584,22.9104097 15.0811165,21.9636554 C15.080592,21.8842367 15.0082044,21.7938457 14.9478814,21.7285343 C13.1964163,19.8324131 12.365008,17.5533059 12.0911941,15.0291502 C12.0623439,14.7642471 11.9112742,14.4695619 11.7266333,14.2736277 C11.4344602,13.9648353 11.2928323,13.6466381 11.3143388,13.2244651 C11.338468,12.7563128 11.3022742,12.2850256 11.3264034,11.8163509 C11.3573517,11.2233232 11.3269279,10.6841121 10.78507,10.2739564 C10.636623,10.1610983 10.5789227,9.85544083 10.5768245,9.63703945 C10.5595145,7.97812941 10.560039,6.31921938 10.5736773,4.66030934 C10.5752509,4.45340277 10.6439667,4.22402907 10.7494008,4.04429204 C11.4386566,2.87025398 12.1431243,1.70457578 12.8502147,0.540987543 C13.2231682,-0.072417301 13.7298814,-0.123098962 14.2386928,0.376402768 C14.5712561,0.702959862 14.8796902,1.20925398 15.2657574,1.28135779 C15.6261217,1.34928166 16.0767083,0.953755709 16.4848065,0.756776471 C16.8661527,0.572337024 17.2516953,0.395212457 17.6204525,0.188305882 C17.9755713,-0.0118083045 18.3044628,0.00909134948 18.6380752,0.218610381 C18.7041682,0.260409689 18.7802276,0.286534256 18.8463207,0.328333564 C20.3727548,1.29964498 22.0140649,1.74324014 23.842114,1.55671073 C24.6467703,1.47467958 25.483424,1.50237163 26.2844085,1.62045467 C28.4880339,1.9449218 30.1366876,3.89694948 30.1471786,6.10238547 C30.1529486,7.22939931 30.136163,8.35641315 30.1566204,9.4829045 C30.1644886,9.90768997 30.0532845,10.2525343 29.7180984,10.5148249 C29.4636928,10.7144166 29.3745196,10.9610325 29.3865842,11.2886346 C29.411238,11.9605585 29.4322199,12.6371848 29.3771424,13.3059737 C29.3514395,13.618946 29.2066643,13.9690152 29.0041889,14.2083163 C28.769716,14.4857592 28.627039,14.7454374 28.5918943,15.1090913 C28.3490287,17.60451 27.497163,19.8475654 25.7755972,21.7222644 C25.6984886,21.8063855 25.6318711,21.9370083 25.6302974,22.0467315 C25.6187574,22.952209 25.6240028,23.8576865 25.6240028,24.7767488 C25.7095041,24.7976484 25.7693026,24.8305654 25.8238556,24.8232505 C26.9180623,24.6795654 27.8853284,25.0103024 28.8085326,25.5678007 C29.262791,25.8426311 29.7600623,26.0474478 30.2363517,26.2867488 C30.8757755,26.6075585 30.9623258,26.7805031 30.8301398,27.509901 C31.413437,27.7100152 32.006176,27.905427 32.5926204,28.115991 C34.5822302,28.8312817 36.4879124,29.7017522 38.0909305,31.1187488 C39.7930881,32.6230014 40.6937367,34.5055377 40.7031786,36.7778526 C40.7183904,40.4243197 40.7078995,44.0713093 40.7073749,47.718299 C40.7073749,47.8243647 40.6974085,47.9309529 40.6905894,48.0631433 L39.2281501,48.0631433 L39.2281501,47.3562125 C39.2286747,43.9129945 39.20507,40.4697765 39.2381165,37.0265585 C39.2601475,34.6837073 38.2729486,32.9035792 36.3877238,31.5707038 C34.6740261,30.3590464 32.69753,29.7341467 30.7567031,29.0104962 C29.9037884,28.6917765 29.3865842,28.8020221 28.7508323,29.4776035 C27.0103827,31.3261779 25.1665972,33.0775689 23.3763155,34.880164 C23.0657832,35.1926138 22.7384654,35.333164 22.2936488,35.3258491 C21.005884,35.3039045 19.7165455,35.3049495 18.4287806,35.3253266 C17.9865868,35.332119 17.6571708,35.1983612 17.3445403,34.8838215 C15.377486,32.9035792 13.390499,30.9426692 11.4223956,28.9629495 C11.1915946,28.7309633 10.9975119,28.6703543 10.6885532,28.7905273 C9.09917339,29.4107246 7.46363333,29.9316484 5.92198734,30.652164 C4.97308036,31.0957592 4.09551189,31.7582782 3.30711654,32.4578941 C2.0492509,33.5749806 1.49113204,35.0572886 1.4885093,36.7344858 C1.48326382,40.1933785 1.48746021,43.6522713 1.48746021,47.111164 L1.48746021,48.0641882 L0.00771085271,48.0641882 L0.00771085271,47.4941502 C0.00771085271,44.0352574 0.0307909561,40.5763647 0.000367183462,37.117472 C-0.0237620155,34.3921571 1.07201835,32.2488976 3.22895891,30.6155896 C5.02973152,29.2513647 7.09592532,28.4331433 9.22191757,27.7392747 C9.4427522,27.6671709 9.66148863,27.5882747 9.87550413,27.5146035" id="Fill-1"></path>
                                </g>
                                <polygon id="Fill-4" points="7.57237209 48.5349007 9.00543669 48.5349007 9.00543669 42.6192536 7.57237209 42.6192536"></polygon>
                                <polygon id="Fill-6" points="31.7131111 48.5542329 33.1398811 48.5542329 33.1398811 42.6223886 31.7131111 42.6223886"></polygon>
                            </g>
                            <g id="Page-1" transform="translate(94.943152, 102.408304)">
                                <g id="Group-3" transform="translate(0.000000, 0.485238)">
                                    <mask id="mask-4" fill="white">
                                        <use xlink:href="#path-3"></use>
                                    </mask>
                                    <g id="Clip-2"></g>
                                    <path d="M18.1132127,22.769128 C17.9532256,23.9933253 18.4337114,25.2697716 17.4417915,26.2531003 C17.6600034,26.4166401 17.8640525,26.5373356 18.0282359,26.698263 C18.5989439,27.2568062 19.2021739,27.7918374 19.7067889,28.4062872 C20.3142152,29.1461349 21.0150111,29.4079031 21.9801791,29.3687163 C22.7559853,29.3373668 23.3272178,29.1654671 23.8528147,28.5797543 C24.591378,27.756308 25.419639,27.0133253 26.2405563,26.2055536 C25.2906003,25.2661142 25.7894452,23.9708581 25.6131972,22.771218 C23.1074323,24.4771522 20.6263212,24.4776747 18.1132127,22.769128 L18.1132127,22.769128 Z M21.8076028,18.8337232 C21.9843755,19.4701176 22.1086933,19.5662561 22.7675253,19.567301 C23.882714,19.569391 24.9979026,19.5605087 26.1130912,19.5735709 C26.3690705,19.5767059 26.5269594,19.5072145 26.6140344,19.2611211 C26.884701,18.4967163 27.213068,17.7490311 27.4291817,16.9699965 C28.0098561,14.8774187 27.9238302,12.7257993 27.9133393,10.5841073 C27.9086183,9.5610692 27.3714814,9.02865052 26.3375977,9.02133564 C25.3797734,9.01454325 24.4177527,8.96595156 23.4641248,9.03335294 C22.2634349,9.11851903 21.1776209,8.88392042 20.1463599,8.26058824 C19.5100835,7.8760346 18.8166313,7.58500692 18.0801661,7.21717301 C18.0801661,7.53328028 18.0796416,7.76369896 18.0801661,7.99359516 C18.0812152,8.74702768 17.8887062,8.9570692 17.1312592,9.02708304 C16.3680421,9.09761938 15.8188406,9.61175087 15.8324788,10.3751107 C15.8629026,12.1082145 15.8676235,13.8486332 16.0344297,15.5712872 C16.196515,17.246917 16.7352256,18.8373806 17.6993444,20.2533322 C18.9451455,22.0825744 20.8151584,22.8856436 22.9033832,22.4650381 C23.8402256,22.2758962 24.6359646,21.8223737 25.3677088,21.0402042 C24.3910008,21.0402042 23.5302178,21.050654 22.6699594,21.0381142 C21.4718922,21.020872 20.4112566,19.9863391 20.4091584,18.8337232 L21.8076028,18.8337232 Z M43.7153419,48.0645017 L42.2460835,48.0645017 L42.2460835,47.624564 C42.2455589,44.6191938 42.2088406,41.6138235 42.2555253,38.6094983 C42.2927682,36.1877509 41.3039956,34.3235017 39.3070421,33.0266782 C38.3025331,32.3740865 37.1883935,31.8808547 36.0989078,31.3677682 C34.3710473,30.5537266 32.6190576,29.7908893 30.884378,28.9914775 C30.1867295,28.6701453 29.5126855,28.298654 28.8155615,27.9757543 C28.5973496,27.874391 28.3413703,27.8477439 28.0995537,27.8043772 C27.0955693,27.6230727 26.3375977,27.9788893 25.6986984,28.7735986 C25.2103444,29.3807336 24.6223264,29.9152422 24.0343083,30.4319862 C23.8098018,30.6289654 23.4667475,30.7747405 23.1693289,30.7909377 C22.3080214,30.8379619 21.4398948,30.8410969 20.5785873,30.7898927 C20.268055,30.7716055 19.9061171,30.6195606 19.6779388,30.4089965 C18.8585951,29.6560865 18.0969517,28.841 17.2886235,28.0760727 C17.129161,27.9250727 16.8653134,27.841474 16.6387088,27.8111696 C15.6882282,27.6831592 14.8316416,27.93709 13.9939388,28.4057647 C12.9275331,29.0019273 11.8254581,29.5400934 10.7128922,30.0458651 C9.459223,30.6159031 8.15204987,31.0720381 6.91359251,31.6718581 C5.87498786,32.1750173 4.8384814,32.7272907 3.91422817,33.4107093 C2.27763902,34.6202768 1.47560543,36.301654 1.4829491,38.3545225 C1.49344005,41.2658443 1.48609638,44.1771661 1.48662093,47.0884879 L1.48662093,48.0545744 L0.00687157623,48.0545744 L0.00687157623,47.5592526 C0.00687157623,44.5695571 0.028902584,41.5798616 0.000577002584,38.5906886 C-0.0251258398,35.9019481 1.0638354,33.7858581 3.17618941,32.1562076 C4.62079406,31.0417336 6.27154599,30.3306228 7.95324625,29.6607889 C9.05741938,29.2213737 10.1259233,28.6915675 11.1975744,28.1748235 C12.4265899,27.5828408 13.6414426,26.9615986 14.8615408,26.3513287 C15.0577217,26.2531003 15.2481326,26.1438997 15.4432643,26.0430588 C16.2673289,25.6182734 16.7808612,25.0194983 16.6035641,24.0220623 C16.5820576,23.9008443 16.5935977,23.7717889 16.6019904,23.6469135 C16.6995563,22.166173 16.4928845,20.809263 15.7312411,19.4439931 C14.6658845,17.5348097 14.4057088,15.3565433 14.3448612,13.1803668 C14.3212566,12.3516955 14.3327966,11.5214567 14.3396158,10.692263 C14.3501067,9.3499827 15.0094633,8.40270588 16.1959904,7.83110035 C16.5233083,7.67330796 16.6387088,7.50715571 16.6067114,7.16440138 C16.5778612,6.85404152 16.5977941,6.53897924 16.5993677,6.22600692 C16.6040886,5.40883045 17.1218173,5.09063322 17.8435951,5.45324221 C19.1182463,6.09381661 20.3913238,6.73804844 21.6754168,7.36085813 C21.9041196,7.4716263 22.1795072,7.53484775 22.4344375,7.5379827 C23.7069904,7.5557474 24.9795434,7.54529758 26.2526209,7.54582007 C27.9956933,7.54686505 29.3794504,8.93460208 29.3946623,10.6792007 C29.4145951,12.8715744 29.4334788,15.0644706 28.8291997,17.1998927 C28.6094142,17.9778824 28.3329775,18.7391522 28.0686054,19.5495363 C29.1019646,19.5495363 30.1316519,19.5751384 31.1576674,19.5249792 C31.3375873,19.5160969 31.6176959,19.2062595 31.6496933,19.0035329 C31.72313,18.5348581 31.6732979,18.0468512 31.6732979,17.5844464 C30.9347346,17.7610484 30.2250214,17.9308581 29.4586571,18.1142526 L29.4586571,16.5906678 C30.6777062,16.5086367 31.7619465,16.0958685 32.5057553,15.0467059 C33.0633496,14.2598339 33.2553341,13.3715986 33.1855693,12.4206644 C33.0439413,10.4869239 31.7136881,9.25541176 29.4528871,8.98789619 L29.4528871,7.52857785 C29.9312747,7.59441176 30.3981222,7.65815571 30.867068,7.72242215 C30.7841894,4.32361592 27.7769568,1.67562976 24.8667656,1.59986851 C24.8667656,1.81565744 24.8777811,2.03144637 24.8641429,2.24566782 C24.8284736,2.80995848 24.3957217,3.11770588 23.8528147,2.94319377 C22.704055,2.57379239 21.5474271,2.22163322 20.4196494,1.79475779 C19.6013548,1.48439792 18.8119103,1.49119031 17.979453,1.68242215 C15.1704995,2.32926644 13.0922411,4.67055017 12.8310163,7.51917301 C12.8257708,7.57716955 12.8425563,7.63725606 12.8525227,7.7250346 C13.3314349,7.65763322 13.7888406,7.59284429 14.2808664,7.52335294 L14.2808664,8.99677855 C13.1032566,9.06365744 12.070422,9.44768858 11.3239904,10.3986228 C10.7281041,11.1583253 10.5093677,12.0361107 10.5366442,12.9917474 C10.5932953,14.9860969 11.8653238,16.2259689 14.2840137,16.6068651 L14.2840137,17.9862422 C12.5335977,18.1978512 10.2843367,16.6638166 9.46394393,14.7347785 C8.53759251,12.5559896 9.22107829,9.98689965 11.467192,8.42151557 C11.4152618,8.18743945 11.3281868,7.99882007 11.3392023,7.8159481 C11.5411532,4.34033564 14.1371403,1.19964014 17.5472256,0.319242215 C18.0759698,0.182871972 18.6246468,0.0966608997 19.1696519,0.0564290657 C19.4995925,0.0323944637 19.8520886,0.0992733564 20.1720628,0.19750173 C21.2295512,0.524581315 22.2770731,0.884055363 23.3592152,1.24143945 C23.3723289,1.09461938 23.3833444,1.00318339 23.3885899,0.911747405 C23.4226855,0.273262976 23.6933522,0.0114948097 24.3448406,0.0391868512 C26.4571946,0.128532872 28.2826209,0.911224913 29.8048587,2.36427336 C31.3396855,3.8293391 32.2072876,5.62670934 32.3856339,7.74175433 C32.4024194,7.94186851 32.3384245,8.14877509 32.3017062,8.42987543 C32.5875848,8.69843599 33.0198121,9.04066782 33.374931,9.44873356 C35.0791868,11.4049412 35.0996442,14.070692 33.4415486,16.0592941 C33.2406468,16.3001626 33.111608,16.5112491 33.1472773,16.8660208 C33.2091739,17.4856955 33.1724556,18.1163426 33.1624891,18.7422872 C33.1425563,19.9899965 32.0897889,21.0281869 30.828776,21.0386367 C29.6202178,21.0480415 28.4121842,21.0407266 27.1632359,21.0407266 C27.1511713,21.2000865 27.1328121,21.3343668 27.1322876,21.4686471 C27.1296649,22.4859377 27.1495977,23.5037509 27.1217966,24.520519 C27.1092075,24.9761315 27.2760137,25.3100035 27.6159207,25.5743841 C27.8503935,25.7562111 28.0890628,25.9437855 28.3529103,26.0759758 C30.5948276,27.1998547 32.832024,28.3341834 35.0938742,29.417308 C36.2085382,29.9512941 37.3950654,30.3358478 38.5071067,30.8734913 C39.8441791,31.5203356 41.034378,32.3897612 42.0016442,33.5350623 C43.0706726,34.8015813 43.6786235,36.2713495 43.7011791,37.9135398 C43.7478638,41.2773391 43.7153419,44.6427059 43.7153419,48.0645017 L43.7153419,48.0645017 Z" id="Fill-1" fill="#FFFFFF" mask="url(#mask-4)"></path>
                                </g>
                                <mask id="mask-6" fill="white">
                                    <use xlink:href="#path-5"></use>
                                </mask>
                                <g id="Clip-5"></g>
                                <polygon id="Fill-4" fill="#FFFFFF" mask="url(#mask-6)" points="25.6760904 40.2860163 31.6323307 40.2860163 31.6323307 38.8585699 25.6760904 38.8585699"></polygon>
                                <polygon id="Fill-6" fill="#FFFFFF" mask="url(#mask-6)" points="7.57237209 48.5486945 9.00491214 48.5486945 9.00491214 42.6163277 7.57237209 42.6163277"></polygon>
                                <polygon id="Fill-7" fill="#FFFFFF" mask="url(#mask-6)" points="34.7371292 48.5544419 36.1481628 48.5544419 36.1481628 42.6273 34.7371292 42.6273"></polygon>
                                <polygon id="Fill-8" fill="#FFFFFF" mask="url(#mask-6)" points="21.1649793 34.2757983 22.565522 34.2757983 22.565522 32.8640266 21.1649793 32.8640266"></polygon>
                                <polygon id="Fill-9" fill="#FFFFFF" mask="url(#mask-6)" points="21.1487183 37.2644488 22.5807339 37.2644488 22.5807339 35.8547671 21.1487183 35.8547671"></polygon>
                                <polygon id="Fill-10" fill="#FFFFFF" mask="url(#mask-6)" points="21.1508165 40.2849713 22.582832 40.2849713 22.582832 38.8601374 21.1508165 38.8601374"></polygon>
                                <polygon id="Fill-11" fill="#FFFFFF" mask="url(#mask-6)" points="21.1476693 43.2872066 22.5786357 43.2872066 22.5786357 41.8681201 21.1476693 41.8681201"></polygon>
                                <polygon id="Fill-12" fill="#FFFFFF" mask="url(#mask-6)" points="21.1529147 46.2930993 22.5786357 46.2930993 22.5786357 44.8666979 21.1529147 44.8666979"></polygon>
                            </g>
                            <g id="Page-1" transform="translate(31.997416, 102.930796)">
                                <g id="Group-3" transform="translate(0.000000, 14.082500)">
                                    <mask id="mask-8" fill="white">
                                        <use xlink:href="#path-7"></use>
                                    </mask>
                                    <g id="Clip-2"></g>
                                    <path d="M25.6577313,11.1969374 C24.4177003,11.8746087 23.1865866,12.1928059 21.879938,12.1954183 C20.5601757,12.1980308 19.3185711,11.8672938 18.0885065,11.2026848 C18.0885065,11.8955083 18.0680491,12.5005533 18.099522,13.1029858 C18.1105375,13.3145948 18.1997106,13.5606882 18.3355685,13.7221381 C19.3935814,14.9792522 20.4720517,16.2191242 21.5416047,17.4668336 C21.6407442,17.5828266 21.7183773,17.7171069 21.7834212,17.8101104 C21.9150827,17.7484564 21.9512765,17.742709 21.9691111,17.7218093 C23.1572119,16.3492246 24.3447881,14.9761173 25.5271189,13.5983076 C25.5932119,13.5215014 25.6503876,13.4070758 25.6519612,13.3093699 C25.6629767,12.639536 25.6577313,11.9702246 25.6577313,11.1969374 L25.6577313,11.1969374 Z M30.9095039,33.9618855 L29.4308036,33.9618855 L29.4308036,33.4278993 C29.4308036,28.0441484 29.4271318,22.6603976 29.4397209,17.2761242 C29.4402455,16.899408 29.324845,16.7055637 28.9865116,16.5268716 C28.0879612,16.052972 27.2187855,15.5247332 26.2782713,14.9839547 C26.033832,15.2666225 25.7285452,15.6161692 25.4258811,15.9678059 C24.4743514,17.0723526 23.5254444,18.1795118 22.5723411,19.282491 C22.077168,19.855664 21.6653979,19.8572315 21.1749457,19.2882384 C19.926522,17.8409374 18.6812455,16.3905014 17.4737364,14.9870896 C16.4550646,15.5654875 15.4594729,16.1151484 14.4869612,16.7024287 C14.3673643,16.7745325 14.3233023,17.046228 14.3227778,17.2254426 C14.3133359,20.4967609 14.3154341,23.7675567 14.3159587,27.0388751 C14.3159587,29.1669824 14.3164832,31.2956121 14.3170078,33.4242419 L14.3170078,33.9577055 L12.8409302,33.9577055 L12.8409302,17.4313042 C11.8390439,17.7845083 10.8938088,18.104273 9.96378553,18.4642696 C9.86044961,18.5039789 9.79802842,18.7704495 9.79750388,18.9318993 C9.78858656,22.1248439 9.7912093,25.3177886 9.79173385,28.5102107 L9.79173385,33.9467332 L8.3340155,33.9467332 L8.3340155,19.1236536 C8.22490956,19.1299235 8.16406202,19.1194737 8.11475452,19.1382834 C6.57101034,19.7318336 5.0870646,20.4392869 3.78723514,21.4774772 C2.64057364,22.392882 1.77769251,23.4989962 1.54741602,24.9959339 C1.50964858,25.2420273 1.49810853,25.4938682 1.49758398,25.7430965 C1.4933876,28.1533491 1.49443669,30.5636017 1.49443669,32.9738543 L1.49443669,33.9477782 L0.0146873385,33.9477782 L0.0146873385,33.4676087 C0.0146873385,31.0573561 0.0592739018,28.6460585 0.00209819121,26.2373734 C-0.0540284238,23.8396606 0.921630491,21.9764564 2.73761499,20.4863111 C4.3464031,19.1664979 6.20330233,18.2970723 8.12996641,17.5614045 C10.282186,16.7400481 12.4475194,15.9531761 14.5923953,15.114055 C15.1562842,14.8935637 15.6708656,14.5445394 16.1980362,14.2373145 C16.5064703,14.0581 16.6244935,13.7822246 16.6166253,13.4102107 C16.5940698,12.3934426 16.6145271,11.3761519 16.6024625,10.3588612 C16.6008889,10.2000239 16.5662687,9.99886471 16.4666047,9.89018651 C14.6841912,7.95069862 13.8470129,5.62561211 13.5994264,3.04920727 C13.5821163,2.86685779 13.4876977,2.64479896 13.3528889,2.53037336 C12.9295788,2.16985433 12.7795581,1.736709 12.8304393,1.19749792 C12.859814,0.889750519 12.8356848,0.577300692 12.8356848,0.236113841 L14.2892067,0.236113841 C14.298124,0.344792042 14.324876,0.451380277 14.3128114,0.55326609 C14.248292,1.09665709 14.3778553,1.53502734 14.8137545,1.92428339 C14.9968217,2.08730069 15.0508501,2.45565709 15.0644884,2.73518997 C15.1678243,4.85075744 15.729615,6.8043526 17.0808501,8.4773699 C19.5215711,11.4999824 24.2220439,11.5005048 26.6659121,8.4773699 C27.9956408,6.83204464 28.5784134,4.90875398 28.6607674,2.82714844 C28.6796512,2.35533875 28.7940026,1.99481972 29.1349587,1.65990277 C29.2991421,1.49897543 29.3704806,1.21630761 29.4213618,0.9754391 C29.4680465,0.751812803 29.4313282,0.510421799 29.4313282,0.241861246 L30.9089793,0.241861246 C30.8434109,1.07105502 31.1943333,1.98280242 30.2963075,2.6306917 C30.1872016,2.7090654 30.1546796,2.9326917 30.1394677,3.09414152 C29.9186331,5.4025083 29.2330491,7.54524533 27.7202532,9.33843564 C27.2659948,9.87712422 27.0907959,10.3917782 27.1290879,11.0626571 C27.1710517,11.8113872 27.1726253,12.5663872 27.1285633,13.3151173 C27.0986641,13.8120066 27.294845,14.1385637 27.7003204,14.3459927 C28.5500879,14.781228 29.3904134,15.2483353 30.2763747,15.596837 C32.5655013,16.4976121 34.8929199,17.3017263 37.1741783,18.2197436 C38.8118165,18.8786052 40.3198915,19.7840827 41.6024109,21.0202972 C43.0281318,22.394972 43.7624987,24.0502246 43.7388941,26.048754 C43.7105685,28.5060308 43.7320749,30.9633076 43.7320749,33.4205844 L43.7320749,33.9561381 L42.2764548,33.9561381 C42.2685866,33.7941657 42.2549483,33.6426433 42.2549483,33.4905983 C42.2533747,31.0489962 42.2119354,28.6068716 42.2675375,26.1663145 C42.3089767,24.3339374 41.6081809,22.8876813 40.2496021,21.7173007 C38.8537804,20.5145256 37.2119457,19.7511657 35.4478915,19.0614772 L35.4478915,33.9556156 L33.9566021,33.9556156 L33.9566021,33.445664 C33.9566021,28.6565083 33.9492584,23.8673526 33.9691912,19.0781969 C33.9707649,18.617882 33.8249406,18.4303076 33.3974341,18.3007298 C32.5780904,18.0525464 31.7786796,17.7390516 30.9095039,17.4307817 L30.9095039,33.9618855 Z" id="Fill-1" fill="#FFFFFF" mask="url(#mask-8)"></path>
                                </g>
                                <path d="M12.0790245,9.7728872 C12.2175052,4.90483529 15.573562,1.00443737 20.3726499,0.135011765 C24.0985129,-0.54056955 28.143301,1.36809135 30.2367713,4.78936471 C31.1730891,6.31921938 31.6362649,7.9849218 31.6687868,9.7728872 L31.6866214,9.75877993 L30.1774974,9.75877993 C30.1774974,9.55135087 30.1853656,9.42647543 30.1764483,9.30264498 C29.9508928,6.27062768 28.5566447,3.96382837 25.8777791,2.4642782 C25.2530426,2.11473149 24.5816214,2.33208789 24.2920711,2.99303945 C24.1777196,3.2553301 24.132084,3.56568997 24.1294612,3.85515017 C24.1147739,5.65461038 24.121593,7.45407059 24.121593,9.2535308 C24.1210685,9.40505329 24.121593,9.55709827 24.121593,9.7242955 L22.6413191,9.7242955 L22.6413191,9.23942353 C22.6418437,7.65940969 22.6748902,6.07782837 22.6313527,4.49833702 C22.6030271,3.47268651 22.7761279,2.5426519 23.462761,1.74689758 C23.4753501,1.73279031 23.4548928,1.690991 23.4444018,1.62881453 C22.3890116,1.43392526 21.3309987,1.42034048 20.2472829,1.6486692 C21.0414483,3.0081917 21.1022959,3.15448927 21.103345,3.83477301 C21.1059677,5.64990796 21.1043941,7.46504291 21.1043941,9.28017785 L21.1043941,9.71489066 L19.6550685,9.71489066 C19.6414302,9.64644429 19.6304147,9.61613979 19.6298902,9.58583529 C19.627792,8.58421938 19.6256938,7.58260346 19.6246447,6.58151003 C19.6241202,5.62691834 19.6367093,4.67232664 19.622022,3.71773495 C19.6041873,2.51757232 18.6872778,1.9872436 17.6617868,2.57556886 C16.1447946,3.44603945 15.0269832,4.67598408 14.3015336,6.26540277 C13.8016395,7.36106713 13.5834276,8.51681799 13.5425129,9.75877993 L12.0606654,9.75877993 L12.0790245,9.7728872 Z" id="Fill-4" fill="#FFFFFF"></path>
                                <path d="M31.6687344,9.7727827 L33.157401,9.7727827 C33.1511065,10.4467965 32.8835871,10.9928 32.4156904,11.3569765 C31.7432202,11.8810353 31.028786,12.3831495 30.2624217,12.7488934 C28.679861,13.5038934 26.9640651,13.8346304 25.2330574,14.0498969 C22.299786,14.4140734 19.3770057,14.3226374 16.4846491,13.6977377 C14.7462977,13.3220664 13.0514837,12.8131599 11.6388765,11.6589765 C11.0639721,11.1892567 10.6485302,10.6202637 10.5855845,9.7727827 L12.0789721,9.7727827 L12.0606129,9.75867543 C12.0737266,10.3485682 12.4550729,10.7268519 12.9082822,10.9692879 C13.6075044,11.3433917 14.3303313,11.719063 15.0893519,11.927537 C19.1545974,13.0430561 23.2639049,13.0409661 27.3847525,12.2598415 C28.5891142,12.0309903 29.7625276,11.6845785 30.8016568,11.0042948 C31.2517189,10.7090872 31.6655871,10.3668554 31.686569,9.75867543 L31.6687344,9.7727827 Z" id="Fill-6" fill="#FFFFFF"></path>
                                <mask id="mask-10" fill="white">
                                    <use xlink:href="#path-9"></use>
                                </mask>
                                <g id="Clip-9"></g>
                                <polygon id="Fill-8" fill="#FFFFFF" mask="url(#mask-10)" points="15.8785866 37.5261647 27.8681757 37.5261647 27.8681757 36.0992408 15.8785866 36.0992408"></polygon>
                                <polygon id="Fill-10" fill="#FFFFFF" mask="url(#mask-10)" points="15.8775375 42.0342201 27.8676512 42.0342201 27.8676512 40.6072962 15.8775375 40.6072962"></polygon>
                                <polygon id="Fill-11" fill="#FFFFFF" mask="url(#mask-10)" points="15.878062 46.5422754 27.8687003 46.5422754 27.8687003 45.1148291 15.878062 45.1148291"></polygon>
                            </g>
                            <g id="Page-1" transform="translate(93.894057, 0.000000)">
                                <g id="Group-3" transform="translate(0.000000, 9.363724)" fill="#FFFFFF">
                                    <path d="M25.6532726,2.4039827 C24.7001693,2.40137024 24.1247403,2.96775087 24.121593,3.91032526 C24.1189703,4.85969204 24.6833837,5.4297301 25.6349134,5.43756747 C26.5806731,5.44540484 27.1692158,4.86648443 27.1676421,3.93017993 C27.1660685,2.97715571 26.6000814,2.40659516 25.6532726,2.4039827 M18.1270607,5.43756747 C19.0450194,5.43443253 19.6225465,4.85812457 19.6246447,3.94219723 C19.6272674,2.96879585 19.0507894,2.39614533 18.075655,2.4039827 C17.1346163,2.41129758 16.5717765,2.99126298 16.5791202,3.94533218 C16.5864638,4.88268166 17.1655646,5.44122491 18.1270607,5.43756747 M25.0725982,18.4334948 C22.903593,19.0850415 20.8489393,19.0787716 18.827332,18.4841765 C19.8591176,19.5176644 20.8819858,20.5417474 21.9394742,21.6013599 C22.8458928,20.6974498 23.7748669,19.7721176 24.7022674,18.845218 C24.7993088,18.7480346 24.8863837,18.6409239 25.0725982,18.4334948 M14.3665775,4.70137716 C14.0948618,6.855609 16.0115594,10.3876505 17.8385594,11.0616644 C18.1747946,10.3981003 18.5288643,9.73819377 18.8446421,9.06052249 C19.0486912,8.62267474 19.3471589,8.43092042 19.836562,8.4377128 C21.2024845,8.456 22.568407,8.45234256 23.9343295,8.43823529 C24.4211098,8.43353287 24.7127584,8.63469204 24.9136602,9.07619723 C25.2268152,9.76379585 25.5898023,10.4284048 25.9328566,11.1060761 C28.0336705,9.86202422 29.6865207,6.75006574 29.3786111,4.70398962 C28.631655,4.59165398 28.631655,4.59165398 28.3053863,5.20610381 C27.1833786,7.32010381 24.3891124,7.50820069 23.1816034,5.46734948 C22.7462287,4.73168166 22.2867248,4.56552941 21.5644225,4.6569654 C21.548686,4.65905536 21.5324251,4.65957785 21.5172132,4.6569654 C21.1652416,4.60314879 20.9774535,4.72802422 20.8122209,5.07600346 C20.2902959,6.17375779 19.4038101,6.86031142 18.1685,6.89531834 C16.9473527,6.92980277 16.0173295,6.30124567 15.4812416,5.23327336 C15.2179186,4.70816955 14.9210245,4.55246713 14.3665775,4.70137716 M29.4011667,9.69587197 C28.4742907,10.9937405 27.4367351,11.9812491 26.1751977,12.7237093 C25.5814096,13.0732561 25.2215698,12.9661453 24.9131357,12.3616228 C24.5511977,11.6510346 24.2133889,10.9279066 23.8283708,10.2303806 C23.7460168,10.0814706 23.5083966,9.9356955 23.3379186,9.93047059 C22.3811434,9.90225606 21.4227946,9.93256055 20.4654948,9.90904844 C20.1444716,9.90121107 19.9934018,10.0182491 19.8627894,10.295692 C19.5244561,11.0167301 19.1609444,11.7267958 18.7916628,12.4332042 C18.5278152,12.9379308 18.1422726,13.0664637 17.663885,12.7702111 C17.1461563,12.4488789 16.6242313,12.1144844 16.1762674,11.7074637 C15.5347455,11.1248858 14.958792,10.4707266 14.3686757,9.86202422 C13.9647739,11.8307716 14.9524974,14.3695571 16.6950452,15.7870761 C19.4578385,18.0348339 24.2883992,18.0510311 27.0422752,15.7881211 C28.92173,14.2441592 29.5821357,12.1965156 29.4011667,9.69587197 M16.4820788,17.3712699 C16.1364018,17.0849446 15.8227222,16.8519135 15.5394664,16.5859654 C13.7701667,14.9260104 12.8343734,12.897699 12.8354225,10.4597543 C12.8364716,7.25165744 12.8354225,4.04303806 12.8354225,0.834418685 L12.8354225,0.206384083 L14.3062545,0.206384083 L14.3062545,3.10098616 C15.0421951,3.28751557 15.1035672,3.24832872 15.4282623,2.66052595 C16.0168049,1.59673356 16.9032907,0.923242215 18.1475181,0.947276817 C19.4074819,0.97183391 20.2950168,1.6730173 20.8253346,2.78958131 C20.9701098,3.09471626 21.1227532,3.23840138 21.4511202,3.18510727 C21.4815439,3.18040484 21.5140659,3.18144983 21.5450142,3.18510727 C22.2809548,3.26818339 22.7483269,3.10882353 23.2031098,2.35330104 C24.4226835,0.328647059 27.2258669,0.512041522 28.280208,2.63231142 C28.5545465,3.18510727 28.8656034,3.26870588 29.4106085,3.1349481 L29.4106085,1.71951903 L30.9097661,1.71951903 L30.9097661,2.19759862 C30.9097661,4.93649827 30.9087171,7.67539792 30.9097661,10.4142976 C30.9113398,13.1500623 29.7840866,15.3361661 27.665438,17.0415779 C27.5453165,17.1382388 27.4230969,17.2322872 27.2589134,17.3613426 C27.862668,18.1638893 28.4412442,18.9565087 29.0523424,19.723526 C29.1645956,19.8645986 29.4022158,19.9173702 29.5915775,19.9837266 C31.8555258,20.7732111 34.1388824,21.5114913 36.3807997,22.3584498 C38.2670736,23.0706055 40.0337506,24.0267647 41.5213682,25.4239066 C43.0173786,26.8294083 43.7701047,28.5342976 43.7412545,30.6054533 C43.7040116,33.2811315 43.7323372,35.9578547 43.7323372,38.6345779 L43.7323372,39.1821488 L42.253637,39.1821488 L42.253637,38.6946644 C42.253637,36.0341384 42.2064276,33.3725675 42.2693734,30.7130865 C42.315009,28.7866609 41.5696266,27.2923356 40.1213501,26.0874706 C38.9662959,25.126609 37.6454845,24.4583426 36.2103217,23.8480727 L36.2103217,39.1811038 L34.7111641,39.1811038 L34.7111641,38.6507751 C34.7111641,33.6891972 34.7059186,28.7281419 34.7206059,23.766564 C34.721655,23.373128 34.6188437,23.163609 34.2270065,23.072173 C33.8954922,22.9948443 33.5765672,22.8610865 33.1967946,22.7335986 L33.1967946,39.1795363 L31.6923915,39.1795363 L31.6923915,38.5614291 C31.692916,33.2874014 31.6887196,28.0128512 31.703407,22.7388235 C31.7044561,22.3427751 31.5911537,22.1656505 31.2071848,22.0533149 C30.3500736,21.802519 29.5013553,21.5182837 28.6657506,21.2042664 C28.3908876,21.1008131 28.1196964,20.9012215 27.9292855,20.6765502 C27.484469,20.1530138 27.090009,19.5876782 26.5512984,18.8755225 C26.4332752,19.0782491 26.3729522,19.2538062 26.2554535,19.3724118 C25.0285362,20.6070588 23.7942752,21.834391 22.5584406,23.0606782 C22.0438592,23.5716747 21.7102468,23.5748097 21.1977636,23.0669481 C19.9729444,21.8532007 18.7502235,20.6357958 17.5337972,19.4126436 C17.4031848,19.2809758 17.3203062,19.1017612 17.1818256,18.8943322 C16.6541305,19.5913356 16.248655,20.1676436 15.7964948,20.7052872 C15.6160504,20.9195087 15.354301,21.1049931 15.0920271,21.2037439 C14.301009,21.501564 13.5021227,21.7931142 12.6843527,22.0036782 C12.1477403,22.1416159 12.0381098,22.4023391 12.040208,22.919083 C12.0611899,28.1460865 12.0527972,33.3736125 12.0527972,38.6006159 L12.0527972,39.1868512 L10.5887842,39.1868512 L10.5887842,22.7174014 C10.0726292,22.8976609 9.61364987,23.0293287 9.18666796,23.2278754 C9.08280749,23.2759446 9.04241731,23.5460727 9.04189276,23.7137924 C9.03507364,27.9240277 9.03664729,32.1337405 9.03717183,36.3439758 L9.03717183,39.1858062 L7.57420801,39.1858062 L7.57420801,23.9400311 C7.49080491,23.9248789 7.44097287,23.8992768 7.4084509,23.9128616 C5.83690568,24.5706782 4.33827261,25.3491903 3.11083075,26.5598028 C2.02029587,27.63509 1.46689793,28.9188512 1.48473256,30.470128 C1.51568088,33.130654 1.49417442,35.7917024 1.49469897,38.4522284 L1.49469897,39.1842388 L0.0149496124,39.1842388 L0.0149496124,38.6894394 C0.0149496124,36.028391 0.0579625323,33.3668201 0.00183591731,30.7073391 C-0.0485206718,28.328436 0.9135,26.4746367 2.71007623,24.9907612 C4.31466796,23.6657232 6.16107623,22.7659931 8.09928036,22.0606298 C10.1020039,21.3317543 12.1351512,20.687 14.1446938,19.9779792 C14.4331951,19.8760934 14.7190736,19.6623945 14.9152545,19.4251834 C15.4534406,18.7752042 15.9433682,18.0849931 16.4820788,17.3712699" id="Fill-1"></path>
                                </g>
                                <g id="Group-6" transform="translate(11.015504, 0.481371)">
                                    <mask id="mask-12" fill="white">
                                        <use xlink:href="#path-11"></use>
                                    </mask>
                                    <g id="Clip-5"></g>
                                    <path d="M18.3659922,7.94207751 C18.3932687,7.84071419 18.4084806,7.81093218 18.4084806,7.78115017 C18.4116279,6.49791142 18.4163488,5.21519516 18.4152997,3.93247889 C18.4137261,2.37075225 17.5581886,1.51856886 16.0034289,1.51909135 C11.4330439,1.52013633 6.86265891,1.51961384 2.29174935,1.51961384 L1.85060465,1.51961384 C1.67593023,1.91879723 1.89781395,2.14451349 2.1364832,2.31589066 C3.12473127,3.02700138 3.47827649,3.9685308 3.31251938,5.16294602 C3.23908269,5.69379723 3.30045478,6.24293564 3.30045478,6.77535433 C4.34010853,6.86574533 4.34010853,6.86574533 4.75817313,6.03602907 C4.80013695,5.95243045 4.84210078,5.86830934 4.88773643,5.7862782 C5.17309044,5.27371419 5.61790698,5.16608097 6.10416279,5.49368304 C6.6507416,5.86099446 7.18578036,6.24607059 7.74652196,6.5898699 C7.94637468,6.71213287 8.20602584,6.79573149 8.43944961,6.79782145 C10.7007752,6.8129737 12.9626253,6.80356886 15.2244755,6.81454118 C15.4495065,6.81558616 15.6850284,6.87776263 15.8974703,6.95927128 C16.7136667,7.2722436 17.5219948,7.60402561 18.3659922,7.94207751 M5.80517054,7.07996678 C5.59377778,8.37208789 4.69942377,8.34282837 3.77884238,8.28430934 C3.41900258,8.26131972 3.05654005,8.28587682 2.69512661,8.27908443 C2.10605943,8.2686346 1.8280491,7.99746159 1.82385271,7.41540623 C1.81703359,6.44566228 1.83958915,5.47487336 1.80864083,4.5056519 C1.80077261,4.27105329 1.63658915,4.03958962 1.53535142,3.81073841 C1.51174677,3.75744429 1.45037468,3.7203474 1.40631266,3.67593564 C0.23394832,2.50346505 0.23394832,2.50346505 0.313679587,0.852914879 C0.338857881,0.333035986 0.616868217,0.0493231834 1.15085788,0.048800692 C6.17707494,0.0451432526 11.203292,0.0299910035 16.2289845,0.0561155709 C18.1446331,0.0660429066 19.8572817,1.81168651 19.8871809,3.72609481 C19.9144574,5.44665882 19.8992455,7.16774533 19.8924264,8.88830934 C19.8892791,9.62920208 19.421907,9.94060692 18.7368475,9.67100138 C17.7160775,9.26868304 16.7026512,8.84912249 15.6771602,8.45934394 C15.4070181,8.35693564 15.104354,8.29110173 14.8163773,8.28901176 C12.6489457,8.2749045 10.4815142,8.27072457 8.31408269,8.28848927 C7.83569509,8.2926692 7.4275969,8.19496332 7.04520155,7.90445813 C6.68536176,7.63067266 6.293,7.40129896 5.80517054,7.07996678" id="Fill-4" fill="#FFFFFF" mask="url(#mask-12)"></path>
                                </g>
                                <path d="M16.6015183,36.5664003 C17.0793814,36.5664003 17.5656372,36.7022481 17.9107897,36.5397533 C18.7637044,36.1379574 19.5515752,35.5992689 20.4364873,35.0741651 C19.6947767,34.6279574 19.0181101,34.2658709 18.3912755,33.8322031 C17.810601,33.4298848 17.2089447,33.5861097 16.6015183,33.5704349 L16.6015183,36.5664003 Z M27.142831,33.6111893 C26.30303,33.4335422 25.6085287,33.598127 24.9580894,34.0709817 C24.4608181,34.4325457 23.9063711,34.7162585 23.3131075,35.0731201 C24.0013142,35.4864107 24.6339189,35.8072204 25.1978078,36.2205111 C25.8047096,36.6656737 26.4509525,36.5993173 27.142831,36.5705803 L27.142831,33.6111893 Z M15.1002625,35.0375907 C15.1002625,34.3489471 15.0960661,33.6603035 15.1013116,32.9721824 C15.1060326,32.3545976 15.3730274,32.0933519 15.9930429,32.0823796 C16.0087793,32.0823796 16.0245158,32.0844696 16.0402522,32.0823796 C17.6096992,31.8681581 19.0013245,32.2715215 20.2518465,33.237608 C20.6463065,33.5416979 21.1152522,33.7486045 21.5343659,34.0229125 C21.7803788,34.1838398 21.9776088,34.1660751 22.2220481,34.0155976 C23.1436786,33.449217 24.0668827,32.8833588 25.0115933,32.3577325 C25.2969473,32.1988952 25.6515416,32.1163415 25.9809576,32.0943969 C26.5904822,32.0531201 27.2057767,32.0745422 27.817924,32.084992 C28.3498155,32.0943969 28.6393659,32.3723623 28.6430377,32.8979886 C28.6524796,34.353127 28.6530041,35.8087879 28.6425132,37.2639263 C28.6393659,37.765518 28.3513891,38.0497533 27.8488724,38.0591581 C27.1423065,38.0722204 26.4341669,38.0800578 25.7286501,38.0523657 C25.5067664,38.0434834 25.2707199,37.9468225 25.074539,37.8334419 C24.1654977,37.3067706 23.2538336,36.7821893 22.3731178,36.2111062 C21.995968,35.9660578 21.7211049,35.9900924 21.3575933,36.2215561 C20.4989085,36.7696495 19.6234382,37.2937083 18.731707,37.7869401 C18.4458284,37.9447325 18.0917587,38.0283311 17.7623426,38.0513208 C17.1685545,38.0925976 16.5695209,38.068563 15.9725855,38.0612481 C15.3840429,38.0539332 15.1081307,37.7806702 15.1018362,37.1970474 C15.0944925,36.4770543 15.1002625,35.7575837 15.1002625,35.0375907 L15.1002625,35.0375907 Z" id="Fill-7" fill="#FFFFFF"></path>
                                <mask id="mask-14" fill="white">
                                    <use xlink:href="#path-13"></use>
                                </mask>
                                <g id="Clip-10"></g>
                                <polygon id="Fill-9" fill="#FFFFFF" mask="url(#mask-14)" points="21.1738966 39.5261048 22.5733902 39.5261048 22.5733902 38.1159007 21.1738966 38.1159007"></polygon>
                                <polygon id="Fill-11" fill="#FFFFFF" mask="url(#mask-14)" points="21.1707494 42.5508073 22.5760129 42.5508073 22.5760129 41.1343332 21.1707494 41.1343332"></polygon>
                                <polygon id="Fill-12" fill="#FFFFFF" mask="url(#mask-14)" points="21.1508165 45.5462502 22.5823075 45.5462502 22.5823075 44.1329111 21.1508165 44.1329111"></polygon>
                            </g>
                            <g id="Page-1" transform="translate(0.000000, 54.339100)">
                                <path d="M25.6141413,25.7205249 C23.1151956,27.1521512 20.6272654,27.1505837 18.1340897,25.7231374 C18.0181646,27.1949955 16.7907227,27.8042204 15.8423403,28.736345 C16.1423817,29.0028156 16.3857718,29.2995907 16.6973532,29.4772377 C17.1416452,29.7311685 17.6210819,29.9495699 18.1120587,30.0916875 C20.0712447,30.6591131 22.076591,30.7385318 24.0761672,30.4124972 C25.0219269,30.2578398 25.9440819,29.9182204 26.8520742,29.5927083 C27.2822034,29.4385734 27.6614514,29.1292585 27.8272085,28.6590163 C26.9213145,27.7937706 25.7269191,27.1824557 25.6141413,25.7205249 Z M28.2856633,19.22021 C28.1450845,19.1622135 28.0344049,19.1094419 27.9195289,19.0707775 C26.0327305,18.4427429 24.1485548,17.8068709 22.2549372,17.2013035 C22.0083997,17.1224073 21.6910483,17.1365145 21.4413636,17.2164557 C19.6673429,17.7844038 17.9022395,18.3795215 16.1345134,18.9673242 C15.9152525,19.040473 15.6991388,19.1209367 15.4541749,19.2071478 C15.9189243,20.9282343 16.6134256,22.4889159 17.9116814,23.6974384 C20.0555083,25.6944003 23.0359889,25.8882446 25.2621698,24.1875353 C26.9029553,22.9340785 27.7532473,21.186345 28.2856633,19.22021 Z M43.7320225,48.5591443 L42.2533222,48.5591443 L42.2533222,48.0617325 C42.2533222,45.04121 42.2386349,42.0206875 42.2590922,39.0001651 C42.2690587,37.5387567 41.7460845,36.317172 40.7421,35.2815941 C39.4936762,33.9941754 37.9494075,33.1513969 36.3049501,32.51239 C33.922454,31.5870578 31.5394333,30.6721754 29.2922705,29.4427533 C29.2398158,29.4140163 29.1737227,29.4093138 29.1118261,29.3931166 C27.9195289,30.8999817 26.2346814,31.4485976 24.4527925,31.7991893 C22.2544127,32.2318121 20.0749165,32.1194765 17.9347615,31.4721097 C16.6585367,31.0865111 15.4709605,30.5248329 14.6621078,29.4040889 C14.5965393,29.4119263 14.5435599,29.4040889 14.5057925,29.4249886 C12.1274928,30.7453242 9.56769948,31.6492343 7.05826279,32.6722723 C5.70283127,33.2245457 4.43604832,33.9497637 3.34446434,34.9445872 C2.09604057,36.0830958 1.45504315,37.4598606 1.48127054,39.1788571 C1.52480801,42.0421097 1.49438424,44.9069298 1.49490879,47.7707048 L1.49490879,48.5476495 L0.0146348837,48.5476495 L0.0146348837,48.0481478 C0.0146348837,45.1373484 0.056598708,42.2255042 0.00152118863,39.3157498 C-0.0435899225,36.918037 0.926823514,35.0537879 2.74647984,33.56939 C4.47066848,32.1628433 6.45555736,31.2197464 8.54011034,30.5086356 C10.6314824,29.7949125 12.5445083,28.7232827 14.5157589,27.7650336 C14.8095057,27.6229159 15.0822705,27.4280266 15.3424463,27.2294799 C16.9743145,25.9817706 16.546808,26.4598502 16.6018855,24.6044834 C16.6055574,24.478563 16.5483817,24.323383 16.4670767,24.2256772 C14.7323972,22.1435491 13.8873506,19.7113519 13.6276995,17.0534384 C13.5951775,16.7195664 13.5149217,16.4520509 13.2463532,16.2446218 C12.9221827,15.9943484 12.8204204,15.6604765 12.8303868,15.2529332 C12.8518933,14.3772377 12.8372059,13.5010197 12.8372059,12.5861374 L14.3159062,12.5861374 C14.3159062,13.275826 14.3353145,13.9890266 14.3075134,14.7001374 C14.2933506,15.0742412 14.4244876,15.3276495 14.6631568,15.6108398 C14.8745496,15.8616356 14.9857537,16.2237221 15.0591904,16.5544592 C15.1389217,16.9139332 15.1237098,17.2943069 15.153609,17.7227498 C15.3676245,17.6626633 15.5270871,17.6245215 15.6828778,17.5733173 C17.5864618,16.9411028 19.4848003,16.291646 21.3978261,15.6881685 C21.7094075,15.5894176 22.1096375,15.6113623 22.4259398,15.7122031 C24.4554152,16.3590474 26.4733506,17.0435111 28.5773119,17.7426045 C28.611932,17.321999 28.6743532,16.9421478 28.666485,16.563864 C28.6580922,16.1557983 28.7692964,15.8234938 29.0918933,15.5742654 C29.363609,15.3642239 29.4517331,15.1040232 29.4386194,14.7597014 C29.4118674,14.0433657 29.4307512,13.3249401 29.4307512,12.577255 L30.8947641,12.577255 C30.8947641,13.6081304 30.905255,14.634826 30.8837486,15.660999 C30.8806013,15.809909 30.7589062,15.9980059 30.6351129,16.0957118 C30.2296375,16.4154765 30.1289243,16.8324246 30.0785677,17.3204315 C29.8152447,19.8660093 28.951839,22.1764661 27.3225935,24.1854453 C27.1856866,24.3547325 27.1872602,24.6410578 27.1395264,24.8756564 C26.9260354,25.925864 27.3839656,26.6401097 28.2783196,27.1448363 C28.8773532,27.4834107 29.4559295,27.8585595 30.0607331,28.1866841 C32.0886349,29.2870509 34.2188235,30.154909 36.3778623,30.9668606 C38.042777,31.5922827 39.6038313,32.4319263 40.9902111,33.5646875 C42.8235057,35.0631927 43.7949682,36.9384142 43.7456607,39.3538917 C43.6874359,42.2322965 43.7320225,45.1127913 43.7320225,47.9922412 L43.7320225,48.5591443 Z" id="Fill-1" fill="#FFFFFF"></path>
                                <g id="Group-5" transform="translate(12.064599, 0.493859)">
                                    <mask id="mask-16" fill="white">
                                        <use xlink:href="#path-15"></use>
                                    </mask>
                                    <g id="Clip-4"></g>
                                    <path d="M9.78995039,9.0476692 C12.3193199,9.0476692 14.8481649,9.0481917 17.3775344,9.04714671 C17.9928289,9.04714671 18.1019349,8.93794602 18.015909,8.32192872 C17.8029426,6.78946159 17.598369,5.25542699 17.3450124,3.72975225 C17.1047695,2.28663114 16.2943432,1.50811903 15.0952269,1.50655156 C11.5760357,1.50184913 8.05736899,1.50707405 4.53817778,1.50341661 C3.74138966,1.50237163 3.12871783,1.83833356 2.76100982,2.52645467 C2.53597881,2.9475827 2.34504341,3.41312249 2.26426305,3.88022976 C2.00985736,5.35835779 1.80738191,6.84536817 1.60018553,8.33081107 C1.51573333,8.93690104 1.6306093,9.04714671 2.24957571,9.04714671 C4.76268424,9.0481917 7.27631731,9.0476692 9.78995039,9.0476692 L9.78995039,9.0476692 Z M9.81040775,10.5221398 C7.15672041,10.5221398 4.50355762,10.5226623 1.84987028,10.5221398 C0.803921964,10.5216173 -0.0547627907,9.55135087 0.0910614987,8.53562768 C0.315567959,6.97442353 0.534304393,5.41217439 0.764580879,3.85149273 C0.909356072,2.86973149 1.31063514,1.99560346 1.96107442,1.24530588 C2.65505116,0.444326644 3.54153695,0.0331259516 4.60951628,0.0326034602 C8.09513643,0.0315584775 11.5807566,0.0221536332 15.0663767,0.036783391 C16.528816,0.0430532872 17.5312269,0.823132872 18.2503819,2.03426782 C18.7953871,2.95176263 18.876692,3.98734048 19.0272372,5.00515363 C19.2124026,6.25652042 19.4064853,7.50736471 19.5470641,8.7639564 C19.5774879,9.03617439 19.4626119,9.37683875 19.3015757,9.60725744 C18.8137463,10.3063509 18.1543897,10.570209 17.2516429,10.5446069 C14.77263,10.4745931 12.2909943,10.5205723 9.81040775,10.5205723 L9.81040775,10.5221398 Z" id="Fill-3" fill="#FFFFFF" mask="url(#mask-16)"></path>
                                </g>
                                <mask id="mask-18" fill="white">
                                    <use xlink:href="#path-17"></use>
                                </mask>
                                <g id="Clip-7"></g>
                                <polygon id="Fill-6" fill="#FFFFFF" mask="url(#mask-18)" points="25.6970724 41.7816478 31.6422972 41.7816478 31.6422972 40.3818934 25.6970724 40.3818934"></polygon>
                                <polygon id="Fill-8" fill="#FFFFFF" mask="url(#mask-18)" points="7.58863307 48.563063 9.0043876 48.563063 9.0043876 44.1349488 7.58863307 44.1349488"></polygon>
                                <polygon id="Fill-9" fill="#FFFFFF" mask="url(#mask-18)" points="34.7339819 48.5552256 36.166522 48.5552256 36.166522 44.1255439 34.7339819 44.1255439"></polygon>
                                <polygon id="Fill-10" fill="#FFFFFF" mask="url(#mask-18)" points="21.1540687 6.51348166 19.6559602 6.51348166 19.6559602 5.05311834 21.1110558 5.05311834 21.1110558 3.56088304 22.5934279 3.56088304 22.5934279 5.01131903 24.0904873 5.01131903 24.0904873 6.48735709 22.6364408 6.48735709 22.6364408 7.9785474 21.1540687 7.9785474"></polygon>
                            </g>
                            <g id="Page-1" transform="translate(34.620155, 0.000000)">
                                <g id="Group-3" transform="translate(0.000000, 7.848761)" fill="#FFFFFF">
                                    <path d="M24.8836036,1.70734498 C23.927353,1.70786747 23.3613659,2.26745571 23.3582186,3.2163 C23.3550713,4.16409931 23.9257793,4.73779481 24.8725881,4.73936228 C25.8172987,4.74145225 26.4011204,4.16409931 26.4021695,3.22622734 C26.4037432,2.27947301 25.830937,1.70682249 24.8836036,1.70734498 M17.3285416,4.73936228 C18.2737767,4.74197474 18.858123,4.16514429 18.8596966,3.22779481 C18.8612703,2.28104048 18.2895132,1.70734498 17.3427044,1.70734498 C16.3854047,1.70734498 15.818893,2.26641073 15.8157457,3.21473253 C15.8120739,4.16305433 16.3817328,4.73727232 17.3285416,4.73936228 M17.3217225,15.5037291 C17.3217225,16.0596599 17.3133297,16.5257221 17.3243452,16.9917844 C17.3358853,17.5012135 17.1738,18.1846322 17.4381721,18.4735699 C17.7324434,18.7949021 18.4164537,18.7964696 18.940477,18.8685734 C20.805769,19.1251166 22.6642419,19.0822723 24.5001592,18.6303173 C24.6423116,18.5947879 24.8699654,18.4646875 24.8725881,18.3727291 C24.9003891,17.4437394 24.8898982,16.5137048 24.8898982,15.5084315 C22.3558078,17.1208398 19.878893,17.1291997 17.3217225,15.5037291 M27.5252264,18.8194592 C23.213968,21.0666945 18.9761463,21.0729644 14.6947871,18.8142343 C14.6622651,18.8842481 14.6019421,19.009646 14.5458155,19.1371339 C14.1933194,19.9381131 14.2845907,20.3017671 15.0425623,20.765217 C15.439645,21.0081754 15.873446,21.214037 16.3166889,21.3556322 C18.6792522,22.1080197 21.1010894,22.152954 23.5397121,21.8734211 C24.7131256,21.7391408 25.8786708,21.5186495 26.91203,20.9203969 C27.8740506,20.3634211 28.179862,20.0311166 27.609154,18.9835215 C27.5724357,18.9155976 27.5383401,18.8455837 27.5252264,18.8194592 M13.5329137,3.86157682 C13.6619525,4.39974291 13.2973917,4.98650069 13.8119731,5.42434844 C14.2064331,5.7592654 14.3008517,6.16733114 14.3228827,6.66840035 C14.4214977,8.96213737 15.111278,11.0630751 16.5574563,12.8740301 C17.6574331,14.2518398 19.044862,15.1698571 20.8681902,15.2482308 C22.8908465,15.3349644 24.4356398,14.3986599 25.6510171,12.879255 C27.1407328,11.0165734 27.8137276,8.8518917 27.9186372,6.4897083 C27.9307018,6.21331038 27.9962703,5.83084671 28.1835339,5.68925156 C28.8664951,5.17459758 28.6215313,4.50476367 28.6598233,3.87672907 C28.0618388,3.85373945 27.751831,4.07266332 27.4727716,4.59045225 C26.3659757,6.64332076 23.6393762,6.78387093 22.4402599,4.79161142 C21.9728879,4.01414429 21.4834848,3.87254913 20.7354796,3.96032768 C20.7202677,3.96241765 20.7040067,3.96241765 20.6887948,3.96032768 C20.3667225,3.91278097 20.2067354,4.03608893 20.0609111,4.35115121 C19.5489525,5.4572654 18.6671876,6.14434152 17.4318775,6.19554567 C16.2054848,6.24622734 15.2618233,5.62185017 14.7325545,4.55596782 C14.4650351,4.01780173 14.1235545,3.88456644 13.5329137,3.86157682 M1.48300155,40.7510336 L0.00377674419,40.7510336 L0.00377674419,40.2588467 C0.00377674419,37.223172 0.0158413437,34.1869747 0.000104909561,31.1507775 C-0.0161560724,28.0471789 1.26478966,25.6275215 3.90431421,24.0046633 C5.05674574,23.2961651 6.34818243,22.8128606 7.5735261,22.2214003 C9.12566305,21.4731927 10.6778,20.7249851 12.2215442,19.9595353 C12.3925468,19.8748917 12.5284047,19.6941097 12.6459034,19.5331824 C13.2328724,18.7280232 13.5507483,17.8251581 13.5927121,16.7953277 L14.9439473,16.7953277 C15.1915339,17.1448744 15.4333504,17.4860612 15.6751669,17.8277706 L15.8021075,17.772909 C15.8157457,17.6595284 15.8383013,17.5456253 15.8414486,17.4317221 C15.8472186,17.1971235 15.8430222,16.9625249 15.8430222,16.7279263 C15.8424977,15.960909 15.9951411,15.1520924 15.7973866,14.4394142 C15.6085494,13.7580855 15.0467587,13.1817775 14.6638388,12.5511304 C13.6136941,10.8227291 13.0282987,8.94594014 12.8378879,6.93591592 C12.8142832,6.68564256 12.6710817,6.40140727 12.4932599,6.22114775 C12.181154,5.90504048 12.054738,5.57012353 12.0631307,5.13175329 C12.0841127,4.02250415 12.0699499,2.91325502 12.0699499,1.76952145 L13.4961953,1.76952145 C13.5607147,1.92313391 13.6016295,2.11227578 13.7075881,2.25334844 C13.9682884,2.60080519 14.3858284,2.53706125 14.5736165,2.14780519 C15.127539,0.999891696 16.0145494,0.257953979 17.3159525,0.2506391 C18.6383375,0.24280173 19.5500016,0.983171972 20.0929085,2.15773253 C20.2140791,2.42002318 20.3546579,2.51825156 20.6221773,2.48637958 C20.6992858,2.47697474 20.7795416,2.47906471 20.8576992,2.48742457 C21.5438078,2.56109585 21.9807561,2.42420311 22.4003943,1.70577751 C23.603707,-0.355973356 26.379614,-0.195568512 27.5336191,1.9053692 C27.6568879,2.13004048 27.6159731,2.5459436 28.0791488,2.47854221 C28.4998362,2.41688824 28.6414641,2.13160796 28.6881488,1.75907163 L30.1400972,1.75907163 C30.1400972,3.03081557 30.1532109,4.27852491 30.1264589,5.52571176 C30.1222625,5.71589862 29.9753891,5.94683979 29.8248439,6.08164256 C29.5122134,6.36065294 29.3737328,6.67676021 29.3364899,7.09266332 C29.106738,9.67063564 28.1767147,11.9711651 26.5306837,13.9801443 C26.4640661,14.0611304 26.3838103,14.1656287 26.3827612,14.2591547 C26.3727948,15.4248329 26.3764667,16.5905111 26.3764667,17.7561893 C26.4262987,17.7791789 26.4761307,17.8021685 26.5259628,17.8256806 C26.7719757,17.4933761 27.0174641,17.1610716 27.3049163,16.7728606 L28.5501928,16.7728606 C28.6755597,17.2958744 28.761061,17.8173208 28.9273426,18.3126426 C29.2347276,19.2301374 29.7514072,19.9459505 30.7150016,20.3519263 C32.4596475,21.0870716 34.159707,21.9277602 35.8901902,22.6984349 C37.5975933,23.4591824 39.1995623,24.3630924 40.4233323,25.8145734 C41.5458646,27.1453588 42.1517173,28.704473 42.1795183,30.4203346 C42.2340713,33.8457879 42.1957793,37.2728087 42.1957793,40.7358813 L40.7338646,40.7358813 L40.7338646,40.2081651 C40.7333401,37.1411408 40.7207509,34.0735941 40.7354382,31.0065699 C40.7480274,28.3810509 39.6323142,26.3992412 37.3683659,25.0721131 C36.7347121,24.7006218 36.0826992,24.3291304 35.3934434,24.0887844 C33.2952522,23.356774 31.3717354,22.2626772 29.3800274,21.3091304 C29.2247612,21.2349367 29.0715933,21.155518 28.94203,21.0912516 C26.3056527,23.2778779 23.1861669,23.5788329 19.9675416,23.4361927 C19.0490584,23.3959609 18.1279525,23.2230163 17.2273039,23.024992 C15.7716837,22.7052273 14.4031385,22.1733311 13.3320119,21.0646045 C12.6747535,21.3890716 12.0358543,21.7239886 11.3812186,22.0238986 C9.91615659,22.696345 8.42801447,23.3212446 6.97763979,24.0239955 C5.95214884,24.5203623 4.91144599,25.0261339 3.98666822,25.6808156 C2.31545891,26.864781 1.52391628,28.5816875 1.49768889,30.6042516 C1.4583478,33.6550785 1.48457519,36.707473 1.48300155,39.7588225 L1.48300155,40.7510336" id="Fill-1"></path>
                                </g>
                                <g id="Group-6" transform="translate(12.589147, 0.011390)">
                                    <mask id="mask-20" fill="white">
                                        <use xlink:href="#path-19"></use>
                                    </mask>
                                    <g id="Clip-5"></g>
                                    <path d="M1.72030698,8.76876332 L0.290389664,8.76876332 C-0.0479436693,5.48699516 0.882604134,2.66554187 4.49306667,1.29191211 C7.41951886,0.178483045 10.378493,0.235957093 13.226263,1.59077716 C15.6024646,2.72144844 16.7617152,4.68392595 16.7994827,7.3026526 C16.8057773,7.7556526 16.7958109,8.20969758 16.7910899,8.66269758 C16.7905654,8.69038962 16.7680098,8.71703668 16.7454543,8.76667336 L15.3223561,8.76667336 L15.3223561,7.58218547 C15.321307,4.63167682 13.9936765,2.94193979 11.0897798,2.29979792 C9.03145426,1.84418547 6.96840775,1.87292249 4.96515969,2.58978062 C2.86801757,3.3400782 1.7743354,4.8981474 1.72240517,7.1088083 C1.70929147,7.65219931 1.72030698,8.1961128 1.72030698,8.76876332" id="Fill-4" fill="#FFFFFF" mask="url(#mask-20)"></path>
                                </g>
                                <mask id="mask-22" fill="white">
                                    <use xlink:href="#path-21"></use>
                                </mask>
                                <g id="Clip-8"></g>
                                <polygon id="Fill-7" fill="#FFFFFF" mask="url(#mask-22)" points="7.57289664 48.593681 8.99809302 48.593681 8.99809302 42.6607917 7.57289664 42.6607917"></polygon>
                                <polygon id="Fill-9" fill="#FFFFFF" mask="url(#mask-22)" points="33.2248579 48.6030858 34.636416 48.6030858 34.636416 42.6759439 33.2248579 42.6759439"></polygon>
                                <path d="M18.7851059,18.5524661 L17.3877106,18.5524661 C17.3966279,17.4322446 18.412677,16.3846495 19.5525194,16.3527775 C20.5885013,16.3240405 21.6260568,16.3250855 22.6620388,16.3527775 C23.7997829,16.383082 24.8126848,17.4259747 24.8289457,18.5514211 L23.4677442,18.5514211 C23.1545891,17.8194107 23.1519664,17.8188882 22.2864625,17.8194107 C21.4382687,17.8199332 20.5900749,17.8173208 19.7418811,17.8183657 C19.0793773,17.8199332 18.9639767,17.9087567 18.7851059,18.5524661" id="Fill-10" fill="#FFFFFF" mask="url(#mask-22)"></path>
                            </g>
                            <g id="Page-1" transform="translate(160.511628, 102.408304)">
                                <g id="Group-3" transform="translate(0.000000, 0.485185)">
                                    <mask id="mask-24" fill="white">
                                        <use xlink:href="#path-23"></use>
                                    </mask>
                                    <g id="Clip-2"></g>
                                    <path d="M13.5816966,12.0529349 C13.4453142,12.7969626 13.810924,13.3095266 14.1938439,13.8090284 C14.4666088,14.1643225 14.8248749,14.3404021 15.2938207,14.3195024 C15.857185,14.2939003 16.4226475,14.313755 16.987061,14.3132325 C18.112216,14.31271 19.0212574,13.1888311 18.7993736,12.0529349 L13.5816966,12.0529349 Z M23.3986088,12.0299453 C23.3131075,12.8189073 23.7432367,13.7567792 24.3637767,14.1314055 C24.5405494,14.2379938 24.7708258,14.2980803 24.9790713,14.3048727 C25.6211178,14.3268173 26.264738,14.3163675 26.907309,14.3121875 C27.9422419,14.3059176 28.8664951,13.0660457 28.5848129,12.0299453 L24.0343607,12.0299453 L23.3986088,12.0299453 Z M15.1322599,15.7861356 C15.3368336,17.5965682 15.7617173,19.2607031 16.8968388,20.6583675 C18.8591721,23.07489 22.7072548,23.2640318 24.9339602,21.080018 C25.8346088,20.1959626 26.3523375,19.1029107 26.6780817,17.9142429 C26.8642961,17.2344817 26.9728775,16.5338208 27.1276191,15.7866581 C26.4278724,15.7866581 25.8477225,15.7584436 25.2712444,15.7924055 C24.1560558,15.8587619 23.2438672,15.4193467 22.737154,14.4866997 C22.2692574,13.6266789 21.6644537,13.4516443 20.7821643,13.5091183 C20.2901385,13.5409903 20.0116036,13.6543709 19.7640171,14.0974436 C19.1219705,15.248492 18.1688672,15.9146685 16.7683245,15.7934505 C16.2563659,15.7490388 15.736539,15.7861356 15.1322599,15.7861356 L15.1322599,15.7861356 Z M21.8328336,12.0450976 C22.1926734,10.9050215 22.6747328,10.5554747 23.8366062,10.5565197 C25.1395829,10.5580872 26.4430842,10.5606997 27.746061,10.5512948 C27.8861152,10.5502498 28.1190145,10.5042706 28.1494382,10.4211945 C28.3461437,9.88093841 28.6236295,9.32866505 28.6435623,8.77221176 C28.7044098,7.03858547 28.6881488,5.30077924 28.651955,3.56506298 C28.6273013,2.41349204 27.7544537,1.53727405 26.6009731,1.52630173 C23.7117638,1.49756471 20.8225545,1.50644706 17.9338698,1.52107682 C17.2084202,1.52473426 16.6880687,2.02580346 16.5821101,2.72489689 C16.4347121,3.69516332 16.3576036,3.76047474 15.3520455,3.76517716 C15.2418904,3.76569965 15.1317354,3.76517716 15.0221049,3.76831211 C14.1099163,3.7933917 13.569632,4.32999031 13.5565183,5.24644014 C13.5449783,6.07563391 13.5837948,6.90587266 13.5434047,7.73297647 C13.5019654,8.57784498 13.6540842,9.37255433 13.947831,10.1583813 C14.0564124,10.4488865 14.1828284,10.5711495 14.5143426,10.5659246 C15.895477,10.5445024 17.2776605,10.5549522 18.6593194,10.5575647 C19.4241101,10.5591322 20.0147509,10.9781702 20.2707302,11.6908484 C20.3121695,11.805274 20.3483633,11.9212671 20.389278,12.0450976 L21.8328336,12.0450976 Z M1.48509974,48.0693087 L0.0053503876,48.0693087 L0.0053503876,47.5823467 C0.0053503876,43.7634574 -0.0130087855,39.9445682 0.0189886305,36.1262014 C0.0263322997,35.2578208 0.130192765,34.3732429 0.3248,33.5273294 C0.691983463,31.9326858 1.61046667,30.6457896 3.0230739,29.8327931 C4.23792661,29.1336997 5.55191886,28.5997135 6.84125736,28.0380353 C8.36244599,27.3755163 9.90514109,26.7615889 11.511831,26.0964574 C11.2668672,25.8393917 11.0670145,25.6309176 10.8682109,25.4203536 C10.430738,24.9574263 10.4590636,24.5148761 10.9731204,24.1611495 C11.670769,23.6815024 12.3442884,23.1464713 13.0964899,22.7723675 C13.7012935,22.4719349 14.4041876,22.3606443 15.0703633,22.1934471 C15.9243271,21.9787031 16.1000506,21.9896754 15.4863297,21.110845 C14.3837302,19.5323986 13.8864589,17.7308484 13.6808362,15.8430872 C13.6420196,15.4851806 13.541831,15.2160976 13.2884744,14.9365647 C12.5997432,14.1763398 11.966614,13.3508035 12.0872599,12.2405093 C12.1286992,11.8580457 12.3469111,11.4959592 12.4691307,11.1197654 C12.521061,10.9604055 12.609185,10.7561114 12.5530584,10.6275785 C11.7552212,8.80878616 12.0809654,6.89385536 12.1134873,5.02176886 C12.1376165,3.64866159 13.4164641,2.48298339 14.820154,2.31212872 C15.0819034,2.28025675 15.220384,2.21390035 15.3394563,1.95787958 C15.9217044,0.707557785 16.9057561,0.0398138408 18.3099705,0.0392913495 C20.9494951,0.0372013841 23.5895442,0.0361564014 26.2290687,0.0392913495 C28.421154,0.0419038062 30.1484899,1.76508028 30.1469163,3.93916678 C30.1458672,5.47267889 30.1899292,7.00828097 30.1248853,8.53918062 C30.0976088,9.1928173 29.858415,9.84070657 29.6847897,10.4828484 C29.611353,10.7545439 29.5809292,10.9520457 29.7949447,11.1997066 C30.2990351,11.7817619 30.2880196,12.5169073 30.0262703,13.1512118 C29.7519318,13.8152983 29.2588568,14.3889938 28.876986,15.0118035 C28.7453245,15.2265474 28.5905829,15.462191 28.563831,15.701492 C28.3319809,17.7689903 27.7733375,19.7142256 26.522291,21.4196374 C26.2353633,21.8104609 26.3051282,21.9750457 26.7772212,22.0941737 C27.0358233,22.1589626 27.2907535,22.2540561 27.5535519,22.2838381 C29.0721178,22.4557377 30.1589809,23.4557862 31.351278,24.2452706 C31.7588517,24.5148761 31.7667199,24.9720561 31.4147483,25.3445924 C31.2017819,25.5697862 30.9368853,25.7458657 30.6027483,26.0201737 C30.9374098,26.1701287 31.1120842,26.2542498 31.2914796,26.3273986 C33.1336915,27.0782187 34.9780016,27.8243363 36.8186398,28.5793363 C37.2388026,28.7517585 37.6500481,28.9461253 38.0602444,29.1420595 C40.7579938,30.4331356 42.1585364,32.58789 42.1931566,35.5514609 C42.241415,39.6666028 42.2094176,43.7833121 42.2104667,47.899499 C42.2104667,47.9439107 42.1936811,47.9883225 42.1795183,48.0619938 L40.7585183,48.0619938 C40.7506501,47.9052464 40.7359628,47.7537239 40.7359628,47.6027239 C40.7349137,43.7838346 40.7427819,39.9649453 40.7280946,36.1465785 C40.7259964,35.5086166 40.6682961,34.8654298 40.5681075,34.2353052 C40.3283891,32.73471 39.5027509,31.6066512 38.1924305,30.8579211 C37.5152393,30.4712775 36.7934615,30.1536028 36.0716837,29.8526478 C34.0616165,29.0140491 32.036862,28.2109799 30.028893,27.3687239 C29.6800687,27.2224263 29.4702496,27.2626581 29.216893,27.5322637 C28.8229576,27.9507792 28.3833866,28.325928 27.9632238,28.719364 C27.9852548,28.7616858 28.0072858,28.8045301 28.0298413,28.8468519 C28.9635364,29.0056893 29.8972315,29.1655716 30.8314512,29.3228415 C31.5878491,29.4503294 31.8113065,29.8463779 31.5070687,30.5553986 C30.1080997,33.8167896 28.7017871,37.0745232 27.3112109,40.3390491 C27.1989576,40.6023848 27.1386346,40.9080422 27.1365364,41.1943675 C27.1218491,43.3073225 27.1286682,45.4202775 27.1286682,47.53271 L27.1286682,48.0651287 L25.649968,48.0651287 L25.649968,47.5468173 C25.649968,45.3711633 25.6389525,43.1955093 25.6609835,41.0203779 C25.6646553,40.6436616 25.7512057,40.2434332 25.8991282,39.895454 C27.1444047,36.9600976 28.4138103,34.0346685 29.6742987,31.1050595 C29.7288517,30.9780941 29.7692419,30.8453813 29.8390067,30.651537 C29.0689705,30.5172567 28.3346036,30.3882014 27.6002367,30.262281 C27.213645,30.1959246 26.8275778,30.1243433 26.4388879,30.0757516 C26.0806217,30.0308173 25.7422884,29.8897446 25.7108155,29.5292256 C25.6877354,29.2606651 25.8005132,28.900146 25.9856786,28.7073467 C27.1270946,27.5212913 28.3068026,26.3718104 29.4723478,25.2087446 C29.5494563,25.1324609 29.6181721,25.0478173 29.6989525,24.9574263 C28.7857147,24.0571737 27.6401023,23.7368865 26.3743685,23.5393848 C26.3743685,24.1083779 26.3507638,24.6674436 26.3817121,25.2238969 C26.407415,25.6868242 26.2474279,26.0290561 25.9111928,26.3394159 C25.4160196,26.7965958 24.9628103,27.29871 24.4697354,27.7579799 C24.2106088,27.9998934 24.1046501,28.2522567 24.1051747,28.6132983 C24.1167147,34.7954159 24.1130429,40.9770111 24.1130429,47.1591287 L24.1130429,48.0661737 L22.6332935,48.0661737 L22.6332935,47.5442048 C22.6322444,41.0966616 22.6359163,34.6485958 22.6233271,28.2005301 C22.622278,27.7255855 22.7319085,27.3478242 23.104862,27.0432118 C23.2984202,26.8854194 23.4631282,26.6920976 23.6404253,26.514973 C25.058278,25.1032014 25.058278,25.1032014 24.8615726,23.010101 C23.6939292,23.7222567 22.4365881,24.0550837 21.0974176,24.0488138 C19.774508,24.0430664 18.5250351,23.7358415 17.3253943,22.9777066 C17.3253943,23.7541287 17.3128052,24.4370249 17.3358853,25.1188761 C17.3406062,25.2489765 17.4643995,25.3942291 17.5672109,25.4992498 C18.1153633,26.059883 18.6955132,26.5907343 19.2174382,27.1738346 C19.4073245,27.3864886 19.5699344,27.7146131 19.5709835,27.9904886 C19.5903917,34.5791045 19.5861953,41.1682429 19.5856708,47.7568588 C19.5856708,47.8488173 19.5757044,47.9402533 19.5688853,48.0614713 L18.1305752,48.0614713 C18.1221824,47.9068138 18.1080196,47.7552913 18.1080196,47.6042913 C18.1069705,41.2816235 18.1048724,34.9589557 18.1137897,28.6357654 C18.1143142,28.2836062 18.0351075,28.0192256 17.7660145,27.7736547 C17.2682186,27.3190872 16.8192057,26.8122706 16.3229835,26.3566581 C15.9731101,26.035326 15.8047302,25.6831668 15.8367276,25.2009073 C15.8718724,24.6580388 15.8445959,24.1109903 15.8445959,23.5367723 C14.5914512,23.737409 13.4453142,24.0488138 12.5158155,24.9657862 C12.641707,25.097454 12.7660248,25.2327792 12.8961127,25.3623571 C13.9950403,26.4585439 15.1086553,27.541146 16.1829292,28.6613675 C16.3817328,28.868274 16.5301798,29.2324505 16.5112961,29.5119834 C16.4866424,29.8913121 16.1241798,30.0203675 15.7501773,30.0788865 C14.6381359,30.2523536 13.530291,30.4514228 12.3568775,30.651537 C12.631216,31.2952464 12.8793271,31.8825266 13.1316346,32.4682394 C14.2074822,34.9662706 15.2911979,37.4616893 16.3534072,39.9654678 C16.4829705,40.2721702 16.5569318,40.6253744 16.5595545,40.9582014 C16.5779137,43.1490076 16.5695209,45.3403363 16.5695209,47.5311426 C16.5700455,47.6999073 16.5695209,47.868672 16.5695209,48.0646062 L15.0887225,48.0646062 L15.0887225,47.0786651 C15.089247,45.091108 15.0944925,43.1030284 15.083477,41.1154713 C15.0819034,40.8740803 15.0320713,40.6159696 14.9376527,40.3944332 C13.5607147,37.1748415 12.1727612,33.9599522 10.7874305,30.744018 C10.7501876,30.6578069 10.7118956,30.5715958 10.6778,30.4843398 C10.4286398,29.8557827 10.6594408,29.445627 11.325092,29.3327689 C12.2776708,29.1707965 13.2302496,29.0098692 14.3081953,28.8275197 C13.7427328,28.2752464 13.2643452,27.7861945 12.7550093,27.331627 C12.6710817,27.2563882 12.432937,27.2919176 12.2955054,27.3478242 C11.3953814,27.7146131 10.5083711,28.1127516 9.60772248,28.477973 C8.21399897,29.0427862 6.81240724,29.5887896 5.41448734,30.1447204 C5.23981292,30.2142118 5.07038398,30.2957204 4.89780775,30.3714817 C2.54730904,31.4044471 1.47670698,33.2352567 1.48300155,35.7583675 C1.49244341,39.5459073 1.48509974,43.3334471 1.48509974,47.1209869 L1.48509974,48.0693087 L1.48509974,48.0693087 Z" id="Fill-1" fill="#FFFFFF" mask="url(#mask-24)"></path>
                                </g>
                                <mask id="mask-26" fill="white">
                                    <use xlink:href="#path-25"></use>
                                </mask>
                                <g id="Clip-5"></g>
                                <polygon id="Fill-4" fill="#FFFFFF" mask="url(#mask-26)" points="7.58653488 48.5538671 8.98707752 48.5538671 8.98707752 42.6204554 7.58653488 42.6204554"></polygon>
                                <polygon id="Fill-6" fill="#FFFFFF" mask="url(#mask-26)" points="33.231677 48.5538671 34.6479561 48.5538671 34.6479561 42.6215003 33.231677 42.6215003"></polygon>
                                <path d="M15.8146442,9.49147336 L14.298701,9.49147336 C14.3443367,8.80282976 14.3055202,8.10843875 14.4534426,7.45584706 C14.6769,6.47147336 15.6682953,5.78805467 16.7006054,5.78491972 C18.4903625,5.77864983 20.2801196,5.78909965 22.0698767,5.77551488 C22.3095951,5.77342491 22.5666235,5.70968097 22.7837863,5.60779516 C23.5779517,5.23525882 24.3574297,4.83137301 25.1458251,4.44577439 C25.8628819,4.09570519 26.3942488,4.3971827 26.3622514,5.17882976 C26.3412695,5.67676401 26.4619155,5.98712388 26.911453,6.27501661 C27.5813005,6.70345952 27.8991765,7.38478824 27.8855382,8.19778478 C27.8787191,8.61682284 27.8844891,9.0358609 27.8844891,9.482591 L26.4015925,9.482591 C26.4015925,8.97316194 26.4015925,8.47784014 26.401068,7.98199585 C26.401068,7.58490242 26.2295408,7.32783668 25.8156726,7.26252526 C25.0650447,7.14391972 24.9554142,7.03106159 24.8583729,6.23269481 C24.3159904,6.49812042 23.8029827,6.77869827 23.2653212,7.0002346 C22.9421997,7.1329474 22.5823599,7.24005813 22.2372075,7.24423806 C20.4007656,7.26827266 18.5637992,7.2541654 16.7268328,7.25625536 C15.999285,7.25677785 15.8177915,7.44278478 15.8151687,8.17584014 C15.8130705,8.59696817 15.8146442,9.0175737 15.8146442,9.49147336" id="Fill-7" fill="#FFFFFF" mask="url(#mask-26)"></path>
                            </g>
                        </g>
                    </g>
                </g>
            </g>
        </g>
    </g>
</svg>