<?xml version="1.0" encoding="UTF-8"?>
<svg version="1.1" viewBox="0 0 51 52" xmlns="http://www.w3.org/2000/svg">
    <title>Page 1</title>
    <desc>Created with Sketch.</desc>
    <g transform="translate(-810 -655)" fill="none" fill-rule="evenodd">
        <g transform="translate(-88 -410)" fill="#046FD7">
            <g transform="translate(347 896)">
                <g transform="translate(297 159)">
                    <path d="m279.58 10.41c-13.972 0-25.298 11.394-25.298 25.448 0 14.054 11.327 25.448 25.298 25.448s25.298-11.394 25.298-25.448c0-14.054-11.327-25.448-25.298-25.448zm11.057 24.558l0.011499-0.013881-0.20354-0.11683c-0.029898-0.013881-0.055196-0.037015-0.086244-0.049739l-15.809-9.0872-0.0115 0.013881c-0.19664-0.15847-0.43582-0.2672-0.7072-0.2672-0.63476 0-1.1499 0.51705-1.1499 1.1567v18.508c0 0.63967 0.51517 1.1567 1.1499 1.1567 0.27138 0 0.51057-0.10873 0.7072-0.26605l0.0115 0.012724 15.809-9.0872c0.031048-0.012724 0.055196-0.032388 0.085094-0.048582l0.20469-0.11799-0.011499-0.012724c0.26333-0.21284 0.44272-0.52515 0.44272-0.89068 0-0.36552-0.17939-0.67784-0.44272-0.88952z"/>
                </g>
            </g>
        </g>
    </g>
</svg>
