<?xml version="1.0" encoding="UTF-8"?>
<svg width="138px" height="148px" version="1.1" viewBox="0 0 138 148" xmlns="http://www.w3.org/2000/svg"
     xmlns:xlink="http://www.w3.org/1999/xlink">
    <title>Group 7</title>
    <desc>Created with Sketch.</desc>
    <defs>
        <polygon id="d" points="7.826e-5 0.24685 26.474 0.24685 26.474 22.491 7.826e-5 22.491"/>
        <polygon id="c" points="0.075978 17.632 18.074 17.632 18.074 0.14004 0.075978 0.14004"/>
        <polygon id="b" points="7.826e-5 0.24685 26.474 0.24685 26.474 22.491 7.826e-5 22.491"/>
        <polygon id="a" points="0.075978 17.632 18.074 17.632 18.074 0.14004 0.075978 0.14004"/>
    </defs>
    <g transform="translate(-18 -212)" fill="none" fill-rule="evenodd">
        <g transform="translate(18 212)">
            <g transform="translate(.91304 .88972)">
                <g transform="translate(8.4783 31.346)" fill="#fff">
                    <g transform="translate(0 .33429)">
                        <path d="m30.707 1.3912h-29.634v19.08h0.44739 7.3135c0.51391 0 0.6913 0.17763 0.6913 0.6981 0.0013043 1.1931 0 2.3862-6.5218e-4 3.5793v0.39639c0.14152-0.11232 0.21978-0.17175 0.29413-0.23509 1.6298-1.3884 3.2622-2.7747 4.8848-4.1703 0.225-0.1933 0.45326-0.27297 0.74804-0.27297 4.9637 0.0065303 9.928 0.0039182 14.892 0.0039182h0.36391v-19.08zm-22.232 20.132h-0.92804-6.8172c-0.56609 0-0.72913-0.16261-0.72913-0.72618v-19.749c0-0.56618 0.16239-0.72879 0.72587-0.72879h30.313c0.56543 0 0.72978 0.16261 0.72978 0.72487v19.75c0 0.56422-0.16435 0.72944-0.72652 0.72944-5.1078 6.53e-4 -10.215-0.0013061-15.322 0.0097955-0.18587 6.531e-4 -0.40891 0.086201-0.55239 0.20636-1.8972 1.6012-3.7878 3.211-5.668 4.8331-0.24522 0.21093-0.50674 0.24424-0.76239 0.15803-0.26804-0.089466-0.26543-0.36897-0.26478-0.62104 0.003913-1.5124 0.0019565-3.0242 0.0019565-4.5863z"/>
                    </g>
                    <path d="m15.885 15.494h-8.3028c-0.09913 0-0.19826 6.531e-4 -0.29739-0.0019591-0.37304-0.0091425-0.59674-0.20179-0.60065-0.5159-0.003913-0.32978 0.22109-0.53222 0.615-0.53353 0.93717-0.0045713 1.8743-0.0019591 2.8122-0.0019591 4.7407 0 9.482 6.53e-4 14.223 0.001306 0.044348 0 0.088696-0.001306 0.13239-6.53e-4 0.3887 0.0058773 0.62152 0.20701 0.61761 0.53353-0.0032608 0.31476-0.22696 0.51133-0.59935 0.51655-0.34174 0.0052243-0.68348 0.0026121-1.0252 0.0026121h-7.575"/>
                    <path d="m15.883 11.335c-2.8246 0-5.6491 0-8.473-6.53e-4 -0.09913 0-0.20087 0.0058773-0.29739-0.011755-0.26022-0.046366-0.40957-0.21028-0.42522-0.4741-0.016304-0.26317 0.11152-0.44798 0.36457-0.52243 0.11413-0.033305 0.23935-0.035917 0.36-0.035917 5.6596-0.001306 11.32-6.53e-4 16.979 0 0.066522 0 0.13304-0.0032651 0.19826 0.0045713 0.2987 0.035917 0.49565 0.24489 0.495 0.52243 0 0.29321-0.20739 0.50937-0.52957 0.51329-0.76109 0.0097955-1.5228 0.0058773-2.2839 0.0058773-2.1293 6.53e-4 -4.2587 0-6.388 0v-0.0013061z"/>
                    <path d="m13.199 5.9565c1.9624 0 3.9248 0.0019591 5.8872-0.0019591 0.28891-6.5303e-4 0.53283 0.064651 0.62935 0.36701 0.1187 0.37158-0.13891 0.68177-0.57065 0.68438-0.9587 0.0052243-1.918 0.0026121-2.8774 0.0026121-2.9654-6.5303e-4 -5.9309-6.5303e-4 -8.8963-0.0013061-0.076957 0-0.15652 0.0078364-0.23087-0.0065304-0.285-0.054855-0.45457-0.2253-0.45326-0.52243 0.0013044-0.29778 0.17609-0.46431 0.46043-0.51525 0.09587-0.016979 0.19761-0.0065304 0.29674-0.0065304h5.7548"/>
                </g>
                <g transform="translate(84.13 3.9182)" fill="#fff">
                    <g transform="translate(0 .33429)">
                        <path d="m30.707 1.3912h-29.634v19.08h0.44739 7.3135c0.51391 0 0.6913 0.17763 0.6913 0.6981 0.0013043 1.1931 0 2.3862-6.5218e-4 3.5793v0.39639c0.14152-0.11232 0.21978-0.17175 0.29413-0.23509 1.6298-1.3884 3.2622-2.7747 4.8848-4.1703 0.225-0.1933 0.45326-0.27297 0.74804-0.27297 4.9637 0.0065303 9.928 0.0039182 14.892 0.0039182h0.36391v-19.08zm-22.232 20.132h-0.92804-6.8172c-0.56609 0-0.72913-0.16261-0.72913-0.72618v-19.749c0-0.56618 0.16239-0.72879 0.72587-0.72879h30.313c0.56543 0 0.72978 0.16261 0.72978 0.72487v19.75c0 0.56422-0.16435 0.72944-0.72652 0.72944-5.1078 6.53e-4 -10.215-0.0013061-15.322 0.0097955-0.18587 6.531e-4 -0.40891 0.086201-0.55239 0.20636-1.8972 1.6012-3.7878 3.211-5.668 4.8331-0.24522 0.21093-0.50674 0.24424-0.76239 0.15803-0.26804-0.089466-0.26543-0.36897-0.26478-0.62104 0.003913-1.5124 0.0019565-3.0242 0.0019565-4.5863z"/>
                    </g>
                    <path d="m15.885 15.494h-8.3028c-0.09913 0-0.19826 6.531e-4 -0.29739-0.0019591-0.37304-0.0091425-0.59674-0.20179-0.60065-0.5159-0.003913-0.32978 0.22109-0.53222 0.615-0.53353 0.93717-0.0045713 1.8743-0.0019591 2.8122-0.0019591 4.7407 0 9.482 6.53e-4 14.223 0.001306 0.044348 0 0.088696-0.001306 0.13239-6.53e-4 0.3887 0.0058773 0.62152 0.20701 0.61761 0.53353-0.0032608 0.31476-0.22696 0.51133-0.59935 0.51655-0.34174 0.0052243-0.68348 0.0026121-1.0252 0.0026121h-7.575"/>
                    <path d="m15.883 11.335c-2.8246 0-5.6491 0-8.473-6.53e-4 -0.09913 0-0.20087 0.0058773-0.29739-0.011755-0.26022-0.046366-0.40957-0.21028-0.42522-0.4741-0.016304-0.26317 0.11152-0.44798 0.36457-0.52243 0.11413-0.033305 0.23935-0.035917 0.36-0.035917 5.6596-0.001306 11.32-6.53e-4 16.979 0 0.066522 0 0.13304-0.0032651 0.19826 0.0045713 0.2987 0.035917 0.49565 0.24489 0.495 0.52243 0 0.29321-0.20739 0.50937-0.52957 0.51329-0.76109 0.0097955-1.5228 0.0058773-2.2839 0.0058773-2.1293 6.53e-4 -4.2587 0-6.388 0v-0.0013061z"/>
                    <path d="m13.199 5.9565c1.9624 0 3.9248 0.0019591 5.8872-0.0019591 0.28891-6.5303e-4 0.53283 0.064651 0.62935 0.36701 0.1187 0.37158-0.13891 0.68177-0.57065 0.68438-0.9587 0.0052243-1.918 0.0026121-2.8774 0.0026121-2.9654-6.5303e-4 -5.9309-6.5303e-4 -8.8963-0.0013061-0.076957 0-0.15652 0.0078364-0.23087-0.0065304-0.285-0.054855-0.45457-0.2253-0.45326-0.52243 0.0013044-0.29778 0.17609-0.46431 0.46043-0.51525 0.09587-0.016979 0.19761-0.0065304 0.29674-0.0065304h5.7548"/>
                </g>
                <g transform="translate(52.174 78.364)" fill="#fff">
                    <g transform="translate(0 .33429)">
                        <path d="m30.707 1.3912h-29.634v19.08h0.44739 7.3135c0.51391 0 0.6913 0.17763 0.6913 0.6981 0.0013043 1.1931 0 2.3862-6.5218e-4 3.5793v0.39639c0.14152-0.11232 0.21978-0.17175 0.29413-0.23509 1.6298-1.3884 3.2622-2.7747 4.8848-4.1703 0.225-0.1933 0.45326-0.27297 0.74804-0.27297 4.9637 0.0065303 9.928 0.0039182 14.892 0.0039182h0.36391v-19.08zm-22.232 20.132h-0.92804-6.8172c-0.56609 0-0.72913-0.16261-0.72913-0.72618v-19.749c0-0.56618 0.16239-0.72879 0.72587-0.72879h30.313c0.56543 0 0.72978 0.16261 0.72978 0.72487v19.75c0 0.56422-0.16435 0.72944-0.72652 0.72944-5.1078 6.53e-4 -10.215-0.0013061-15.322 0.0097955-0.18587 6.531e-4 -0.40891 0.086201-0.55239 0.20636-1.8972 1.6012-3.7878 3.211-5.668 4.8331-0.24522 0.21093-0.50674 0.24424-0.76239 0.15803-0.26804-0.089466-0.26543-0.36897-0.26478-0.62104 0.003913-1.5124 0.0019565-3.0242 0.0019565-4.5863z"/>
                    </g>
                    <path d="m15.885 15.494h-8.3028c-0.09913 0-0.19826 6.531e-4 -0.29739-0.0019591-0.37304-0.0091425-0.59674-0.20179-0.60065-0.5159-0.003913-0.32978 0.22109-0.53222 0.615-0.53353 0.93717-0.0045713 1.8743-0.0019591 2.8122-0.0019591 4.7407 0 9.482 6.53e-4 14.223 0.001306 0.044348 0 0.088696-0.001306 0.13239-6.53e-4 0.3887 0.0058773 0.62152 0.20701 0.61761 0.53353-0.0032608 0.31476-0.22696 0.51133-0.59935 0.51655-0.34174 0.0052243-0.68348 0.0026121-1.0252 0.0026121h-7.575"/>
                    <path d="m15.883 11.335c-2.8246 0-5.6491 0-8.473-6.53e-4 -0.09913 0-0.20087 0.0058773-0.29739-0.011755-0.26022-0.046366-0.40957-0.21028-0.42522-0.4741-0.016304-0.26317 0.11152-0.44798 0.36457-0.52243 0.11413-0.033305 0.23935-0.035917 0.36-0.035917 5.6596-0.001306 11.32-6.53e-4 16.979 0 0.066522 0 0.13304-0.0032651 0.19826 0.0045713 0.2987 0.035917 0.49565 0.24489 0.495 0.52243 0 0.29321-0.20739 0.50937-0.52957 0.51329-0.76109 0.0097955-1.5228 0.0058773-2.2839 0.0058773-2.1293 6.53e-4 -4.2587 0-6.388 0v-0.0013061z"/>
                    <path d="m13.199 5.9565c1.9624 0 3.9248 0.0019591 5.8872-0.0019591 0.28891-6.5303e-4 0.53283 0.064651 0.62935 0.36701 0.1187 0.37158-0.13891 0.68177-0.57065 0.68438-0.9587 0.0052243-1.918 0.0026121-2.8774 0.0026121-2.9654-6.5303e-4 -5.9309-6.5303e-4 -8.8963-0.0013061-0.076957 0-0.15652 0.0078364-0.23087-0.0065304-0.285-0.054855-0.45457-0.2253-0.45326-0.52243 0.0013044-0.29778 0.17609-0.46431 0.46043-0.51525 0.09587-0.016979 0.19761-0.0065304 0.29674-0.0065304h5.7548"/>
                </g>
                <g transform="translate(56.739 39.835)">
                    <g transform="translate(0 .40638)">
                        <mask id="h" fill="white">
                            <use xlink:href="#d"/>
                        </mask>
                        <path d="m4.238 17.189h-3.1161c-0.18783 0-0.37565 0.0058773-0.56283-0.0019591-0.35022-0.014367-0.5413-0.21093-0.55761-0.56488-0.0026087-0.065957-6.5217e-4 -0.13257-6.5217e-4 -0.19852v-15.379c0-0.65761 0.13957-0.79736 0.79696-0.79736 8.2976-6.5304e-4 16.595-6.5304e-4 24.892 0 0.63587 0 0.78326 0.14628 0.78326 0.77515 6.522e-4 2.7617 6.522e-4 5.524 6.522e-4 8.2857 0 0.40945-0.14413 0.62691-0.44087 0.67001-0.36652 0.053549-0.60913-0.19265-0.60978-0.63344-0.0013043-1.8448 0-3.6897 0-5.5351 0-0.71769 0.0013044-1.436 0-2.1544-6.522e-4 -0.1071-0.0097826-0.21485-0.016304-0.34154h-24.329v14.823h0.29674c1.048 6.531e-4 2.0967 0.0013061 3.1448 0.0013061 0.62543 6.531e-4 0.76826 0.14693 0.76891 0.78626v3.7458c0.12978-0.11885 0.21717-0.19199 0.29674-0.27232 1.3193-1.3198 2.6407-2.637 3.9528-3.9633 0.21-0.21289 0.43174-0.31346 0.73174-0.30105 0.44022 0.018285 0.88239 0 1.3239 0.0065303 0.34174 0.0052243 0.57 0.21289 0.57848 0.50937 0.0091304 0.30693-0.22826 0.52635-0.5837 0.53941-0.033261 0.0013061-0.067174 0.0058774-0.09913 0-0.89022-0.16261-1.5052 0.21942-2.1091 0.86854-1.3226 1.4217-2.7313 2.7636-4.1028 4.1402-0.20283 0.20309-0.40696 0.38594-0.72261 0.24424-0.29478-0.13126-0.31891-0.3866-0.31826-0.66544 0.0045652-1.3812 0.0019565-2.7623 0.0019565-4.1429v-0.44406"
                              fill="#fff" mask="url(#h)"/>
                    </g>
                    <g transform="translate(13.696 12.161)">
                        <mask id="g" fill="white">
                            <use xlink:href="#c"/>
                        </mask>
                        <path d="m1.139 10.747h0.45717c2.4372 0 4.875-0.0058773 7.3122 0.0097955 0.20935 0.0013061 0.4813 0.084242 0.61565 0.22987 1.3702 1.483 2.7189 2.9863 4.0709 4.487 0.063261 0.069875 0.1037 0.15999 0.15457 0.24097 0.031956-0.02155 0.063913-0.0431 0.09587-0.065304v-0.28472c6.522e-4 -1.182 0.0013043-2.364 0.0013043-3.5453 0-1.0436 0.028696-1.0723 1.0767-1.0723h2.0804v-9.535h-15.865v9.535zm13.758 1.052v0.38921c0 1.5797-0.0019565 3.1587 0.0032609 4.7384 6.522e-4 0.29778-0.048261 0.55639-0.36196 0.67132-0.30522 0.11167-0.49565-0.071181-0.68152-0.27623-1.6004-1.7671-3.2061-3.5303-4.8033-5.3007-0.14543-0.1613-0.29022-0.22791-0.50804-0.22726-2.5813 0.0071834-5.1626 0.0045713-7.7439 0.0039182-0.56283 0-0.72522-0.16261-0.72522-0.72879v-10.206c6.5217e-4 -0.55051 0.1663-0.72226 0.69913-0.72226 5.5154-6.5304e-4 11.031-6.5304e-4 16.546 0 0.60522 0 0.75261 0.15216 0.75261 0.76862 6.522e-4 3.3801 6.522e-4 6.7596 0 10.14 0 0.58969-0.15652 0.74903-0.73957 0.75034-0.79435 0.0013061-1.588 0-2.4378 0z"
                              fill="#fff" mask="url(#g)"/>
                    </g>
                </g>
                <g transform="translate(104.35 81.629)">
                    <g transform="translate(0 .40638)">
                        <mask id="f" fill="white">
                            <use xlink:href="#b"/>
                        </mask>
                        <path d="m4.238 17.189h-3.1161c-0.18783 0-0.37565 0.0058773-0.56283-0.0019591-0.35022-0.014367-0.5413-0.21093-0.55761-0.56488-0.0026087-0.065957-6.5217e-4 -0.13257-6.5217e-4 -0.19852v-15.379c0-0.65761 0.13957-0.79736 0.79696-0.79736 8.2976-6.5304e-4 16.595-6.5304e-4 24.892 0 0.63587 0 0.78326 0.14628 0.78326 0.77515 6.522e-4 2.7617 6.522e-4 5.524 6.522e-4 8.2857 0 0.40945-0.14413 0.62691-0.44087 0.67001-0.36652 0.053549-0.60913-0.19265-0.60978-0.63344-0.0013043-1.8448 0-3.6897 0-5.5351 0-0.71769 0.0013044-1.436 0-2.1544-6.522e-4 -0.1071-0.0097826-0.21485-0.016304-0.34154h-24.329v14.823h0.29674c1.048 6.531e-4 2.0967 0.0013061 3.1448 0.0013061 0.62543 6.531e-4 0.76826 0.14693 0.76891 0.78626v3.7458c0.12978-0.11885 0.21717-0.19199 0.29674-0.27232 1.3193-1.3198 2.6407-2.637 3.9528-3.9633 0.21-0.21289 0.43174-0.31346 0.73174-0.30105 0.44022 0.018285 0.88239 0 1.3239 0.0065303 0.34174 0.0052243 0.57 0.21289 0.57848 0.50937 0.0091304 0.30693-0.22826 0.52635-0.5837 0.53941-0.033261 0.0013061-0.067174 0.0058774-0.09913 0-0.89022-0.16261-1.5052 0.21942-2.1091 0.86854-1.3226 1.4217-2.7313 2.7636-4.1028 4.1402-0.20283 0.20309-0.40696 0.38594-0.72261 0.24424-0.29478-0.13126-0.31891-0.3866-0.31826-0.66544 0.0045652-1.3812 0.0019565-2.7623 0.0019565-4.1429v-0.44406"
                              fill="#fff" mask="url(#f)"/>
                    </g>
                    <g transform="translate(13.696 12.161)">
                        <mask id="e" fill="white">
                            <use xlink:href="#a"/>
                        </mask>
                        <path d="m1.139 10.747h0.45717c2.4372 0 4.875-0.0058773 7.3122 0.0097955 0.20935 0.0013061 0.4813 0.084242 0.61565 0.22987 1.3702 1.483 2.7189 2.9863 4.0709 4.487 0.063261 0.069875 0.1037 0.15999 0.15457 0.24097 0.031956-0.02155 0.063913-0.0431 0.09587-0.065304v-0.28472c6.522e-4 -1.182 0.0013043-2.364 0.0013043-3.5453 0-1.0436 0.028696-1.0723 1.0767-1.0723h2.0804v-9.535h-15.865v9.535zm13.758 1.052v0.38921c0 1.5797-0.0019565 3.1587 0.0032609 4.7384 6.522e-4 0.29778-0.048261 0.55639-0.36196 0.67132-0.30522 0.11167-0.49565-0.071181-0.68152-0.27623-1.6004-1.7671-3.2061-3.5303-4.8033-5.3007-0.14543-0.1613-0.29022-0.22791-0.50804-0.22726-2.5813 0.0071834-5.1626 0.0045713-7.7439 0.0039182-0.56283 0-0.72522-0.16261-0.72522-0.72879v-10.206c6.5217e-4 -0.55051 0.1663-0.72226 0.69913-0.72226 5.5154-6.5304e-4 11.031-6.5304e-4 16.546 0 0.60522 0 0.75261 0.15216 0.75261 0.76862 6.522e-4 3.3801 6.522e-4 6.7596 0 10.14 0 0.58969-0.15652 0.74903-0.73957 0.75034-0.79435 0.0013061-1.588 0-2.4378 0z"
                              fill="#fff" mask="url(#e)"/>
                    </g>
                </g>
                <g transform="translate(104.35 39.835)" fill="#fff">
                    <g transform="translate(0 .50741)">
                        <path d="m4.2296 24.511c0.14022-0.10122 0.22043-0.15608 0.29739-0.2155 1.6148-1.248 3.225-2.5037 4.8509-3.7373 0.1937-0.14628 0.47543-0.24815 0.71609-0.24881 6.5641-0.013061 13.128-0.010449 19.692-0.010449 0.66391-6.53e-4 0.93196-0.24815 0.93261-0.87572 0.0013044-5.7448 0.0019565-11.489-0.0013043-17.233 0-0.80258-0.20217-0.99327-1.0011-0.99327-4.1485 0-8.2963 6.5304e-4 -12.444 6.5304e-4 -5.1078 0-10.216-6.5304e-4 -15.323 0-0.65478 0-0.86935 0.20897-0.89543 0.86723-0.0045652 0.12081-0.0026087 0.24293-0.0026087 0.36439v4.7391c0 4.0763-6.5217e-4 8.1525 0 12.229 6.5218e-4 0.65108 0.25109 0.89858 0.90326 0.90119 0.49696 0.0026121 0.99326 0.001306 1.4896 6.53e-4 0.645-6.53e-4 0.78652 0.14432 0.78587 0.80323-6.5218e-4 1.1128 0 2.2262 0 3.4088m-1.0507-3.1607c-0.46109 0-0.8687 0.0032651-1.2763-0.0013061-1.0265-0.011102-1.8998-0.87899-1.9004-1.9075-0.0032609-5.7232-0.0032609-11.446 6.5217e-4 -17.17 6.5217e-4 -1.1147 0.60522-1.9206 1.5522-2.0943 0.16109-0.029387 0.32935-0.030693 0.4937-0.030693 9.2243-0.0013061 18.449-0.0013061 27.673-6.5304e-4 1.187 0 1.9598 0.72944 2.0413 1.9278 0.0091304 0.13191 0.0065217 0.26513 0.0065217 0.3977v16.772c0 1.2989-0.80674 2.1067-2.1026 2.1067-6.4441 0-12.888-0.0013061-19.332 0.0071834-0.16891 6.53e-4 -0.36848 0.069875-0.50348 0.17305-1.8926 1.4491-3.7767 2.9099-5.6615 4.3688-0.20739 0.16065-0.41152 0.30497-0.69065 0.16718-0.27261-0.13518-0.30391-0.37484-0.30261-0.64324 0.003913-1.2264 0.0019565-2.4521 0.0019565-3.6786v-0.39443"/>
                    </g>
                    <path d="m20.712 10.727c-0.0032608-0.59753 0.59348-1.1964 1.1876-1.1931 0.57522 0.0039182 1.1759 0.59361 1.1909 1.1689 0.014348 0.57794-0.59543 1.2029-1.183 1.212-0.58826 0.0097955-1.1922-0.59034-1.1954-1.1879"/>
                    <path d="m12.395 10.724c0 0.59296-0.60587 1.197-1.1948 1.1911-0.58565-0.0058773-1.1954-0.62822-1.1843-1.2088 0.011087-0.57402 0.61435-1.1709 1.1857-1.1729 0.59478-0.0026122 1.1935 0.59426 1.1935 1.1905"/>
                    <path d="m17.74 10.738c-0.0084782 0.5923-0.62348 1.1911-1.2104 1.1781-0.58957-0.013061-1.1857-0.63736-1.1687-1.2225 0.016304-0.57663 0.62283-1.1644 1.1961-1.1591 0.59543 0.0058773 1.1915 0.61189 1.183 1.2035"/>
                </g>
                <g transform="translate(0 81.629)" fill="#fff">
                    <g transform="translate(0 .50741)">
                        <path d="m4.2296 24.511c0.14022-0.10122 0.22043-0.15608 0.29739-0.2155 1.6148-1.248 3.225-2.5037 4.8509-3.7373 0.1937-0.14628 0.47543-0.24815 0.71609-0.24881 6.5641-0.013061 13.128-0.010449 19.692-0.010449 0.66391-6.53e-4 0.93196-0.24815 0.93261-0.87572 0.0013044-5.7448 0.0019565-11.489-0.0013043-17.233 0-0.80258-0.20217-0.99327-1.0011-0.99327-4.1485 0-8.2963 6.5304e-4 -12.444 6.5304e-4 -5.1078 0-10.216-6.5304e-4 -15.323 0-0.65478 0-0.86935 0.20897-0.89543 0.86723-0.0045652 0.12081-0.0026087 0.24293-0.0026087 0.36439v4.7391c0 4.0763-6.5217e-4 8.1525 0 12.229 6.5218e-4 0.65108 0.25109 0.89858 0.90326 0.90119 0.49696 0.0026121 0.99326 0.001306 1.4896 6.53e-4 0.645-6.53e-4 0.78652 0.14432 0.78587 0.80323-6.5218e-4 1.1128 0 2.2262 0 3.4088m-1.0507-3.1607c-0.46109 0-0.8687 0.0032651-1.2763-0.0013061-1.0265-0.011102-1.8998-0.87899-1.9004-1.9075-0.0032609-5.7232-0.0032609-11.446 6.5217e-4 -17.17 6.5217e-4 -1.1147 0.60522-1.9206 1.5522-2.0943 0.16109-0.029387 0.32935-0.030693 0.4937-0.030693 9.2243-0.0013061 18.449-0.0013061 27.673-6.5304e-4 1.187 0 1.9598 0.72944 2.0413 1.9278 0.0091304 0.13191 0.0065217 0.26513 0.0065217 0.3977v16.772c0 1.2989-0.80674 2.1067-2.1026 2.1067-6.4441 0-12.888-0.0013061-19.332 0.0071834-0.16891 6.53e-4 -0.36848 0.069875-0.50348 0.17305-1.8926 1.4491-3.7767 2.9099-5.6615 4.3688-0.20739 0.16065-0.41152 0.30497-0.69065 0.16718-0.27261-0.13518-0.30391-0.37484-0.30261-0.64324 0.003913-1.2264 0.0019565-2.4521 0.0019565-3.6786v-0.39443"/>
                    </g>
                    <path d="m20.712 10.727c-0.0032608-0.59753 0.59348-1.1964 1.1876-1.1931 0.57522 0.0039182 1.1759 0.59361 1.1909 1.1689 0.014348 0.57794-0.59543 1.2029-1.183 1.212-0.58826 0.0097955-1.1922-0.59034-1.1954-1.1879"/>
                    <path d="m12.395 10.724c0 0.59296-0.60587 1.197-1.1948 1.1911-0.58565-0.0058773-1.1954-0.62822-1.1843-1.2088 0.011087-0.57402 0.61435-1.1709 1.1857-1.1729 0.59478-0.0026122 1.1935 0.59426 1.1935 1.1905"/>
                    <path d="m17.74 10.738c-0.0084782 0.5923-0.62348 1.1911-1.2104 1.1781-0.58957-0.013061-1.1857-0.63736-1.1687-1.2225 0.016304-0.57663 0.62283-1.1644 1.1961-1.1591 0.59543 0.0058773 1.1915 0.61189 1.183 1.2035"/>
                </g>
                <g transform="translate(72.391 114.93)" fill="#fff">
                    <g transform="translate(0 .50741)">
                        <path d="m4.2296 24.511c0.14022-0.10122 0.22043-0.15608 0.29739-0.2155 1.6148-1.248 3.225-2.5037 4.8509-3.7373 0.1937-0.14628 0.47543-0.24815 0.71609-0.24881 6.5641-0.013061 13.128-0.010449 19.692-0.010449 0.66391-6.53e-4 0.93196-0.24815 0.93261-0.87572 0.0013044-5.7448 0.0019565-11.489-0.0013043-17.233 0-0.80258-0.20217-0.99327-1.0011-0.99327-4.1485 0-8.2963 6.5304e-4 -12.444 6.5304e-4 -5.1078 0-10.216-6.5304e-4 -15.323 0-0.65478 0-0.86935 0.20897-0.89543 0.86723-0.0045652 0.12081-0.0026087 0.24293-0.0026087 0.36439v4.7391c0 4.0763-6.5217e-4 8.1525 0 12.229 6.5218e-4 0.65108 0.25109 0.89858 0.90326 0.90119 0.49696 0.0026121 0.99326 0.001306 1.4896 6.53e-4 0.645-6.53e-4 0.78652 0.14432 0.78587 0.80323-6.5218e-4 1.1128 0 2.2262 0 3.4088m-1.0507-3.1607c-0.46109 0-0.8687 0.0032651-1.2763-0.0013061-1.0265-0.011102-1.8998-0.87899-1.9004-1.9075-0.0032609-5.7232-0.0032609-11.446 6.5217e-4 -17.17 6.5217e-4 -1.1147 0.60522-1.9206 1.5522-2.0943 0.16109-0.029387 0.32935-0.030693 0.4937-0.030693 9.2243-0.0013061 18.449-0.0013061 27.673-6.5304e-4 1.187 0 1.9598 0.72944 2.0413 1.9278 0.0091304 0.13191 0.0065217 0.26513 0.0065217 0.3977v16.772c0 1.2989-0.80674 2.1067-2.1026 2.1067-6.4441 0-12.888-0.0013061-19.332 0.0071834-0.16891 6.53e-4 -0.36848 0.069875-0.50348 0.17305-1.8926 1.4491-3.7767 2.9099-5.6615 4.3688-0.20739 0.16065-0.41152 0.30497-0.69065 0.16718-0.27261-0.13518-0.30391-0.37484-0.30261-0.64324 0.003913-1.2264 0.0019565-2.4521 0.0019565-3.6786v-0.39443"/>
                    </g>
                    <path d="m20.712 10.727c-0.0032608-0.59753 0.59348-1.1964 1.1876-1.1931 0.57522 0.0039182 1.1759 0.59361 1.1909 1.1689 0.014348 0.57794-0.59543 1.2029-1.183 1.212-0.58826 0.0097955-1.1922-0.59034-1.1954-1.1879"/>
                    <path d="m12.395 10.724c0 0.59296-0.60587 1.197-1.1948 1.1911-0.58565-0.0058773-1.1954-0.62822-1.1843-1.2088 0.011087-0.57402 0.61435-1.1709 1.1857-1.1729 0.59478-0.0026122 1.1935 0.59426 1.1935 1.1905"/>
                    <path d="m17.74 10.738c-0.0084782 0.5923-0.62348 1.1911-1.2104 1.1781-0.58957-0.013061-1.1857-0.63736-1.1687-1.2225 0.016304-0.57663 0.62283-1.1644 1.1961-1.1591 0.59543 0.0058773 1.1915 0.61189 1.183 1.2035"/>
                </g>
                <g transform="translate(40.435)" fill="#fff">
                    <g transform="translate(11.739 12.332)">
                        <path d="m17.752 17.365c0.015652-0.020244 0.031304-0.040488 0.046304-0.060079-0.45457-0.8816-0.90913-1.7632-1.363-2.6448-0.21457-0.41664-0.18-0.59361 0.17217-0.89074 0.76826-0.64716 1.4387-1.3812 1.8293-2.3183 1.0265-2.4613 0.58696-4.7286-1.0493-6.7602-1.577-1.9578-3.7057-2.9628-6.1741-3.2064-2.8552-0.28211-5.4333 0.43753-7.577 2.4123-2.1711 2.0009-2.8735 4.7724-1.8789 7.4231 0.82174 2.1903 2.4039 3.674 4.5274 4.5726 2.2917 0.96976 4.607 0.95278 6.9222 0.035917 0.22761-0.090119 0.5263-0.14236 0.74935-0.07314 0.54522 0.16783 1.0637 0.4199 1.5952 0.63344 0.73239 0.29452 1.4667 0.58447 2.2004 0.87637m-6.932-16.987c3.0248 0.13714 6.06 1.5581 8.0785 4.7619 1.8743 2.9746 1.382 6.5519-1.1589 9.0099-0.20283 0.19656-0.23022 0.33109-0.097826 0.57924 0.58109 1.0899 1.1367 2.1929 1.7087 3.2874 0.13696 0.26252 0.22304 0.51525-0.0091304 0.76079-0.21848 0.23117-0.46565 0.17567-0.73043 0.068569-1.5417-0.623-3.0841-1.2453-4.6343-1.8461-0.1813-0.069875-0.4363-0.068569-0.61826 6.531e-4 -4.5763 1.7384-10.107-0.37745-12.28-4.7103-1.4152-2.8211-0.93522-6.0066 1.2763-8.4764 1.948-2.1746 4.7954-3.4311 8.4659-3.4356"/>
                    </g>
                    <path d="m23.815 9.7825h-1.0754c-0.068478-0.51002-0.10043-1.0174-0.20804-1.5072-0.51196-2.3326-1.8933-4.0514-3.8615-5.319-2.357-1.519-4.9709-2.0518-7.7387-1.8749-2.2904 0.14628-4.4178 0.81107-6.2954 2.1642-1.7928 1.2924-3.075 2.9641-3.4539 5.1812-0.50217 2.9347 0.36 5.43 2.6172 7.4087 0.51065 0.44798 0.52957 0.53157 0.20609 1.1147-0.58304 1.0507-1.1661 2.1021-1.7896 3.2253 0.17413-0.059426 0.28239-0.092731 0.38739-0.13322 1.6454-0.63214 3.2922-1.2604 4.9337-1.9023 0.27196-0.10579 0.51065-0.11624 0.7937-0.024815 0.57391 0.18612 1.1641 0.3226 1.7765 0.48716-0.045652 0.32064-0.093261 0.65369-0.14609 1.0285-0.57522-0.14497-1.1152-0.30105-1.6643-0.41076-0.22304-0.044406-0.48848-0.048325-0.69652 0.030693-2.0413 0.76928-4.0741 1.5594-6.1083 2.3457-0.29478 0.11428-0.58891 0.24619-0.84587-0.058773-0.25761-0.30627-0.066522-0.57663 0.08413-0.84895 0.70761-1.2728 1.4067-2.5501 2.1261-3.8163 0.13109-0.23183 0.12783-0.35917-0.073696-0.55312-1.907-1.8376-2.8409-4.0985-2.7796-6.7393 0.056087-2.426 1.108-4.4289 2.8285-6.0824 2.1861-2.1008 4.8424-3.1777 7.8378-3.4402 2.8722-0.25142 5.5787 0.31607 8.0654 1.79 2.28 1.3524 3.9737 3.2142 4.7067 5.8225 0.18913 0.67067 0.24783 1.3779 0.3737 2.1126"/>
                </g>
                <g transform="translate(24.783 114.93)" fill="#fff">
                    <g transform="translate(11.739 12.332)">
                        <path d="m17.752 17.365c0.015652-0.020244 0.031304-0.040488 0.046304-0.060079-0.45457-0.8816-0.90913-1.7632-1.363-2.6448-0.21457-0.41664-0.18-0.59361 0.17217-0.89074 0.76826-0.64716 1.4387-1.3812 1.8293-2.3183 1.0265-2.4613 0.58696-4.7286-1.0493-6.7602-1.577-1.9578-3.7057-2.9628-6.1741-3.2064-2.8552-0.28211-5.4333 0.43753-7.577 2.4123-2.1711 2.0009-2.8735 4.7724-1.8789 7.4231 0.82174 2.1903 2.4039 3.674 4.5274 4.5726 2.2917 0.96976 4.607 0.95278 6.9222 0.035917 0.22761-0.090119 0.5263-0.14236 0.74935-0.07314 0.54522 0.16783 1.0637 0.4199 1.5952 0.63344 0.73239 0.29452 1.4667 0.58447 2.2004 0.87637m-6.932-16.987c3.0248 0.13714 6.06 1.5581 8.0785 4.7619 1.8743 2.9746 1.382 6.5519-1.1589 9.0099-0.20283 0.19656-0.23022 0.33109-0.097826 0.57924 0.58109 1.0899 1.1367 2.1929 1.7087 3.2874 0.13696 0.26252 0.22304 0.51525-0.0091304 0.76079-0.21848 0.23117-0.46565 0.17567-0.73043 0.068569-1.5417-0.623-3.0841-1.2453-4.6343-1.8461-0.1813-0.069875-0.4363-0.068569-0.61826 6.531e-4 -4.5763 1.7384-10.107-0.37745-12.28-4.7103-1.4152-2.8211-0.93522-6.0066 1.2763-8.4764 1.948-2.1746 4.7954-3.4311 8.4659-3.4356"/>
                    </g>
                    <path d="m23.815 9.7825h-1.0754c-0.068478-0.51002-0.10043-1.0174-0.20804-1.5072-0.51196-2.3326-1.8933-4.0514-3.8615-5.319-2.357-1.519-4.9709-2.0518-7.7387-1.8749-2.2904 0.14628-4.4178 0.81107-6.2954 2.1642-1.7928 1.2924-3.075 2.9641-3.4539 5.1812-0.50217 2.9347 0.36 5.43 2.6172 7.4087 0.51065 0.44798 0.52957 0.53157 0.20609 1.1147-0.58304 1.0507-1.1661 2.1021-1.7896 3.2253 0.17413-0.059426 0.28239-0.092731 0.38739-0.13322 1.6454-0.63214 3.2922-1.2604 4.9337-1.9023 0.27196-0.10579 0.51065-0.11624 0.7937-0.024815 0.57391 0.18612 1.1641 0.3226 1.7765 0.48716-0.045652 0.32064-0.093261 0.65369-0.14609 1.0285-0.57522-0.14497-1.1152-0.30105-1.6643-0.41076-0.22304-0.044406-0.48848-0.048325-0.69652 0.030693-2.0413 0.76928-4.0741 1.5594-6.1083 2.3457-0.29478 0.11428-0.58891 0.24619-0.84587-0.058773-0.25761-0.30627-0.066522-0.57663 0.08413-0.84895 0.70761-1.2728 1.4067-2.5501 2.1261-3.8163 0.13109-0.23183 0.12783-0.35917-0.073696-0.55312-1.907-1.8376-2.8409-4.0985-2.7796-6.7393 0.056087-2.426 1.108-4.4289 2.8285-6.0824 2.1861-2.1008 4.8424-3.1777 7.8378-3.4402 2.8722-0.25142 5.5787 0.31607 8.0654 1.79 2.28 1.3524 3.9737 3.2142 4.7067 5.8225 0.18913 0.67067 0.24783 1.3779 0.3737 2.1126"/>
                </g>
            </g>
        </g>
    </g>
</svg>
