<?xml version="1.0" encoding="UTF-8"?>
<svg width="138px" height="148px" viewBox="0 0 138 148" version="1.1" xmlns="http://www.w3.org/2000/svg" xmlns:xlink="http://www.w3.org/1999/xlink">
    <!-- Generator: Sketch 48.2 (47327) - http://www.bohemiancoding.com/sketch -->
    <title>Group 7</title>
    <desc>Created with Sketch.</desc>
    <defs>
        <polygon id="path-1" points="7.82603366e-05 0.246847584 26.4738261 0.246847584 26.4738261 22.4913771 7.82603366e-05 22.4913771"></polygon>
        <polygon id="path-3" points="0.0759782609 17.6319703 18.0743478 17.6319703 18.0743478 0.140043556 0.0759782609 0.140043556 0.0759782609 17.6319703"></polygon>
        <polygon id="path-5" points="7.82603366e-05 0.246847584 26.4738261 0.246847584 26.4738261 22.4913771 7.82603366e-05 22.4913771"></polygon>
        <polygon id="path-7" points="0.0759782609 17.6319703 18.0743478 17.6319703 18.0743478 0.140043556 0.0759782609 0.140043556 0.0759782609 17.6319703"></polygon>
    </defs>
    <g id="arch-graph" stroke="none" stroke-width="1" fill="none" fill-rule="evenodd" transform="translate(-18.000000, -212.000000)">
        <g id="Group">
            <g id="Group-7" transform="translate(18.000000, 212.000000)">
                <g transform="translate(0.913043, 0.889715)">
                    <g id="Page-1" transform="translate(8.478261, 31.345725)" fill="#FFFFFF">
                        <g id="Group-3" transform="translate(0.000000, 0.334289)">
                            <path d="M30.7065652,1.39116245 L1.07243478,1.39116245 L1.07243478,20.4715664 L1.51982609,20.4715664 L8.83330435,20.4715664 C9.34721739,20.4715664 9.5246087,20.6491922 9.5246087,21.1696618 C9.52591304,22.3627585 9.5246087,23.5558551 9.52395652,24.7489518 L9.52395652,25.1453446 C9.66547826,25.0330224 9.74373913,24.9735962 9.81808696,24.9102517 C11.4478696,23.5218973 13.0802609,22.135502 14.7028696,20.7399642 C14.9278696,20.5466656 15.1561304,20.4669952 15.450913,20.4669952 C20.4146087,20.4735255 25.3789565,20.4709134 30.3426522,20.4709134 L30.7065652,20.4709134 L30.7065652,1.39116245 Z M8.4746087,21.5229543 L7.54656522,21.5229543 L0.729391304,21.5229543 C0.163304348,21.5229543 0.000260869565,21.3603483 0.000260869565,20.7967783 L0.000260869565,1.04766555 C0.000260869565,0.481483395 0.162652174,0.318877447 0.726130435,0.318877447 L31.0391739,0.318877447 C31.6046087,0.318877447 31.7689565,0.481483395 31.7689565,1.04374734 L31.7689565,20.7935131 C31.7689565,21.3577362 31.6046087,21.5229543 31.0424348,21.5229543 C25.9346087,21.5236073 20.8274348,21.5216482 15.7202609,21.5327498 C15.5343913,21.5334029 15.3113478,21.6189506 15.1678696,21.7391092 C13.2706957,23.3403533 11.3800435,24.9500869 9.49982609,26.5722281 C9.2546087,26.7831587 8.99308696,26.8164636 8.73743478,26.7302628 C8.4693913,26.6407969 8.472,26.3612975 8.47265217,26.1092257 C8.47656522,24.5967944 8.4746087,23.0850162 8.4746087,21.5229543 L8.4746087,21.5229543 Z" id="Fill-1"></path>
                        </g>
                        <path d="M15.8846739,15.4943877 L7.58184783,15.4943877 C7.48271739,15.4943877 7.38358696,15.4950408 7.28445652,15.4924286 C6.91141304,15.4832861 6.68771739,15.2906405 6.68380435,14.9765302 C6.6798913,14.6467471 6.9048913,14.4443059 7.29880435,14.4429999 C8.23597826,14.4384286 9.17315217,14.4410408 10.1109783,14.4410408 C14.8516304,14.4410408 19.5929348,14.4416938 24.3342391,14.4423468 C24.378587,14.4423468 24.4229348,14.4410408 24.4666304,14.4416938 C24.8553261,14.4475711 25.0881522,14.6487062 25.0842391,14.9752242 C25.0809783,15.2899875 24.8572826,15.4865513 24.4848913,15.4917756 C24.1431522,15.4969999 23.801413,15.4943877 23.4596739,15.4943877 L15.8846739,15.4943877" id="Fill-4"></path>
                        <path d="M15.8829783,11.3348753 C13.058413,11.3348753 10.2338478,11.3348753 7.40993478,11.3342223 C7.31080435,11.3342223 7.20906522,11.3400996 7.11254348,11.3224677 C6.85232609,11.2761021 6.70297826,11.1121901 6.68732609,10.8483636 C6.67102174,10.5851901 6.79884783,10.4003809 7.0518913,10.3259348 C7.16602174,10.29263 7.29123913,10.2900178 7.4118913,10.2900178 C13.0714565,10.2887118 18.7316739,10.2893648 24.3912391,10.2900178 C24.4577609,10.2900178 24.5242826,10.2867527 24.5895,10.2945891 C24.8881957,10.3305061 25.0851522,10.5394776 25.0845,10.8170178 C25.0845,11.110231 24.8771087,11.3263859 24.5549348,11.3303041 C23.7938478,11.3400996 23.0321087,11.3361814 22.2710217,11.3361814 C20.1416739,11.3368344 18.0123261,11.3361814 15.8829783,11.3361814 L15.8829783,11.3348753 Z" id="Fill-6"></path>
                        <path d="M13.1990217,5.95653668 C15.161413,5.95653668 17.1238043,5.95849579 19.0861957,5.95457757 C19.3751087,5.95392454 19.6190217,6.01922813 19.7155435,6.32158377 C19.8342391,6.69316121 19.5766304,7.00335328 19.1448913,7.00596543 C18.1861957,7.01118971 17.2268478,7.00857757 16.2675,7.00857757 C13.3020652,7.00792454 10.3366304,7.00792454 7.37119565,7.0072715 C7.29423913,7.0072715 7.21467391,7.01510793 7.14032609,7.00074114 C6.85532609,6.94588612 6.68576087,6.77544374 6.68706522,6.47831239 C6.68836957,6.180528 6.86315217,6.01400384 7.1475,5.96306704 C7.24336957,5.9460881 7.3451087,5.95653668 7.44423913,5.95653668 L13.1990217,5.95653668" id="Fill-8"></path>
                    </g>
                    <g id="Page-1-Copy" transform="translate(84.130435, 3.918216)" fill="#FFFFFF">
                        <g id="Group-3" transform="translate(0.000000, 0.334289)">
                            <path d="M30.7065652,1.39116245 L1.07243478,1.39116245 L1.07243478,20.4715664 L1.51982609,20.4715664 L8.83330435,20.4715664 C9.34721739,20.4715664 9.5246087,20.6491922 9.5246087,21.1696618 C9.52591304,22.3627585 9.5246087,23.5558551 9.52395652,24.7489518 L9.52395652,25.1453446 C9.66547826,25.0330224 9.74373913,24.9735962 9.81808696,24.9102517 C11.4478696,23.5218973 13.0802609,22.135502 14.7028696,20.7399642 C14.9278696,20.5466656 15.1561304,20.4669952 15.450913,20.4669952 C20.4146087,20.4735255 25.3789565,20.4709134 30.3426522,20.4709134 L30.7065652,20.4709134 L30.7065652,1.39116245 Z M8.4746087,21.5229543 L7.54656522,21.5229543 L0.729391304,21.5229543 C0.163304348,21.5229543 0.000260869565,21.3603483 0.000260869565,20.7967783 L0.000260869565,1.04766555 C0.000260869565,0.481483395 0.162652174,0.318877447 0.726130435,0.318877447 L31.0391739,0.318877447 C31.6046087,0.318877447 31.7689565,0.481483395 31.7689565,1.04374734 L31.7689565,20.7935131 C31.7689565,21.3577362 31.6046087,21.5229543 31.0424348,21.5229543 C25.9346087,21.5236073 20.8274348,21.5216482 15.7202609,21.5327498 C15.5343913,21.5334029 15.3113478,21.6189506 15.1678696,21.7391092 C13.2706957,23.3403533 11.3800435,24.9500869 9.49982609,26.5722281 C9.2546087,26.7831587 8.99308696,26.8164636 8.73743478,26.7302628 C8.4693913,26.6407969 8.472,26.3612975 8.47265217,26.1092257 C8.47656522,24.5967944 8.4746087,23.0850162 8.4746087,21.5229543 L8.4746087,21.5229543 Z" id="Fill-1"></path>
                        </g>
                        <path d="M15.8846739,15.4943877 L7.58184783,15.4943877 C7.48271739,15.4943877 7.38358696,15.4950408 7.28445652,15.4924286 C6.91141304,15.4832861 6.68771739,15.2906405 6.68380435,14.9765302 C6.6798913,14.6467471 6.9048913,14.4443059 7.29880435,14.4429999 C8.23597826,14.4384286 9.17315217,14.4410408 10.1109783,14.4410408 C14.8516304,14.4410408 19.5929348,14.4416938 24.3342391,14.4423468 C24.378587,14.4423468 24.4229348,14.4410408 24.4666304,14.4416938 C24.8553261,14.4475711 25.0881522,14.6487062 25.0842391,14.9752242 C25.0809783,15.2899875 24.8572826,15.4865513 24.4848913,15.4917756 C24.1431522,15.4969999 23.801413,15.4943877 23.4596739,15.4943877 L15.8846739,15.4943877" id="Fill-4"></path>
                        <path d="M15.8829783,11.3348753 C13.058413,11.3348753 10.2338478,11.3348753 7.40993478,11.3342223 C7.31080435,11.3342223 7.20906522,11.3400996 7.11254348,11.3224677 C6.85232609,11.2761021 6.70297826,11.1121901 6.68732609,10.8483636 C6.67102174,10.5851901 6.79884783,10.4003809 7.0518913,10.3259348 C7.16602174,10.29263 7.29123913,10.2900178 7.4118913,10.2900178 C13.0714565,10.2887118 18.7316739,10.2893648 24.3912391,10.2900178 C24.4577609,10.2900178 24.5242826,10.2867527 24.5895,10.2945891 C24.8881957,10.3305061 25.0851522,10.5394776 25.0845,10.8170178 C25.0845,11.110231 24.8771087,11.3263859 24.5549348,11.3303041 C23.7938478,11.3400996 23.0321087,11.3361814 22.2710217,11.3361814 C20.1416739,11.3368344 18.0123261,11.3361814 15.8829783,11.3361814 L15.8829783,11.3348753 Z" id="Fill-6"></path>
                        <path d="M13.1990217,5.95653668 C15.161413,5.95653668 17.1238043,5.95849579 19.0861957,5.95457757 C19.3751087,5.95392454 19.6190217,6.01922813 19.7155435,6.32158377 C19.8342391,6.69316121 19.5766304,7.00335328 19.1448913,7.00596543 C18.1861957,7.01118971 17.2268478,7.00857757 16.2675,7.00857757 C13.3020652,7.00792454 10.3366304,7.00792454 7.37119565,7.0072715 C7.29423913,7.0072715 7.21467391,7.01510793 7.14032609,7.00074114 C6.85532609,6.94588612 6.68576087,6.77544374 6.68706522,6.47831239 C6.68836957,6.180528 6.86315217,6.01400384 7.1475,5.96306704 C7.24336957,5.9460881 7.3451087,5.95653668 7.44423913,5.95653668 L13.1990217,5.95653668" id="Fill-8"></path>
                    </g>
                    <g id="Page-1-Copy-2" transform="translate(52.173913, 78.364312)" fill="#FFFFFF">
                        <g id="Group-3" transform="translate(0.000000, 0.334289)">
                            <path d="M30.7065652,1.39116245 L1.07243478,1.39116245 L1.07243478,20.4715664 L1.51982609,20.4715664 L8.83330435,20.4715664 C9.34721739,20.4715664 9.5246087,20.6491922 9.5246087,21.1696618 C9.52591304,22.3627585 9.5246087,23.5558551 9.52395652,24.7489518 L9.52395652,25.1453446 C9.66547826,25.0330224 9.74373913,24.9735962 9.81808696,24.9102517 C11.4478696,23.5218973 13.0802609,22.135502 14.7028696,20.7399642 C14.9278696,20.5466656 15.1561304,20.4669952 15.450913,20.4669952 C20.4146087,20.4735255 25.3789565,20.4709134 30.3426522,20.4709134 L30.7065652,20.4709134 L30.7065652,1.39116245 Z M8.4746087,21.5229543 L7.54656522,21.5229543 L0.729391304,21.5229543 C0.163304348,21.5229543 0.000260869565,21.3603483 0.000260869565,20.7967783 L0.000260869565,1.04766555 C0.000260869565,0.481483395 0.162652174,0.318877447 0.726130435,0.318877447 L31.0391739,0.318877447 C31.6046087,0.318877447 31.7689565,0.481483395 31.7689565,1.04374734 L31.7689565,20.7935131 C31.7689565,21.3577362 31.6046087,21.5229543 31.0424348,21.5229543 C25.9346087,21.5236073 20.8274348,21.5216482 15.7202609,21.5327498 C15.5343913,21.5334029 15.3113478,21.6189506 15.1678696,21.7391092 C13.2706957,23.3403533 11.3800435,24.9500869 9.49982609,26.5722281 C9.2546087,26.7831587 8.99308696,26.8164636 8.73743478,26.7302628 C8.4693913,26.6407969 8.472,26.3612975 8.47265217,26.1092257 C8.47656522,24.5967944 8.4746087,23.0850162 8.4746087,21.5229543 L8.4746087,21.5229543 Z" id="Fill-1"></path>
                        </g>
                        <path d="M15.8846739,15.4943877 L7.58184783,15.4943877 C7.48271739,15.4943877 7.38358696,15.4950408 7.28445652,15.4924286 C6.91141304,15.4832861 6.68771739,15.2906405 6.68380435,14.9765302 C6.6798913,14.6467471 6.9048913,14.4443059 7.29880435,14.4429999 C8.23597826,14.4384286 9.17315217,14.4410408 10.1109783,14.4410408 C14.8516304,14.4410408 19.5929348,14.4416938 24.3342391,14.4423468 C24.378587,14.4423468 24.4229348,14.4410408 24.4666304,14.4416938 C24.8553261,14.4475711 25.0881522,14.6487062 25.0842391,14.9752242 C25.0809783,15.2899875 24.8572826,15.4865513 24.4848913,15.4917756 C24.1431522,15.4969999 23.801413,15.4943877 23.4596739,15.4943877 L15.8846739,15.4943877" id="Fill-4"></path>
                        <path d="M15.8829783,11.3348753 C13.058413,11.3348753 10.2338478,11.3348753 7.40993478,11.3342223 C7.31080435,11.3342223 7.20906522,11.3400996 7.11254348,11.3224677 C6.85232609,11.2761021 6.70297826,11.1121901 6.68732609,10.8483636 C6.67102174,10.5851901 6.79884783,10.4003809 7.0518913,10.3259348 C7.16602174,10.29263 7.29123913,10.2900178 7.4118913,10.2900178 C13.0714565,10.2887118 18.7316739,10.2893648 24.3912391,10.2900178 C24.4577609,10.2900178 24.5242826,10.2867527 24.5895,10.2945891 C24.8881957,10.3305061 25.0851522,10.5394776 25.0845,10.8170178 C25.0845,11.110231 24.8771087,11.3263859 24.5549348,11.3303041 C23.7938478,11.3400996 23.0321087,11.3361814 22.2710217,11.3361814 C20.1416739,11.3368344 18.0123261,11.3361814 15.8829783,11.3361814 L15.8829783,11.3348753 Z" id="Fill-6"></path>
                        <path d="M13.1990217,5.95653668 C15.161413,5.95653668 17.1238043,5.95849579 19.0861957,5.95457757 C19.3751087,5.95392454 19.6190217,6.01922813 19.7155435,6.32158377 C19.8342391,6.69316121 19.5766304,7.00335328 19.1448913,7.00596543 C18.1861957,7.01118971 17.2268478,7.00857757 16.2675,7.00857757 C13.3020652,7.00792454 10.3366304,7.00792454 7.37119565,7.0072715 C7.29423913,7.0072715 7.21467391,7.01510793 7.14032609,7.00074114 C6.85532609,6.94588612 6.68576087,6.77544374 6.68706522,6.47831239 C6.68836957,6.180528 6.86315217,6.01400384 7.1475,5.96306704 C7.24336957,5.9460881 7.3451087,5.95653668 7.44423913,5.95653668 L13.1990217,5.95653668" id="Fill-8"></path>
                    </g>
                    <g id="Page-1" transform="translate(56.739130, 39.835192)">
                        <g id="Group-3" transform="translate(0.000000, 0.406384)">
                            <mask id="mask-2" fill="white">
                                <use xlink:href="#path-1"></use>
                            </mask>
                            <g id="Clip-2"></g>
                            <path d="M4.23795652,17.1888201 L1.12186956,17.1888201 C0.934043478,17.1888201 0.746217391,17.1946974 0.559043478,17.186861 C0.208826086,17.1724942 0.0177391299,16.9759304 0.00143478208,16.6219849 C-0.00117391358,16.5560283 0.000782608163,16.4894186 0.000782608163,16.423462 L0.000782608163,1.04446568 C0.000782608163,0.386858488 0.140347826,0.247108798 0.79773913,0.247108798 C9.09534783,0.246455762 17.3923043,0.246455762 25.689913,0.247108798 C26.3257826,0.247108798 26.4731739,0.393388848 26.4731739,1.02226245 C26.4738261,3.78395143 26.4738261,6.54629343 26.4738261,9.3079824 C26.4738261,9.71743594 26.3296957,9.9348969 26.0329565,9.97799727 C25.6664348,10.0315462 25.4238261,9.78535167 25.4231739,9.34455242 C25.4218696,7.4997259 25.4231739,5.65489938 25.4231739,3.80941983 C25.4231739,3.09173333 25.4244783,2.3733938 25.4231739,1.65505428 C25.4225217,1.54795638 25.4133913,1.44020545 25.4068696,1.31351648 L1.07752174,1.31351648 L1.07752174,16.1361261 L1.37426087,16.1361261 C2.42230435,16.1367792 3.471,16.1374322 4.51904348,16.1374322 C5.14447826,16.1380853 5.28730435,16.2843653 5.28795652,16.9236875 L5.28795652,20.6695016 C5.41773913,20.5506491 5.50513043,20.477509 5.58469565,20.3971856 C6.90404348,19.0774 8.22534783,17.7602265 9.53752174,16.4339105 C9.74752174,16.2210208 9.96926087,16.1204533 10.2692609,16.132861 C10.7094783,16.151146 11.1516522,16.132861 11.5931739,16.1393913 C11.934913,16.1446156 12.1631739,16.352281 12.1716522,16.6487594 C12.1807826,16.9556862 11.9433913,17.1751063 11.5879565,17.188167 C11.5546957,17.1894731 11.5207826,17.1940444 11.4888261,17.188167 C10.5986087,17.0255611 9.9836087,17.4075871 9.37969565,18.0567048 C8.05708696,19.4783641 6.6483913,20.8203529 5.27686956,22.1969527 C5.07404348,22.4000468 4.86991304,22.5828969 4.55426087,22.4411881 C4.25947826,22.3099279 4.23534783,22.0545908 4.236,21.7757445 C4.24056522,20.3945735 4.23795652,19.0134025 4.23795652,17.6328845 L4.23795652,17.1888201" id="Fill-1" fill="#FFFFFF" mask="url(#mask-2)"></path>
                        </g>
                        <g id="Group-6" transform="translate(13.695652, 12.161031)">
                            <mask id="mask-4" fill="white">
                                <use xlink:href="#path-3"></use>
                            </mask>
                            <g id="Clip-5"></g>
                            <path d="M1.13902174,10.747143 L1.59619565,10.747143 C4.03336957,10.747143 6.47119565,10.7412657 8.90836957,10.7569385 C9.11771739,10.7582446 9.38967391,10.8411802 9.52402174,10.9868072 C10.8942391,12.4698518 12.2429348,13.9731405 13.5948913,15.4738171 C13.6581522,15.5436919 13.698587,15.6338109 13.7494565,15.7147874 C13.781413,15.6932372 13.8133696,15.671687 13.8453261,15.6494838 L13.8453261,15.3647601 C13.8459783,14.1827651 13.8466304,13.00077 13.8466304,11.819428 C13.8466304,10.7758766 13.8753261,10.747143 14.9233696,10.747143 L17.0038043,10.747143 L17.0038043,1.2121653 L1.13902174,1.2121653 L1.13902174,10.747143 Z M14.8966304,11.7991839 L14.8966304,12.1883933 C14.8966304,13.7680872 14.8946739,15.3471281 14.8998913,16.9268221 C14.9005435,17.2246064 14.8516304,17.4832087 14.5379348,17.598143 C14.2327174,17.7098121 14.0422826,17.5269621 13.856413,17.3219088 C12.2559783,15.5547936 10.6503261,13.7915965 9.05315217,12.0212161 C8.90771739,11.8599162 8.76293478,11.7933066 8.5451087,11.7939596 C5.96380435,11.801143 3.3825,11.7985309 0.801195652,11.7978778 C0.238369565,11.7978778 0.0759782609,11.6352719 0.0759782609,11.0690897 L0.0759782609,0.862791078 C0.0766304348,0.312281784 0.242282609,0.140533333 0.775108696,0.140533333 C6.29054348,0.139880297 11.8059783,0.139880297 17.321413,0.140533333 C17.9266304,0.140533333 18.0740217,0.292690706 18.0740217,0.909156629 C18.0746739,4.28927063 18.0746739,7.6687316 18.0740217,11.0488456 C18.0740217,11.6385371 17.9175,11.7978778 17.3344565,11.7991839 C16.5401087,11.80049 15.746413,11.7991839 14.8966304,11.7991839 L14.8966304,11.7991839 Z" id="Fill-4" fill="#FFFFFF" mask="url(#mask-4)"></path>
                        </g>
                    </g>
                    <g id="Page-1-Copy-3" transform="translate(104.347826, 81.629492)">
                        <g id="Group-3" transform="translate(0.000000, 0.406384)">
                            <mask id="mask-6" fill="white">
                                <use xlink:href="#path-5"></use>
                            </mask>
                            <g id="Clip-2"></g>
                            <path d="M4.23795652,17.1888201 L1.12186956,17.1888201 C0.934043478,17.1888201 0.746217391,17.1946974 0.559043478,17.186861 C0.208826086,17.1724942 0.0177391299,16.9759304 0.00143478208,16.6219849 C-0.00117391358,16.5560283 0.000782608163,16.4894186 0.000782608163,16.423462 L0.000782608163,1.04446568 C0.000782608163,0.386858488 0.140347826,0.247108798 0.79773913,0.247108798 C9.09534783,0.246455762 17.3923043,0.246455762 25.689913,0.247108798 C26.3257826,0.247108798 26.4731739,0.393388848 26.4731739,1.02226245 C26.4738261,3.78395143 26.4738261,6.54629343 26.4738261,9.3079824 C26.4738261,9.71743594 26.3296957,9.9348969 26.0329565,9.97799727 C25.6664348,10.0315462 25.4238261,9.78535167 25.4231739,9.34455242 C25.4218696,7.4997259 25.4231739,5.65489938 25.4231739,3.80941983 C25.4231739,3.09173333 25.4244783,2.3733938 25.4231739,1.65505428 C25.4225217,1.54795638 25.4133913,1.44020545 25.4068696,1.31351648 L1.07752174,1.31351648 L1.07752174,16.1361261 L1.37426087,16.1361261 C2.42230435,16.1367792 3.471,16.1374322 4.51904348,16.1374322 C5.14447826,16.1380853 5.28730435,16.2843653 5.28795652,16.9236875 L5.28795652,20.6695016 C5.41773913,20.5506491 5.50513043,20.477509 5.58469565,20.3971856 C6.90404348,19.0774 8.22534783,17.7602265 9.53752174,16.4339105 C9.74752174,16.2210208 9.96926087,16.1204533 10.2692609,16.132861 C10.7094783,16.151146 11.1516522,16.132861 11.5931739,16.1393913 C11.934913,16.1446156 12.1631739,16.352281 12.1716522,16.6487594 C12.1807826,16.9556862 11.9433913,17.1751063 11.5879565,17.188167 C11.5546957,17.1894731 11.5207826,17.1940444 11.4888261,17.188167 C10.5986087,17.0255611 9.9836087,17.4075871 9.37969565,18.0567048 C8.05708696,19.4783641 6.6483913,20.8203529 5.27686956,22.1969527 C5.07404348,22.4000468 4.86991304,22.5828969 4.55426087,22.4411881 C4.25947826,22.3099279 4.23534783,22.0545908 4.236,21.7757445 C4.24056522,20.3945735 4.23795652,19.0134025 4.23795652,17.6328845 L4.23795652,17.1888201" id="Fill-1" fill="#FFFFFF" mask="url(#mask-6)"></path>
                        </g>
                        <g id="Group-6" transform="translate(13.695652, 12.161031)">
                            <mask id="mask-8" fill="white">
                                <use xlink:href="#path-7"></use>
                            </mask>
                            <g id="Clip-5"></g>
                            <path d="M1.13902174,10.747143 L1.59619565,10.747143 C4.03336957,10.747143 6.47119565,10.7412657 8.90836957,10.7569385 C9.11771739,10.7582446 9.38967391,10.8411802 9.52402174,10.9868072 C10.8942391,12.4698518 12.2429348,13.9731405 13.5948913,15.4738171 C13.6581522,15.5436919 13.698587,15.6338109 13.7494565,15.7147874 C13.781413,15.6932372 13.8133696,15.671687 13.8453261,15.6494838 L13.8453261,15.3647601 C13.8459783,14.1827651 13.8466304,13.00077 13.8466304,11.819428 C13.8466304,10.7758766 13.8753261,10.747143 14.9233696,10.747143 L17.0038043,10.747143 L17.0038043,1.2121653 L1.13902174,1.2121653 L1.13902174,10.747143 Z M14.8966304,11.7991839 L14.8966304,12.1883933 C14.8966304,13.7680872 14.8946739,15.3471281 14.8998913,16.9268221 C14.9005435,17.2246064 14.8516304,17.4832087 14.5379348,17.598143 C14.2327174,17.7098121 14.0422826,17.5269621 13.856413,17.3219088 C12.2559783,15.5547936 10.6503261,13.7915965 9.05315217,12.0212161 C8.90771739,11.8599162 8.76293478,11.7933066 8.5451087,11.7939596 C5.96380435,11.801143 3.3825,11.7985309 0.801195652,11.7978778 C0.238369565,11.7978778 0.0759782609,11.6352719 0.0759782609,11.0690897 L0.0759782609,0.862791078 C0.0766304348,0.312281784 0.242282609,0.140533333 0.775108696,0.140533333 C6.29054348,0.139880297 11.8059783,0.139880297 17.321413,0.140533333 C17.9266304,0.140533333 18.0740217,0.292690706 18.0740217,0.909156629 C18.0746739,4.28927063 18.0746739,7.6687316 18.0740217,11.0488456 C18.0740217,11.6385371 17.9175,11.7978778 17.3344565,11.7991839 C16.5401087,11.80049 15.746413,11.7991839 14.8966304,11.7991839 L14.8966304,11.7991839 Z" id="Fill-4" fill="#FFFFFF" mask="url(#mask-8)"></path>
                        </g>
                    </g>
                    <g id="Page-1" transform="translate(104.347826, 39.835192)" fill="#FFFFFF">
                        <g id="Group-3" transform="translate(0.000000, 0.507409)">
                            <path d="M4.2296087,24.5107243 C4.36982609,24.4095037 4.45004348,24.3546487 4.527,24.2952224 C6.14178261,23.0472708 7.752,21.7914827 9.37786957,20.5578978 C9.57156522,20.4116177 9.85330435,20.3097441 10.0939565,20.3090911 C16.658087,20.2960304 23.2222174,20.2986425 29.7863478,20.2986425 C30.4502609,20.2979895 30.7183043,20.0504888 30.7189565,19.4229213 C30.7202609,13.6781642 30.720913,7.9340601 30.7176522,2.18995601 C30.7176522,1.38737485 30.5154783,1.19668835 29.7165652,1.19668835 C25.568087,1.19668835 21.4202609,1.19734139 17.2724348,1.19734139 C12.1646087,1.19734139 7.05678261,1.19668835 1.94895652,1.19734139 C1.29417391,1.19734139 1.0796087,1.40631289 1.05352174,2.06457311 C1.04895652,2.18538476 1.05091304,2.30750248 1.05091304,2.42896716 L1.05091304,7.16804895 C1.05091304,11.2442993 1.05026087,15.3205496 1.05091304,19.3967999 C1.05156522,20.0478767 1.302,20.2953773 1.95417391,20.2979895 C2.45113043,20.3006016 2.94743478,20.2992955 3.44373913,20.2986425 C4.08873913,20.2979895 4.23026087,20.4429634 4.2296087,21.1018767 C4.22895652,22.2146499 4.2296087,23.3280762 4.2296087,24.5107243 M3.17895652,21.3500304 C2.71786957,21.3500304 2.31026087,21.3532955 1.90265217,21.3487243 C0.876130435,21.3376227 0.00286956522,20.4697379 0.0022173913,19.4412063 C-0.00104347826,13.7179994 -0.00104347826,7.99479244 0.00286956522,2.2715855 C0.00352173913,1.15685316 0.608086957,0.351006815 1.55504348,0.177299257 C1.71613043,0.147912639 1.8843913,0.146606568 2.04873913,0.146606568 C11.273087,0.145300496 20.4974348,0.145300496 29.7217826,0.145953532 C30.9087391,0.145953532 31.6815652,0.875394672 31.763087,2.07371561 C31.7722174,2.20562887 31.7696087,2.3388482 31.7696087,2.4714145 L31.7696087,19.2433364 C31.7696087,20.5422249 30.9628696,21.3500304 29.667,21.3500304 C23.2228696,21.3500304 16.7793913,21.3487243 10.3352609,21.3572138 C10.1663478,21.3578668 9.96678261,21.4270886 9.83178261,21.5302683 C7.93917391,22.979355 6.05504348,24.4401964 4.17026087,25.8990787 C3.96286957,26.0597255 3.75873913,26.2040465 3.4796087,26.0662559 C3.207,25.9310774 3.17569565,25.6914133 3.177,25.4230155 C3.18091304,24.196614 3.17895652,22.9708656 3.17895652,21.7444641 L3.17895652,21.3500304" id="Fill-1"></path>
                        </g>
                        <path d="M20.7117391,10.7272907 C20.7084783,10.1297628 21.3052174,9.53092887 21.8993478,9.53419405 C22.4745652,9.53811227 23.0752174,10.1278037 23.0902174,10.7031284 C23.1045652,11.2810652 22.4947826,11.9060206 21.9071739,11.9151631 C21.318913,11.9249586 20.715,11.3248186 20.7117391,10.7272907" id="Fill-4"></path>
                        <path d="M12.3948261,10.7244173 C12.3948261,11.317374 11.7889565,11.9214322 11.2000435,11.9155549 C10.6143913,11.9096776 10.0046087,11.2873343 10.0156957,10.7067854 C10.0267826,10.1327668 10.6300435,9.53589195 11.2013478,9.53393284 C11.7961304,9.53132069 12.3948261,10.1281955 12.3948261,10.7244173" id="Fill-6"></path>
                        <path d="M17.7402391,10.737674 C17.7317609,11.3299776 17.1167609,11.9288115 16.5298043,11.9157508 C15.9402391,11.9026901 15.3441522,11.2783877 15.3611087,10.6932675 C15.377413,10.1166368 15.9839348,9.52890446 16.5571957,9.53412875 C17.1526304,9.54000607 17.7487174,10.1460234 17.7402391,10.737674" id="Fill-8"></path>
                    </g>
                    <g id="Page-1-Copy-5" transform="translate(0.000000, 81.629492)" fill="#FFFFFF">
                        <g id="Group-3" transform="translate(0.000000, 0.507409)">
                            <path d="M4.2296087,24.5107243 C4.36982609,24.4095037 4.45004348,24.3546487 4.527,24.2952224 C6.14178261,23.0472708 7.752,21.7914827 9.37786957,20.5578978 C9.57156522,20.4116177 9.85330435,20.3097441 10.0939565,20.3090911 C16.658087,20.2960304 23.2222174,20.2986425 29.7863478,20.2986425 C30.4502609,20.2979895 30.7183043,20.0504888 30.7189565,19.4229213 C30.7202609,13.6781642 30.720913,7.9340601 30.7176522,2.18995601 C30.7176522,1.38737485 30.5154783,1.19668835 29.7165652,1.19668835 C25.568087,1.19668835 21.4202609,1.19734139 17.2724348,1.19734139 C12.1646087,1.19734139 7.05678261,1.19668835 1.94895652,1.19734139 C1.29417391,1.19734139 1.0796087,1.40631289 1.05352174,2.06457311 C1.04895652,2.18538476 1.05091304,2.30750248 1.05091304,2.42896716 L1.05091304,7.16804895 C1.05091304,11.2442993 1.05026087,15.3205496 1.05091304,19.3967999 C1.05156522,20.0478767 1.302,20.2953773 1.95417391,20.2979895 C2.45113043,20.3006016 2.94743478,20.2992955 3.44373913,20.2986425 C4.08873913,20.2979895 4.23026087,20.4429634 4.2296087,21.1018767 C4.22895652,22.2146499 4.2296087,23.3280762 4.2296087,24.5107243 M3.17895652,21.3500304 C2.71786957,21.3500304 2.31026087,21.3532955 1.90265217,21.3487243 C0.876130435,21.3376227 0.00286956522,20.4697379 0.0022173913,19.4412063 C-0.00104347826,13.7179994 -0.00104347826,7.99479244 0.00286956522,2.2715855 C0.00352173913,1.15685316 0.608086957,0.351006815 1.55504348,0.177299257 C1.71613043,0.147912639 1.8843913,0.146606568 2.04873913,0.146606568 C11.273087,0.145300496 20.4974348,0.145300496 29.7217826,0.145953532 C30.9087391,0.145953532 31.6815652,0.875394672 31.763087,2.07371561 C31.7722174,2.20562887 31.7696087,2.3388482 31.7696087,2.4714145 L31.7696087,19.2433364 C31.7696087,20.5422249 30.9628696,21.3500304 29.667,21.3500304 C23.2228696,21.3500304 16.7793913,21.3487243 10.3352609,21.3572138 C10.1663478,21.3578668 9.96678261,21.4270886 9.83178261,21.5302683 C7.93917391,22.979355 6.05504348,24.4401964 4.17026087,25.8990787 C3.96286957,26.0597255 3.75873913,26.2040465 3.4796087,26.0662559 C3.207,25.9310774 3.17569565,25.6914133 3.177,25.4230155 C3.18091304,24.196614 3.17895652,22.9708656 3.17895652,21.7444641 L3.17895652,21.3500304" id="Fill-1"></path>
                        </g>
                        <path d="M20.7117391,10.7272907 C20.7084783,10.1297628 21.3052174,9.53092887 21.8993478,9.53419405 C22.4745652,9.53811227 23.0752174,10.1278037 23.0902174,10.7031284 C23.1045652,11.2810652 22.4947826,11.9060206 21.9071739,11.9151631 C21.318913,11.9249586 20.715,11.3248186 20.7117391,10.7272907" id="Fill-4"></path>
                        <path d="M12.3948261,10.7244173 C12.3948261,11.317374 11.7889565,11.9214322 11.2000435,11.9155549 C10.6143913,11.9096776 10.0046087,11.2873343 10.0156957,10.7067854 C10.0267826,10.1327668 10.6300435,9.53589195 11.2013478,9.53393284 C11.7961304,9.53132069 12.3948261,10.1281955 12.3948261,10.7244173" id="Fill-6"></path>
                        <path d="M17.7402391,10.737674 C17.7317609,11.3299776 17.1167609,11.9288115 16.5298043,11.9157508 C15.9402391,11.9026901 15.3441522,11.2783877 15.3611087,10.6932675 C15.377413,10.1166368 15.9839348,9.52890446 16.5571957,9.53412875 C17.1526304,9.54000607 17.7487174,10.1460234 17.7402391,10.737674" id="Fill-8"></path>
                    </g>
                    <g id="Page-1-Copy-4" transform="translate(72.391304, 114.934325)" fill="#FFFFFF">
                        <g id="Group-3" transform="translate(0.000000, 0.507409)">
                            <path d="M4.2296087,24.5107243 C4.36982609,24.4095037 4.45004348,24.3546487 4.527,24.2952224 C6.14178261,23.0472708 7.752,21.7914827 9.37786957,20.5578978 C9.57156522,20.4116177 9.85330435,20.3097441 10.0939565,20.3090911 C16.658087,20.2960304 23.2222174,20.2986425 29.7863478,20.2986425 C30.4502609,20.2979895 30.7183043,20.0504888 30.7189565,19.4229213 C30.7202609,13.6781642 30.720913,7.9340601 30.7176522,2.18995601 C30.7176522,1.38737485 30.5154783,1.19668835 29.7165652,1.19668835 C25.568087,1.19668835 21.4202609,1.19734139 17.2724348,1.19734139 C12.1646087,1.19734139 7.05678261,1.19668835 1.94895652,1.19734139 C1.29417391,1.19734139 1.0796087,1.40631289 1.05352174,2.06457311 C1.04895652,2.18538476 1.05091304,2.30750248 1.05091304,2.42896716 L1.05091304,7.16804895 C1.05091304,11.2442993 1.05026087,15.3205496 1.05091304,19.3967999 C1.05156522,20.0478767 1.302,20.2953773 1.95417391,20.2979895 C2.45113043,20.3006016 2.94743478,20.2992955 3.44373913,20.2986425 C4.08873913,20.2979895 4.23026087,20.4429634 4.2296087,21.1018767 C4.22895652,22.2146499 4.2296087,23.3280762 4.2296087,24.5107243 M3.17895652,21.3500304 C2.71786957,21.3500304 2.31026087,21.3532955 1.90265217,21.3487243 C0.876130435,21.3376227 0.00286956522,20.4697379 0.0022173913,19.4412063 C-0.00104347826,13.7179994 -0.00104347826,7.99479244 0.00286956522,2.2715855 C0.00352173913,1.15685316 0.608086957,0.351006815 1.55504348,0.177299257 C1.71613043,0.147912639 1.8843913,0.146606568 2.04873913,0.146606568 C11.273087,0.145300496 20.4974348,0.145300496 29.7217826,0.145953532 C30.9087391,0.145953532 31.6815652,0.875394672 31.763087,2.07371561 C31.7722174,2.20562887 31.7696087,2.3388482 31.7696087,2.4714145 L31.7696087,19.2433364 C31.7696087,20.5422249 30.9628696,21.3500304 29.667,21.3500304 C23.2228696,21.3500304 16.7793913,21.3487243 10.3352609,21.3572138 C10.1663478,21.3578668 9.96678261,21.4270886 9.83178261,21.5302683 C7.93917391,22.979355 6.05504348,24.4401964 4.17026087,25.8990787 C3.96286957,26.0597255 3.75873913,26.2040465 3.4796087,26.0662559 C3.207,25.9310774 3.17569565,25.6914133 3.177,25.4230155 C3.18091304,24.196614 3.17895652,22.9708656 3.17895652,21.7444641 L3.17895652,21.3500304" id="Fill-1"></path>
                        </g>
                        <path d="M20.7117391,10.7272907 C20.7084783,10.1297628 21.3052174,9.53092887 21.8993478,9.53419405 C22.4745652,9.53811227 23.0752174,10.1278037 23.0902174,10.7031284 C23.1045652,11.2810652 22.4947826,11.9060206 21.9071739,11.9151631 C21.318913,11.9249586 20.715,11.3248186 20.7117391,10.7272907" id="Fill-4"></path>
                        <path d="M12.3948261,10.7244173 C12.3948261,11.317374 11.7889565,11.9214322 11.2000435,11.9155549 C10.6143913,11.9096776 10.0046087,11.2873343 10.0156957,10.7067854 C10.0267826,10.1327668 10.6300435,9.53589195 11.2013478,9.53393284 C11.7961304,9.53132069 12.3948261,10.1281955 12.3948261,10.7244173" id="Fill-6"></path>
                        <path d="M17.7402391,10.737674 C17.7317609,11.3299776 17.1167609,11.9288115 16.5298043,11.9157508 C15.9402391,11.9026901 15.3441522,11.2783877 15.3611087,10.6932675 C15.377413,10.1166368 15.9839348,9.52890446 16.5571957,9.53412875 C17.1526304,9.54000607 17.7487174,10.1460234 17.7402391,10.737674" id="Fill-8"></path>
                    </g>
                    <g id="Page-1" transform="translate(40.434783, 0.000000)" fill="#FFFFFF">
                        <g id="Group-3" transform="translate(11.739130, 12.331604)">
                            <path d="M17.7522391,17.3650092 C17.7678913,17.3447651 17.7835435,17.3245209 17.7985435,17.3049299 C17.3439783,16.4233314 16.889413,15.5417328 16.4355,14.6601343 C16.2209348,14.2434974 16.2555,14.0665247 16.6076739,13.7693933 C17.3759348,13.1222347 18.0463696,12.3882223 18.4370217,11.4511157 C19.4635435,8.9898233 19.0239783,6.72248253 17.3876739,4.69088773 C15.8107174,2.733086 13.6820217,1.72806369 11.2135435,1.48448129 C8.35832609,1.20236976 5.78028261,1.92201537 3.63658696,3.89679603 C1.4655,5.89769814 0.763108696,8.66918265 1.75767391,11.3198555 C2.57941304,13.510138 4.16158696,14.9938357 6.28506522,15.8924131 C8.57680435,16.8621715 10.8920217,16.8451926 13.2072391,15.9283301 C13.4348478,15.8382112 13.7335435,15.7859683 13.956587,15.8551901 C14.5018043,16.0230203 15.0202826,16.2750922 15.5518043,16.4886349 C16.2841957,16.7831542 17.0185435,17.0731021 17.7522391,17.3650092 M10.8202826,0.377585378 C13.8450652,0.514722924 16.8802826,1.93572912 18.8987609,5.13952342 C20.7731087,8.11410211 20.2807174,11.691433 17.7398478,14.1494602 C17.5370217,14.346024 17.5096304,14.4805494 17.6420217,14.7287031 C18.2231087,15.8186201 18.7787609,16.9215978 19.3507174,18.016086 C19.4876739,18.2786064 19.5737609,18.5313314 19.341587,18.7768729 C19.1231087,19.0080476 18.8759348,18.9525395 18.6111522,18.8454416 C17.069413,18.2224454 15.5270217,17.6001021 13.9768043,16.999309 C13.7955,16.9294342 13.5405,16.9307403 13.3585435,16.9999621 C8.78223913,18.7383437 3.25115217,16.6225073 1.0781087,12.2896139 C-0.337108696,9.46849864 0.142891304,6.28298934 2.35441304,3.81320743 C4.30245652,1.63859777 7.14984783,0.382156629 10.8202826,0.377585378" id="Fill-1"></path>
                        </g>
                        <path d="M23.8150435,9.78247831 L22.7396087,9.78247831 C22.6711304,9.27245725 22.6391739,8.76504833 22.5315652,8.27527137 C22.0196087,5.94262701 20.6383043,4.22383643 18.6700435,2.95629368 C16.313087,1.43733209 13.6991739,0.90445477 10.9313478,1.08142751 C8.64091304,1.22770756 6.51352174,1.89249814 4.63591304,3.2455886 C2.84308696,4.53794672 1.56091304,6.20971871 1.182,8.42677571 C0.679826087,11.3615192 1.542,13.8567695 3.79917391,15.8354684 C4.30982609,16.2834511 4.32873913,16.3670397 4.00526087,16.9502007 C3.42221739,18.0009356 2.83917391,19.0523234 2.21569565,20.1755452 C2.38982609,20.116119 2.49808696,20.0828141 2.60308696,20.0423259 C4.24852174,19.4101871 5.89526087,18.7819665 7.53678261,18.1400322 C7.80873913,18.0342404 8.04743478,18.0237918 8.33047826,18.1152169 C8.9043913,18.3013321 9.4946087,18.4378166 10.107,18.6023817 C10.0613478,18.9230223 10.0137391,19.2560706 9.96091304,19.6309133 C9.38569565,19.4859393 8.84569565,19.3298637 8.29656522,19.2201537 C8.07352174,19.1757472 7.80808696,19.171829 7.60004348,19.2508463 C5.55873913,20.0201227 3.52591304,20.8102962 1.49178261,21.5965514 C1.197,21.7108327 0.902869565,21.842746 0.645913043,21.5377782 C0.388304348,21.2315043 0.579391304,20.9611475 0.730043478,20.6888315 C1.43765217,19.4160644 2.13678261,18.1387261 2.85613043,16.8724895 C2.98721739,16.6406617 2.98395652,16.5133197 2.78243478,16.319368 C0.875478261,14.4817249 -0.0584347829,12.2209145 0.00286956491,9.58003717 C0.0589565214,7.15400867 1.11091304,5.15114746 2.83134783,3.49766047 C5.01743478,1.39684387 7.67373913,0.319987608 10.6691739,0.0574671617 C13.5413478,-0.193951674 16.2478696,0.373536555 18.7346087,1.84743866 C21.0146087,3.19987608 22.7083043,5.06168154 23.4413478,7.66990706 C23.6304783,8.34057497 23.6891739,9.04781289 23.8150435,9.78247831" id="Fill-4"></path>
                    </g>
                    <g id="Page-1-Copy-6" transform="translate(24.782609, 114.934325)" fill="#FFFFFF">
                        <g id="Group-3" transform="translate(11.739130, 12.331604)">
                            <path d="M17.7522391,17.3650092 C17.7678913,17.3447651 17.7835435,17.3245209 17.7985435,17.3049299 C17.3439783,16.4233314 16.889413,15.5417328 16.4355,14.6601343 C16.2209348,14.2434974 16.2555,14.0665247 16.6076739,13.7693933 C17.3759348,13.1222347 18.0463696,12.3882223 18.4370217,11.4511157 C19.4635435,8.9898233 19.0239783,6.72248253 17.3876739,4.69088773 C15.8107174,2.733086 13.6820217,1.72806369 11.2135435,1.48448129 C8.35832609,1.20236976 5.78028261,1.92201537 3.63658696,3.89679603 C1.4655,5.89769814 0.763108696,8.66918265 1.75767391,11.3198555 C2.57941304,13.510138 4.16158696,14.9938357 6.28506522,15.8924131 C8.57680435,16.8621715 10.8920217,16.8451926 13.2072391,15.9283301 C13.4348478,15.8382112 13.7335435,15.7859683 13.956587,15.8551901 C14.5018043,16.0230203 15.0202826,16.2750922 15.5518043,16.4886349 C16.2841957,16.7831542 17.0185435,17.0731021 17.7522391,17.3650092 M10.8202826,0.377585378 C13.8450652,0.514722924 16.8802826,1.93572912 18.8987609,5.13952342 C20.7731087,8.11410211 20.2807174,11.691433 17.7398478,14.1494602 C17.5370217,14.346024 17.5096304,14.4805494 17.6420217,14.7287031 C18.2231087,15.8186201 18.7787609,16.9215978 19.3507174,18.016086 C19.4876739,18.2786064 19.5737609,18.5313314 19.341587,18.7768729 C19.1231087,19.0080476 18.8759348,18.9525395 18.6111522,18.8454416 C17.069413,18.2224454 15.5270217,17.6001021 13.9768043,16.999309 C13.7955,16.9294342 13.5405,16.9307403 13.3585435,16.9999621 C8.78223913,18.7383437 3.25115217,16.6225073 1.0781087,12.2896139 C-0.337108696,9.46849864 0.142891304,6.28298934 2.35441304,3.81320743 C4.30245652,1.63859777 7.14984783,0.382156629 10.8202826,0.377585378" id="Fill-1"></path>
                        </g>
                        <path d="M23.8150435,9.78247831 L22.7396087,9.78247831 C22.6711304,9.27245725 22.6391739,8.76504833 22.5315652,8.27527137 C22.0196087,5.94262701 20.6383043,4.22383643 18.6700435,2.95629368 C16.313087,1.43733209 13.6991739,0.90445477 10.9313478,1.08142751 C8.64091304,1.22770756 6.51352174,1.89249814 4.63591304,3.2455886 C2.84308696,4.53794672 1.56091304,6.20971871 1.182,8.42677571 C0.679826087,11.3615192 1.542,13.8567695 3.79917391,15.8354684 C4.30982609,16.2834511 4.32873913,16.3670397 4.00526087,16.9502007 C3.42221739,18.0009356 2.83917391,19.0523234 2.21569565,20.1755452 C2.38982609,20.116119 2.49808696,20.0828141 2.60308696,20.0423259 C4.24852174,19.4101871 5.89526087,18.7819665 7.53678261,18.1400322 C7.80873913,18.0342404 8.04743478,18.0237918 8.33047826,18.1152169 C8.9043913,18.3013321 9.4946087,18.4378166 10.107,18.6023817 C10.0613478,18.9230223 10.0137391,19.2560706 9.96091304,19.6309133 C9.38569565,19.4859393 8.84569565,19.3298637 8.29656522,19.2201537 C8.07352174,19.1757472 7.80808696,19.171829 7.60004348,19.2508463 C5.55873913,20.0201227 3.52591304,20.8102962 1.49178261,21.5965514 C1.197,21.7108327 0.902869565,21.842746 0.645913043,21.5377782 C0.388304348,21.2315043 0.579391304,20.9611475 0.730043478,20.6888315 C1.43765217,19.4160644 2.13678261,18.1387261 2.85613043,16.8724895 C2.98721739,16.6406617 2.98395652,16.5133197 2.78243478,16.319368 C0.875478261,14.4817249 -0.0584347829,12.2209145 0.00286956491,9.58003717 C0.0589565214,7.15400867 1.11091304,5.15114746 2.83134783,3.49766047 C5.01743478,1.39684387 7.67373913,0.319987608 10.6691739,0.0574671617 C13.5413478,-0.193951674 16.2478696,0.373536555 18.7346087,1.84743866 C21.0146087,3.19987608 22.7083043,5.06168154 23.4413478,7.66990706 C23.6304783,8.34057497 23.6891739,9.04781289 23.8150435,9.78247831" id="Fill-4"></path>
                    </g>
                </g>
            </g>
        </g>
    </g>
</svg>